G75*
%MOIN*%
%OFA0B0*%
%FSLAX25Y25*%
%IPPOS*%
%LPD*%
%AMOC8*
5,1,8,0,0,1.08239X$1,22.5*
%
%ADD10R,0.05118X0.05906*%
%ADD11R,0.05906X0.05118*%
%ADD12C,0.14236*%
%ADD13R,0.06800X0.06800*%
%ADD14C,0.06800*%
%ADD15C,0.06800*%
%ADD16C,0.07000*%
%ADD17OC8,0.05550*%
%ADD18C,0.05550*%
%ADD19C,0.08600*%
%ADD20R,0.05550X0.05550*%
%ADD21OC8,0.06600*%
%ADD22C,0.01600*%
%ADD23C,0.00800*%
%ADD24C,0.04000*%
%ADD25C,0.01000*%
%ADD26C,0.04362*%
D10*
X0162638Y0055508D03*
X0170118Y0055508D03*
X0170118Y0064508D03*
X0162638Y0064508D03*
X0162638Y0073508D03*
X0170118Y0073508D03*
X0127331Y0147185D03*
X0119850Y0147185D03*
X0119850Y0155787D03*
X0127331Y0155787D03*
X0136661Y0155610D03*
X0144142Y0155610D03*
X0144142Y0164783D03*
X0136661Y0164783D03*
X0155264Y0164783D03*
X0162744Y0164783D03*
X0171898Y0164783D03*
X0179378Y0164783D03*
X0179378Y0155610D03*
X0171898Y0155610D03*
X0162744Y0155610D03*
X0155264Y0155610D03*
X0153197Y0193720D03*
X0160677Y0193720D03*
X0160677Y0202815D03*
X0153197Y0202815D03*
X0144043Y0202815D03*
X0136563Y0202815D03*
X0136563Y0193720D03*
X0144043Y0193720D03*
X0125441Y0193720D03*
X0117961Y0193720D03*
X0117961Y0202815D03*
X0125441Y0202815D03*
X0108630Y0203051D03*
X0101150Y0203051D03*
X0100657Y0212146D03*
X0108138Y0212146D03*
D11*
X0247705Y0232520D03*
X0247705Y0240000D03*
X0275539Y0029409D03*
X0275539Y0021929D03*
D12*
X0280972Y0217618D03*
X0296720Y0217618D03*
X0280972Y0237303D03*
X0265224Y0217618D03*
X0265224Y0256988D03*
X0280972Y0262500D03*
X0296720Y0256988D03*
D13*
X0240520Y0182283D03*
X0240520Y0139429D03*
D14*
X0240520Y0129429D03*
X0240520Y0119429D03*
X0240520Y0109429D03*
X0270520Y0109429D03*
X0270520Y0119429D03*
X0270520Y0129429D03*
X0270520Y0139429D03*
X0270520Y0152283D03*
X0270520Y0162283D03*
X0270520Y0172283D03*
X0270520Y0182283D03*
X0240520Y0172283D03*
X0240520Y0162283D03*
X0240520Y0152283D03*
D15*
X0172542Y0247953D02*
X0165742Y0247953D01*
X0165742Y0257953D02*
X0172542Y0257953D01*
X0172542Y0267953D02*
X0165742Y0267953D01*
D16*
X0167181Y0096634D03*
X0167437Y0088209D03*
X0157437Y0088209D03*
X0157181Y0096634D03*
X0147181Y0096634D03*
X0147437Y0088209D03*
X0137437Y0088209D03*
X0137181Y0096634D03*
X0127181Y0096634D03*
X0127437Y0088209D03*
X0117437Y0088209D03*
X0117181Y0096634D03*
X0107181Y0096634D03*
X0107437Y0088209D03*
X0097437Y0088209D03*
X0087437Y0088209D03*
X0087181Y0096634D03*
X0077181Y0096634D03*
X0077437Y0088209D03*
X0067437Y0088209D03*
X0067181Y0096634D03*
X0057181Y0096634D03*
X0057437Y0088209D03*
X0047437Y0088209D03*
X0047181Y0096634D03*
X0037181Y0096634D03*
X0037437Y0088209D03*
X0027437Y0088209D03*
X0027181Y0096634D03*
X0097181Y0096634D03*
X0097437Y0028209D03*
X0087437Y0028209D03*
X0087575Y0019724D03*
X0097575Y0019724D03*
X0107575Y0019724D03*
X0107437Y0028209D03*
X0117437Y0028209D03*
X0117575Y0019724D03*
X0127575Y0019724D03*
X0127437Y0028209D03*
X0137437Y0028209D03*
X0137575Y0019724D03*
X0147575Y0019724D03*
X0147437Y0028209D03*
X0157437Y0028209D03*
X0167437Y0028209D03*
X0167575Y0019724D03*
X0157575Y0019724D03*
X0077575Y0019724D03*
X0077437Y0028209D03*
X0067437Y0028209D03*
X0067575Y0019724D03*
X0057575Y0019724D03*
X0057437Y0028209D03*
X0047437Y0028209D03*
X0047575Y0019724D03*
X0037575Y0019724D03*
X0037437Y0028209D03*
X0027437Y0028209D03*
X0027575Y0019724D03*
D17*
X0310972Y0021004D03*
D18*
X0310972Y0031004D03*
X0310972Y0041004D03*
X0310972Y0051004D03*
X0298925Y0077421D03*
X0288925Y0077421D03*
X0278925Y0077421D03*
X0268925Y0077421D03*
X0302819Y0090813D03*
X0312819Y0090813D03*
X0322819Y0090813D03*
X0332819Y0090813D03*
X0322819Y0100813D03*
X0312819Y0100813D03*
X0229772Y0079311D03*
X0221898Y0079311D03*
X0214024Y0079311D03*
X0147035Y0010000D03*
X0137035Y0010000D03*
X0127035Y0010000D03*
X0117035Y0010000D03*
X0107035Y0010000D03*
D19*
X0058512Y0051881D02*
X0058512Y0060481D01*
X0051001Y0075079D02*
X0042401Y0075079D01*
X0034890Y0060481D02*
X0034890Y0051881D01*
D20*
X0237646Y0079311D03*
X0258925Y0077421D03*
X0302819Y0100813D03*
X0332819Y0100813D03*
D21*
X0198378Y0093008D03*
X0188378Y0093008D03*
X0188378Y0058508D03*
X0198378Y0058508D03*
X0198378Y0025508D03*
X0188378Y0025508D03*
D22*
X0018359Y0006752D02*
X0017770Y0006508D01*
X0104059Y0006508D01*
X0104055Y0006511D01*
X0103546Y0007020D01*
X0103123Y0007602D01*
X0102796Y0008244D01*
X0102573Y0008929D01*
X0102461Y0009640D01*
X0102461Y0010000D01*
X0107035Y0010000D01*
X0107035Y0010000D01*
X0102461Y0010000D01*
X0102461Y0010360D01*
X0102573Y0011071D01*
X0102796Y0011756D01*
X0103123Y0012398D01*
X0103203Y0012508D01*
X0094501Y0012508D01*
X0093618Y0012873D01*
X0091218Y0015273D01*
X0091060Y0015432D01*
X0090690Y0015062D01*
X0088669Y0014224D01*
X0086481Y0014224D01*
X0084459Y0015062D01*
X0082912Y0016609D01*
X0082575Y0017423D01*
X0082237Y0016609D01*
X0080690Y0015062D01*
X0078669Y0014224D01*
X0076481Y0014224D01*
X0076062Y0014398D01*
X0075213Y0013548D01*
X0074537Y0012873D01*
X0073655Y0012508D01*
X0054501Y0012508D01*
X0053618Y0012873D01*
X0051218Y0015273D01*
X0051060Y0015432D01*
X0050690Y0015062D01*
X0048669Y0014224D01*
X0046481Y0014224D01*
X0044459Y0015062D01*
X0042912Y0016609D01*
X0042575Y0017423D01*
X0042237Y0016609D01*
X0040690Y0015062D01*
X0038669Y0014224D01*
X0036481Y0014224D01*
X0034459Y0015062D01*
X0032912Y0016609D01*
X0032575Y0017423D01*
X0032237Y0016609D01*
X0030690Y0015062D01*
X0028669Y0014224D01*
X0026481Y0014224D01*
X0024459Y0015062D01*
X0022912Y0016609D01*
X0022075Y0018630D01*
X0022075Y0020818D01*
X0022912Y0022840D01*
X0023970Y0023898D01*
X0022774Y0025093D01*
X0021937Y0027115D01*
X0021937Y0029303D01*
X0022774Y0031324D01*
X0024322Y0032871D01*
X0026343Y0033709D01*
X0028531Y0033709D01*
X0030552Y0032871D01*
X0032100Y0031324D01*
X0032437Y0030510D01*
X0032774Y0031324D01*
X0034322Y0032871D01*
X0036343Y0033709D01*
X0038531Y0033709D01*
X0040552Y0032871D01*
X0042100Y0031324D01*
X0042437Y0030510D01*
X0042774Y0031324D01*
X0044322Y0032871D01*
X0045664Y0033427D01*
X0035384Y0043708D01*
X0031901Y0043708D01*
X0031018Y0044073D01*
X0019018Y0056073D01*
X0018343Y0056748D01*
X0017978Y0057630D01*
X0017978Y0240830D01*
X0017978Y0241785D01*
X0018343Y0242667D01*
X0053144Y0277469D01*
X0007378Y0277469D01*
X0007378Y0019245D01*
X0008956Y0020823D01*
X0012007Y0022087D01*
X0015308Y0022087D01*
X0018359Y0020823D01*
X0020693Y0018489D01*
X0021957Y0015438D01*
X0021957Y0012137D01*
X0020693Y0009086D01*
X0018359Y0006752D01*
X0019312Y0007705D02*
X0103070Y0007705D01*
X0102514Y0009303D02*
X0020783Y0009303D01*
X0021445Y0010902D02*
X0102546Y0010902D01*
X0103197Y0012500D02*
X0021957Y0012500D01*
X0021957Y0014099D02*
X0052393Y0014099D01*
X0043824Y0015697D02*
X0041326Y0015697D01*
X0042522Y0017296D02*
X0042628Y0017296D01*
X0033824Y0015697D02*
X0031326Y0015697D01*
X0032522Y0017296D02*
X0032628Y0017296D01*
X0023824Y0015697D02*
X0021849Y0015697D01*
X0021187Y0017296D02*
X0022628Y0017296D01*
X0022075Y0018894D02*
X0020287Y0018894D01*
X0018689Y0020493D02*
X0022075Y0020493D01*
X0022602Y0022091D02*
X0007378Y0022091D01*
X0007378Y0020493D02*
X0008626Y0020493D01*
X0007378Y0023690D02*
X0023762Y0023690D01*
X0022693Y0025289D02*
X0007378Y0025289D01*
X0007378Y0026887D02*
X0022031Y0026887D01*
X0021937Y0028486D02*
X0007378Y0028486D01*
X0007378Y0030084D02*
X0022261Y0030084D01*
X0023133Y0031683D02*
X0007378Y0031683D01*
X0007378Y0033281D02*
X0025311Y0033281D01*
X0029563Y0033281D02*
X0035311Y0033281D01*
X0033133Y0031683D02*
X0031741Y0031683D01*
X0039563Y0033281D02*
X0045311Y0033281D01*
X0044212Y0034880D02*
X0007378Y0034880D01*
X0007378Y0036478D02*
X0042614Y0036478D01*
X0041015Y0038077D02*
X0007378Y0038077D01*
X0007378Y0039675D02*
X0039417Y0039675D01*
X0037818Y0041274D02*
X0007378Y0041274D01*
X0007378Y0042872D02*
X0036220Y0042872D01*
X0039811Y0046069D02*
X0049978Y0046069D01*
X0049978Y0044471D02*
X0041409Y0044471D01*
X0043008Y0042872D02*
X0049978Y0042872D01*
X0049978Y0041274D02*
X0044606Y0041274D01*
X0046205Y0039675D02*
X0049978Y0039675D01*
X0049978Y0038077D02*
X0047803Y0038077D01*
X0049402Y0036478D02*
X0049978Y0036478D01*
X0049978Y0035902D02*
X0038741Y0047139D01*
X0038864Y0047228D01*
X0039543Y0047907D01*
X0040107Y0048684D01*
X0040543Y0049540D01*
X0040840Y0050453D01*
X0040990Y0051401D01*
X0040990Y0056181D01*
X0034890Y0056181D01*
X0034890Y0056181D01*
X0040990Y0056181D01*
X0040990Y0058902D01*
X0049978Y0049914D01*
X0049978Y0035902D01*
X0054778Y0036478D02*
X0065178Y0036478D01*
X0065178Y0034880D02*
X0054778Y0034880D01*
X0054778Y0034302D02*
X0054778Y0046705D01*
X0054943Y0046540D01*
X0057259Y0045581D01*
X0059765Y0045581D01*
X0062080Y0046540D01*
X0063853Y0048312D01*
X0064812Y0050628D01*
X0064812Y0061734D01*
X0063853Y0064050D01*
X0062080Y0065822D01*
X0059765Y0066781D01*
X0057259Y0066781D01*
X0054943Y0065822D01*
X0053171Y0064050D01*
X0052212Y0061734D01*
X0052212Y0054468D01*
X0024378Y0082302D01*
X0024378Y0083523D01*
X0026343Y0082709D01*
X0028531Y0082709D01*
X0028992Y0082900D01*
X0032618Y0079273D01*
X0033501Y0078908D01*
X0037643Y0078908D01*
X0037184Y0078276D01*
X0036748Y0077420D01*
X0036451Y0076507D01*
X0036301Y0075559D01*
X0036301Y0075079D01*
X0046701Y0075079D01*
X0057101Y0075079D01*
X0057101Y0075559D01*
X0056951Y0076507D01*
X0056654Y0077420D01*
X0056218Y0078276D01*
X0055759Y0078908D01*
X0064984Y0078908D01*
X0079911Y0063981D01*
X0079712Y0063899D01*
X0078587Y0062774D01*
X0077978Y0061304D01*
X0077978Y0059902D01*
X0065543Y0047467D01*
X0065178Y0046585D01*
X0065178Y0033226D01*
X0064322Y0032871D01*
X0062774Y0031324D01*
X0062437Y0030510D01*
X0062100Y0031324D01*
X0060552Y0032871D01*
X0058531Y0033709D01*
X0056343Y0033709D01*
X0055656Y0033424D01*
X0054778Y0034302D01*
X0054778Y0038077D02*
X0065178Y0038077D01*
X0065178Y0039675D02*
X0054778Y0039675D01*
X0054778Y0041274D02*
X0065178Y0041274D01*
X0065178Y0042872D02*
X0054778Y0042872D01*
X0054778Y0044471D02*
X0065178Y0044471D01*
X0065178Y0046069D02*
X0060943Y0046069D01*
X0063208Y0047668D02*
X0065744Y0047668D01*
X0064248Y0049266D02*
X0067342Y0049266D01*
X0068941Y0050865D02*
X0064812Y0050865D01*
X0064812Y0052463D02*
X0070539Y0052463D01*
X0072138Y0054062D02*
X0064812Y0054062D01*
X0064812Y0055660D02*
X0073736Y0055660D01*
X0075335Y0057259D02*
X0064812Y0057259D01*
X0064812Y0058857D02*
X0076933Y0058857D01*
X0077978Y0060456D02*
X0064812Y0060456D01*
X0064679Y0062054D02*
X0078289Y0062054D01*
X0079466Y0063653D02*
X0064017Y0063653D01*
X0062651Y0065251D02*
X0078640Y0065251D01*
X0077042Y0066850D02*
X0039830Y0066850D01*
X0038232Y0068448D02*
X0075443Y0068448D01*
X0073845Y0070047D02*
X0054453Y0070047D01*
X0054198Y0069862D02*
X0054975Y0070426D01*
X0055654Y0071105D01*
X0056218Y0071882D01*
X0056654Y0072737D01*
X0056951Y0073650D01*
X0057101Y0074599D01*
X0057101Y0075079D01*
X0046701Y0075079D01*
X0046701Y0075079D01*
X0046701Y0075079D01*
X0046701Y0068979D01*
X0051481Y0068979D01*
X0052429Y0069129D01*
X0053342Y0069426D01*
X0054198Y0069862D01*
X0056046Y0071645D02*
X0072246Y0071645D01*
X0070648Y0073244D02*
X0056819Y0073244D01*
X0057101Y0074842D02*
X0069049Y0074842D01*
X0067451Y0076441D02*
X0056961Y0076441D01*
X0056338Y0078039D02*
X0065852Y0078039D01*
X0057437Y0088209D02*
X0057181Y0088209D01*
X0057181Y0096634D01*
X0057181Y0274811D01*
X0058378Y0276008D01*
X0167878Y0276008D01*
X0169378Y0274508D01*
X0169378Y0268189D01*
X0169142Y0267953D01*
X0172178Y0273353D02*
X0172178Y0275065D01*
X0171912Y0275708D01*
X0264184Y0275708D01*
X0272945Y0266947D01*
X0271854Y0264314D01*
X0271854Y0262970D01*
X0271117Y0263708D01*
X0270190Y0264419D01*
X0269177Y0265004D01*
X0268097Y0265451D01*
X0266968Y0265754D01*
X0266024Y0265878D01*
X0266024Y0257788D01*
X0264424Y0257788D01*
X0264424Y0256188D01*
X0256335Y0256188D01*
X0256459Y0255245D01*
X0256761Y0254115D01*
X0257209Y0253035D01*
X0257793Y0252023D01*
X0258505Y0251095D01*
X0259332Y0250269D01*
X0260259Y0249557D01*
X0261272Y0248973D01*
X0262352Y0248525D01*
X0263481Y0248223D01*
X0264424Y0248098D01*
X0264424Y0256188D01*
X0266024Y0256188D01*
X0266024Y0248098D01*
X0266968Y0248223D01*
X0268097Y0248525D01*
X0268978Y0248890D01*
X0268978Y0242408D01*
X0252657Y0242408D01*
X0252657Y0243387D01*
X0251486Y0244559D01*
X0243924Y0244559D01*
X0242752Y0243387D01*
X0242752Y0236613D01*
X0243105Y0236260D01*
X0242752Y0235907D01*
X0242752Y0231908D01*
X0237901Y0231908D01*
X0237018Y0231542D01*
X0236343Y0230867D01*
X0186843Y0181367D01*
X0186478Y0180485D01*
X0186478Y0179408D01*
X0165901Y0179408D01*
X0165018Y0179042D01*
X0156843Y0170867D01*
X0156478Y0169985D01*
X0156478Y0169736D01*
X0151876Y0169736D01*
X0150705Y0168565D01*
X0150705Y0167583D01*
X0148701Y0167583D01*
X0148701Y0168565D01*
X0147529Y0169736D01*
X0140754Y0169736D01*
X0140243Y0169225D01*
X0139915Y0169414D01*
X0139457Y0169536D01*
X0137141Y0169536D01*
X0137141Y0165263D01*
X0136182Y0165263D01*
X0136182Y0169536D01*
X0134074Y0169536D01*
X0133769Y0170274D01*
X0132778Y0171265D01*
X0132778Y0189165D01*
X0133176Y0188768D01*
X0139950Y0188768D01*
X0140303Y0189120D01*
X0140656Y0188768D01*
X0147431Y0188768D01*
X0148602Y0189939D01*
X0148602Y0190920D01*
X0148638Y0190920D01*
X0148638Y0189939D01*
X0149809Y0188768D01*
X0156584Y0188768D01*
X0156937Y0189120D01*
X0157290Y0188768D01*
X0164065Y0188768D01*
X0165236Y0189939D01*
X0165236Y0197502D01*
X0164470Y0198268D01*
X0165236Y0199034D01*
X0165236Y0201608D01*
X0166121Y0201608D01*
X0167112Y0200617D01*
X0168582Y0200008D01*
X0170174Y0200008D01*
X0171644Y0200617D01*
X0172769Y0201742D01*
X0173378Y0203212D01*
X0173378Y0204804D01*
X0172769Y0206274D01*
X0171644Y0207399D01*
X0170174Y0208008D01*
X0168582Y0208008D01*
X0167112Y0207399D01*
X0166121Y0206408D01*
X0165236Y0206408D01*
X0165236Y0206596D01*
X0164065Y0207768D01*
X0157290Y0207768D01*
X0156778Y0207256D01*
X0156451Y0207445D01*
X0155993Y0207568D01*
X0153676Y0207568D01*
X0153676Y0203295D01*
X0152717Y0203295D01*
X0152717Y0207568D01*
X0150401Y0207568D01*
X0149943Y0207445D01*
X0149533Y0207208D01*
X0149197Y0206873D01*
X0148960Y0206462D01*
X0148838Y0206005D01*
X0148838Y0203294D01*
X0152717Y0203294D01*
X0152717Y0202335D01*
X0148838Y0202335D01*
X0148838Y0199625D01*
X0148960Y0199167D01*
X0149197Y0198757D01*
X0149533Y0198422D01*
X0149549Y0198413D01*
X0148638Y0197502D01*
X0148638Y0196520D01*
X0148602Y0196520D01*
X0148602Y0197502D01*
X0147836Y0198268D01*
X0148602Y0199034D01*
X0148602Y0206596D01*
X0147431Y0207768D01*
X0140656Y0207768D01*
X0140144Y0207256D01*
X0139817Y0207445D01*
X0139359Y0207568D01*
X0137043Y0207568D01*
X0137043Y0203295D01*
X0136083Y0203295D01*
X0136083Y0207568D01*
X0133767Y0207568D01*
X0133309Y0207445D01*
X0132899Y0207208D01*
X0132564Y0206873D01*
X0132327Y0206462D01*
X0132204Y0206005D01*
X0132204Y0203294D01*
X0136083Y0203294D01*
X0136083Y0202335D01*
X0132204Y0202335D01*
X0132204Y0199625D01*
X0132327Y0199167D01*
X0132564Y0198757D01*
X0132899Y0198422D01*
X0132915Y0198413D01*
X0132004Y0197502D01*
X0132004Y0196520D01*
X0130000Y0196520D01*
X0130000Y0197502D01*
X0129089Y0198413D01*
X0129105Y0198422D01*
X0129440Y0198757D01*
X0129677Y0199167D01*
X0129800Y0199625D01*
X0129800Y0202335D01*
X0125921Y0202335D01*
X0125921Y0203294D01*
X0129800Y0203294D01*
X0129800Y0206005D01*
X0129677Y0206462D01*
X0129440Y0206873D01*
X0129105Y0207208D01*
X0128695Y0207445D01*
X0128237Y0207568D01*
X0125920Y0207568D01*
X0125920Y0203295D01*
X0124961Y0203295D01*
X0124961Y0207568D01*
X0122645Y0207568D01*
X0122187Y0207445D01*
X0121860Y0207256D01*
X0121348Y0207768D01*
X0114573Y0207768D01*
X0113402Y0206596D01*
X0113402Y0205851D01*
X0113189Y0205851D01*
X0113189Y0206832D01*
X0112177Y0207844D01*
X0112697Y0208364D01*
X0112697Y0215927D01*
X0111525Y0217098D01*
X0104750Y0217098D01*
X0104398Y0216746D01*
X0104045Y0217098D01*
X0097270Y0217098D01*
X0096098Y0215927D01*
X0096098Y0208364D01*
X0097111Y0207352D01*
X0096591Y0206832D01*
X0096591Y0199270D01*
X0097762Y0198098D01*
X0102893Y0198098D01*
X0105378Y0195614D01*
X0105378Y0194212D01*
X0105987Y0192742D01*
X0107112Y0191617D01*
X0108582Y0191008D01*
X0110174Y0191008D01*
X0111478Y0191548D01*
X0111478Y0187765D01*
X0110487Y0186774D01*
X0109878Y0185304D01*
X0109878Y0183712D01*
X0110487Y0182242D01*
X0111612Y0181117D01*
X0113082Y0180508D01*
X0114674Y0180508D01*
X0116144Y0181117D01*
X0117269Y0182242D01*
X0117878Y0183712D01*
X0117878Y0185304D01*
X0117269Y0186774D01*
X0116278Y0187765D01*
X0116278Y0188968D01*
X0117481Y0188968D01*
X0117481Y0193241D01*
X0118440Y0193241D01*
X0118440Y0188968D01*
X0120757Y0188968D01*
X0121214Y0189090D01*
X0121542Y0189279D01*
X0122053Y0188768D01*
X0127978Y0188768D01*
X0127978Y0171265D01*
X0126987Y0170274D01*
X0126378Y0168804D01*
X0126378Y0167212D01*
X0126848Y0166077D01*
X0126774Y0166108D01*
X0125182Y0166108D01*
X0123712Y0165499D01*
X0122587Y0164374D01*
X0121978Y0162904D01*
X0121978Y0161502D01*
X0121216Y0160740D01*
X0116463Y0160740D01*
X0115291Y0159569D01*
X0115291Y0152006D01*
X0115811Y0151486D01*
X0115291Y0150966D01*
X0115291Y0146015D01*
X0071018Y0101742D01*
X0070435Y0101159D01*
X0070297Y0101297D01*
X0068275Y0102134D01*
X0066087Y0102134D01*
X0064066Y0101297D01*
X0062518Y0099749D01*
X0062181Y0098935D01*
X0061844Y0099749D01*
X0060297Y0101297D01*
X0059981Y0101427D01*
X0059981Y0273208D01*
X0164318Y0273208D01*
X0162683Y0272531D01*
X0161164Y0271012D01*
X0160342Y0269027D01*
X0160342Y0266879D01*
X0161164Y0264894D01*
X0162683Y0263375D01*
X0163702Y0262953D01*
X0162683Y0262531D01*
X0161164Y0261012D01*
X0160342Y0259027D01*
X0160342Y0256879D01*
X0161164Y0254894D01*
X0162683Y0253375D01*
X0163966Y0252843D01*
X0163746Y0252772D01*
X0163016Y0252400D01*
X0162354Y0251919D01*
X0161775Y0251340D01*
X0161294Y0250678D01*
X0160923Y0249949D01*
X0160670Y0249170D01*
X0160542Y0248362D01*
X0160542Y0248253D01*
X0168842Y0248253D01*
X0168842Y0247653D01*
X0169442Y0247653D01*
X0169442Y0248253D01*
X0177742Y0248253D01*
X0177742Y0248362D01*
X0177614Y0249170D01*
X0177361Y0249949D01*
X0176989Y0250678D01*
X0176508Y0251340D01*
X0175929Y0251919D01*
X0175267Y0252400D01*
X0174538Y0252772D01*
X0174317Y0252843D01*
X0175601Y0253375D01*
X0177120Y0254894D01*
X0177942Y0256879D01*
X0177942Y0259027D01*
X0177120Y0261012D01*
X0175601Y0262531D01*
X0174582Y0262953D01*
X0175601Y0263375D01*
X0177120Y0264894D01*
X0177942Y0266879D01*
X0177942Y0269027D01*
X0177120Y0271012D01*
X0175601Y0272531D01*
X0173616Y0273353D01*
X0172178Y0273353D01*
X0172178Y0274656D02*
X0265235Y0274656D01*
X0266834Y0273058D02*
X0174328Y0273058D01*
X0176672Y0271459D02*
X0268432Y0271459D01*
X0270031Y0269861D02*
X0177596Y0269861D01*
X0177942Y0268262D02*
X0271629Y0268262D01*
X0272828Y0266664D02*
X0177853Y0266664D01*
X0177191Y0265065D02*
X0261420Y0265065D01*
X0261272Y0265004D02*
X0260259Y0264419D01*
X0259332Y0263708D01*
X0258505Y0262881D01*
X0257793Y0261953D01*
X0257209Y0260941D01*
X0256761Y0259861D01*
X0256459Y0258732D01*
X0256335Y0257788D01*
X0264424Y0257788D01*
X0264424Y0265878D01*
X0263481Y0265754D01*
X0262352Y0265451D01*
X0261272Y0265004D01*
X0259091Y0263467D02*
X0175692Y0263467D01*
X0176263Y0261868D02*
X0257744Y0261868D01*
X0256931Y0260270D02*
X0177427Y0260270D01*
X0177942Y0258671D02*
X0256451Y0258671D01*
X0256429Y0255474D02*
X0177360Y0255474D01*
X0177942Y0257073D02*
X0264424Y0257073D01*
X0265224Y0256988D02*
X0184024Y0256988D01*
X0175638Y0248602D01*
X0175638Y0246634D01*
X0173669Y0244665D01*
X0172378Y0244665D01*
X0171701Y0244665D01*
X0173669Y0244665D02*
X0173669Y0215138D01*
X0153197Y0215138D01*
X0136563Y0215138D01*
X0136563Y0202815D01*
X0125441Y0202815D01*
X0117961Y0193720D01*
X0118440Y0193132D02*
X0117481Y0193132D01*
X0117481Y0191534D02*
X0118440Y0191534D01*
X0118440Y0189935D02*
X0117481Y0189935D01*
X0116278Y0188337D02*
X0127978Y0188337D01*
X0127978Y0186738D02*
X0117284Y0186738D01*
X0117878Y0185140D02*
X0127978Y0185140D01*
X0127978Y0183541D02*
X0117807Y0183541D01*
X0116970Y0181943D02*
X0127978Y0181943D01*
X0127978Y0180344D02*
X0059981Y0180344D01*
X0059981Y0178746D02*
X0127978Y0178746D01*
X0127978Y0177147D02*
X0059981Y0177147D01*
X0059981Y0175549D02*
X0127978Y0175549D01*
X0127978Y0173950D02*
X0059981Y0173950D01*
X0059981Y0172352D02*
X0127978Y0172352D01*
X0127466Y0170753D02*
X0059981Y0170753D01*
X0059981Y0169155D02*
X0126523Y0169155D01*
X0126378Y0167556D02*
X0059981Y0167556D01*
X0059981Y0165958D02*
X0124819Y0165958D01*
X0122581Y0164359D02*
X0059981Y0164359D01*
X0059981Y0162760D02*
X0121978Y0162760D01*
X0121638Y0161162D02*
X0059981Y0161162D01*
X0059981Y0159563D02*
X0115291Y0159563D01*
X0115291Y0157965D02*
X0059981Y0157965D01*
X0059981Y0156366D02*
X0115291Y0156366D01*
X0115291Y0154768D02*
X0059981Y0154768D01*
X0059981Y0153169D02*
X0115291Y0153169D01*
X0115727Y0151571D02*
X0059981Y0151571D01*
X0059981Y0149972D02*
X0115291Y0149972D01*
X0115291Y0148374D02*
X0059981Y0148374D01*
X0059981Y0146775D02*
X0115291Y0146775D01*
X0114453Y0145177D02*
X0059981Y0145177D01*
X0059981Y0143578D02*
X0112854Y0143578D01*
X0111256Y0141980D02*
X0059981Y0141980D01*
X0059981Y0140381D02*
X0109657Y0140381D01*
X0108059Y0138783D02*
X0059981Y0138783D01*
X0059981Y0137184D02*
X0106460Y0137184D01*
X0104862Y0135586D02*
X0059981Y0135586D01*
X0059981Y0133987D02*
X0103263Y0133987D01*
X0101665Y0132389D02*
X0059981Y0132389D01*
X0059981Y0130790D02*
X0100066Y0130790D01*
X0098468Y0129192D02*
X0059981Y0129192D01*
X0059981Y0127593D02*
X0096869Y0127593D01*
X0095271Y0125995D02*
X0059981Y0125995D01*
X0059981Y0124396D02*
X0093672Y0124396D01*
X0092074Y0122798D02*
X0059981Y0122798D01*
X0059981Y0121199D02*
X0090475Y0121199D01*
X0088877Y0119601D02*
X0059981Y0119601D01*
X0059981Y0118002D02*
X0087278Y0118002D01*
X0085680Y0116404D02*
X0059981Y0116404D01*
X0059981Y0114805D02*
X0084081Y0114805D01*
X0082483Y0113207D02*
X0059981Y0113207D01*
X0059981Y0111608D02*
X0080884Y0111608D01*
X0079286Y0110010D02*
X0059981Y0110010D01*
X0059981Y0108411D02*
X0077687Y0108411D01*
X0076089Y0106813D02*
X0059981Y0106813D01*
X0059981Y0105214D02*
X0074490Y0105214D01*
X0072892Y0103616D02*
X0059981Y0103616D01*
X0059981Y0102017D02*
X0065805Y0102017D01*
X0068557Y0102017D02*
X0071293Y0102017D01*
X0078198Y0102134D02*
X0118296Y0142232D01*
X0123238Y0142232D01*
X0123591Y0142585D01*
X0123943Y0142232D01*
X0130718Y0142232D01*
X0131890Y0143404D01*
X0131890Y0150966D01*
X0131370Y0151486D01*
X0131890Y0152006D01*
X0131890Y0152987D01*
X0132102Y0152987D01*
X0132102Y0151829D01*
X0133274Y0150657D01*
X0138334Y0150657D01*
X0147378Y0141614D01*
X0147378Y0140212D01*
X0147987Y0138742D01*
X0149112Y0137617D01*
X0150582Y0137008D01*
X0152174Y0137008D01*
X0153644Y0137617D01*
X0154769Y0138742D01*
X0155378Y0140212D01*
X0155378Y0141804D01*
X0154769Y0143274D01*
X0153644Y0144399D01*
X0152174Y0145008D01*
X0150772Y0145008D01*
X0144922Y0150857D01*
X0146938Y0150857D01*
X0147396Y0150980D01*
X0147806Y0151217D01*
X0148141Y0151552D01*
X0148378Y0151963D01*
X0148501Y0152420D01*
X0148501Y0155131D01*
X0144621Y0155131D01*
X0144621Y0156090D01*
X0143662Y0156090D01*
X0143662Y0159831D01*
X0144621Y0159831D01*
X0144621Y0156090D01*
X0148501Y0156090D01*
X0148501Y0158800D01*
X0148378Y0159258D01*
X0148141Y0159668D01*
X0147806Y0160003D01*
X0147740Y0160041D01*
X0148701Y0161002D01*
X0148701Y0161983D01*
X0150705Y0161983D01*
X0150705Y0161002D01*
X0151666Y0160041D01*
X0151599Y0160003D01*
X0151264Y0159668D01*
X0151027Y0159258D01*
X0150905Y0158800D01*
X0150905Y0156090D01*
X0154784Y0156090D01*
X0154784Y0155131D01*
X0150905Y0155131D01*
X0150905Y0152420D01*
X0151027Y0151963D01*
X0151264Y0151552D01*
X0151599Y0151217D01*
X0152010Y0150980D01*
X0152468Y0150857D01*
X0154784Y0150857D01*
X0154784Y0155131D01*
X0155743Y0155131D01*
X0155743Y0150857D01*
X0158060Y0150857D01*
X0158518Y0150980D01*
X0158845Y0151169D01*
X0159357Y0150657D01*
X0166132Y0150657D01*
X0167303Y0151829D01*
X0167303Y0159391D01*
X0166498Y0160197D01*
X0167303Y0161002D01*
X0167303Y0161983D01*
X0167339Y0161983D01*
X0167339Y0161002D01*
X0168299Y0160041D01*
X0168233Y0160003D01*
X0167898Y0159668D01*
X0167661Y0159258D01*
X0167539Y0158800D01*
X0167539Y0156090D01*
X0171418Y0156090D01*
X0171418Y0155131D01*
X0167539Y0155131D01*
X0167539Y0152420D01*
X0167661Y0151963D01*
X0167898Y0151552D01*
X0168233Y0151217D01*
X0168644Y0150980D01*
X0169102Y0150857D01*
X0171418Y0150857D01*
X0171418Y0155131D01*
X0172377Y0155131D01*
X0172377Y0150857D01*
X0174694Y0150857D01*
X0175151Y0150980D01*
X0175479Y0151169D01*
X0175990Y0150657D01*
X0182765Y0150657D01*
X0183937Y0151829D01*
X0183937Y0159391D01*
X0183132Y0160197D01*
X0183937Y0161002D01*
X0183937Y0165673D01*
X0239272Y0221008D01*
X0240674Y0221008D01*
X0242144Y0221617D01*
X0243269Y0222742D01*
X0243478Y0223247D01*
X0243478Y0187683D01*
X0236291Y0187683D01*
X0235120Y0186512D01*
X0235120Y0178055D01*
X0236291Y0176883D01*
X0237514Y0176883D01*
X0237461Y0176861D01*
X0235942Y0175342D01*
X0235120Y0173358D01*
X0235120Y0171209D01*
X0235942Y0169225D01*
X0237461Y0167706D01*
X0238480Y0167283D01*
X0237461Y0166861D01*
X0235942Y0165342D01*
X0235120Y0163358D01*
X0235120Y0161209D01*
X0235942Y0159225D01*
X0237461Y0157706D01*
X0238744Y0157174D01*
X0238524Y0157102D01*
X0237794Y0156731D01*
X0237132Y0156250D01*
X0236553Y0155671D01*
X0236072Y0155009D01*
X0235701Y0154280D01*
X0235448Y0153501D01*
X0235320Y0152693D01*
X0235320Y0152583D01*
X0240220Y0152583D01*
X0240220Y0151983D01*
X0240820Y0151983D01*
X0240820Y0147083D01*
X0240929Y0147083D01*
X0241737Y0147212D01*
X0242516Y0147464D01*
X0243245Y0147836D01*
X0243478Y0148005D01*
X0243478Y0144829D01*
X0236291Y0144829D01*
X0235120Y0143658D01*
X0235120Y0135201D01*
X0236291Y0134029D01*
X0237514Y0134029D01*
X0237461Y0134007D01*
X0235942Y0132488D01*
X0235120Y0130503D01*
X0235120Y0128355D01*
X0235942Y0126370D01*
X0237461Y0124851D01*
X0238480Y0124429D01*
X0237461Y0124007D01*
X0235942Y0122488D01*
X0235120Y0120503D01*
X0235120Y0118355D01*
X0235942Y0116370D01*
X0237461Y0114851D01*
X0238744Y0114320D01*
X0238524Y0114248D01*
X0237794Y0113877D01*
X0237132Y0113395D01*
X0236553Y0112817D01*
X0236072Y0112155D01*
X0235701Y0111425D01*
X0235448Y0110647D01*
X0235320Y0109838D01*
X0235320Y0109729D01*
X0240220Y0109729D01*
X0240220Y0109129D01*
X0240820Y0109129D01*
X0240820Y0109729D01*
X0245720Y0109729D01*
X0245720Y0109838D01*
X0245592Y0110647D01*
X0245339Y0111425D01*
X0244967Y0112155D01*
X0244486Y0112817D01*
X0243907Y0113395D01*
X0243245Y0113877D01*
X0242516Y0114248D01*
X0242295Y0114320D01*
X0243579Y0114851D01*
X0245098Y0116370D01*
X0245920Y0118355D01*
X0245920Y0120503D01*
X0245729Y0120964D01*
X0247913Y0123148D01*
X0248278Y0124030D01*
X0248278Y0225485D01*
X0247913Y0226367D01*
X0247237Y0227042D01*
X0246319Y0227961D01*
X0250031Y0227961D01*
X0256825Y0221167D01*
X0256106Y0219432D01*
X0256106Y0215804D01*
X0257494Y0212453D01*
X0260059Y0209888D01*
X0263411Y0208500D01*
X0267038Y0208500D01*
X0270389Y0209888D01*
X0272954Y0212453D01*
X0273098Y0212801D01*
X0273242Y0212453D01*
X0274978Y0210718D01*
X0274978Y0185462D01*
X0273579Y0186861D01*
X0271594Y0187683D01*
X0269446Y0187683D01*
X0267461Y0186861D01*
X0265942Y0185342D01*
X0265120Y0183358D01*
X0265120Y0181209D01*
X0265942Y0179225D01*
X0267461Y0177706D01*
X0268480Y0177283D01*
X0267461Y0176861D01*
X0265942Y0175342D01*
X0265120Y0173358D01*
X0265120Y0171209D01*
X0265942Y0169225D01*
X0267461Y0167706D01*
X0268480Y0167283D01*
X0267461Y0166861D01*
X0265942Y0165342D01*
X0265120Y0163358D01*
X0265120Y0161209D01*
X0265942Y0159225D01*
X0267461Y0157706D01*
X0268480Y0157283D01*
X0267461Y0156861D01*
X0265942Y0155342D01*
X0265120Y0153358D01*
X0265120Y0151209D01*
X0265942Y0149225D01*
X0267461Y0147706D01*
X0269446Y0146883D01*
X0271594Y0146883D01*
X0273478Y0147664D01*
X0273478Y0144049D01*
X0271594Y0144829D01*
X0269446Y0144829D01*
X0267461Y0144007D01*
X0265942Y0142488D01*
X0265120Y0140503D01*
X0265120Y0138355D01*
X0265942Y0136370D01*
X0267461Y0134851D01*
X0268480Y0134429D01*
X0267461Y0134007D01*
X0265942Y0132488D01*
X0265120Y0130503D01*
X0265120Y0128355D01*
X0265942Y0126370D01*
X0267461Y0124851D01*
X0268480Y0124429D01*
X0267461Y0124007D01*
X0265942Y0122488D01*
X0265120Y0120503D01*
X0265120Y0118355D01*
X0265942Y0116370D01*
X0267461Y0114851D01*
X0268480Y0114429D01*
X0267461Y0114007D01*
X0265942Y0112488D01*
X0265120Y0110503D01*
X0265120Y0108355D01*
X0265942Y0106370D01*
X0267461Y0104851D01*
X0269446Y0104029D01*
X0271594Y0104029D01*
X0273579Y0104851D01*
X0275098Y0106370D01*
X0275920Y0108355D01*
X0275920Y0110503D01*
X0275098Y0112488D01*
X0273579Y0114007D01*
X0272559Y0114429D01*
X0273579Y0114851D01*
X0275098Y0116370D01*
X0275920Y0118355D01*
X0275920Y0120503D01*
X0275098Y0122488D01*
X0273579Y0124007D01*
X0272559Y0124429D01*
X0273579Y0124851D01*
X0275098Y0126370D01*
X0275205Y0126629D01*
X0275349Y0126629D01*
X0275401Y0126608D01*
X0276355Y0126608D01*
X0276407Y0126629D01*
X0276849Y0126629D01*
X0276901Y0126608D01*
X0277855Y0126608D01*
X0277907Y0126629D01*
X0281106Y0126629D01*
X0281106Y0093922D01*
X0265899Y0093922D01*
X0265978Y0094112D01*
X0265978Y0095704D01*
X0265369Y0097174D01*
X0264244Y0098299D01*
X0262774Y0098908D01*
X0261182Y0098908D01*
X0259712Y0098299D01*
X0258721Y0097308D01*
X0206301Y0097308D01*
X0205418Y0096942D01*
X0203478Y0095002D01*
X0203478Y0095120D01*
X0200490Y0098108D01*
X0198378Y0098108D01*
X0198378Y0093008D01*
X0198378Y0093008D01*
X0198378Y0098108D01*
X0196265Y0098108D01*
X0194819Y0096661D01*
X0192013Y0099467D01*
X0191337Y0100142D01*
X0190455Y0100508D01*
X0183901Y0100508D01*
X0183018Y0100142D01*
X0172715Y0089839D01*
X0172100Y0091324D01*
X0170875Y0092549D01*
X0171844Y0093518D01*
X0172681Y0095540D01*
X0172681Y0097728D01*
X0171844Y0099749D01*
X0170297Y0101297D01*
X0168275Y0102134D01*
X0166087Y0102134D01*
X0164066Y0101297D01*
X0162518Y0099749D01*
X0162181Y0098935D01*
X0161844Y0099749D01*
X0160297Y0101297D01*
X0158275Y0102134D01*
X0156087Y0102134D01*
X0154066Y0101297D01*
X0152518Y0099749D01*
X0152181Y0098935D01*
X0151844Y0099749D01*
X0150297Y0101297D01*
X0148275Y0102134D01*
X0146087Y0102134D01*
X0144066Y0101297D01*
X0142518Y0099749D01*
X0142081Y0098692D01*
X0141714Y0099412D01*
X0141224Y0100087D01*
X0140634Y0100676D01*
X0139959Y0101167D01*
X0139216Y0101546D01*
X0138422Y0101803D01*
X0137598Y0101934D01*
X0137381Y0101934D01*
X0137381Y0096834D01*
X0136981Y0096834D01*
X0136981Y0101934D01*
X0136764Y0101934D01*
X0135940Y0101803D01*
X0135147Y0101546D01*
X0134403Y0101167D01*
X0133728Y0100676D01*
X0133138Y0100087D01*
X0132648Y0099412D01*
X0132282Y0098692D01*
X0131844Y0099749D01*
X0130297Y0101297D01*
X0128275Y0102134D01*
X0126087Y0102134D01*
X0124066Y0101297D01*
X0122518Y0099749D01*
X0122181Y0098935D01*
X0121844Y0099749D01*
X0120297Y0101297D01*
X0118275Y0102134D01*
X0116087Y0102134D01*
X0114066Y0101297D01*
X0112518Y0099749D01*
X0112181Y0098935D01*
X0111844Y0099749D01*
X0110297Y0101297D01*
X0108275Y0102134D01*
X0106087Y0102134D01*
X0104066Y0101297D01*
X0102518Y0099749D01*
X0102181Y0098935D01*
X0101844Y0099749D01*
X0100297Y0101297D01*
X0098275Y0102134D01*
X0096087Y0102134D01*
X0094066Y0101297D01*
X0092518Y0099749D01*
X0092181Y0098935D01*
X0091844Y0099749D01*
X0090297Y0101297D01*
X0088275Y0102134D01*
X0086087Y0102134D01*
X0084066Y0101297D01*
X0082518Y0099749D01*
X0082181Y0098935D01*
X0081844Y0099749D01*
X0080297Y0101297D01*
X0078275Y0102134D01*
X0078198Y0102134D01*
X0078557Y0102017D02*
X0085805Y0102017D01*
X0088557Y0102017D02*
X0095805Y0102017D01*
X0098557Y0102017D02*
X0105805Y0102017D01*
X0108557Y0102017D02*
X0115805Y0102017D01*
X0118557Y0102017D02*
X0125805Y0102017D01*
X0128557Y0102017D02*
X0145805Y0102017D01*
X0148557Y0102017D02*
X0155805Y0102017D01*
X0158557Y0102017D02*
X0165805Y0102017D01*
X0168557Y0102017D02*
X0281106Y0102017D01*
X0281106Y0100419D02*
X0190671Y0100419D01*
X0192660Y0098820D02*
X0260970Y0098820D01*
X0262986Y0098820D02*
X0281106Y0098820D01*
X0281106Y0097222D02*
X0265321Y0097222D01*
X0265978Y0095623D02*
X0281106Y0095623D01*
X0281106Y0094025D02*
X0265942Y0094025D01*
X0261725Y0088322D02*
X0284462Y0088322D01*
X0285492Y0088748D01*
X0286279Y0089536D01*
X0286705Y0090565D01*
X0286705Y0129986D01*
X0286279Y0131015D01*
X0285492Y0131803D01*
X0284462Y0132229D01*
X0279778Y0132229D01*
X0279778Y0208500D01*
X0282786Y0208500D01*
X0286137Y0209888D01*
X0288702Y0212453D01*
X0288846Y0212801D01*
X0288991Y0212453D01*
X0291555Y0209888D01*
X0294907Y0208500D01*
X0298534Y0208500D01*
X0301885Y0209888D01*
X0304450Y0212453D01*
X0305839Y0215804D01*
X0305839Y0219432D01*
X0304450Y0222783D01*
X0301885Y0225348D01*
X0298534Y0226736D01*
X0294907Y0226736D01*
X0291555Y0225348D01*
X0288991Y0222783D01*
X0288846Y0222435D01*
X0288702Y0222783D01*
X0286137Y0225348D01*
X0282786Y0226736D01*
X0279159Y0226736D01*
X0275807Y0225348D01*
X0273242Y0222783D01*
X0273098Y0222435D01*
X0272954Y0222783D01*
X0270389Y0225348D01*
X0267038Y0226736D01*
X0263411Y0226736D01*
X0260059Y0225348D01*
X0259746Y0225034D01*
X0252657Y0232122D01*
X0252657Y0235907D01*
X0252305Y0236260D01*
X0252657Y0236613D01*
X0252657Y0237608D01*
X0271854Y0237608D01*
X0271854Y0235489D01*
X0273242Y0232138D01*
X0275807Y0229573D01*
X0279159Y0228185D01*
X0282786Y0228185D01*
X0286137Y0229573D01*
X0288702Y0232138D01*
X0290091Y0235489D01*
X0290091Y0239117D01*
X0288702Y0242468D01*
X0286137Y0245033D01*
X0282786Y0246421D01*
X0279159Y0246421D01*
X0275807Y0245033D01*
X0273778Y0243004D01*
X0273778Y0249514D01*
X0278089Y0253825D01*
X0279159Y0253382D01*
X0282786Y0253382D01*
X0286137Y0254770D01*
X0287602Y0256235D01*
X0287602Y0255174D01*
X0288991Y0251823D01*
X0291555Y0249258D01*
X0294907Y0247870D01*
X0298534Y0247870D01*
X0301885Y0249258D01*
X0304450Y0251823D01*
X0305839Y0255174D01*
X0305839Y0258802D01*
X0304450Y0262153D01*
X0301885Y0264718D01*
X0298534Y0266106D01*
X0294907Y0266106D01*
X0291555Y0264718D01*
X0290091Y0263253D01*
X0290091Y0264314D01*
X0288702Y0267665D01*
X0286137Y0270230D01*
X0282786Y0271618D01*
X0279159Y0271618D01*
X0276262Y0270418D01*
X0269211Y0277469D01*
X0343378Y0277469D01*
X0343378Y0267989D01*
X0342122Y0271020D01*
X0339788Y0273355D01*
X0336737Y0274618D01*
X0333436Y0274618D01*
X0330385Y0273355D01*
X0328051Y0271020D01*
X0326787Y0267970D01*
X0326787Y0264668D01*
X0328051Y0261618D01*
X0330385Y0259283D01*
X0333436Y0258020D01*
X0336737Y0258020D01*
X0339788Y0259283D01*
X0342122Y0261618D01*
X0343378Y0264649D01*
X0343378Y0024102D01*
X0335578Y0031902D01*
X0335578Y0086819D01*
X0336867Y0088108D01*
X0337594Y0089863D01*
X0337594Y0091763D01*
X0336867Y0093518D01*
X0335524Y0094861D01*
X0333769Y0095588D01*
X0331869Y0095588D01*
X0330114Y0094861D01*
X0328771Y0093518D01*
X0328044Y0091763D01*
X0328044Y0089863D01*
X0328771Y0088108D01*
X0330114Y0086765D01*
X0330778Y0086490D01*
X0330778Y0030430D01*
X0331143Y0029548D01*
X0334105Y0026587D01*
X0333436Y0026587D01*
X0330385Y0025323D01*
X0329978Y0024916D01*
X0329978Y0056985D01*
X0329613Y0057867D01*
X0328937Y0058542D01*
X0327337Y0060142D01*
X0326455Y0060508D01*
X0313372Y0060508D01*
X0300836Y0073044D01*
X0301630Y0073373D01*
X0302973Y0074717D01*
X0303700Y0076471D01*
X0303700Y0078371D01*
X0302973Y0080126D01*
X0301630Y0081469D01*
X0299875Y0082196D01*
X0297975Y0082196D01*
X0296220Y0081469D01*
X0294877Y0080126D01*
X0294548Y0079332D01*
X0294537Y0079342D01*
X0293655Y0079708D01*
X0293146Y0079708D01*
X0292973Y0080126D01*
X0291630Y0081469D01*
X0289875Y0082196D01*
X0287975Y0082196D01*
X0286220Y0081469D01*
X0284877Y0080126D01*
X0284150Y0078371D01*
X0284150Y0076471D01*
X0284877Y0074717D01*
X0286220Y0073373D01*
X0287975Y0072646D01*
X0289875Y0072646D01*
X0291630Y0073373D01*
X0292674Y0074418D01*
X0308784Y0058308D01*
X0261725Y0058308D01*
X0261725Y0072646D01*
X0262528Y0072646D01*
X0263700Y0073818D01*
X0263700Y0081024D01*
X0262528Y0082196D01*
X0261725Y0082196D01*
X0261725Y0088322D01*
X0261725Y0087630D02*
X0299249Y0087630D01*
X0298771Y0088108D02*
X0300114Y0086765D01*
X0301869Y0086038D01*
X0303769Y0086038D01*
X0305524Y0086765D01*
X0306867Y0088108D01*
X0307594Y0089863D01*
X0307594Y0091763D01*
X0306867Y0093518D01*
X0305524Y0094861D01*
X0303769Y0095588D01*
X0301869Y0095588D01*
X0300114Y0094861D01*
X0298771Y0093518D01*
X0298044Y0091763D01*
X0298044Y0089863D01*
X0298771Y0088108D01*
X0298307Y0089229D02*
X0285972Y0089229D01*
X0286705Y0090827D02*
X0298044Y0090827D01*
X0298319Y0092426D02*
X0286705Y0092426D01*
X0286705Y0094025D02*
X0299278Y0094025D01*
X0299807Y0096238D02*
X0302819Y0096238D01*
X0305831Y0096238D01*
X0306288Y0096361D01*
X0306699Y0096598D01*
X0307034Y0096933D01*
X0307271Y0097343D01*
X0307394Y0097801D01*
X0307394Y0100813D01*
X0307394Y0103825D01*
X0307271Y0104283D01*
X0307034Y0104693D01*
X0306699Y0105028D01*
X0306288Y0105265D01*
X0305831Y0105388D01*
X0302819Y0105388D01*
X0302819Y0100813D01*
X0307394Y0100813D01*
X0302819Y0100813D01*
X0302819Y0100813D01*
X0302819Y0100813D01*
X0302819Y0096238D01*
X0302819Y0100813D01*
X0302819Y0100813D01*
X0302819Y0105388D01*
X0299807Y0105388D01*
X0299349Y0105265D01*
X0298939Y0105028D01*
X0298604Y0104693D01*
X0298367Y0104283D01*
X0298244Y0103825D01*
X0298244Y0100813D01*
X0302819Y0100813D01*
X0302819Y0100813D01*
X0298244Y0100813D01*
X0298244Y0097801D01*
X0298367Y0097343D01*
X0298604Y0096933D01*
X0298939Y0096598D01*
X0299349Y0096361D01*
X0299807Y0096238D01*
X0298437Y0097222D02*
X0286705Y0097222D01*
X0286705Y0098820D02*
X0298244Y0098820D01*
X0298244Y0100419D02*
X0286705Y0100419D01*
X0286705Y0102017D02*
X0298244Y0102017D01*
X0298244Y0103616D02*
X0286705Y0103616D01*
X0286705Y0105214D02*
X0299261Y0105214D01*
X0302819Y0105214D02*
X0302819Y0105214D01*
X0302819Y0103616D02*
X0302819Y0103616D01*
X0302819Y0102017D02*
X0302819Y0102017D01*
X0302819Y0100419D02*
X0302819Y0100419D01*
X0302819Y0098820D02*
X0302819Y0098820D01*
X0302819Y0097222D02*
X0302819Y0097222D01*
X0307201Y0097222D02*
X0309658Y0097222D01*
X0310114Y0096765D02*
X0311869Y0096038D01*
X0313769Y0096038D01*
X0315524Y0096765D01*
X0316867Y0098108D01*
X0317594Y0099863D01*
X0317594Y0101763D01*
X0316867Y0103518D01*
X0315524Y0104861D01*
X0313769Y0105588D01*
X0311869Y0105588D01*
X0310114Y0104861D01*
X0308771Y0103518D01*
X0308044Y0101763D01*
X0308044Y0099863D01*
X0308771Y0098108D01*
X0310114Y0096765D01*
X0310114Y0094861D02*
X0308771Y0093518D01*
X0308044Y0091763D01*
X0308044Y0089863D01*
X0308771Y0088108D01*
X0310114Y0086765D01*
X0311869Y0086038D01*
X0313769Y0086038D01*
X0315524Y0086765D01*
X0316867Y0088108D01*
X0317594Y0089863D01*
X0317594Y0091763D01*
X0316867Y0093518D01*
X0315524Y0094861D01*
X0313769Y0095588D01*
X0311869Y0095588D01*
X0310114Y0094861D01*
X0309278Y0094025D02*
X0306360Y0094025D01*
X0307319Y0092426D02*
X0308319Y0092426D01*
X0308044Y0090827D02*
X0307594Y0090827D01*
X0307331Y0089229D02*
X0308307Y0089229D01*
X0309249Y0087630D02*
X0306389Y0087630D01*
X0301863Y0081236D02*
X0330778Y0081236D01*
X0330778Y0079638D02*
X0303175Y0079638D01*
X0303700Y0078039D02*
X0330778Y0078039D01*
X0330778Y0076441D02*
X0303687Y0076441D01*
X0303025Y0074842D02*
X0330778Y0074842D01*
X0330778Y0073244D02*
X0301317Y0073244D01*
X0302235Y0071645D02*
X0330778Y0071645D01*
X0330778Y0070047D02*
X0303833Y0070047D01*
X0305432Y0068448D02*
X0330778Y0068448D01*
X0330778Y0066850D02*
X0307030Y0066850D01*
X0308629Y0065251D02*
X0330778Y0065251D01*
X0330778Y0063653D02*
X0310227Y0063653D01*
X0311826Y0062054D02*
X0330778Y0062054D01*
X0330778Y0060456D02*
X0326581Y0060456D01*
X0328623Y0058857D02*
X0330778Y0058857D01*
X0330778Y0057259D02*
X0329865Y0057259D01*
X0329978Y0055660D02*
X0330778Y0055660D01*
X0330778Y0054062D02*
X0329978Y0054062D01*
X0329978Y0052463D02*
X0330778Y0052463D01*
X0330778Y0050865D02*
X0329978Y0050865D01*
X0329978Y0049266D02*
X0330778Y0049266D01*
X0330778Y0047668D02*
X0329978Y0047668D01*
X0329978Y0046069D02*
X0330778Y0046069D01*
X0330778Y0044471D02*
X0329978Y0044471D01*
X0329978Y0042872D02*
X0330778Y0042872D01*
X0330778Y0041274D02*
X0329978Y0041274D01*
X0329978Y0039675D02*
X0330778Y0039675D01*
X0330778Y0038077D02*
X0329978Y0038077D01*
X0329978Y0036478D02*
X0330778Y0036478D01*
X0330778Y0034880D02*
X0329978Y0034880D01*
X0329978Y0033281D02*
X0330778Y0033281D01*
X0330778Y0031683D02*
X0329978Y0031683D01*
X0329978Y0030084D02*
X0330921Y0030084D01*
X0329978Y0028486D02*
X0332206Y0028486D01*
X0333805Y0026887D02*
X0329978Y0026887D01*
X0329978Y0025289D02*
X0330351Y0025289D01*
X0325378Y0021004D02*
X0310972Y0021004D01*
X0275539Y0021004D01*
X0275539Y0021929D01*
X0270587Y0022091D02*
X0202174Y0022091D01*
X0203478Y0023395D02*
X0200490Y0020408D01*
X0198378Y0020408D01*
X0198378Y0025508D01*
X0203478Y0025508D01*
X0203478Y0027620D01*
X0201790Y0029308D01*
X0206584Y0029308D01*
X0209543Y0026348D01*
X0210218Y0025673D01*
X0211101Y0025308D01*
X0270587Y0025308D01*
X0270587Y0018542D01*
X0271758Y0017370D01*
X0279321Y0017370D01*
X0280154Y0018204D01*
X0307020Y0018204D01*
X0307916Y0017308D01*
X0172527Y0017308D01*
X0173075Y0018630D01*
X0173075Y0020818D01*
X0172237Y0022840D01*
X0171042Y0024035D01*
X0172100Y0025093D01*
X0172937Y0027115D01*
X0172937Y0029303D01*
X0172100Y0031324D01*
X0170552Y0032871D01*
X0169740Y0033208D01*
X0191070Y0033208D01*
X0190778Y0032504D01*
X0190778Y0030912D01*
X0190996Y0030385D01*
X0190573Y0030808D01*
X0186183Y0030808D01*
X0183078Y0027703D01*
X0183078Y0023313D01*
X0186183Y0020208D01*
X0190573Y0020208D01*
X0193519Y0023154D01*
X0196265Y0020408D01*
X0198378Y0020408D01*
X0198378Y0025508D01*
X0198378Y0025508D01*
X0203478Y0025508D01*
X0203478Y0023395D01*
X0203478Y0023690D02*
X0270587Y0023690D01*
X0270587Y0025289D02*
X0203478Y0025289D01*
X0203478Y0026887D02*
X0209005Y0026887D01*
X0207406Y0028486D02*
X0202613Y0028486D01*
X0198378Y0025508D02*
X0198378Y0025508D01*
X0198378Y0025289D02*
X0198378Y0025289D01*
X0198378Y0023690D02*
X0198378Y0023690D01*
X0198378Y0022091D02*
X0198378Y0022091D01*
X0198378Y0020493D02*
X0198378Y0020493D01*
X0200576Y0020493D02*
X0270587Y0020493D01*
X0270587Y0018894D02*
X0173075Y0018894D01*
X0173075Y0020493D02*
X0185898Y0020493D01*
X0184299Y0022091D02*
X0172547Y0022091D01*
X0171387Y0023690D02*
X0183078Y0023690D01*
X0183078Y0025289D02*
X0172181Y0025289D01*
X0172843Y0026887D02*
X0183078Y0026887D01*
X0183860Y0028486D02*
X0172937Y0028486D01*
X0172613Y0030084D02*
X0185459Y0030084D01*
X0190778Y0031683D02*
X0171741Y0031683D01*
X0180699Y0038808D02*
X0181059Y0039676D01*
X0181059Y0041340D01*
X0180423Y0042876D01*
X0179246Y0044052D01*
X0177710Y0044689D01*
X0176046Y0044689D01*
X0175117Y0044304D01*
X0171878Y0047543D01*
X0171878Y0050555D01*
X0173506Y0050555D01*
X0174677Y0051727D01*
X0174677Y0054815D01*
X0178218Y0051273D01*
X0179101Y0050908D01*
X0190455Y0050908D01*
X0191337Y0051273D01*
X0192013Y0051948D01*
X0194869Y0054805D01*
X0196265Y0053408D01*
X0198378Y0053408D01*
X0200490Y0053408D01*
X0203478Y0056395D01*
X0203478Y0058508D01*
X0203478Y0060620D01*
X0200490Y0063608D01*
X0198378Y0063608D01*
X0198378Y0058508D01*
X0198378Y0058508D01*
X0203478Y0058508D01*
X0198378Y0058508D01*
X0198378Y0058508D01*
X0198378Y0063608D01*
X0196265Y0063608D01*
X0195578Y0062920D01*
X0195578Y0063514D01*
X0209744Y0077679D01*
X0209784Y0077555D01*
X0210111Y0076913D01*
X0210534Y0076331D01*
X0211043Y0075822D01*
X0211626Y0075398D01*
X0212267Y0075071D01*
X0212952Y0074849D01*
X0213664Y0074736D01*
X0214024Y0074736D01*
X0214384Y0074736D01*
X0215095Y0074849D01*
X0215780Y0075071D01*
X0216421Y0075398D01*
X0217004Y0075822D01*
X0217513Y0076331D01*
X0217800Y0076726D01*
X0217850Y0076606D01*
X0219078Y0075378D01*
X0219078Y0056668D01*
X0201218Y0038808D01*
X0180699Y0038808D01*
X0181059Y0039675D02*
X0202085Y0039675D01*
X0203684Y0041274D02*
X0181059Y0041274D01*
X0180424Y0042872D02*
X0205282Y0042872D01*
X0206881Y0044471D02*
X0178237Y0044471D01*
X0175519Y0044471D02*
X0174951Y0044471D01*
X0173352Y0046069D02*
X0208479Y0046069D01*
X0210078Y0047668D02*
X0171878Y0047668D01*
X0171878Y0049266D02*
X0211676Y0049266D01*
X0213275Y0050865D02*
X0173815Y0050865D01*
X0174677Y0052463D02*
X0177028Y0052463D01*
X0175430Y0054062D02*
X0174677Y0054062D01*
X0192527Y0052463D02*
X0214873Y0052463D01*
X0216472Y0054062D02*
X0201144Y0054062D01*
X0202743Y0055660D02*
X0218071Y0055660D01*
X0219078Y0057259D02*
X0203478Y0057259D01*
X0203478Y0058857D02*
X0219078Y0058857D01*
X0219078Y0060456D02*
X0203478Y0060456D01*
X0202044Y0062054D02*
X0219078Y0062054D01*
X0219078Y0063653D02*
X0195717Y0063653D01*
X0197315Y0065251D02*
X0219078Y0065251D01*
X0219078Y0066850D02*
X0198914Y0066850D01*
X0200512Y0068448D02*
X0219078Y0068448D01*
X0219078Y0070047D02*
X0202111Y0070047D01*
X0203710Y0071645D02*
X0219078Y0071645D01*
X0219078Y0073244D02*
X0205308Y0073244D01*
X0206907Y0074842D02*
X0212993Y0074842D01*
X0214024Y0074842D02*
X0214024Y0074842D01*
X0214024Y0074736D02*
X0214024Y0079311D01*
X0214024Y0079311D01*
X0214024Y0074736D01*
X0215054Y0074842D02*
X0219078Y0074842D01*
X0218015Y0076441D02*
X0217593Y0076441D01*
X0214024Y0076441D02*
X0214024Y0076441D01*
X0214024Y0078039D02*
X0214024Y0078039D01*
X0210454Y0076441D02*
X0208505Y0076441D01*
X0221878Y0079291D02*
X0221898Y0079311D01*
X0221878Y0079291D02*
X0221878Y0055508D01*
X0258925Y0055508D01*
X0325378Y0055508D01*
X0325378Y0021004D01*
X0322578Y0023804D02*
X0314925Y0023804D01*
X0312950Y0025779D01*
X0308995Y0025779D01*
X0307020Y0023804D01*
X0280492Y0023804D01*
X0280492Y0025317D01*
X0280139Y0025669D01*
X0280492Y0026022D01*
X0280492Y0028204D01*
X0307020Y0028204D01*
X0308268Y0026956D01*
X0310023Y0026229D01*
X0311922Y0026229D01*
X0313677Y0026956D01*
X0315020Y0028299D01*
X0315747Y0030054D01*
X0315747Y0031954D01*
X0315020Y0033709D01*
X0313677Y0035052D01*
X0311922Y0035779D01*
X0310023Y0035779D01*
X0308268Y0035052D01*
X0307020Y0033804D01*
X0279485Y0033804D01*
X0279321Y0033968D01*
X0271758Y0033968D01*
X0270587Y0032797D01*
X0270587Y0030108D01*
X0220496Y0030108D01*
X0221635Y0031247D01*
X0222913Y0034334D01*
X0222913Y0037674D01*
X0221635Y0040761D01*
X0219273Y0043123D01*
X0216186Y0044402D01*
X0214731Y0044402D01*
X0223038Y0052708D01*
X0306716Y0052708D01*
X0306510Y0052075D01*
X0306398Y0051364D01*
X0306398Y0051004D01*
X0310972Y0051004D01*
X0310972Y0051004D01*
X0306398Y0051004D01*
X0306398Y0050644D01*
X0306510Y0049933D01*
X0306733Y0049248D01*
X0307060Y0048606D01*
X0307483Y0048024D01*
X0307992Y0047514D01*
X0308575Y0047091D01*
X0309216Y0046764D01*
X0309901Y0046542D01*
X0310612Y0046429D01*
X0310972Y0046429D01*
X0310972Y0051004D01*
X0310972Y0051004D01*
X0310972Y0046429D01*
X0311332Y0046429D01*
X0312044Y0046542D01*
X0312729Y0046764D01*
X0313370Y0047091D01*
X0313953Y0047514D01*
X0314462Y0048024D01*
X0314885Y0048606D01*
X0315212Y0049248D01*
X0315435Y0049933D01*
X0315547Y0050644D01*
X0315547Y0051004D01*
X0315547Y0051364D01*
X0315435Y0052075D01*
X0315229Y0052708D01*
X0322578Y0052708D01*
X0322578Y0023804D01*
X0322578Y0025289D02*
X0313440Y0025289D01*
X0313511Y0026887D02*
X0322578Y0026887D01*
X0322578Y0028486D02*
X0315097Y0028486D01*
X0315747Y0030084D02*
X0322578Y0030084D01*
X0322578Y0031683D02*
X0315747Y0031683D01*
X0315197Y0033281D02*
X0322578Y0033281D01*
X0322578Y0034880D02*
X0313849Y0034880D01*
X0312523Y0036478D02*
X0322578Y0036478D01*
X0322578Y0038077D02*
X0314798Y0038077D01*
X0315020Y0038299D02*
X0315747Y0040054D01*
X0315747Y0041954D01*
X0315020Y0043709D01*
X0313677Y0045052D01*
X0311922Y0045779D01*
X0310023Y0045779D01*
X0308268Y0045052D01*
X0306925Y0043709D01*
X0306198Y0041954D01*
X0306198Y0040054D01*
X0306925Y0038299D01*
X0308268Y0036956D01*
X0310023Y0036229D01*
X0311922Y0036229D01*
X0313677Y0036956D01*
X0315020Y0038299D01*
X0315590Y0039675D02*
X0322578Y0039675D01*
X0322578Y0041274D02*
X0315747Y0041274D01*
X0315367Y0042872D02*
X0322578Y0042872D01*
X0322578Y0044471D02*
X0314258Y0044471D01*
X0314106Y0047668D02*
X0322578Y0047668D01*
X0322578Y0049266D02*
X0315218Y0049266D01*
X0315547Y0050865D02*
X0322578Y0050865D01*
X0322578Y0052463D02*
X0315309Y0052463D01*
X0315547Y0051004D02*
X0310973Y0051004D01*
X0310973Y0051004D01*
X0315547Y0051004D01*
X0310972Y0050865D02*
X0310972Y0050865D01*
X0310972Y0049266D02*
X0310972Y0049266D01*
X0310972Y0047668D02*
X0310972Y0047668D01*
X0307839Y0047668D02*
X0217998Y0047668D01*
X0219596Y0049266D02*
X0306727Y0049266D01*
X0306398Y0050865D02*
X0221195Y0050865D01*
X0222793Y0052463D02*
X0306636Y0052463D01*
X0308234Y0058857D02*
X0261725Y0058857D01*
X0261725Y0060456D02*
X0306636Y0060456D01*
X0305037Y0062054D02*
X0261725Y0062054D01*
X0261725Y0063653D02*
X0303439Y0063653D01*
X0301840Y0065251D02*
X0261725Y0065251D01*
X0261725Y0066850D02*
X0300242Y0066850D01*
X0298643Y0068448D02*
X0261725Y0068448D01*
X0261725Y0070047D02*
X0297045Y0070047D01*
X0295446Y0071645D02*
X0261725Y0071645D01*
X0263126Y0073244D02*
X0267047Y0073244D01*
X0267169Y0073182D02*
X0267854Y0072959D01*
X0268565Y0072846D01*
X0268925Y0072846D01*
X0268925Y0077421D01*
X0268925Y0077421D01*
X0264350Y0077421D01*
X0264350Y0077061D01*
X0264463Y0076350D01*
X0264686Y0075665D01*
X0265012Y0075024D01*
X0265436Y0074441D01*
X0265945Y0073932D01*
X0266527Y0073509D01*
X0267169Y0073182D01*
X0268925Y0073244D02*
X0268925Y0073244D01*
X0268925Y0072846D02*
X0269285Y0072846D01*
X0269996Y0072959D01*
X0270681Y0073182D01*
X0271323Y0073509D01*
X0271905Y0073932D01*
X0272415Y0074441D01*
X0272838Y0075024D01*
X0273165Y0075665D01*
X0273387Y0076350D01*
X0273500Y0077061D01*
X0273500Y0077421D01*
X0268925Y0077421D01*
X0268925Y0077421D01*
X0268925Y0072846D01*
X0270803Y0073244D02*
X0276533Y0073244D01*
X0276220Y0073373D02*
X0277975Y0072646D01*
X0279875Y0072646D01*
X0281630Y0073373D01*
X0282973Y0074717D01*
X0283700Y0076471D01*
X0283700Y0078371D01*
X0282973Y0080126D01*
X0281630Y0081469D01*
X0279875Y0082196D01*
X0277975Y0082196D01*
X0276220Y0081469D01*
X0274877Y0080126D01*
X0274150Y0078371D01*
X0274150Y0076471D01*
X0274877Y0074717D01*
X0276220Y0073373D01*
X0274825Y0074842D02*
X0272706Y0074842D01*
X0273402Y0076441D02*
X0274163Y0076441D01*
X0273500Y0077421D02*
X0273500Y0077781D01*
X0273387Y0078493D01*
X0273165Y0079177D01*
X0272838Y0079819D01*
X0272415Y0080402D01*
X0271905Y0080911D01*
X0271323Y0081334D01*
X0270681Y0081661D01*
X0269996Y0081883D01*
X0269285Y0081996D01*
X0268925Y0081996D01*
X0268565Y0081996D01*
X0267854Y0081883D01*
X0267169Y0081661D01*
X0266527Y0081334D01*
X0265945Y0080911D01*
X0265436Y0080402D01*
X0265012Y0079819D01*
X0264686Y0079177D01*
X0264463Y0078493D01*
X0264350Y0077781D01*
X0264350Y0077421D01*
X0268925Y0077421D01*
X0268925Y0077421D01*
X0268925Y0081996D01*
X0268925Y0077421D01*
X0268925Y0077421D01*
X0273500Y0077421D01*
X0273459Y0078039D02*
X0274150Y0078039D01*
X0274675Y0079638D02*
X0272930Y0079638D01*
X0271457Y0081236D02*
X0275988Y0081236D01*
X0281863Y0081236D02*
X0285988Y0081236D01*
X0284675Y0079638D02*
X0283175Y0079638D01*
X0283700Y0078039D02*
X0284150Y0078039D01*
X0284163Y0076441D02*
X0283687Y0076441D01*
X0283025Y0074842D02*
X0284825Y0074842D01*
X0286533Y0073244D02*
X0281317Y0073244D01*
X0291317Y0073244D02*
X0293848Y0073244D01*
X0293824Y0079638D02*
X0294675Y0079638D01*
X0295988Y0081236D02*
X0291863Y0081236D01*
X0283906Y0091122D02*
X0258925Y0091122D01*
X0258925Y0077421D01*
X0258925Y0055508D01*
X0263700Y0074842D02*
X0265144Y0074842D01*
X0264449Y0076441D02*
X0263700Y0076441D01*
X0263700Y0078039D02*
X0264391Y0078039D01*
X0264920Y0079638D02*
X0263700Y0079638D01*
X0263488Y0081236D02*
X0266393Y0081236D01*
X0268925Y0081236D02*
X0268925Y0081236D01*
X0268925Y0079638D02*
X0268925Y0079638D01*
X0268925Y0078039D02*
X0268925Y0078039D01*
X0268925Y0076441D02*
X0268925Y0076441D01*
X0268925Y0074842D02*
X0268925Y0074842D01*
X0261725Y0082835D02*
X0330778Y0082835D01*
X0330778Y0084433D02*
X0261725Y0084433D01*
X0261725Y0086032D02*
X0330778Y0086032D01*
X0329249Y0087630D02*
X0326389Y0087630D01*
X0326867Y0088108D02*
X0327594Y0089863D01*
X0327594Y0091763D01*
X0326867Y0093518D01*
X0325524Y0094861D01*
X0323769Y0095588D01*
X0321869Y0095588D01*
X0320114Y0094861D01*
X0318771Y0093518D01*
X0318044Y0091763D01*
X0318044Y0089863D01*
X0318771Y0088108D01*
X0320114Y0086765D01*
X0321869Y0086038D01*
X0323769Y0086038D01*
X0325524Y0086765D01*
X0326867Y0088108D01*
X0327331Y0089229D02*
X0328307Y0089229D01*
X0328044Y0090827D02*
X0327594Y0090827D01*
X0327319Y0092426D02*
X0328319Y0092426D01*
X0329278Y0094025D02*
X0326360Y0094025D01*
X0325524Y0096765D02*
X0323769Y0096038D01*
X0321869Y0096038D01*
X0320114Y0096765D01*
X0318771Y0098108D01*
X0318044Y0099863D01*
X0318044Y0101763D01*
X0318771Y0103518D01*
X0320114Y0104861D01*
X0321869Y0105588D01*
X0323769Y0105588D01*
X0325524Y0104861D01*
X0326867Y0103518D01*
X0327594Y0101763D01*
X0327594Y0099863D01*
X0326867Y0098108D01*
X0325524Y0096765D01*
X0325980Y0097222D02*
X0328044Y0097222D01*
X0328044Y0097210D02*
X0329216Y0096038D01*
X0336422Y0096038D01*
X0337594Y0097210D01*
X0337594Y0104416D01*
X0336422Y0105588D01*
X0329216Y0105588D01*
X0328044Y0104416D01*
X0328044Y0097210D01*
X0328044Y0098820D02*
X0327162Y0098820D01*
X0327594Y0100419D02*
X0328044Y0100419D01*
X0328044Y0102017D02*
X0327488Y0102017D01*
X0328044Y0103616D02*
X0326769Y0103616D01*
X0328842Y0105214D02*
X0324671Y0105214D01*
X0320967Y0105214D02*
X0314671Y0105214D01*
X0316769Y0103616D02*
X0318869Y0103616D01*
X0318149Y0102017D02*
X0317488Y0102017D01*
X0317594Y0100419D02*
X0318044Y0100419D01*
X0318476Y0098820D02*
X0317162Y0098820D01*
X0315980Y0097222D02*
X0319658Y0097222D01*
X0319278Y0094025D02*
X0316360Y0094025D01*
X0317319Y0092426D02*
X0318319Y0092426D01*
X0318044Y0090827D02*
X0317594Y0090827D01*
X0317331Y0089229D02*
X0318307Y0089229D01*
X0319249Y0087630D02*
X0316389Y0087630D01*
X0308476Y0098820D02*
X0307394Y0098820D01*
X0307394Y0100419D02*
X0308044Y0100419D01*
X0308149Y0102017D02*
X0307394Y0102017D01*
X0307394Y0103616D02*
X0308869Y0103616D01*
X0310967Y0105214D02*
X0306377Y0105214D01*
X0286705Y0106813D02*
X0343378Y0106813D01*
X0343378Y0108411D02*
X0286705Y0108411D01*
X0286705Y0110010D02*
X0343378Y0110010D01*
X0343378Y0111608D02*
X0286705Y0111608D01*
X0286705Y0113207D02*
X0343378Y0113207D01*
X0343378Y0114805D02*
X0286705Y0114805D01*
X0286705Y0116404D02*
X0343378Y0116404D01*
X0343378Y0118002D02*
X0286705Y0118002D01*
X0286705Y0119601D02*
X0343378Y0119601D01*
X0343378Y0121199D02*
X0286705Y0121199D01*
X0286705Y0122798D02*
X0343378Y0122798D01*
X0343378Y0124396D02*
X0286705Y0124396D01*
X0286705Y0125995D02*
X0343378Y0125995D01*
X0343378Y0127593D02*
X0286705Y0127593D01*
X0286705Y0129192D02*
X0343378Y0129192D01*
X0343378Y0130790D02*
X0286372Y0130790D01*
X0283906Y0129429D02*
X0283906Y0091122D01*
X0286705Y0095623D02*
X0343378Y0095623D01*
X0343378Y0094025D02*
X0336360Y0094025D01*
X0337319Y0092426D02*
X0343378Y0092426D01*
X0343378Y0090827D02*
X0337594Y0090827D01*
X0337331Y0089229D02*
X0343378Y0089229D01*
X0343378Y0087630D02*
X0336389Y0087630D01*
X0335578Y0086032D02*
X0343378Y0086032D01*
X0343378Y0084433D02*
X0335578Y0084433D01*
X0335578Y0082835D02*
X0343378Y0082835D01*
X0343378Y0081236D02*
X0335578Y0081236D01*
X0335578Y0079638D02*
X0343378Y0079638D01*
X0343378Y0078039D02*
X0335578Y0078039D01*
X0335578Y0076441D02*
X0343378Y0076441D01*
X0343378Y0074842D02*
X0335578Y0074842D01*
X0335578Y0073244D02*
X0343378Y0073244D01*
X0343378Y0071645D02*
X0335578Y0071645D01*
X0335578Y0070047D02*
X0343378Y0070047D01*
X0343378Y0068448D02*
X0335578Y0068448D01*
X0335578Y0066850D02*
X0343378Y0066850D01*
X0343378Y0065251D02*
X0335578Y0065251D01*
X0335578Y0063653D02*
X0343378Y0063653D01*
X0343378Y0062054D02*
X0335578Y0062054D01*
X0335578Y0060456D02*
X0343378Y0060456D01*
X0343378Y0058857D02*
X0335578Y0058857D01*
X0335578Y0057259D02*
X0343378Y0057259D01*
X0343378Y0055660D02*
X0335578Y0055660D01*
X0335578Y0054062D02*
X0343378Y0054062D01*
X0343378Y0052463D02*
X0335578Y0052463D01*
X0335578Y0050865D02*
X0343378Y0050865D01*
X0343378Y0049266D02*
X0335578Y0049266D01*
X0335578Y0047668D02*
X0343378Y0047668D01*
X0343378Y0046069D02*
X0335578Y0046069D01*
X0335578Y0044471D02*
X0343378Y0044471D01*
X0343378Y0042872D02*
X0335578Y0042872D01*
X0335578Y0041274D02*
X0343378Y0041274D01*
X0343378Y0039675D02*
X0335578Y0039675D01*
X0335578Y0038077D02*
X0343378Y0038077D01*
X0343378Y0036478D02*
X0335578Y0036478D01*
X0335578Y0034880D02*
X0343378Y0034880D01*
X0343378Y0033281D02*
X0335578Y0033281D01*
X0335797Y0031683D02*
X0343378Y0031683D01*
X0343378Y0030084D02*
X0337396Y0030084D01*
X0338994Y0028486D02*
X0343378Y0028486D01*
X0343378Y0026887D02*
X0340593Y0026887D01*
X0342191Y0025289D02*
X0343378Y0025289D01*
X0322578Y0046069D02*
X0216399Y0046069D01*
X0214801Y0044471D02*
X0307687Y0044471D01*
X0306578Y0042872D02*
X0219524Y0042872D01*
X0221122Y0041274D02*
X0306198Y0041274D01*
X0306355Y0039675D02*
X0222085Y0039675D01*
X0222747Y0038077D02*
X0307147Y0038077D01*
X0309422Y0036478D02*
X0222913Y0036478D01*
X0222913Y0034880D02*
X0308096Y0034880D01*
X0310972Y0031004D02*
X0275539Y0031004D01*
X0275539Y0029409D01*
X0270587Y0031683D02*
X0221815Y0031683D01*
X0222477Y0033281D02*
X0271071Y0033281D01*
X0280492Y0026887D02*
X0308434Y0026887D01*
X0308504Y0025289D02*
X0280492Y0025289D01*
X0221878Y0055508D02*
X0202378Y0036008D01*
X0143878Y0036008D01*
X0137437Y0028209D01*
X0137575Y0019724D01*
X0153075Y0019524D02*
X0153075Y0019924D01*
X0157375Y0019924D01*
X0157375Y0019524D01*
X0157375Y0017308D01*
X0157775Y0017308D01*
X0157775Y0019524D01*
X0157375Y0019524D01*
X0153075Y0019524D01*
X0157375Y0019924D02*
X0157375Y0025024D01*
X0157237Y0025024D01*
X0157237Y0028009D01*
X0157637Y0028009D01*
X0157637Y0022909D01*
X0157775Y0022909D01*
X0157775Y0019924D01*
X0162075Y0019924D01*
X0162075Y0019524D01*
X0157775Y0019524D01*
X0157775Y0019924D01*
X0157375Y0019924D01*
X0157375Y0020493D02*
X0157775Y0020493D01*
X0157775Y0022091D02*
X0157375Y0022091D01*
X0157375Y0023690D02*
X0157637Y0023690D01*
X0157637Y0025289D02*
X0157237Y0025289D01*
X0157237Y0026887D02*
X0157637Y0026887D01*
X0157775Y0018894D02*
X0157375Y0018894D01*
X0190858Y0020493D02*
X0196180Y0020493D01*
X0194582Y0022091D02*
X0192457Y0022091D01*
X0198378Y0053408D02*
X0198378Y0058508D01*
X0198378Y0053408D01*
X0198378Y0054062D02*
X0198378Y0054062D01*
X0198378Y0055660D02*
X0198378Y0055660D01*
X0198378Y0057259D02*
X0198378Y0057259D01*
X0198378Y0058508D02*
X0198378Y0058508D01*
X0198378Y0058857D02*
X0198378Y0058857D01*
X0198378Y0060456D02*
X0198378Y0060456D01*
X0198378Y0062054D02*
X0198378Y0062054D01*
X0195612Y0054062D02*
X0194126Y0054062D01*
X0173703Y0090827D02*
X0172305Y0090827D01*
X0170998Y0092426D02*
X0175302Y0092426D01*
X0176900Y0094025D02*
X0172053Y0094025D01*
X0172681Y0095623D02*
X0178499Y0095623D01*
X0180098Y0097222D02*
X0172681Y0097222D01*
X0172229Y0098820D02*
X0181696Y0098820D01*
X0183685Y0100419D02*
X0171175Y0100419D01*
X0163188Y0100419D02*
X0161175Y0100419D01*
X0153188Y0100419D02*
X0151175Y0100419D01*
X0143188Y0100419D02*
X0140892Y0100419D01*
X0142016Y0098820D02*
X0142134Y0098820D01*
X0141681Y0096834D02*
X0137381Y0096834D01*
X0137381Y0096434D01*
X0141681Y0096434D01*
X0141681Y0096834D01*
X0137437Y0096634D02*
X0155264Y0114461D01*
X0155264Y0150908D01*
X0155264Y0155610D01*
X0144142Y0155610D01*
X0144621Y0156366D02*
X0143662Y0156366D01*
X0143662Y0157965D02*
X0144621Y0157965D01*
X0144621Y0159563D02*
X0143662Y0159563D01*
X0148202Y0159563D02*
X0151204Y0159563D01*
X0150905Y0157965D02*
X0148501Y0157965D01*
X0148501Y0156366D02*
X0150905Y0156366D01*
X0150905Y0154768D02*
X0148501Y0154768D01*
X0148501Y0153169D02*
X0150905Y0153169D01*
X0151254Y0151571D02*
X0148152Y0151571D01*
X0145808Y0149972D02*
X0235861Y0149972D01*
X0235701Y0150287D02*
X0236072Y0149558D01*
X0236553Y0148896D01*
X0237132Y0148317D01*
X0237794Y0147836D01*
X0238524Y0147464D01*
X0239302Y0147212D01*
X0240110Y0147083D01*
X0240220Y0147083D01*
X0240220Y0151983D01*
X0235320Y0151983D01*
X0235320Y0151874D01*
X0235448Y0151066D01*
X0235701Y0150287D01*
X0235368Y0151571D02*
X0183679Y0151571D01*
X0183937Y0153169D02*
X0235395Y0153169D01*
X0235949Y0154768D02*
X0183937Y0154768D01*
X0183937Y0156366D02*
X0237293Y0156366D01*
X0237201Y0157965D02*
X0183937Y0157965D01*
X0183765Y0159563D02*
X0235801Y0159563D01*
X0235139Y0161162D02*
X0183937Y0161162D01*
X0183937Y0162760D02*
X0235120Y0162760D01*
X0235534Y0164359D02*
X0183937Y0164359D01*
X0184222Y0165958D02*
X0236557Y0165958D01*
X0237822Y0167556D02*
X0185820Y0167556D01*
X0187419Y0169155D02*
X0236012Y0169155D01*
X0235309Y0170753D02*
X0189017Y0170753D01*
X0190616Y0172352D02*
X0235120Y0172352D01*
X0235365Y0173950D02*
X0192214Y0173950D01*
X0193813Y0175549D02*
X0236148Y0175549D01*
X0236028Y0177147D02*
X0195411Y0177147D01*
X0197010Y0178746D02*
X0235120Y0178746D01*
X0235120Y0180344D02*
X0198608Y0180344D01*
X0200207Y0181943D02*
X0235120Y0181943D01*
X0235120Y0183541D02*
X0201805Y0183541D01*
X0203404Y0185140D02*
X0235120Y0185140D01*
X0235346Y0186738D02*
X0205002Y0186738D01*
X0206601Y0188337D02*
X0243478Y0188337D01*
X0243478Y0189935D02*
X0208199Y0189935D01*
X0209798Y0191534D02*
X0243478Y0191534D01*
X0243478Y0193132D02*
X0211396Y0193132D01*
X0212995Y0194731D02*
X0243478Y0194731D01*
X0243478Y0196329D02*
X0214593Y0196329D01*
X0216192Y0197928D02*
X0243478Y0197928D01*
X0243478Y0199526D02*
X0217790Y0199526D01*
X0219389Y0201125D02*
X0243478Y0201125D01*
X0243478Y0202723D02*
X0220987Y0202723D01*
X0222586Y0204322D02*
X0243478Y0204322D01*
X0243478Y0205920D02*
X0224184Y0205920D01*
X0225783Y0207519D02*
X0243478Y0207519D01*
X0243478Y0209117D02*
X0227382Y0209117D01*
X0228980Y0210716D02*
X0243478Y0210716D01*
X0243478Y0212314D02*
X0230579Y0212314D01*
X0232177Y0213913D02*
X0243478Y0213913D01*
X0243478Y0215511D02*
X0233776Y0215511D01*
X0235374Y0217110D02*
X0243478Y0217110D01*
X0243478Y0218708D02*
X0236973Y0218708D01*
X0238571Y0220307D02*
X0243478Y0220307D01*
X0243478Y0221905D02*
X0242432Y0221905D01*
X0248278Y0221905D02*
X0256086Y0221905D01*
X0256469Y0220307D02*
X0248278Y0220307D01*
X0248278Y0218708D02*
X0256106Y0218708D01*
X0256106Y0217110D02*
X0248278Y0217110D01*
X0248278Y0215511D02*
X0256228Y0215511D01*
X0256890Y0213913D02*
X0248278Y0213913D01*
X0248278Y0212314D02*
X0257633Y0212314D01*
X0259232Y0210716D02*
X0248278Y0210716D01*
X0248278Y0209117D02*
X0261920Y0209117D01*
X0268528Y0209117D02*
X0274978Y0209117D01*
X0274978Y0207519D02*
X0248278Y0207519D01*
X0248278Y0205920D02*
X0274978Y0205920D01*
X0274978Y0204322D02*
X0248278Y0204322D01*
X0248278Y0202723D02*
X0274978Y0202723D01*
X0274978Y0201125D02*
X0248278Y0201125D01*
X0248278Y0199526D02*
X0274978Y0199526D01*
X0274978Y0197928D02*
X0248278Y0197928D01*
X0248278Y0196329D02*
X0274978Y0196329D01*
X0274978Y0194731D02*
X0248278Y0194731D01*
X0248278Y0193132D02*
X0274978Y0193132D01*
X0274978Y0191534D02*
X0248278Y0191534D01*
X0248278Y0189935D02*
X0274978Y0189935D01*
X0274978Y0188337D02*
X0248278Y0188337D01*
X0248278Y0186738D02*
X0267338Y0186738D01*
X0265858Y0185140D02*
X0248278Y0185140D01*
X0248278Y0183541D02*
X0265196Y0183541D01*
X0265120Y0181943D02*
X0248278Y0181943D01*
X0248278Y0180344D02*
X0265478Y0180344D01*
X0266421Y0178746D02*
X0248278Y0178746D01*
X0248278Y0177147D02*
X0268151Y0177147D01*
X0266148Y0175549D02*
X0248278Y0175549D01*
X0248278Y0173950D02*
X0265365Y0173950D01*
X0265120Y0172352D02*
X0248278Y0172352D01*
X0248278Y0170753D02*
X0265309Y0170753D01*
X0266012Y0169155D02*
X0248278Y0169155D01*
X0248278Y0167556D02*
X0267822Y0167556D01*
X0266557Y0165958D02*
X0248278Y0165958D01*
X0248278Y0164359D02*
X0265534Y0164359D01*
X0265120Y0162760D02*
X0248278Y0162760D01*
X0248278Y0161162D02*
X0265139Y0161162D01*
X0265801Y0159563D02*
X0248278Y0159563D01*
X0248278Y0157965D02*
X0267201Y0157965D01*
X0266966Y0156366D02*
X0248278Y0156366D01*
X0248278Y0154768D02*
X0265704Y0154768D01*
X0265120Y0153169D02*
X0248278Y0153169D01*
X0248278Y0151571D02*
X0265120Y0151571D01*
X0265632Y0149972D02*
X0248278Y0149972D01*
X0248278Y0148374D02*
X0266792Y0148374D01*
X0267032Y0143578D02*
X0248278Y0143578D01*
X0248278Y0141980D02*
X0265731Y0141980D01*
X0265120Y0140381D02*
X0248278Y0140381D01*
X0248278Y0138783D02*
X0265120Y0138783D01*
X0265605Y0137184D02*
X0248278Y0137184D01*
X0248278Y0135586D02*
X0266726Y0135586D01*
X0267441Y0133987D02*
X0248278Y0133987D01*
X0248278Y0132389D02*
X0265901Y0132389D01*
X0265239Y0130790D02*
X0248278Y0130790D01*
X0248278Y0129192D02*
X0265120Y0129192D01*
X0265435Y0127593D02*
X0248278Y0127593D01*
X0248278Y0125995D02*
X0266317Y0125995D01*
X0268400Y0124396D02*
X0248278Y0124396D01*
X0247562Y0122798D02*
X0266252Y0122798D01*
X0265408Y0121199D02*
X0245963Y0121199D01*
X0245920Y0119601D02*
X0265120Y0119601D01*
X0265266Y0118002D02*
X0245774Y0118002D01*
X0245111Y0116404D02*
X0265928Y0116404D01*
X0267572Y0114805D02*
X0243467Y0114805D01*
X0244096Y0113207D02*
X0266660Y0113207D01*
X0265577Y0111608D02*
X0245246Y0111608D01*
X0245693Y0110010D02*
X0265120Y0110010D01*
X0265120Y0108411D02*
X0245623Y0108411D01*
X0245592Y0108211D02*
X0245720Y0109020D01*
X0245720Y0109129D01*
X0240820Y0109129D01*
X0240820Y0104229D01*
X0240929Y0104229D01*
X0241737Y0104357D01*
X0242516Y0104610D01*
X0243245Y0104982D01*
X0243907Y0105463D01*
X0244486Y0106042D01*
X0244967Y0106704D01*
X0245339Y0107433D01*
X0245592Y0108211D01*
X0245023Y0106813D02*
X0265759Y0106813D01*
X0267098Y0105214D02*
X0243565Y0105214D01*
X0240820Y0105214D02*
X0240220Y0105214D01*
X0240220Y0104229D02*
X0240220Y0109129D01*
X0235320Y0109129D01*
X0235320Y0109020D01*
X0235448Y0108211D01*
X0235701Y0107433D01*
X0236072Y0106704D01*
X0236553Y0106042D01*
X0237132Y0105463D01*
X0237794Y0104982D01*
X0238524Y0104610D01*
X0239302Y0104357D01*
X0240110Y0104229D01*
X0240220Y0104229D01*
X0240220Y0106813D02*
X0240820Y0106813D01*
X0240820Y0108411D02*
X0240220Y0108411D01*
X0237474Y0105214D02*
X0081278Y0105214D01*
X0079680Y0103616D02*
X0281106Y0103616D01*
X0281106Y0105214D02*
X0273941Y0105214D01*
X0275281Y0106813D02*
X0281106Y0106813D01*
X0281106Y0108411D02*
X0275920Y0108411D01*
X0275920Y0110010D02*
X0281106Y0110010D01*
X0281106Y0111608D02*
X0275462Y0111608D01*
X0274379Y0113207D02*
X0281106Y0113207D01*
X0281106Y0114805D02*
X0273467Y0114805D01*
X0275111Y0116404D02*
X0281106Y0116404D01*
X0281106Y0118002D02*
X0275774Y0118002D01*
X0275920Y0119601D02*
X0281106Y0119601D01*
X0281106Y0121199D02*
X0275631Y0121199D01*
X0274788Y0122798D02*
X0281106Y0122798D01*
X0281106Y0124396D02*
X0272639Y0124396D01*
X0274722Y0125995D02*
X0281106Y0125995D01*
X0283906Y0129429D02*
X0277378Y0129429D01*
X0275878Y0129429D01*
X0270520Y0129429D01*
X0279778Y0132389D02*
X0343378Y0132389D01*
X0343378Y0133987D02*
X0279778Y0133987D01*
X0279778Y0135586D02*
X0343378Y0135586D01*
X0343378Y0137184D02*
X0279778Y0137184D01*
X0279778Y0138783D02*
X0343378Y0138783D01*
X0343378Y0140381D02*
X0279778Y0140381D01*
X0279778Y0141980D02*
X0343378Y0141980D01*
X0343378Y0143578D02*
X0279778Y0143578D01*
X0279778Y0145177D02*
X0343378Y0145177D01*
X0343378Y0146775D02*
X0279778Y0146775D01*
X0279778Y0148374D02*
X0343378Y0148374D01*
X0343378Y0149972D02*
X0279778Y0149972D01*
X0279778Y0151571D02*
X0343378Y0151571D01*
X0343378Y0153169D02*
X0279778Y0153169D01*
X0279778Y0154768D02*
X0343378Y0154768D01*
X0343378Y0156366D02*
X0279778Y0156366D01*
X0279778Y0157965D02*
X0343378Y0157965D01*
X0343378Y0159563D02*
X0279778Y0159563D01*
X0279778Y0161162D02*
X0343378Y0161162D01*
X0343378Y0162760D02*
X0279778Y0162760D01*
X0279778Y0164359D02*
X0343378Y0164359D01*
X0343378Y0165958D02*
X0279778Y0165958D01*
X0279778Y0167556D02*
X0343378Y0167556D01*
X0343378Y0169155D02*
X0279778Y0169155D01*
X0279778Y0170753D02*
X0343378Y0170753D01*
X0343378Y0172352D02*
X0279778Y0172352D01*
X0279778Y0173950D02*
X0343378Y0173950D01*
X0343378Y0175549D02*
X0279778Y0175549D01*
X0279778Y0177147D02*
X0343378Y0177147D01*
X0343378Y0178746D02*
X0279778Y0178746D01*
X0279778Y0180344D02*
X0343378Y0180344D01*
X0343378Y0181943D02*
X0279778Y0181943D01*
X0279778Y0183541D02*
X0343378Y0183541D01*
X0343378Y0185140D02*
X0279778Y0185140D01*
X0279778Y0186738D02*
X0343378Y0186738D01*
X0343378Y0188337D02*
X0279778Y0188337D01*
X0279778Y0189935D02*
X0343378Y0189935D01*
X0343378Y0191534D02*
X0279778Y0191534D01*
X0279778Y0193132D02*
X0343378Y0193132D01*
X0343378Y0194731D02*
X0279778Y0194731D01*
X0279778Y0196329D02*
X0343378Y0196329D01*
X0343378Y0197928D02*
X0279778Y0197928D01*
X0279778Y0199526D02*
X0343378Y0199526D01*
X0343378Y0201125D02*
X0279778Y0201125D01*
X0279778Y0202723D02*
X0343378Y0202723D01*
X0343378Y0204322D02*
X0279778Y0204322D01*
X0279778Y0205920D02*
X0343378Y0205920D01*
X0343378Y0207519D02*
X0279778Y0207519D01*
X0284276Y0209117D02*
X0293416Y0209117D01*
X0290728Y0210716D02*
X0286965Y0210716D01*
X0288564Y0212314D02*
X0289129Y0212314D01*
X0280972Y0217618D02*
X0265224Y0217618D01*
X0271217Y0210716D02*
X0274978Y0210716D01*
X0273381Y0212314D02*
X0272816Y0212314D01*
X0272234Y0223504D02*
X0273963Y0223504D01*
X0275562Y0225102D02*
X0270635Y0225102D01*
X0267123Y0226701D02*
X0279074Y0226701D01*
X0278882Y0228299D02*
X0256480Y0228299D01*
X0254882Y0229898D02*
X0275483Y0229898D01*
X0273884Y0231496D02*
X0253283Y0231496D01*
X0252657Y0233095D02*
X0272846Y0233095D01*
X0272184Y0234694D02*
X0252657Y0234694D01*
X0252337Y0236292D02*
X0271854Y0236292D01*
X0268978Y0242686D02*
X0252657Y0242686D01*
X0251760Y0244285D02*
X0268978Y0244285D01*
X0268978Y0245883D02*
X0177323Y0245883D01*
X0177361Y0245957D02*
X0177614Y0246735D01*
X0177742Y0247543D01*
X0177742Y0247653D01*
X0169442Y0247653D01*
X0169442Y0242753D01*
X0172951Y0242753D01*
X0173759Y0242881D01*
X0174538Y0243134D01*
X0175267Y0243505D01*
X0175929Y0243986D01*
X0176508Y0244565D01*
X0176989Y0245227D01*
X0177361Y0245957D01*
X0177732Y0247482D02*
X0268978Y0247482D01*
X0266024Y0249080D02*
X0264424Y0249080D01*
X0264424Y0250679D02*
X0266024Y0250679D01*
X0266024Y0252277D02*
X0264424Y0252277D01*
X0264424Y0253876D02*
X0266024Y0253876D01*
X0266024Y0255474D02*
X0264424Y0255474D01*
X0264424Y0258671D02*
X0266024Y0258671D01*
X0266024Y0260270D02*
X0264424Y0260270D01*
X0264424Y0261868D02*
X0266024Y0261868D01*
X0266024Y0263467D02*
X0264424Y0263467D01*
X0264424Y0265065D02*
X0266024Y0265065D01*
X0269029Y0265065D02*
X0272166Y0265065D01*
X0271854Y0263467D02*
X0271358Y0263467D01*
X0275221Y0271459D02*
X0278775Y0271459D01*
X0283170Y0271459D02*
X0328490Y0271459D01*
X0327571Y0269861D02*
X0286507Y0269861D01*
X0288105Y0268262D02*
X0326909Y0268262D01*
X0326787Y0266664D02*
X0289117Y0266664D01*
X0289779Y0265065D02*
X0292393Y0265065D01*
X0290304Y0263467D02*
X0290091Y0263467D01*
X0287602Y0255474D02*
X0286842Y0255474D01*
X0288140Y0253876D02*
X0283978Y0253876D01*
X0288802Y0252277D02*
X0276541Y0252277D01*
X0274943Y0250679D02*
X0290135Y0250679D01*
X0291985Y0249080D02*
X0273778Y0249080D01*
X0273778Y0247482D02*
X0343378Y0247482D01*
X0343378Y0249080D02*
X0301455Y0249080D01*
X0303306Y0250679D02*
X0343378Y0250679D01*
X0343378Y0252277D02*
X0304638Y0252277D01*
X0305301Y0253876D02*
X0343378Y0253876D01*
X0343378Y0255474D02*
X0305839Y0255474D01*
X0305839Y0257073D02*
X0343378Y0257073D01*
X0343378Y0258671D02*
X0338310Y0258671D01*
X0340774Y0260270D02*
X0343378Y0260270D01*
X0343378Y0261868D02*
X0342226Y0261868D01*
X0342888Y0263467D02*
X0343378Y0263467D01*
X0343378Y0268262D02*
X0343265Y0268262D01*
X0343378Y0269861D02*
X0342603Y0269861D01*
X0343378Y0271459D02*
X0341683Y0271459D01*
X0340085Y0273058D02*
X0343378Y0273058D01*
X0343378Y0274656D02*
X0272024Y0274656D01*
X0273622Y0273058D02*
X0330089Y0273058D01*
X0326787Y0265065D02*
X0301048Y0265065D01*
X0303137Y0263467D02*
X0327285Y0263467D01*
X0327947Y0261868D02*
X0304568Y0261868D01*
X0305231Y0260270D02*
X0329399Y0260270D01*
X0331863Y0258671D02*
X0305839Y0258671D01*
X0286886Y0244285D02*
X0343378Y0244285D01*
X0343378Y0245883D02*
X0284085Y0245883D01*
X0288484Y0242686D02*
X0343378Y0242686D01*
X0343378Y0241088D02*
X0289274Y0241088D01*
X0289936Y0239489D02*
X0343378Y0239489D01*
X0343378Y0237891D02*
X0290091Y0237891D01*
X0290091Y0236292D02*
X0343378Y0236292D01*
X0343378Y0234694D02*
X0289761Y0234694D01*
X0289099Y0233095D02*
X0343378Y0233095D01*
X0343378Y0231496D02*
X0288061Y0231496D01*
X0286462Y0229898D02*
X0343378Y0229898D01*
X0343378Y0228299D02*
X0283062Y0228299D01*
X0282871Y0226701D02*
X0294822Y0226701D01*
X0298619Y0226701D02*
X0343378Y0226701D01*
X0343378Y0225102D02*
X0302131Y0225102D01*
X0303730Y0223504D02*
X0343378Y0223504D01*
X0343378Y0221905D02*
X0304814Y0221905D01*
X0305476Y0220307D02*
X0343378Y0220307D01*
X0343378Y0218708D02*
X0305839Y0218708D01*
X0305839Y0217110D02*
X0343378Y0217110D01*
X0343378Y0215511D02*
X0305717Y0215511D01*
X0305055Y0213913D02*
X0343378Y0213913D01*
X0343378Y0212314D02*
X0304312Y0212314D01*
X0302713Y0210716D02*
X0343378Y0210716D01*
X0343378Y0209117D02*
X0300025Y0209117D01*
X0289711Y0223504D02*
X0287982Y0223504D01*
X0286383Y0225102D02*
X0291310Y0225102D01*
X0277859Y0245883D02*
X0273778Y0245883D01*
X0273778Y0244285D02*
X0275059Y0244285D01*
X0261085Y0249080D02*
X0177628Y0249080D01*
X0176989Y0250679D02*
X0258922Y0250679D01*
X0257647Y0252277D02*
X0175437Y0252277D01*
X0176101Y0253876D02*
X0256861Y0253876D01*
X0243649Y0244285D02*
X0176227Y0244285D01*
X0169442Y0244285D02*
X0168842Y0244285D01*
X0168842Y0242753D02*
X0165332Y0242753D01*
X0164524Y0242881D01*
X0163746Y0243134D01*
X0163016Y0243505D01*
X0162354Y0243986D01*
X0161775Y0244565D01*
X0161294Y0245227D01*
X0160923Y0245957D01*
X0160670Y0246735D01*
X0160542Y0247543D01*
X0160542Y0247653D01*
X0168842Y0247653D01*
X0168842Y0242753D01*
X0168842Y0245883D02*
X0169442Y0245883D01*
X0169442Y0247482D02*
X0168842Y0247482D01*
X0162056Y0244285D02*
X0059981Y0244285D01*
X0059981Y0245883D02*
X0160960Y0245883D01*
X0160552Y0247482D02*
X0059981Y0247482D01*
X0059981Y0249080D02*
X0160655Y0249080D01*
X0161295Y0250679D02*
X0104792Y0250679D01*
X0104957Y0250747D02*
X0101832Y0249453D01*
X0098451Y0249453D01*
X0095327Y0250747D01*
X0092936Y0253138D01*
X0091642Y0256262D01*
X0091642Y0259644D01*
X0092936Y0262768D01*
X0095327Y0265159D01*
X0098451Y0266453D01*
X0101832Y0266453D01*
X0104957Y0265159D01*
X0107348Y0262768D01*
X0108642Y0259644D01*
X0108642Y0256262D01*
X0107348Y0253138D01*
X0104957Y0250747D01*
X0106487Y0252277D02*
X0162847Y0252277D01*
X0162182Y0253876D02*
X0107653Y0253876D01*
X0108315Y0255474D02*
X0160923Y0255474D01*
X0160342Y0257073D02*
X0108642Y0257073D01*
X0108642Y0258671D02*
X0160342Y0258671D01*
X0160857Y0260270D02*
X0108382Y0260270D01*
X0107720Y0261868D02*
X0162020Y0261868D01*
X0162591Y0263467D02*
X0106649Y0263467D01*
X0105050Y0265065D02*
X0161093Y0265065D01*
X0160431Y0266664D02*
X0059981Y0266664D01*
X0059981Y0268262D02*
X0160342Y0268262D01*
X0160687Y0269861D02*
X0059981Y0269861D01*
X0059981Y0271459D02*
X0161611Y0271459D01*
X0163956Y0273058D02*
X0059981Y0273058D01*
X0059981Y0265065D02*
X0095233Y0265065D01*
X0093635Y0263467D02*
X0059981Y0263467D01*
X0059981Y0261868D02*
X0092563Y0261868D01*
X0091901Y0260270D02*
X0059981Y0260270D01*
X0059981Y0258671D02*
X0091642Y0258671D01*
X0091642Y0257073D02*
X0059981Y0257073D01*
X0059981Y0255474D02*
X0091968Y0255474D01*
X0092630Y0253876D02*
X0059981Y0253876D01*
X0059981Y0252277D02*
X0093797Y0252277D01*
X0095491Y0250679D02*
X0059981Y0250679D01*
X0059981Y0242686D02*
X0242752Y0242686D01*
X0242752Y0241088D02*
X0059981Y0241088D01*
X0059981Y0239489D02*
X0242752Y0239489D01*
X0242752Y0237891D02*
X0059981Y0237891D01*
X0059981Y0236292D02*
X0243072Y0236292D01*
X0242752Y0234694D02*
X0221565Y0234694D01*
X0221324Y0234935D02*
X0219142Y0235839D01*
X0216780Y0235839D01*
X0214598Y0234935D01*
X0212927Y0233265D01*
X0212024Y0231083D01*
X0212024Y0228721D01*
X0212927Y0226539D01*
X0214598Y0224868D01*
X0216780Y0223965D01*
X0219142Y0223965D01*
X0221324Y0224868D01*
X0222994Y0226539D01*
X0223898Y0228721D01*
X0223898Y0231083D01*
X0222994Y0233265D01*
X0221324Y0234935D01*
X0223064Y0233095D02*
X0242752Y0233095D01*
X0236972Y0231496D02*
X0223726Y0231496D01*
X0223898Y0229898D02*
X0235374Y0229898D01*
X0236343Y0230867D02*
X0236343Y0230867D01*
X0233775Y0228299D02*
X0223723Y0228299D01*
X0223061Y0226701D02*
X0232177Y0226701D01*
X0230578Y0225102D02*
X0221558Y0225102D01*
X0225783Y0220307D02*
X0059981Y0220307D01*
X0059981Y0221905D02*
X0227381Y0221905D01*
X0228980Y0223504D02*
X0059981Y0223504D01*
X0059981Y0225102D02*
X0214364Y0225102D01*
X0212860Y0226701D02*
X0059981Y0226701D01*
X0059981Y0228299D02*
X0212198Y0228299D01*
X0212024Y0229898D02*
X0059981Y0229898D01*
X0059981Y0231496D02*
X0212195Y0231496D01*
X0212857Y0233095D02*
X0059981Y0233095D01*
X0059981Y0234694D02*
X0214356Y0234694D01*
X0224184Y0218708D02*
X0059981Y0218708D01*
X0059981Y0217110D02*
X0222586Y0217110D01*
X0220987Y0215511D02*
X0112697Y0215511D01*
X0112697Y0213913D02*
X0219389Y0213913D01*
X0217790Y0212314D02*
X0112697Y0212314D01*
X0112697Y0210716D02*
X0216192Y0210716D01*
X0214593Y0209117D02*
X0112697Y0209117D01*
X0112503Y0207519D02*
X0114324Y0207519D01*
X0113402Y0205920D02*
X0113189Y0205920D01*
X0113878Y0203051D02*
X0108630Y0203051D01*
X0108138Y0203543D01*
X0108138Y0212146D01*
X0100657Y0212146D02*
X0100657Y0203543D01*
X0101150Y0203051D01*
X0096591Y0202723D02*
X0059981Y0202723D01*
X0059981Y0201125D02*
X0096591Y0201125D01*
X0096591Y0199526D02*
X0059981Y0199526D01*
X0059981Y0197928D02*
X0103064Y0197928D01*
X0104662Y0196329D02*
X0059981Y0196329D01*
X0059981Y0194731D02*
X0105378Y0194731D01*
X0105825Y0193132D02*
X0059981Y0193132D01*
X0059981Y0191534D02*
X0107313Y0191534D01*
X0111443Y0191534D02*
X0111478Y0191534D01*
X0111478Y0189935D02*
X0059981Y0189935D01*
X0059981Y0188337D02*
X0111478Y0188337D01*
X0110472Y0186738D02*
X0059981Y0186738D01*
X0059981Y0185140D02*
X0109878Y0185140D01*
X0109949Y0183541D02*
X0059981Y0183541D01*
X0059981Y0181943D02*
X0110786Y0181943D01*
X0125441Y0193720D02*
X0130378Y0193720D01*
X0136563Y0193720D01*
X0132430Y0197928D02*
X0129574Y0197928D01*
X0129773Y0199526D02*
X0132230Y0199526D01*
X0132204Y0201125D02*
X0129800Y0201125D01*
X0129800Y0204322D02*
X0132204Y0204322D01*
X0132204Y0205920D02*
X0129800Y0205920D01*
X0128419Y0207519D02*
X0133584Y0207519D01*
X0136083Y0207519D02*
X0137043Y0207519D01*
X0137043Y0205920D02*
X0136083Y0205920D01*
X0136083Y0204322D02*
X0137043Y0204322D01*
X0136083Y0202723D02*
X0125921Y0202723D01*
X0125920Y0204322D02*
X0124961Y0204322D01*
X0124961Y0205920D02*
X0125920Y0205920D01*
X0125920Y0207519D02*
X0124961Y0207519D01*
X0122462Y0207519D02*
X0121597Y0207519D01*
X0117724Y0203051D02*
X0117961Y0202815D01*
X0117724Y0203051D02*
X0113878Y0203051D01*
X0096591Y0204322D02*
X0059981Y0204322D01*
X0059981Y0205920D02*
X0096591Y0205920D01*
X0096944Y0207519D02*
X0059981Y0207519D01*
X0059981Y0209117D02*
X0096098Y0209117D01*
X0096098Y0210716D02*
X0059981Y0210716D01*
X0059981Y0212314D02*
X0096098Y0212314D01*
X0096098Y0213913D02*
X0059981Y0213913D01*
X0059981Y0215511D02*
X0096098Y0215511D01*
X0132778Y0188337D02*
X0193813Y0188337D01*
X0195411Y0189935D02*
X0165232Y0189935D01*
X0165236Y0191534D02*
X0197010Y0191534D01*
X0198608Y0193132D02*
X0165236Y0193132D01*
X0165236Y0194731D02*
X0200207Y0194731D01*
X0201805Y0196329D02*
X0165236Y0196329D01*
X0164810Y0197928D02*
X0203404Y0197928D01*
X0205002Y0199526D02*
X0165236Y0199526D01*
X0165236Y0201125D02*
X0166604Y0201125D01*
X0172152Y0201125D02*
X0206601Y0201125D01*
X0208199Y0202723D02*
X0173175Y0202723D01*
X0173378Y0204322D02*
X0209798Y0204322D01*
X0211396Y0205920D02*
X0172915Y0205920D01*
X0171354Y0207519D02*
X0212995Y0207519D01*
X0192214Y0186738D02*
X0132778Y0186738D01*
X0132778Y0185140D02*
X0190616Y0185140D01*
X0189017Y0183541D02*
X0132778Y0183541D01*
X0132778Y0181943D02*
X0187419Y0181943D01*
X0186478Y0180344D02*
X0132778Y0180344D01*
X0132778Y0178746D02*
X0164722Y0178746D01*
X0163123Y0177147D02*
X0132778Y0177147D01*
X0132778Y0175549D02*
X0161525Y0175549D01*
X0159926Y0173950D02*
X0132778Y0173950D01*
X0132778Y0172352D02*
X0158328Y0172352D01*
X0156796Y0170753D02*
X0133290Y0170753D01*
X0136182Y0169155D02*
X0137141Y0169155D01*
X0137141Y0167556D02*
X0136182Y0167556D01*
X0136182Y0165958D02*
X0137141Y0165958D01*
X0136182Y0165263D02*
X0133290Y0165263D01*
X0132644Y0164617D01*
X0131174Y0164008D01*
X0129582Y0164008D01*
X0129508Y0164039D01*
X0129978Y0162904D01*
X0129978Y0161312D01*
X0129741Y0160740D01*
X0130718Y0160740D01*
X0131890Y0159569D01*
X0131890Y0158587D01*
X0132102Y0158587D01*
X0132102Y0159391D01*
X0133063Y0160352D01*
X0132997Y0160390D01*
X0132662Y0160725D01*
X0132425Y0161136D01*
X0132302Y0161594D01*
X0132302Y0164304D01*
X0136182Y0164304D01*
X0136182Y0160563D01*
X0137141Y0160563D01*
X0137141Y0164304D01*
X0136182Y0164304D01*
X0136182Y0165263D01*
X0136661Y0164783D02*
X0136661Y0179705D01*
X0173669Y0179705D01*
X0173669Y0215138D01*
X0167402Y0207519D02*
X0164314Y0207519D01*
X0160677Y0202815D02*
X0160677Y0193720D01*
X0153197Y0193720D02*
X0144043Y0193720D01*
X0144378Y0194055D01*
X0144378Y0202008D01*
X0144043Y0202343D01*
X0144043Y0202815D01*
X0148602Y0202723D02*
X0152717Y0202723D01*
X0153197Y0202815D02*
X0153197Y0215138D01*
X0152717Y0207519D02*
X0153676Y0207519D01*
X0153676Y0205920D02*
X0152717Y0205920D01*
X0152717Y0204322D02*
X0153676Y0204322D01*
X0156175Y0207519D02*
X0157041Y0207519D01*
X0150218Y0207519D02*
X0147680Y0207519D01*
X0148602Y0205920D02*
X0148838Y0205920D01*
X0148838Y0204322D02*
X0148602Y0204322D01*
X0148602Y0201125D02*
X0148838Y0201125D01*
X0148864Y0199526D02*
X0148602Y0199526D01*
X0148176Y0197928D02*
X0149064Y0197928D01*
X0148642Y0189935D02*
X0148598Y0189935D01*
X0140407Y0207519D02*
X0139541Y0207519D01*
X0148111Y0169155D02*
X0151295Y0169155D01*
X0155264Y0164783D02*
X0144142Y0164783D01*
X0148701Y0161162D02*
X0150705Y0161162D01*
X0154784Y0154768D02*
X0155743Y0154768D01*
X0155743Y0153169D02*
X0154784Y0153169D01*
X0154784Y0151571D02*
X0155743Y0151571D01*
X0162744Y0155610D02*
X0162744Y0164783D01*
X0171898Y0164783D01*
X0167339Y0161162D02*
X0167303Y0161162D01*
X0167131Y0159563D02*
X0167838Y0159563D01*
X0167539Y0157965D02*
X0167303Y0157965D01*
X0167303Y0156366D02*
X0167539Y0156366D01*
X0167539Y0154768D02*
X0167303Y0154768D01*
X0167303Y0153169D02*
X0167539Y0153169D01*
X0167887Y0151571D02*
X0167045Y0151571D01*
X0171418Y0151571D02*
X0172377Y0151571D01*
X0172377Y0153169D02*
X0171418Y0153169D01*
X0171418Y0154768D02*
X0172377Y0154768D01*
X0179378Y0155610D02*
X0179378Y0164783D01*
X0154464Y0143578D02*
X0235120Y0143578D01*
X0235120Y0141980D02*
X0155305Y0141980D01*
X0155378Y0140381D02*
X0235120Y0140381D01*
X0235120Y0138783D02*
X0154786Y0138783D01*
X0152600Y0137184D02*
X0235120Y0137184D01*
X0235120Y0135586D02*
X0111650Y0135586D01*
X0113248Y0137184D02*
X0150156Y0137184D01*
X0147970Y0138783D02*
X0114847Y0138783D01*
X0116446Y0140381D02*
X0147378Y0140381D01*
X0147012Y0141980D02*
X0118044Y0141980D01*
X0119850Y0147185D02*
X0119850Y0155787D01*
X0127331Y0155787D02*
X0127331Y0149114D01*
X0126425Y0148209D01*
X0128394Y0148209D01*
X0128394Y0146240D01*
X0126425Y0146240D01*
X0126425Y0146280D01*
X0127331Y0147185D01*
X0131890Y0146775D02*
X0142216Y0146775D01*
X0143815Y0145177D02*
X0131890Y0145177D01*
X0131890Y0143578D02*
X0145413Y0143578D01*
X0149005Y0146775D02*
X0243478Y0146775D01*
X0243478Y0145177D02*
X0150603Y0145177D01*
X0147406Y0148374D02*
X0237075Y0148374D01*
X0240220Y0148374D02*
X0240820Y0148374D01*
X0240820Y0149972D02*
X0240220Y0149972D01*
X0240220Y0151571D02*
X0240820Y0151571D01*
X0248278Y0146775D02*
X0273478Y0146775D01*
X0273478Y0145177D02*
X0248278Y0145177D01*
X0237441Y0133987D02*
X0110051Y0133987D01*
X0108453Y0132389D02*
X0235901Y0132389D01*
X0235239Y0130790D02*
X0106854Y0130790D01*
X0105256Y0129192D02*
X0235120Y0129192D01*
X0235435Y0127593D02*
X0103657Y0127593D01*
X0102059Y0125995D02*
X0236317Y0125995D01*
X0238400Y0124396D02*
X0100460Y0124396D01*
X0098862Y0122798D02*
X0236252Y0122798D01*
X0235408Y0121199D02*
X0097263Y0121199D01*
X0095665Y0119601D02*
X0235120Y0119601D01*
X0235266Y0118002D02*
X0094066Y0118002D01*
X0092468Y0116404D02*
X0235928Y0116404D01*
X0237572Y0114805D02*
X0090869Y0114805D01*
X0089271Y0113207D02*
X0236943Y0113207D01*
X0235794Y0111608D02*
X0087672Y0111608D01*
X0086074Y0110010D02*
X0235347Y0110010D01*
X0235416Y0108411D02*
X0084475Y0108411D01*
X0082877Y0106813D02*
X0236017Y0106813D01*
X0206092Y0097222D02*
X0201377Y0097222D01*
X0202975Y0095623D02*
X0204099Y0095623D01*
X0198378Y0095623D02*
X0198378Y0095623D01*
X0198378Y0094025D02*
X0198378Y0094025D01*
X0198378Y0097222D02*
X0198378Y0097222D01*
X0195379Y0097222D02*
X0194258Y0097222D01*
X0137437Y0096634D02*
X0137437Y0088209D01*
X0137237Y0088409D02*
X0137237Y0093509D01*
X0137020Y0093509D01*
X0136981Y0093502D01*
X0136981Y0096434D01*
X0137381Y0096434D01*
X0137381Y0091334D01*
X0137598Y0091334D01*
X0137637Y0091340D01*
X0137637Y0088409D01*
X0137237Y0088409D01*
X0137237Y0089229D02*
X0137637Y0089229D01*
X0137637Y0090827D02*
X0137237Y0090827D01*
X0137237Y0092426D02*
X0137381Y0092426D01*
X0137381Y0094025D02*
X0136981Y0094025D01*
X0136981Y0095623D02*
X0137381Y0095623D01*
X0137437Y0096634D02*
X0137181Y0096634D01*
X0136981Y0097222D02*
X0137381Y0097222D01*
X0137381Y0098820D02*
X0136981Y0098820D01*
X0136981Y0100419D02*
X0137381Y0100419D01*
X0133470Y0100419D02*
X0131175Y0100419D01*
X0132229Y0098820D02*
X0132347Y0098820D01*
X0123188Y0100419D02*
X0121175Y0100419D01*
X0113188Y0100419D02*
X0111175Y0100419D01*
X0103188Y0100419D02*
X0101175Y0100419D01*
X0093188Y0100419D02*
X0091175Y0100419D01*
X0083188Y0100419D02*
X0081175Y0100419D01*
X0063188Y0100419D02*
X0061175Y0100419D01*
X0047437Y0096634D02*
X0047437Y0088209D01*
X0047437Y0096634D02*
X0047181Y0096634D01*
X0037437Y0096634D02*
X0037437Y0088209D01*
X0029057Y0082835D02*
X0028836Y0082835D01*
X0030655Y0081236D02*
X0025444Y0081236D01*
X0026038Y0082835D02*
X0024378Y0082835D01*
X0027042Y0079638D02*
X0032254Y0079638D01*
X0030239Y0076441D02*
X0036440Y0076441D01*
X0036301Y0075079D02*
X0036301Y0074599D01*
X0036451Y0073650D01*
X0036748Y0072737D01*
X0037184Y0071882D01*
X0037748Y0071105D01*
X0038427Y0070426D01*
X0039204Y0069862D01*
X0040059Y0069426D01*
X0040972Y0069129D01*
X0041921Y0068979D01*
X0046701Y0068979D01*
X0046701Y0075079D01*
X0046701Y0075079D01*
X0036301Y0075079D01*
X0036301Y0074842D02*
X0031838Y0074842D01*
X0033436Y0073244D02*
X0036583Y0073244D01*
X0037355Y0071645D02*
X0035035Y0071645D01*
X0036633Y0070047D02*
X0038949Y0070047D01*
X0041429Y0065251D02*
X0054372Y0065251D01*
X0053007Y0063653D02*
X0043027Y0063653D01*
X0044626Y0062054D02*
X0052344Y0062054D01*
X0052212Y0060456D02*
X0046224Y0060456D01*
X0047823Y0058857D02*
X0052212Y0058857D01*
X0052212Y0057259D02*
X0049421Y0057259D01*
X0051020Y0055660D02*
X0052212Y0055660D01*
X0047428Y0052463D02*
X0040990Y0052463D01*
X0040990Y0054062D02*
X0045830Y0054062D01*
X0044231Y0055660D02*
X0040990Y0055660D01*
X0040990Y0057259D02*
X0042633Y0057259D01*
X0041034Y0058857D02*
X0040990Y0058857D01*
X0034890Y0056181D02*
X0034890Y0056181D01*
X0028790Y0056181D01*
X0028790Y0053090D01*
X0022778Y0059102D01*
X0022778Y0077114D01*
X0033461Y0066431D01*
X0032548Y0066134D01*
X0031693Y0065698D01*
X0030916Y0065134D01*
X0030237Y0064455D01*
X0029673Y0063678D01*
X0029237Y0062823D01*
X0028940Y0061910D01*
X0028790Y0060961D01*
X0028790Y0056181D01*
X0034890Y0056181D01*
X0028790Y0055660D02*
X0026220Y0055660D01*
X0027818Y0054062D02*
X0028790Y0054062D01*
X0028790Y0057259D02*
X0024621Y0057259D01*
X0023023Y0058857D02*
X0028790Y0058857D01*
X0028790Y0060456D02*
X0022778Y0060456D01*
X0022778Y0062054D02*
X0028987Y0062054D01*
X0029660Y0063653D02*
X0022778Y0063653D01*
X0022778Y0065251D02*
X0031077Y0065251D01*
X0033042Y0066850D02*
X0022778Y0066850D01*
X0022778Y0068448D02*
X0031443Y0068448D01*
X0029845Y0070047D02*
X0022778Y0070047D01*
X0022778Y0071645D02*
X0028246Y0071645D01*
X0026648Y0073244D02*
X0022778Y0073244D01*
X0022778Y0074842D02*
X0025049Y0074842D01*
X0023451Y0076441D02*
X0022778Y0076441D01*
X0017978Y0076441D02*
X0007378Y0076441D01*
X0007378Y0078039D02*
X0017978Y0078039D01*
X0017978Y0079638D02*
X0007378Y0079638D01*
X0007378Y0081236D02*
X0017978Y0081236D01*
X0017978Y0082835D02*
X0007378Y0082835D01*
X0007378Y0084433D02*
X0017978Y0084433D01*
X0017978Y0086032D02*
X0007378Y0086032D01*
X0007378Y0087630D02*
X0017978Y0087630D01*
X0017978Y0089229D02*
X0007378Y0089229D01*
X0007378Y0090827D02*
X0017978Y0090827D01*
X0017978Y0092426D02*
X0007378Y0092426D01*
X0007378Y0094025D02*
X0017978Y0094025D01*
X0017978Y0095623D02*
X0007378Y0095623D01*
X0007378Y0097222D02*
X0017978Y0097222D01*
X0017978Y0098820D02*
X0007378Y0098820D01*
X0007378Y0100419D02*
X0017978Y0100419D01*
X0017978Y0102017D02*
X0007378Y0102017D01*
X0007378Y0103616D02*
X0017978Y0103616D01*
X0017978Y0105214D02*
X0007378Y0105214D01*
X0007378Y0106813D02*
X0017978Y0106813D01*
X0017978Y0108411D02*
X0007378Y0108411D01*
X0007378Y0110010D02*
X0017978Y0110010D01*
X0017978Y0111608D02*
X0007378Y0111608D01*
X0007378Y0113207D02*
X0017978Y0113207D01*
X0017978Y0114805D02*
X0007378Y0114805D01*
X0007378Y0116404D02*
X0017978Y0116404D01*
X0017978Y0118002D02*
X0007378Y0118002D01*
X0007378Y0119601D02*
X0017978Y0119601D01*
X0017978Y0121199D02*
X0007378Y0121199D01*
X0007378Y0122798D02*
X0017978Y0122798D01*
X0017978Y0124396D02*
X0007378Y0124396D01*
X0007378Y0125995D02*
X0017978Y0125995D01*
X0017978Y0127593D02*
X0007378Y0127593D01*
X0007378Y0129192D02*
X0017978Y0129192D01*
X0017978Y0130790D02*
X0007378Y0130790D01*
X0007378Y0132389D02*
X0017978Y0132389D01*
X0017978Y0133987D02*
X0007378Y0133987D01*
X0007378Y0135586D02*
X0017978Y0135586D01*
X0017978Y0137184D02*
X0007378Y0137184D01*
X0007378Y0138783D02*
X0017978Y0138783D01*
X0017978Y0140381D02*
X0007378Y0140381D01*
X0007378Y0141980D02*
X0017978Y0141980D01*
X0017978Y0143578D02*
X0007378Y0143578D01*
X0007378Y0145177D02*
X0017978Y0145177D01*
X0017978Y0146775D02*
X0007378Y0146775D01*
X0007378Y0148374D02*
X0017978Y0148374D01*
X0017978Y0149972D02*
X0007378Y0149972D01*
X0007378Y0151571D02*
X0017978Y0151571D01*
X0017978Y0153169D02*
X0007378Y0153169D01*
X0007378Y0154768D02*
X0017978Y0154768D01*
X0017978Y0156366D02*
X0007378Y0156366D01*
X0007378Y0157965D02*
X0017978Y0157965D01*
X0017978Y0159563D02*
X0007378Y0159563D01*
X0007378Y0161162D02*
X0017978Y0161162D01*
X0017978Y0162760D02*
X0007378Y0162760D01*
X0007378Y0164359D02*
X0017978Y0164359D01*
X0017978Y0165958D02*
X0007378Y0165958D01*
X0007378Y0167556D02*
X0017978Y0167556D01*
X0017978Y0169155D02*
X0007378Y0169155D01*
X0007378Y0170753D02*
X0017978Y0170753D01*
X0017978Y0172352D02*
X0007378Y0172352D01*
X0007378Y0173950D02*
X0017978Y0173950D01*
X0017978Y0175549D02*
X0007378Y0175549D01*
X0007378Y0177147D02*
X0017978Y0177147D01*
X0017978Y0178746D02*
X0007378Y0178746D01*
X0007378Y0180344D02*
X0017978Y0180344D01*
X0017978Y0181943D02*
X0007378Y0181943D01*
X0007378Y0183541D02*
X0017978Y0183541D01*
X0017978Y0185140D02*
X0007378Y0185140D01*
X0007378Y0186738D02*
X0017978Y0186738D01*
X0017978Y0188337D02*
X0007378Y0188337D01*
X0007378Y0189935D02*
X0017978Y0189935D01*
X0017978Y0191534D02*
X0007378Y0191534D01*
X0007378Y0193132D02*
X0017978Y0193132D01*
X0017978Y0194731D02*
X0007378Y0194731D01*
X0007378Y0196329D02*
X0017978Y0196329D01*
X0017978Y0197928D02*
X0007378Y0197928D01*
X0007378Y0199526D02*
X0017978Y0199526D01*
X0017978Y0201125D02*
X0007378Y0201125D01*
X0007378Y0202723D02*
X0017978Y0202723D01*
X0017978Y0204322D02*
X0007378Y0204322D01*
X0007378Y0205920D02*
X0017978Y0205920D01*
X0017978Y0207519D02*
X0007378Y0207519D01*
X0007378Y0209117D02*
X0017978Y0209117D01*
X0017978Y0210716D02*
X0007378Y0210716D01*
X0007378Y0212314D02*
X0017978Y0212314D01*
X0017978Y0213913D02*
X0007378Y0213913D01*
X0007378Y0215511D02*
X0017978Y0215511D01*
X0017978Y0217110D02*
X0007378Y0217110D01*
X0007378Y0218708D02*
X0017978Y0218708D01*
X0017978Y0220307D02*
X0007378Y0220307D01*
X0007378Y0221905D02*
X0017978Y0221905D01*
X0017978Y0223504D02*
X0007378Y0223504D01*
X0007378Y0225102D02*
X0017978Y0225102D01*
X0017978Y0226701D02*
X0007378Y0226701D01*
X0007378Y0228299D02*
X0017978Y0228299D01*
X0017978Y0229898D02*
X0007378Y0229898D01*
X0007378Y0231496D02*
X0017978Y0231496D01*
X0017978Y0233095D02*
X0007378Y0233095D01*
X0007378Y0234694D02*
X0017978Y0234694D01*
X0017978Y0236292D02*
X0007378Y0236292D01*
X0007378Y0237891D02*
X0017978Y0237891D01*
X0017978Y0239489D02*
X0007378Y0239489D01*
X0007378Y0241088D02*
X0017978Y0241088D01*
X0018362Y0242686D02*
X0007378Y0242686D01*
X0007378Y0244285D02*
X0019961Y0244285D01*
X0021559Y0245883D02*
X0007378Y0245883D01*
X0007378Y0247482D02*
X0023158Y0247482D01*
X0024756Y0249080D02*
X0007378Y0249080D01*
X0007378Y0250679D02*
X0026355Y0250679D01*
X0027953Y0252277D02*
X0007378Y0252277D01*
X0007378Y0253876D02*
X0029552Y0253876D01*
X0031150Y0255474D02*
X0007378Y0255474D01*
X0007378Y0257073D02*
X0032749Y0257073D01*
X0034347Y0258671D02*
X0021381Y0258671D01*
X0022859Y0259283D02*
X0025193Y0261618D01*
X0026457Y0264668D01*
X0026457Y0267970D01*
X0025193Y0271020D01*
X0022859Y0273355D01*
X0019808Y0274618D01*
X0016507Y0274618D01*
X0013456Y0273355D01*
X0011122Y0271020D01*
X0009858Y0267970D01*
X0009858Y0264668D01*
X0011122Y0261618D01*
X0013456Y0259283D01*
X0016507Y0258020D01*
X0019808Y0258020D01*
X0022859Y0259283D01*
X0023845Y0260270D02*
X0035946Y0260270D01*
X0037544Y0261868D02*
X0025297Y0261868D01*
X0025959Y0263467D02*
X0039143Y0263467D01*
X0040741Y0265065D02*
X0026457Y0265065D01*
X0026457Y0266664D02*
X0042340Y0266664D01*
X0043938Y0268262D02*
X0026336Y0268262D01*
X0025673Y0269861D02*
X0045537Y0269861D01*
X0047135Y0271459D02*
X0024754Y0271459D01*
X0023155Y0273058D02*
X0048734Y0273058D01*
X0050332Y0274656D02*
X0007378Y0274656D01*
X0007378Y0273058D02*
X0013159Y0273058D01*
X0011561Y0271459D02*
X0007378Y0271459D01*
X0007378Y0269861D02*
X0010642Y0269861D01*
X0009979Y0268262D02*
X0007378Y0268262D01*
X0007378Y0266664D02*
X0009858Y0266664D01*
X0009858Y0265065D02*
X0007378Y0265065D01*
X0007378Y0263467D02*
X0010356Y0263467D01*
X0011018Y0261868D02*
X0007378Y0261868D01*
X0007378Y0260270D02*
X0012470Y0260270D01*
X0014934Y0258671D02*
X0007378Y0258671D01*
X0007378Y0276255D02*
X0051931Y0276255D01*
X0132021Y0164359D02*
X0136182Y0164359D01*
X0136661Y0164783D02*
X0136661Y0163091D01*
X0136182Y0162760D02*
X0137141Y0162760D01*
X0137141Y0161162D02*
X0136182Y0161162D01*
X0132418Y0161162D02*
X0129916Y0161162D01*
X0129978Y0162760D02*
X0132302Y0162760D01*
X0132274Y0159563D02*
X0131890Y0159563D01*
X0127331Y0155787D02*
X0136484Y0155787D01*
X0136661Y0155610D01*
X0132360Y0151571D02*
X0131454Y0151571D01*
X0131890Y0149972D02*
X0139019Y0149972D01*
X0140618Y0148374D02*
X0131890Y0148374D01*
X0046701Y0074842D02*
X0046701Y0074842D01*
X0046701Y0073244D02*
X0046701Y0073244D01*
X0046701Y0071645D02*
X0046701Y0071645D01*
X0046701Y0070047D02*
X0046701Y0070047D01*
X0037063Y0078039D02*
X0028641Y0078039D01*
X0017978Y0074842D02*
X0007378Y0074842D01*
X0007378Y0073244D02*
X0017978Y0073244D01*
X0017978Y0071645D02*
X0007378Y0071645D01*
X0007378Y0070047D02*
X0017978Y0070047D01*
X0017978Y0068448D02*
X0007378Y0068448D01*
X0007378Y0066850D02*
X0017978Y0066850D01*
X0017978Y0065251D02*
X0007378Y0065251D01*
X0007378Y0063653D02*
X0017978Y0063653D01*
X0017978Y0062054D02*
X0007378Y0062054D01*
X0007378Y0060456D02*
X0017978Y0060456D01*
X0017978Y0058857D02*
X0007378Y0058857D01*
X0007378Y0057259D02*
X0018132Y0057259D01*
X0019431Y0055660D02*
X0007378Y0055660D01*
X0007378Y0054062D02*
X0021030Y0054062D01*
X0022628Y0052463D02*
X0007378Y0052463D01*
X0007378Y0050865D02*
X0024227Y0050865D01*
X0025826Y0049266D02*
X0007378Y0049266D01*
X0007378Y0047668D02*
X0027424Y0047668D01*
X0029023Y0046069D02*
X0007378Y0046069D01*
X0007378Y0044471D02*
X0030621Y0044471D01*
X0039303Y0047668D02*
X0049978Y0047668D01*
X0049978Y0049266D02*
X0040404Y0049266D01*
X0040905Y0050865D02*
X0049027Y0050865D01*
X0054778Y0046069D02*
X0056080Y0046069D01*
X0059563Y0033281D02*
X0065178Y0033281D01*
X0063133Y0031683D02*
X0061741Y0031683D01*
X0043133Y0031683D02*
X0041741Y0031683D01*
X0075763Y0014099D02*
X0092393Y0014099D01*
X0083824Y0015697D02*
X0081326Y0015697D01*
X0082522Y0017296D02*
X0082628Y0017296D01*
X0027437Y0088209D02*
X0027437Y0096634D01*
X0027181Y0096634D01*
X0037181Y0096634D02*
X0037437Y0096634D01*
X0248278Y0223504D02*
X0254488Y0223504D01*
X0252889Y0225102D02*
X0248278Y0225102D01*
X0247579Y0226701D02*
X0251291Y0226701D01*
X0258079Y0226701D02*
X0263326Y0226701D01*
X0259814Y0225102D02*
X0259677Y0225102D01*
X0273702Y0186738D02*
X0274978Y0186738D01*
X0336796Y0105214D02*
X0343378Y0105214D01*
X0343378Y0103616D02*
X0337594Y0103616D01*
X0337594Y0102017D02*
X0343378Y0102017D01*
X0343378Y0100419D02*
X0337594Y0100419D01*
X0337594Y0098820D02*
X0343378Y0098820D01*
X0343378Y0097222D02*
X0337594Y0097222D01*
X0343378Y0276255D02*
X0270425Y0276255D01*
D23*
X0265178Y0278108D02*
X0280378Y0262908D01*
X0280972Y0262500D01*
X0280378Y0261008D01*
X0280378Y0259508D01*
X0271378Y0250508D01*
X0271378Y0240008D01*
X0248878Y0240008D01*
X0247705Y0240000D01*
X0247705Y0232520D02*
X0248878Y0232508D01*
X0263878Y0217508D01*
X0265224Y0217618D01*
X0277378Y0217508D02*
X0280972Y0217618D01*
X0277378Y0217508D02*
X0277378Y0129429D01*
X0277378Y0129008D01*
X0275878Y0129008D02*
X0275878Y0129429D01*
X0275878Y0166508D01*
X0271378Y0171008D01*
X0270520Y0172283D01*
X0245878Y0124508D02*
X0241378Y0120008D01*
X0240520Y0119429D01*
X0245878Y0124508D02*
X0245878Y0225008D01*
X0242878Y0228008D01*
X0242878Y0229508D01*
X0238378Y0229508D01*
X0188878Y0180008D01*
X0188878Y0177008D01*
X0166378Y0177008D01*
X0158878Y0169508D01*
X0158878Y0168008D01*
X0155878Y0165008D01*
X0155264Y0164783D01*
X0165978Y0150908D02*
X0169978Y0154908D01*
X0171578Y0154908D01*
X0171898Y0155610D01*
X0165978Y0150908D02*
X0155264Y0150908D01*
X0151378Y0141008D02*
X0137878Y0154508D01*
X0136661Y0155610D01*
X0125978Y0162108D02*
X0120378Y0156508D01*
X0119850Y0155787D01*
X0119850Y0147185D02*
X0119578Y0146908D01*
X0072378Y0099708D01*
X0072378Y0086108D01*
X0069178Y0082908D01*
X0035578Y0082908D01*
X0032378Y0086108D01*
X0032378Y0098108D01*
X0028378Y0102108D01*
X0025978Y0102108D01*
X0021978Y0098108D01*
X0021978Y0081308D01*
X0052378Y0050908D01*
X0052378Y0033308D01*
X0057178Y0028508D01*
X0057437Y0028209D01*
X0052378Y0030108D02*
X0052378Y0026108D01*
X0052578Y0022908D01*
X0052578Y0017308D01*
X0054978Y0014908D01*
X0073178Y0014908D01*
X0077978Y0019708D01*
X0080378Y0019708D01*
X0077575Y0019724D01*
X0067437Y0028209D02*
X0067578Y0028508D01*
X0067578Y0046108D01*
X0081978Y0060508D01*
X0091578Y0055708D02*
X0065978Y0081308D01*
X0033978Y0081308D01*
X0027578Y0087708D01*
X0027437Y0088209D01*
X0020378Y0058108D02*
X0020378Y0241308D01*
X0057178Y0278108D01*
X0265178Y0278108D01*
X0239878Y0225008D02*
X0179878Y0165008D01*
X0179378Y0164783D01*
X0169378Y0204008D02*
X0161878Y0204008D01*
X0160677Y0202815D01*
X0130378Y0193720D02*
X0130378Y0168008D01*
X0113878Y0184508D02*
X0113878Y0203051D01*
X0109378Y0195008D02*
X0101878Y0202508D01*
X0101150Y0203051D01*
X0169378Y0247508D02*
X0169142Y0247953D01*
X0169378Y0247508D02*
X0172378Y0244508D01*
X0172378Y0244665D01*
X0296378Y0100508D02*
X0302778Y0100508D01*
X0302819Y0100813D01*
X0296378Y0100508D02*
X0273978Y0078108D01*
X0269178Y0078108D01*
X0268925Y0077421D01*
X0261978Y0094908D02*
X0206778Y0094908D01*
X0200378Y0088508D01*
X0196378Y0088508D01*
X0193178Y0091708D01*
X0193178Y0094908D01*
X0189978Y0098108D01*
X0184378Y0098108D01*
X0169178Y0082908D01*
X0122778Y0082908D01*
X0117978Y0087708D01*
X0117437Y0088209D01*
X0103578Y0074108D02*
X0098778Y0078908D01*
X0103578Y0074108D02*
X0161978Y0074108D01*
X0162638Y0073508D01*
X0162638Y0064508D02*
X0098778Y0064508D01*
X0081178Y0082108D01*
X0077978Y0080508D02*
X0077978Y0087708D01*
X0077437Y0088209D01*
X0077978Y0080508D02*
X0098778Y0059708D01*
X0173178Y0059708D01*
X0179578Y0053308D01*
X0189978Y0053308D01*
X0193178Y0056508D01*
X0193178Y0064508D01*
X0212378Y0083708D01*
X0223578Y0083708D01*
X0227578Y0079708D01*
X0229178Y0079708D01*
X0229772Y0079311D01*
X0235578Y0079708D02*
X0229978Y0085308D01*
X0202778Y0085308D01*
X0186778Y0069308D01*
X0103578Y0069308D01*
X0087578Y0085308D01*
X0087578Y0087708D01*
X0087437Y0088209D01*
X0091578Y0055708D02*
X0161978Y0055708D01*
X0162638Y0055508D01*
X0137978Y0030108D02*
X0133178Y0034908D01*
X0097178Y0034908D01*
X0092378Y0030108D01*
X0092378Y0026108D01*
X0092578Y0022908D01*
X0092578Y0017308D01*
X0094978Y0014908D01*
X0108378Y0014908D01*
X0113178Y0010108D01*
X0116378Y0010108D01*
X0117035Y0010000D01*
X0114278Y0014108D02*
X0132378Y0014108D01*
X0136378Y0010108D01*
X0137035Y0010000D01*
X0134978Y0014908D02*
X0132578Y0017308D01*
X0132578Y0022908D01*
X0132378Y0026108D01*
X0132378Y0030108D01*
X0129178Y0033308D01*
X0102778Y0033308D01*
X0097978Y0028508D01*
X0097437Y0028209D01*
X0107575Y0019724D02*
X0110778Y0019708D01*
X0111678Y0019708D01*
X0114278Y0014108D01*
X0134978Y0014908D02*
X0322778Y0014908D01*
X0327578Y0019708D01*
X0327578Y0056508D01*
X0325978Y0058108D01*
X0312378Y0058108D01*
X0293178Y0077308D01*
X0289178Y0077308D01*
X0288925Y0077421D01*
X0332819Y0090813D02*
X0333178Y0090108D01*
X0333178Y0030908D01*
X0342778Y0021308D01*
X0342778Y0014908D01*
X0337978Y0010108D01*
X0162778Y0010108D01*
X0137437Y0028209D02*
X0137978Y0030108D01*
X0194778Y0031708D02*
X0207578Y0031708D01*
X0211578Y0027708D01*
X0273178Y0027708D01*
X0274778Y0029308D01*
X0275539Y0029409D01*
X0237646Y0079311D02*
X0237178Y0079708D01*
X0235578Y0079708D01*
X0052378Y0030108D02*
X0036378Y0046108D01*
X0032378Y0046108D01*
X0020378Y0058108D01*
D24*
X0081978Y0060508D03*
X0098778Y0078908D03*
X0081178Y0082108D03*
X0151378Y0141008D03*
X0125978Y0162108D03*
X0130378Y0168008D03*
X0113878Y0184508D03*
X0109378Y0195008D03*
X0169378Y0204008D03*
X0239878Y0225008D03*
X0261978Y0094908D03*
X0194778Y0031708D03*
X0162778Y0010108D03*
D25*
X0176878Y0039008D02*
X0176878Y0040508D01*
X0176878Y0039008D02*
X0169378Y0046508D01*
X0169378Y0055508D01*
X0170118Y0055508D01*
X0170118Y0064508D02*
X0188378Y0064508D01*
X0188378Y0058508D01*
X0188378Y0073508D02*
X0170118Y0073508D01*
X0188378Y0073508D02*
X0188378Y0093008D01*
X0198378Y0093008D02*
X0176925Y0114461D01*
X0155264Y0114461D01*
X0144142Y0155610D02*
X0144142Y0157067D01*
X0139220Y0161988D01*
X0139220Y0162224D01*
X0136661Y0164783D01*
D26*
X0176878Y0040508D03*
M02*
