G75*
%MOIN*%
%OFA0B0*%
%FSLAX25Y25*%
%IPPOS*%
%LPD*%
%AMOC8*
5,1,8,0,0,1.08239X$1,22.5*
%
%ADD10C,0.00000*%
%ADD11C,0.14236*%
%ADD12R,0.06800X0.06800*%
%ADD13C,0.06800*%
%ADD14C,0.06800*%
%ADD15C,0.07000*%
%ADD16OC8,0.05550*%
%ADD17C,0.05550*%
%ADD18C,0.08600*%
%ADD19R,0.05550X0.05550*%
%ADD20OC8,0.06600*%
%ADD21C,0.00800*%
%ADD22C,0.04000*%
%ADD23C,0.01600*%
%ADD24C,0.01000*%
%ADD25C,0.04362*%
D10*
X0004378Y0004508D02*
X0004378Y0279469D01*
X0348709Y0279469D01*
X0348709Y0004508D01*
X0004378Y0004508D01*
X0007358Y0013787D02*
X0007360Y0013945D01*
X0007366Y0014103D01*
X0007376Y0014261D01*
X0007390Y0014419D01*
X0007408Y0014576D01*
X0007429Y0014733D01*
X0007455Y0014889D01*
X0007485Y0015045D01*
X0007518Y0015200D01*
X0007556Y0015353D01*
X0007597Y0015506D01*
X0007642Y0015658D01*
X0007691Y0015809D01*
X0007744Y0015958D01*
X0007800Y0016106D01*
X0007860Y0016252D01*
X0007924Y0016397D01*
X0007992Y0016540D01*
X0008063Y0016682D01*
X0008137Y0016822D01*
X0008215Y0016959D01*
X0008297Y0017095D01*
X0008381Y0017229D01*
X0008470Y0017360D01*
X0008561Y0017489D01*
X0008656Y0017616D01*
X0008753Y0017741D01*
X0008854Y0017863D01*
X0008958Y0017982D01*
X0009065Y0018099D01*
X0009175Y0018213D01*
X0009288Y0018324D01*
X0009403Y0018433D01*
X0009521Y0018538D01*
X0009642Y0018640D01*
X0009765Y0018740D01*
X0009891Y0018836D01*
X0010019Y0018929D01*
X0010149Y0019019D01*
X0010282Y0019105D01*
X0010417Y0019189D01*
X0010553Y0019268D01*
X0010692Y0019345D01*
X0010833Y0019417D01*
X0010975Y0019487D01*
X0011119Y0019552D01*
X0011265Y0019614D01*
X0011412Y0019672D01*
X0011561Y0019727D01*
X0011711Y0019778D01*
X0011862Y0019825D01*
X0012014Y0019868D01*
X0012167Y0019907D01*
X0012322Y0019943D01*
X0012477Y0019974D01*
X0012633Y0020002D01*
X0012789Y0020026D01*
X0012946Y0020046D01*
X0013104Y0020062D01*
X0013261Y0020074D01*
X0013420Y0020082D01*
X0013578Y0020086D01*
X0013736Y0020086D01*
X0013894Y0020082D01*
X0014053Y0020074D01*
X0014210Y0020062D01*
X0014368Y0020046D01*
X0014525Y0020026D01*
X0014681Y0020002D01*
X0014837Y0019974D01*
X0014992Y0019943D01*
X0015147Y0019907D01*
X0015300Y0019868D01*
X0015452Y0019825D01*
X0015603Y0019778D01*
X0015753Y0019727D01*
X0015902Y0019672D01*
X0016049Y0019614D01*
X0016195Y0019552D01*
X0016339Y0019487D01*
X0016481Y0019417D01*
X0016622Y0019345D01*
X0016761Y0019268D01*
X0016897Y0019189D01*
X0017032Y0019105D01*
X0017165Y0019019D01*
X0017295Y0018929D01*
X0017423Y0018836D01*
X0017549Y0018740D01*
X0017672Y0018640D01*
X0017793Y0018538D01*
X0017911Y0018433D01*
X0018026Y0018324D01*
X0018139Y0018213D01*
X0018249Y0018099D01*
X0018356Y0017982D01*
X0018460Y0017863D01*
X0018561Y0017741D01*
X0018658Y0017616D01*
X0018753Y0017489D01*
X0018844Y0017360D01*
X0018933Y0017229D01*
X0019017Y0017095D01*
X0019099Y0016959D01*
X0019177Y0016822D01*
X0019251Y0016682D01*
X0019322Y0016540D01*
X0019390Y0016397D01*
X0019454Y0016252D01*
X0019514Y0016106D01*
X0019570Y0015958D01*
X0019623Y0015809D01*
X0019672Y0015658D01*
X0019717Y0015506D01*
X0019758Y0015353D01*
X0019796Y0015200D01*
X0019829Y0015045D01*
X0019859Y0014889D01*
X0019885Y0014733D01*
X0019906Y0014576D01*
X0019924Y0014419D01*
X0019938Y0014261D01*
X0019948Y0014103D01*
X0019954Y0013945D01*
X0019956Y0013787D01*
X0019954Y0013629D01*
X0019948Y0013471D01*
X0019938Y0013313D01*
X0019924Y0013155D01*
X0019906Y0012998D01*
X0019885Y0012841D01*
X0019859Y0012685D01*
X0019829Y0012529D01*
X0019796Y0012374D01*
X0019758Y0012221D01*
X0019717Y0012068D01*
X0019672Y0011916D01*
X0019623Y0011765D01*
X0019570Y0011616D01*
X0019514Y0011468D01*
X0019454Y0011322D01*
X0019390Y0011177D01*
X0019322Y0011034D01*
X0019251Y0010892D01*
X0019177Y0010752D01*
X0019099Y0010615D01*
X0019017Y0010479D01*
X0018933Y0010345D01*
X0018844Y0010214D01*
X0018753Y0010085D01*
X0018658Y0009958D01*
X0018561Y0009833D01*
X0018460Y0009711D01*
X0018356Y0009592D01*
X0018249Y0009475D01*
X0018139Y0009361D01*
X0018026Y0009250D01*
X0017911Y0009141D01*
X0017793Y0009036D01*
X0017672Y0008934D01*
X0017549Y0008834D01*
X0017423Y0008738D01*
X0017295Y0008645D01*
X0017165Y0008555D01*
X0017032Y0008469D01*
X0016897Y0008385D01*
X0016761Y0008306D01*
X0016622Y0008229D01*
X0016481Y0008157D01*
X0016339Y0008087D01*
X0016195Y0008022D01*
X0016049Y0007960D01*
X0015902Y0007902D01*
X0015753Y0007847D01*
X0015603Y0007796D01*
X0015452Y0007749D01*
X0015300Y0007706D01*
X0015147Y0007667D01*
X0014992Y0007631D01*
X0014837Y0007600D01*
X0014681Y0007572D01*
X0014525Y0007548D01*
X0014368Y0007528D01*
X0014210Y0007512D01*
X0014053Y0007500D01*
X0013894Y0007492D01*
X0013736Y0007488D01*
X0013578Y0007488D01*
X0013420Y0007492D01*
X0013261Y0007500D01*
X0013104Y0007512D01*
X0012946Y0007528D01*
X0012789Y0007548D01*
X0012633Y0007572D01*
X0012477Y0007600D01*
X0012322Y0007631D01*
X0012167Y0007667D01*
X0012014Y0007706D01*
X0011862Y0007749D01*
X0011711Y0007796D01*
X0011561Y0007847D01*
X0011412Y0007902D01*
X0011265Y0007960D01*
X0011119Y0008022D01*
X0010975Y0008087D01*
X0010833Y0008157D01*
X0010692Y0008229D01*
X0010553Y0008306D01*
X0010417Y0008385D01*
X0010282Y0008469D01*
X0010149Y0008555D01*
X0010019Y0008645D01*
X0009891Y0008738D01*
X0009765Y0008834D01*
X0009642Y0008934D01*
X0009521Y0009036D01*
X0009403Y0009141D01*
X0009288Y0009250D01*
X0009175Y0009361D01*
X0009065Y0009475D01*
X0008958Y0009592D01*
X0008854Y0009711D01*
X0008753Y0009833D01*
X0008656Y0009958D01*
X0008561Y0010085D01*
X0008470Y0010214D01*
X0008381Y0010345D01*
X0008297Y0010479D01*
X0008215Y0010615D01*
X0008137Y0010752D01*
X0008063Y0010892D01*
X0007992Y0011034D01*
X0007924Y0011177D01*
X0007860Y0011322D01*
X0007800Y0011468D01*
X0007744Y0011616D01*
X0007691Y0011765D01*
X0007642Y0011916D01*
X0007597Y0012068D01*
X0007556Y0012221D01*
X0007518Y0012374D01*
X0007485Y0012529D01*
X0007455Y0012685D01*
X0007429Y0012841D01*
X0007408Y0012998D01*
X0007390Y0013155D01*
X0007376Y0013313D01*
X0007366Y0013471D01*
X0007360Y0013629D01*
X0007358Y0013787D01*
X0036858Y0120846D02*
X0036860Y0120971D01*
X0036866Y0121096D01*
X0036876Y0121220D01*
X0036890Y0121344D01*
X0036907Y0121468D01*
X0036929Y0121591D01*
X0036955Y0121713D01*
X0036984Y0121835D01*
X0037017Y0121955D01*
X0037055Y0122074D01*
X0037095Y0122193D01*
X0037140Y0122309D01*
X0037188Y0122424D01*
X0037240Y0122538D01*
X0037296Y0122650D01*
X0037355Y0122760D01*
X0037417Y0122868D01*
X0037483Y0122975D01*
X0037552Y0123079D01*
X0037625Y0123180D01*
X0037700Y0123280D01*
X0037779Y0123377D01*
X0037861Y0123471D01*
X0037946Y0123563D01*
X0038033Y0123652D01*
X0038124Y0123738D01*
X0038217Y0123821D01*
X0038313Y0123902D01*
X0038411Y0123979D01*
X0038511Y0124053D01*
X0038614Y0124124D01*
X0038719Y0124191D01*
X0038827Y0124256D01*
X0038936Y0124316D01*
X0039047Y0124374D01*
X0039160Y0124427D01*
X0039274Y0124477D01*
X0039390Y0124524D01*
X0039507Y0124566D01*
X0039626Y0124605D01*
X0039746Y0124641D01*
X0039867Y0124672D01*
X0039989Y0124700D01*
X0040111Y0124723D01*
X0040235Y0124743D01*
X0040359Y0124759D01*
X0040483Y0124771D01*
X0040608Y0124779D01*
X0040733Y0124783D01*
X0040857Y0124783D01*
X0040982Y0124779D01*
X0041107Y0124771D01*
X0041231Y0124759D01*
X0041355Y0124743D01*
X0041479Y0124723D01*
X0041601Y0124700D01*
X0041723Y0124672D01*
X0041844Y0124641D01*
X0041964Y0124605D01*
X0042083Y0124566D01*
X0042200Y0124524D01*
X0042316Y0124477D01*
X0042430Y0124427D01*
X0042543Y0124374D01*
X0042654Y0124316D01*
X0042764Y0124256D01*
X0042871Y0124191D01*
X0042976Y0124124D01*
X0043079Y0124053D01*
X0043179Y0123979D01*
X0043277Y0123902D01*
X0043373Y0123821D01*
X0043466Y0123738D01*
X0043557Y0123652D01*
X0043644Y0123563D01*
X0043729Y0123471D01*
X0043811Y0123377D01*
X0043890Y0123280D01*
X0043965Y0123180D01*
X0044038Y0123079D01*
X0044107Y0122975D01*
X0044173Y0122868D01*
X0044235Y0122760D01*
X0044294Y0122650D01*
X0044350Y0122538D01*
X0044402Y0122424D01*
X0044450Y0122309D01*
X0044495Y0122193D01*
X0044535Y0122074D01*
X0044573Y0121955D01*
X0044606Y0121835D01*
X0044635Y0121713D01*
X0044661Y0121591D01*
X0044683Y0121468D01*
X0044700Y0121344D01*
X0044714Y0121220D01*
X0044724Y0121096D01*
X0044730Y0120971D01*
X0044732Y0120846D01*
X0044730Y0120721D01*
X0044724Y0120596D01*
X0044714Y0120472D01*
X0044700Y0120348D01*
X0044683Y0120224D01*
X0044661Y0120101D01*
X0044635Y0119979D01*
X0044606Y0119857D01*
X0044573Y0119737D01*
X0044535Y0119618D01*
X0044495Y0119499D01*
X0044450Y0119383D01*
X0044402Y0119268D01*
X0044350Y0119154D01*
X0044294Y0119042D01*
X0044235Y0118932D01*
X0044173Y0118824D01*
X0044107Y0118717D01*
X0044038Y0118613D01*
X0043965Y0118512D01*
X0043890Y0118412D01*
X0043811Y0118315D01*
X0043729Y0118221D01*
X0043644Y0118129D01*
X0043557Y0118040D01*
X0043466Y0117954D01*
X0043373Y0117871D01*
X0043277Y0117790D01*
X0043179Y0117713D01*
X0043079Y0117639D01*
X0042976Y0117568D01*
X0042871Y0117501D01*
X0042763Y0117436D01*
X0042654Y0117376D01*
X0042543Y0117318D01*
X0042430Y0117265D01*
X0042316Y0117215D01*
X0042200Y0117168D01*
X0042083Y0117126D01*
X0041964Y0117087D01*
X0041844Y0117051D01*
X0041723Y0117020D01*
X0041601Y0116992D01*
X0041479Y0116969D01*
X0041355Y0116949D01*
X0041231Y0116933D01*
X0041107Y0116921D01*
X0040982Y0116913D01*
X0040857Y0116909D01*
X0040733Y0116909D01*
X0040608Y0116913D01*
X0040483Y0116921D01*
X0040359Y0116933D01*
X0040235Y0116949D01*
X0040111Y0116969D01*
X0039989Y0116992D01*
X0039867Y0117020D01*
X0039746Y0117051D01*
X0039626Y0117087D01*
X0039507Y0117126D01*
X0039390Y0117168D01*
X0039274Y0117215D01*
X0039160Y0117265D01*
X0039047Y0117318D01*
X0038936Y0117376D01*
X0038826Y0117436D01*
X0038719Y0117501D01*
X0038614Y0117568D01*
X0038511Y0117639D01*
X0038411Y0117713D01*
X0038313Y0117790D01*
X0038217Y0117871D01*
X0038124Y0117954D01*
X0038033Y0118040D01*
X0037946Y0118129D01*
X0037861Y0118221D01*
X0037779Y0118315D01*
X0037700Y0118412D01*
X0037625Y0118512D01*
X0037552Y0118613D01*
X0037483Y0118717D01*
X0037417Y0118824D01*
X0037355Y0118932D01*
X0037296Y0119042D01*
X0037240Y0119154D01*
X0037188Y0119268D01*
X0037140Y0119383D01*
X0037095Y0119499D01*
X0037055Y0119618D01*
X0037017Y0119737D01*
X0036984Y0119857D01*
X0036955Y0119979D01*
X0036929Y0120101D01*
X0036907Y0120224D01*
X0036890Y0120348D01*
X0036876Y0120472D01*
X0036866Y0120596D01*
X0036860Y0120721D01*
X0036858Y0120846D01*
X0093642Y0257953D02*
X0093644Y0258114D01*
X0093650Y0258274D01*
X0093660Y0258435D01*
X0093674Y0258595D01*
X0093692Y0258755D01*
X0093713Y0258914D01*
X0093739Y0259073D01*
X0093769Y0259231D01*
X0093802Y0259388D01*
X0093840Y0259545D01*
X0093881Y0259700D01*
X0093926Y0259854D01*
X0093975Y0260007D01*
X0094028Y0260159D01*
X0094084Y0260310D01*
X0094145Y0260459D01*
X0094208Y0260607D01*
X0094276Y0260753D01*
X0094347Y0260897D01*
X0094421Y0261039D01*
X0094499Y0261180D01*
X0094581Y0261318D01*
X0094666Y0261455D01*
X0094754Y0261589D01*
X0094846Y0261721D01*
X0094941Y0261851D01*
X0095039Y0261979D01*
X0095140Y0262104D01*
X0095244Y0262226D01*
X0095351Y0262346D01*
X0095461Y0262463D01*
X0095574Y0262578D01*
X0095690Y0262689D01*
X0095809Y0262798D01*
X0095930Y0262903D01*
X0096054Y0263006D01*
X0096180Y0263106D01*
X0096308Y0263202D01*
X0096439Y0263295D01*
X0096573Y0263385D01*
X0096708Y0263472D01*
X0096846Y0263555D01*
X0096985Y0263635D01*
X0097127Y0263711D01*
X0097270Y0263784D01*
X0097415Y0263853D01*
X0097562Y0263919D01*
X0097710Y0263981D01*
X0097860Y0264039D01*
X0098011Y0264094D01*
X0098164Y0264145D01*
X0098318Y0264192D01*
X0098473Y0264235D01*
X0098629Y0264274D01*
X0098785Y0264310D01*
X0098943Y0264341D01*
X0099101Y0264369D01*
X0099260Y0264393D01*
X0099420Y0264413D01*
X0099580Y0264429D01*
X0099740Y0264441D01*
X0099901Y0264449D01*
X0100062Y0264453D01*
X0100222Y0264453D01*
X0100383Y0264449D01*
X0100544Y0264441D01*
X0100704Y0264429D01*
X0100864Y0264413D01*
X0101024Y0264393D01*
X0101183Y0264369D01*
X0101341Y0264341D01*
X0101499Y0264310D01*
X0101655Y0264274D01*
X0101811Y0264235D01*
X0101966Y0264192D01*
X0102120Y0264145D01*
X0102273Y0264094D01*
X0102424Y0264039D01*
X0102574Y0263981D01*
X0102722Y0263919D01*
X0102869Y0263853D01*
X0103014Y0263784D01*
X0103157Y0263711D01*
X0103299Y0263635D01*
X0103438Y0263555D01*
X0103576Y0263472D01*
X0103711Y0263385D01*
X0103845Y0263295D01*
X0103976Y0263202D01*
X0104104Y0263106D01*
X0104230Y0263006D01*
X0104354Y0262903D01*
X0104475Y0262798D01*
X0104594Y0262689D01*
X0104710Y0262578D01*
X0104823Y0262463D01*
X0104933Y0262346D01*
X0105040Y0262226D01*
X0105144Y0262104D01*
X0105245Y0261979D01*
X0105343Y0261851D01*
X0105438Y0261721D01*
X0105530Y0261589D01*
X0105618Y0261455D01*
X0105703Y0261318D01*
X0105785Y0261180D01*
X0105863Y0261039D01*
X0105937Y0260897D01*
X0106008Y0260753D01*
X0106076Y0260607D01*
X0106139Y0260459D01*
X0106200Y0260310D01*
X0106256Y0260159D01*
X0106309Y0260007D01*
X0106358Y0259854D01*
X0106403Y0259700D01*
X0106444Y0259545D01*
X0106482Y0259388D01*
X0106515Y0259231D01*
X0106545Y0259073D01*
X0106571Y0258914D01*
X0106592Y0258755D01*
X0106610Y0258595D01*
X0106624Y0258435D01*
X0106634Y0258274D01*
X0106640Y0258114D01*
X0106642Y0257953D01*
X0106640Y0257792D01*
X0106634Y0257632D01*
X0106624Y0257471D01*
X0106610Y0257311D01*
X0106592Y0257151D01*
X0106571Y0256992D01*
X0106545Y0256833D01*
X0106515Y0256675D01*
X0106482Y0256518D01*
X0106444Y0256361D01*
X0106403Y0256206D01*
X0106358Y0256052D01*
X0106309Y0255899D01*
X0106256Y0255747D01*
X0106200Y0255596D01*
X0106139Y0255447D01*
X0106076Y0255299D01*
X0106008Y0255153D01*
X0105937Y0255009D01*
X0105863Y0254867D01*
X0105785Y0254726D01*
X0105703Y0254588D01*
X0105618Y0254451D01*
X0105530Y0254317D01*
X0105438Y0254185D01*
X0105343Y0254055D01*
X0105245Y0253927D01*
X0105144Y0253802D01*
X0105040Y0253680D01*
X0104933Y0253560D01*
X0104823Y0253443D01*
X0104710Y0253328D01*
X0104594Y0253217D01*
X0104475Y0253108D01*
X0104354Y0253003D01*
X0104230Y0252900D01*
X0104104Y0252800D01*
X0103976Y0252704D01*
X0103845Y0252611D01*
X0103711Y0252521D01*
X0103576Y0252434D01*
X0103438Y0252351D01*
X0103299Y0252271D01*
X0103157Y0252195D01*
X0103014Y0252122D01*
X0102869Y0252053D01*
X0102722Y0251987D01*
X0102574Y0251925D01*
X0102424Y0251867D01*
X0102273Y0251812D01*
X0102120Y0251761D01*
X0101966Y0251714D01*
X0101811Y0251671D01*
X0101655Y0251632D01*
X0101499Y0251596D01*
X0101341Y0251565D01*
X0101183Y0251537D01*
X0101024Y0251513D01*
X0100864Y0251493D01*
X0100704Y0251477D01*
X0100544Y0251465D01*
X0100383Y0251457D01*
X0100222Y0251453D01*
X0100062Y0251453D01*
X0099901Y0251457D01*
X0099740Y0251465D01*
X0099580Y0251477D01*
X0099420Y0251493D01*
X0099260Y0251513D01*
X0099101Y0251537D01*
X0098943Y0251565D01*
X0098785Y0251596D01*
X0098629Y0251632D01*
X0098473Y0251671D01*
X0098318Y0251714D01*
X0098164Y0251761D01*
X0098011Y0251812D01*
X0097860Y0251867D01*
X0097710Y0251925D01*
X0097562Y0251987D01*
X0097415Y0252053D01*
X0097270Y0252122D01*
X0097127Y0252195D01*
X0096985Y0252271D01*
X0096846Y0252351D01*
X0096708Y0252434D01*
X0096573Y0252521D01*
X0096439Y0252611D01*
X0096308Y0252704D01*
X0096180Y0252800D01*
X0096054Y0252900D01*
X0095930Y0253003D01*
X0095809Y0253108D01*
X0095690Y0253217D01*
X0095574Y0253328D01*
X0095461Y0253443D01*
X0095351Y0253560D01*
X0095244Y0253680D01*
X0095140Y0253802D01*
X0095039Y0253927D01*
X0094941Y0254055D01*
X0094846Y0254185D01*
X0094754Y0254317D01*
X0094666Y0254451D01*
X0094581Y0254588D01*
X0094499Y0254726D01*
X0094421Y0254867D01*
X0094347Y0255009D01*
X0094276Y0255153D01*
X0094208Y0255299D01*
X0094145Y0255447D01*
X0094084Y0255596D01*
X0094028Y0255747D01*
X0093975Y0255899D01*
X0093926Y0256052D01*
X0093881Y0256206D01*
X0093840Y0256361D01*
X0093802Y0256518D01*
X0093769Y0256675D01*
X0093739Y0256833D01*
X0093713Y0256992D01*
X0093692Y0257151D01*
X0093674Y0257311D01*
X0093660Y0257471D01*
X0093650Y0257632D01*
X0093644Y0257792D01*
X0093642Y0257953D01*
X0011858Y0266319D02*
X0011860Y0266477D01*
X0011866Y0266635D01*
X0011876Y0266793D01*
X0011890Y0266951D01*
X0011908Y0267108D01*
X0011929Y0267265D01*
X0011955Y0267421D01*
X0011985Y0267577D01*
X0012018Y0267732D01*
X0012056Y0267885D01*
X0012097Y0268038D01*
X0012142Y0268190D01*
X0012191Y0268341D01*
X0012244Y0268490D01*
X0012300Y0268638D01*
X0012360Y0268784D01*
X0012424Y0268929D01*
X0012492Y0269072D01*
X0012563Y0269214D01*
X0012637Y0269354D01*
X0012715Y0269491D01*
X0012797Y0269627D01*
X0012881Y0269761D01*
X0012970Y0269892D01*
X0013061Y0270021D01*
X0013156Y0270148D01*
X0013253Y0270273D01*
X0013354Y0270395D01*
X0013458Y0270514D01*
X0013565Y0270631D01*
X0013675Y0270745D01*
X0013788Y0270856D01*
X0013903Y0270965D01*
X0014021Y0271070D01*
X0014142Y0271172D01*
X0014265Y0271272D01*
X0014391Y0271368D01*
X0014519Y0271461D01*
X0014649Y0271551D01*
X0014782Y0271637D01*
X0014917Y0271721D01*
X0015053Y0271800D01*
X0015192Y0271877D01*
X0015333Y0271949D01*
X0015475Y0272019D01*
X0015619Y0272084D01*
X0015765Y0272146D01*
X0015912Y0272204D01*
X0016061Y0272259D01*
X0016211Y0272310D01*
X0016362Y0272357D01*
X0016514Y0272400D01*
X0016667Y0272439D01*
X0016822Y0272475D01*
X0016977Y0272506D01*
X0017133Y0272534D01*
X0017289Y0272558D01*
X0017446Y0272578D01*
X0017604Y0272594D01*
X0017761Y0272606D01*
X0017920Y0272614D01*
X0018078Y0272618D01*
X0018236Y0272618D01*
X0018394Y0272614D01*
X0018553Y0272606D01*
X0018710Y0272594D01*
X0018868Y0272578D01*
X0019025Y0272558D01*
X0019181Y0272534D01*
X0019337Y0272506D01*
X0019492Y0272475D01*
X0019647Y0272439D01*
X0019800Y0272400D01*
X0019952Y0272357D01*
X0020103Y0272310D01*
X0020253Y0272259D01*
X0020402Y0272204D01*
X0020549Y0272146D01*
X0020695Y0272084D01*
X0020839Y0272019D01*
X0020981Y0271949D01*
X0021122Y0271877D01*
X0021261Y0271800D01*
X0021397Y0271721D01*
X0021532Y0271637D01*
X0021665Y0271551D01*
X0021795Y0271461D01*
X0021923Y0271368D01*
X0022049Y0271272D01*
X0022172Y0271172D01*
X0022293Y0271070D01*
X0022411Y0270965D01*
X0022526Y0270856D01*
X0022639Y0270745D01*
X0022749Y0270631D01*
X0022856Y0270514D01*
X0022960Y0270395D01*
X0023061Y0270273D01*
X0023158Y0270148D01*
X0023253Y0270021D01*
X0023344Y0269892D01*
X0023433Y0269761D01*
X0023517Y0269627D01*
X0023599Y0269491D01*
X0023677Y0269354D01*
X0023751Y0269214D01*
X0023822Y0269072D01*
X0023890Y0268929D01*
X0023954Y0268784D01*
X0024014Y0268638D01*
X0024070Y0268490D01*
X0024123Y0268341D01*
X0024172Y0268190D01*
X0024217Y0268038D01*
X0024258Y0267885D01*
X0024296Y0267732D01*
X0024329Y0267577D01*
X0024359Y0267421D01*
X0024385Y0267265D01*
X0024406Y0267108D01*
X0024424Y0266951D01*
X0024438Y0266793D01*
X0024448Y0266635D01*
X0024454Y0266477D01*
X0024456Y0266319D01*
X0024454Y0266161D01*
X0024448Y0266003D01*
X0024438Y0265845D01*
X0024424Y0265687D01*
X0024406Y0265530D01*
X0024385Y0265373D01*
X0024359Y0265217D01*
X0024329Y0265061D01*
X0024296Y0264906D01*
X0024258Y0264753D01*
X0024217Y0264600D01*
X0024172Y0264448D01*
X0024123Y0264297D01*
X0024070Y0264148D01*
X0024014Y0264000D01*
X0023954Y0263854D01*
X0023890Y0263709D01*
X0023822Y0263566D01*
X0023751Y0263424D01*
X0023677Y0263284D01*
X0023599Y0263147D01*
X0023517Y0263011D01*
X0023433Y0262877D01*
X0023344Y0262746D01*
X0023253Y0262617D01*
X0023158Y0262490D01*
X0023061Y0262365D01*
X0022960Y0262243D01*
X0022856Y0262124D01*
X0022749Y0262007D01*
X0022639Y0261893D01*
X0022526Y0261782D01*
X0022411Y0261673D01*
X0022293Y0261568D01*
X0022172Y0261466D01*
X0022049Y0261366D01*
X0021923Y0261270D01*
X0021795Y0261177D01*
X0021665Y0261087D01*
X0021532Y0261001D01*
X0021397Y0260917D01*
X0021261Y0260838D01*
X0021122Y0260761D01*
X0020981Y0260689D01*
X0020839Y0260619D01*
X0020695Y0260554D01*
X0020549Y0260492D01*
X0020402Y0260434D01*
X0020253Y0260379D01*
X0020103Y0260328D01*
X0019952Y0260281D01*
X0019800Y0260238D01*
X0019647Y0260199D01*
X0019492Y0260163D01*
X0019337Y0260132D01*
X0019181Y0260104D01*
X0019025Y0260080D01*
X0018868Y0260060D01*
X0018710Y0260044D01*
X0018553Y0260032D01*
X0018394Y0260024D01*
X0018236Y0260020D01*
X0018078Y0260020D01*
X0017920Y0260024D01*
X0017761Y0260032D01*
X0017604Y0260044D01*
X0017446Y0260060D01*
X0017289Y0260080D01*
X0017133Y0260104D01*
X0016977Y0260132D01*
X0016822Y0260163D01*
X0016667Y0260199D01*
X0016514Y0260238D01*
X0016362Y0260281D01*
X0016211Y0260328D01*
X0016061Y0260379D01*
X0015912Y0260434D01*
X0015765Y0260492D01*
X0015619Y0260554D01*
X0015475Y0260619D01*
X0015333Y0260689D01*
X0015192Y0260761D01*
X0015053Y0260838D01*
X0014917Y0260917D01*
X0014782Y0261001D01*
X0014649Y0261087D01*
X0014519Y0261177D01*
X0014391Y0261270D01*
X0014265Y0261366D01*
X0014142Y0261466D01*
X0014021Y0261568D01*
X0013903Y0261673D01*
X0013788Y0261782D01*
X0013675Y0261893D01*
X0013565Y0262007D01*
X0013458Y0262124D01*
X0013354Y0262243D01*
X0013253Y0262365D01*
X0013156Y0262490D01*
X0013061Y0262617D01*
X0012970Y0262746D01*
X0012881Y0262877D01*
X0012797Y0263011D01*
X0012715Y0263147D01*
X0012637Y0263284D01*
X0012563Y0263424D01*
X0012492Y0263566D01*
X0012424Y0263709D01*
X0012360Y0263854D01*
X0012300Y0264000D01*
X0012244Y0264148D01*
X0012191Y0264297D01*
X0012142Y0264448D01*
X0012097Y0264600D01*
X0012056Y0264753D01*
X0012018Y0264906D01*
X0011985Y0265061D01*
X0011955Y0265217D01*
X0011929Y0265373D01*
X0011908Y0265530D01*
X0011890Y0265687D01*
X0011876Y0265845D01*
X0011866Y0266003D01*
X0011860Y0266161D01*
X0011858Y0266319D01*
X0214024Y0229902D02*
X0214026Y0230027D01*
X0214032Y0230152D01*
X0214042Y0230276D01*
X0214056Y0230400D01*
X0214073Y0230524D01*
X0214095Y0230647D01*
X0214121Y0230769D01*
X0214150Y0230891D01*
X0214183Y0231011D01*
X0214221Y0231130D01*
X0214261Y0231249D01*
X0214306Y0231365D01*
X0214354Y0231480D01*
X0214406Y0231594D01*
X0214462Y0231706D01*
X0214521Y0231816D01*
X0214583Y0231924D01*
X0214649Y0232031D01*
X0214718Y0232135D01*
X0214791Y0232236D01*
X0214866Y0232336D01*
X0214945Y0232433D01*
X0215027Y0232527D01*
X0215112Y0232619D01*
X0215199Y0232708D01*
X0215290Y0232794D01*
X0215383Y0232877D01*
X0215479Y0232958D01*
X0215577Y0233035D01*
X0215677Y0233109D01*
X0215780Y0233180D01*
X0215885Y0233247D01*
X0215993Y0233312D01*
X0216102Y0233372D01*
X0216213Y0233430D01*
X0216326Y0233483D01*
X0216440Y0233533D01*
X0216556Y0233580D01*
X0216673Y0233622D01*
X0216792Y0233661D01*
X0216912Y0233697D01*
X0217033Y0233728D01*
X0217155Y0233756D01*
X0217277Y0233779D01*
X0217401Y0233799D01*
X0217525Y0233815D01*
X0217649Y0233827D01*
X0217774Y0233835D01*
X0217899Y0233839D01*
X0218023Y0233839D01*
X0218148Y0233835D01*
X0218273Y0233827D01*
X0218397Y0233815D01*
X0218521Y0233799D01*
X0218645Y0233779D01*
X0218767Y0233756D01*
X0218889Y0233728D01*
X0219010Y0233697D01*
X0219130Y0233661D01*
X0219249Y0233622D01*
X0219366Y0233580D01*
X0219482Y0233533D01*
X0219596Y0233483D01*
X0219709Y0233430D01*
X0219820Y0233372D01*
X0219930Y0233312D01*
X0220037Y0233247D01*
X0220142Y0233180D01*
X0220245Y0233109D01*
X0220345Y0233035D01*
X0220443Y0232958D01*
X0220539Y0232877D01*
X0220632Y0232794D01*
X0220723Y0232708D01*
X0220810Y0232619D01*
X0220895Y0232527D01*
X0220977Y0232433D01*
X0221056Y0232336D01*
X0221131Y0232236D01*
X0221204Y0232135D01*
X0221273Y0232031D01*
X0221339Y0231924D01*
X0221401Y0231816D01*
X0221460Y0231706D01*
X0221516Y0231594D01*
X0221568Y0231480D01*
X0221616Y0231365D01*
X0221661Y0231249D01*
X0221701Y0231130D01*
X0221739Y0231011D01*
X0221772Y0230891D01*
X0221801Y0230769D01*
X0221827Y0230647D01*
X0221849Y0230524D01*
X0221866Y0230400D01*
X0221880Y0230276D01*
X0221890Y0230152D01*
X0221896Y0230027D01*
X0221898Y0229902D01*
X0221896Y0229777D01*
X0221890Y0229652D01*
X0221880Y0229528D01*
X0221866Y0229404D01*
X0221849Y0229280D01*
X0221827Y0229157D01*
X0221801Y0229035D01*
X0221772Y0228913D01*
X0221739Y0228793D01*
X0221701Y0228674D01*
X0221661Y0228555D01*
X0221616Y0228439D01*
X0221568Y0228324D01*
X0221516Y0228210D01*
X0221460Y0228098D01*
X0221401Y0227988D01*
X0221339Y0227880D01*
X0221273Y0227773D01*
X0221204Y0227669D01*
X0221131Y0227568D01*
X0221056Y0227468D01*
X0220977Y0227371D01*
X0220895Y0227277D01*
X0220810Y0227185D01*
X0220723Y0227096D01*
X0220632Y0227010D01*
X0220539Y0226927D01*
X0220443Y0226846D01*
X0220345Y0226769D01*
X0220245Y0226695D01*
X0220142Y0226624D01*
X0220037Y0226557D01*
X0219929Y0226492D01*
X0219820Y0226432D01*
X0219709Y0226374D01*
X0219596Y0226321D01*
X0219482Y0226271D01*
X0219366Y0226224D01*
X0219249Y0226182D01*
X0219130Y0226143D01*
X0219010Y0226107D01*
X0218889Y0226076D01*
X0218767Y0226048D01*
X0218645Y0226025D01*
X0218521Y0226005D01*
X0218397Y0225989D01*
X0218273Y0225977D01*
X0218148Y0225969D01*
X0218023Y0225965D01*
X0217899Y0225965D01*
X0217774Y0225969D01*
X0217649Y0225977D01*
X0217525Y0225989D01*
X0217401Y0226005D01*
X0217277Y0226025D01*
X0217155Y0226048D01*
X0217033Y0226076D01*
X0216912Y0226107D01*
X0216792Y0226143D01*
X0216673Y0226182D01*
X0216556Y0226224D01*
X0216440Y0226271D01*
X0216326Y0226321D01*
X0216213Y0226374D01*
X0216102Y0226432D01*
X0215992Y0226492D01*
X0215885Y0226557D01*
X0215780Y0226624D01*
X0215677Y0226695D01*
X0215577Y0226769D01*
X0215479Y0226846D01*
X0215383Y0226927D01*
X0215290Y0227010D01*
X0215199Y0227096D01*
X0215112Y0227185D01*
X0215027Y0227277D01*
X0214945Y0227371D01*
X0214866Y0227468D01*
X0214791Y0227568D01*
X0214718Y0227669D01*
X0214649Y0227773D01*
X0214583Y0227880D01*
X0214521Y0227988D01*
X0214462Y0228098D01*
X0214406Y0228210D01*
X0214354Y0228324D01*
X0214306Y0228439D01*
X0214261Y0228555D01*
X0214221Y0228674D01*
X0214183Y0228793D01*
X0214150Y0228913D01*
X0214121Y0229035D01*
X0214095Y0229157D01*
X0214073Y0229280D01*
X0214056Y0229404D01*
X0214042Y0229528D01*
X0214032Y0229652D01*
X0214026Y0229777D01*
X0214024Y0229902D01*
X0328788Y0266319D02*
X0328790Y0266477D01*
X0328796Y0266635D01*
X0328806Y0266793D01*
X0328820Y0266951D01*
X0328838Y0267108D01*
X0328859Y0267265D01*
X0328885Y0267421D01*
X0328915Y0267577D01*
X0328948Y0267732D01*
X0328986Y0267885D01*
X0329027Y0268038D01*
X0329072Y0268190D01*
X0329121Y0268341D01*
X0329174Y0268490D01*
X0329230Y0268638D01*
X0329290Y0268784D01*
X0329354Y0268929D01*
X0329422Y0269072D01*
X0329493Y0269214D01*
X0329567Y0269354D01*
X0329645Y0269491D01*
X0329727Y0269627D01*
X0329811Y0269761D01*
X0329900Y0269892D01*
X0329991Y0270021D01*
X0330086Y0270148D01*
X0330183Y0270273D01*
X0330284Y0270395D01*
X0330388Y0270514D01*
X0330495Y0270631D01*
X0330605Y0270745D01*
X0330718Y0270856D01*
X0330833Y0270965D01*
X0330951Y0271070D01*
X0331072Y0271172D01*
X0331195Y0271272D01*
X0331321Y0271368D01*
X0331449Y0271461D01*
X0331579Y0271551D01*
X0331712Y0271637D01*
X0331847Y0271721D01*
X0331983Y0271800D01*
X0332122Y0271877D01*
X0332263Y0271949D01*
X0332405Y0272019D01*
X0332549Y0272084D01*
X0332695Y0272146D01*
X0332842Y0272204D01*
X0332991Y0272259D01*
X0333141Y0272310D01*
X0333292Y0272357D01*
X0333444Y0272400D01*
X0333597Y0272439D01*
X0333752Y0272475D01*
X0333907Y0272506D01*
X0334063Y0272534D01*
X0334219Y0272558D01*
X0334376Y0272578D01*
X0334534Y0272594D01*
X0334691Y0272606D01*
X0334850Y0272614D01*
X0335008Y0272618D01*
X0335166Y0272618D01*
X0335324Y0272614D01*
X0335483Y0272606D01*
X0335640Y0272594D01*
X0335798Y0272578D01*
X0335955Y0272558D01*
X0336111Y0272534D01*
X0336267Y0272506D01*
X0336422Y0272475D01*
X0336577Y0272439D01*
X0336730Y0272400D01*
X0336882Y0272357D01*
X0337033Y0272310D01*
X0337183Y0272259D01*
X0337332Y0272204D01*
X0337479Y0272146D01*
X0337625Y0272084D01*
X0337769Y0272019D01*
X0337911Y0271949D01*
X0338052Y0271877D01*
X0338191Y0271800D01*
X0338327Y0271721D01*
X0338462Y0271637D01*
X0338595Y0271551D01*
X0338725Y0271461D01*
X0338853Y0271368D01*
X0338979Y0271272D01*
X0339102Y0271172D01*
X0339223Y0271070D01*
X0339341Y0270965D01*
X0339456Y0270856D01*
X0339569Y0270745D01*
X0339679Y0270631D01*
X0339786Y0270514D01*
X0339890Y0270395D01*
X0339991Y0270273D01*
X0340088Y0270148D01*
X0340183Y0270021D01*
X0340274Y0269892D01*
X0340363Y0269761D01*
X0340447Y0269627D01*
X0340529Y0269491D01*
X0340607Y0269354D01*
X0340681Y0269214D01*
X0340752Y0269072D01*
X0340820Y0268929D01*
X0340884Y0268784D01*
X0340944Y0268638D01*
X0341000Y0268490D01*
X0341053Y0268341D01*
X0341102Y0268190D01*
X0341147Y0268038D01*
X0341188Y0267885D01*
X0341226Y0267732D01*
X0341259Y0267577D01*
X0341289Y0267421D01*
X0341315Y0267265D01*
X0341336Y0267108D01*
X0341354Y0266951D01*
X0341368Y0266793D01*
X0341378Y0266635D01*
X0341384Y0266477D01*
X0341386Y0266319D01*
X0341384Y0266161D01*
X0341378Y0266003D01*
X0341368Y0265845D01*
X0341354Y0265687D01*
X0341336Y0265530D01*
X0341315Y0265373D01*
X0341289Y0265217D01*
X0341259Y0265061D01*
X0341226Y0264906D01*
X0341188Y0264753D01*
X0341147Y0264600D01*
X0341102Y0264448D01*
X0341053Y0264297D01*
X0341000Y0264148D01*
X0340944Y0264000D01*
X0340884Y0263854D01*
X0340820Y0263709D01*
X0340752Y0263566D01*
X0340681Y0263424D01*
X0340607Y0263284D01*
X0340529Y0263147D01*
X0340447Y0263011D01*
X0340363Y0262877D01*
X0340274Y0262746D01*
X0340183Y0262617D01*
X0340088Y0262490D01*
X0339991Y0262365D01*
X0339890Y0262243D01*
X0339786Y0262124D01*
X0339679Y0262007D01*
X0339569Y0261893D01*
X0339456Y0261782D01*
X0339341Y0261673D01*
X0339223Y0261568D01*
X0339102Y0261466D01*
X0338979Y0261366D01*
X0338853Y0261270D01*
X0338725Y0261177D01*
X0338595Y0261087D01*
X0338462Y0261001D01*
X0338327Y0260917D01*
X0338191Y0260838D01*
X0338052Y0260761D01*
X0337911Y0260689D01*
X0337769Y0260619D01*
X0337625Y0260554D01*
X0337479Y0260492D01*
X0337332Y0260434D01*
X0337183Y0260379D01*
X0337033Y0260328D01*
X0336882Y0260281D01*
X0336730Y0260238D01*
X0336577Y0260199D01*
X0336422Y0260163D01*
X0336267Y0260132D01*
X0336111Y0260104D01*
X0335955Y0260080D01*
X0335798Y0260060D01*
X0335640Y0260044D01*
X0335483Y0260032D01*
X0335324Y0260024D01*
X0335166Y0260020D01*
X0335008Y0260020D01*
X0334850Y0260024D01*
X0334691Y0260032D01*
X0334534Y0260044D01*
X0334376Y0260060D01*
X0334219Y0260080D01*
X0334063Y0260104D01*
X0333907Y0260132D01*
X0333752Y0260163D01*
X0333597Y0260199D01*
X0333444Y0260238D01*
X0333292Y0260281D01*
X0333141Y0260328D01*
X0332991Y0260379D01*
X0332842Y0260434D01*
X0332695Y0260492D01*
X0332549Y0260554D01*
X0332405Y0260619D01*
X0332263Y0260689D01*
X0332122Y0260761D01*
X0331983Y0260838D01*
X0331847Y0260917D01*
X0331712Y0261001D01*
X0331579Y0261087D01*
X0331449Y0261177D01*
X0331321Y0261270D01*
X0331195Y0261366D01*
X0331072Y0261466D01*
X0330951Y0261568D01*
X0330833Y0261673D01*
X0330718Y0261782D01*
X0330605Y0261893D01*
X0330495Y0262007D01*
X0330388Y0262124D01*
X0330284Y0262243D01*
X0330183Y0262365D01*
X0330086Y0262490D01*
X0329991Y0262617D01*
X0329900Y0262746D01*
X0329811Y0262877D01*
X0329727Y0263011D01*
X0329645Y0263147D01*
X0329567Y0263284D01*
X0329493Y0263424D01*
X0329422Y0263566D01*
X0329354Y0263709D01*
X0329290Y0263854D01*
X0329230Y0264000D01*
X0329174Y0264148D01*
X0329121Y0264297D01*
X0329072Y0264448D01*
X0329027Y0264600D01*
X0328986Y0264753D01*
X0328948Y0264906D01*
X0328915Y0265061D01*
X0328885Y0265217D01*
X0328859Y0265373D01*
X0328838Y0265530D01*
X0328820Y0265687D01*
X0328806Y0265845D01*
X0328796Y0266003D01*
X0328790Y0266161D01*
X0328788Y0266319D01*
X0208118Y0036004D02*
X0208120Y0036164D01*
X0208126Y0036323D01*
X0208136Y0036482D01*
X0208150Y0036641D01*
X0208168Y0036800D01*
X0208189Y0036958D01*
X0208215Y0037115D01*
X0208245Y0037272D01*
X0208278Y0037428D01*
X0208316Y0037583D01*
X0208357Y0037737D01*
X0208402Y0037890D01*
X0208451Y0038042D01*
X0208504Y0038192D01*
X0208560Y0038341D01*
X0208620Y0038489D01*
X0208684Y0038635D01*
X0208752Y0038780D01*
X0208823Y0038923D01*
X0208897Y0039064D01*
X0208975Y0039203D01*
X0209057Y0039340D01*
X0209142Y0039475D01*
X0209230Y0039608D01*
X0209321Y0039739D01*
X0209416Y0039867D01*
X0209514Y0039993D01*
X0209615Y0040117D01*
X0209719Y0040237D01*
X0209826Y0040356D01*
X0209936Y0040471D01*
X0210049Y0040584D01*
X0210164Y0040694D01*
X0210283Y0040801D01*
X0210403Y0040905D01*
X0210527Y0041006D01*
X0210653Y0041104D01*
X0210781Y0041199D01*
X0210912Y0041290D01*
X0211045Y0041378D01*
X0211180Y0041463D01*
X0211317Y0041545D01*
X0211456Y0041623D01*
X0211597Y0041697D01*
X0211740Y0041768D01*
X0211885Y0041836D01*
X0212031Y0041900D01*
X0212179Y0041960D01*
X0212328Y0042016D01*
X0212478Y0042069D01*
X0212630Y0042118D01*
X0212783Y0042163D01*
X0212937Y0042204D01*
X0213092Y0042242D01*
X0213248Y0042275D01*
X0213405Y0042305D01*
X0213562Y0042331D01*
X0213720Y0042352D01*
X0213879Y0042370D01*
X0214038Y0042384D01*
X0214197Y0042394D01*
X0214356Y0042400D01*
X0214516Y0042402D01*
X0214676Y0042400D01*
X0214835Y0042394D01*
X0214994Y0042384D01*
X0215153Y0042370D01*
X0215312Y0042352D01*
X0215470Y0042331D01*
X0215627Y0042305D01*
X0215784Y0042275D01*
X0215940Y0042242D01*
X0216095Y0042204D01*
X0216249Y0042163D01*
X0216402Y0042118D01*
X0216554Y0042069D01*
X0216704Y0042016D01*
X0216853Y0041960D01*
X0217001Y0041900D01*
X0217147Y0041836D01*
X0217292Y0041768D01*
X0217435Y0041697D01*
X0217576Y0041623D01*
X0217715Y0041545D01*
X0217852Y0041463D01*
X0217987Y0041378D01*
X0218120Y0041290D01*
X0218251Y0041199D01*
X0218379Y0041104D01*
X0218505Y0041006D01*
X0218629Y0040905D01*
X0218749Y0040801D01*
X0218868Y0040694D01*
X0218983Y0040584D01*
X0219096Y0040471D01*
X0219206Y0040356D01*
X0219313Y0040237D01*
X0219417Y0040117D01*
X0219518Y0039993D01*
X0219616Y0039867D01*
X0219711Y0039739D01*
X0219802Y0039608D01*
X0219890Y0039475D01*
X0219975Y0039340D01*
X0220057Y0039203D01*
X0220135Y0039064D01*
X0220209Y0038923D01*
X0220280Y0038780D01*
X0220348Y0038635D01*
X0220412Y0038489D01*
X0220472Y0038341D01*
X0220528Y0038192D01*
X0220581Y0038042D01*
X0220630Y0037890D01*
X0220675Y0037737D01*
X0220716Y0037583D01*
X0220754Y0037428D01*
X0220787Y0037272D01*
X0220817Y0037115D01*
X0220843Y0036958D01*
X0220864Y0036800D01*
X0220882Y0036641D01*
X0220896Y0036482D01*
X0220906Y0036323D01*
X0220912Y0036164D01*
X0220914Y0036004D01*
X0220912Y0035844D01*
X0220906Y0035685D01*
X0220896Y0035526D01*
X0220882Y0035367D01*
X0220864Y0035208D01*
X0220843Y0035050D01*
X0220817Y0034893D01*
X0220787Y0034736D01*
X0220754Y0034580D01*
X0220716Y0034425D01*
X0220675Y0034271D01*
X0220630Y0034118D01*
X0220581Y0033966D01*
X0220528Y0033816D01*
X0220472Y0033667D01*
X0220412Y0033519D01*
X0220348Y0033373D01*
X0220280Y0033228D01*
X0220209Y0033085D01*
X0220135Y0032944D01*
X0220057Y0032805D01*
X0219975Y0032668D01*
X0219890Y0032533D01*
X0219802Y0032400D01*
X0219711Y0032269D01*
X0219616Y0032141D01*
X0219518Y0032015D01*
X0219417Y0031891D01*
X0219313Y0031771D01*
X0219206Y0031652D01*
X0219096Y0031537D01*
X0218983Y0031424D01*
X0218868Y0031314D01*
X0218749Y0031207D01*
X0218629Y0031103D01*
X0218505Y0031002D01*
X0218379Y0030904D01*
X0218251Y0030809D01*
X0218120Y0030718D01*
X0217987Y0030630D01*
X0217852Y0030545D01*
X0217715Y0030463D01*
X0217576Y0030385D01*
X0217435Y0030311D01*
X0217292Y0030240D01*
X0217147Y0030172D01*
X0217001Y0030108D01*
X0216853Y0030048D01*
X0216704Y0029992D01*
X0216554Y0029939D01*
X0216402Y0029890D01*
X0216249Y0029845D01*
X0216095Y0029804D01*
X0215940Y0029766D01*
X0215784Y0029733D01*
X0215627Y0029703D01*
X0215470Y0029677D01*
X0215312Y0029656D01*
X0215153Y0029638D01*
X0214994Y0029624D01*
X0214835Y0029614D01*
X0214676Y0029608D01*
X0214516Y0029606D01*
X0214356Y0029608D01*
X0214197Y0029614D01*
X0214038Y0029624D01*
X0213879Y0029638D01*
X0213720Y0029656D01*
X0213562Y0029677D01*
X0213405Y0029703D01*
X0213248Y0029733D01*
X0213092Y0029766D01*
X0212937Y0029804D01*
X0212783Y0029845D01*
X0212630Y0029890D01*
X0212478Y0029939D01*
X0212328Y0029992D01*
X0212179Y0030048D01*
X0212031Y0030108D01*
X0211885Y0030172D01*
X0211740Y0030240D01*
X0211597Y0030311D01*
X0211456Y0030385D01*
X0211317Y0030463D01*
X0211180Y0030545D01*
X0211045Y0030630D01*
X0210912Y0030718D01*
X0210781Y0030809D01*
X0210653Y0030904D01*
X0210527Y0031002D01*
X0210403Y0031103D01*
X0210283Y0031207D01*
X0210164Y0031314D01*
X0210049Y0031424D01*
X0209936Y0031537D01*
X0209826Y0031652D01*
X0209719Y0031771D01*
X0209615Y0031891D01*
X0209514Y0032015D01*
X0209416Y0032141D01*
X0209321Y0032269D01*
X0209230Y0032400D01*
X0209142Y0032533D01*
X0209057Y0032668D01*
X0208975Y0032805D01*
X0208897Y0032944D01*
X0208823Y0033085D01*
X0208752Y0033228D01*
X0208684Y0033373D01*
X0208620Y0033519D01*
X0208560Y0033667D01*
X0208504Y0033816D01*
X0208451Y0033966D01*
X0208402Y0034118D01*
X0208357Y0034271D01*
X0208316Y0034425D01*
X0208278Y0034580D01*
X0208245Y0034736D01*
X0208215Y0034893D01*
X0208189Y0035050D01*
X0208168Y0035208D01*
X0208150Y0035367D01*
X0208136Y0035526D01*
X0208126Y0035685D01*
X0208120Y0035844D01*
X0208118Y0036004D01*
X0328788Y0018287D02*
X0328790Y0018445D01*
X0328796Y0018603D01*
X0328806Y0018761D01*
X0328820Y0018919D01*
X0328838Y0019076D01*
X0328859Y0019233D01*
X0328885Y0019389D01*
X0328915Y0019545D01*
X0328948Y0019700D01*
X0328986Y0019853D01*
X0329027Y0020006D01*
X0329072Y0020158D01*
X0329121Y0020309D01*
X0329174Y0020458D01*
X0329230Y0020606D01*
X0329290Y0020752D01*
X0329354Y0020897D01*
X0329422Y0021040D01*
X0329493Y0021182D01*
X0329567Y0021322D01*
X0329645Y0021459D01*
X0329727Y0021595D01*
X0329811Y0021729D01*
X0329900Y0021860D01*
X0329991Y0021989D01*
X0330086Y0022116D01*
X0330183Y0022241D01*
X0330284Y0022363D01*
X0330388Y0022482D01*
X0330495Y0022599D01*
X0330605Y0022713D01*
X0330718Y0022824D01*
X0330833Y0022933D01*
X0330951Y0023038D01*
X0331072Y0023140D01*
X0331195Y0023240D01*
X0331321Y0023336D01*
X0331449Y0023429D01*
X0331579Y0023519D01*
X0331712Y0023605D01*
X0331847Y0023689D01*
X0331983Y0023768D01*
X0332122Y0023845D01*
X0332263Y0023917D01*
X0332405Y0023987D01*
X0332549Y0024052D01*
X0332695Y0024114D01*
X0332842Y0024172D01*
X0332991Y0024227D01*
X0333141Y0024278D01*
X0333292Y0024325D01*
X0333444Y0024368D01*
X0333597Y0024407D01*
X0333752Y0024443D01*
X0333907Y0024474D01*
X0334063Y0024502D01*
X0334219Y0024526D01*
X0334376Y0024546D01*
X0334534Y0024562D01*
X0334691Y0024574D01*
X0334850Y0024582D01*
X0335008Y0024586D01*
X0335166Y0024586D01*
X0335324Y0024582D01*
X0335483Y0024574D01*
X0335640Y0024562D01*
X0335798Y0024546D01*
X0335955Y0024526D01*
X0336111Y0024502D01*
X0336267Y0024474D01*
X0336422Y0024443D01*
X0336577Y0024407D01*
X0336730Y0024368D01*
X0336882Y0024325D01*
X0337033Y0024278D01*
X0337183Y0024227D01*
X0337332Y0024172D01*
X0337479Y0024114D01*
X0337625Y0024052D01*
X0337769Y0023987D01*
X0337911Y0023917D01*
X0338052Y0023845D01*
X0338191Y0023768D01*
X0338327Y0023689D01*
X0338462Y0023605D01*
X0338595Y0023519D01*
X0338725Y0023429D01*
X0338853Y0023336D01*
X0338979Y0023240D01*
X0339102Y0023140D01*
X0339223Y0023038D01*
X0339341Y0022933D01*
X0339456Y0022824D01*
X0339569Y0022713D01*
X0339679Y0022599D01*
X0339786Y0022482D01*
X0339890Y0022363D01*
X0339991Y0022241D01*
X0340088Y0022116D01*
X0340183Y0021989D01*
X0340274Y0021860D01*
X0340363Y0021729D01*
X0340447Y0021595D01*
X0340529Y0021459D01*
X0340607Y0021322D01*
X0340681Y0021182D01*
X0340752Y0021040D01*
X0340820Y0020897D01*
X0340884Y0020752D01*
X0340944Y0020606D01*
X0341000Y0020458D01*
X0341053Y0020309D01*
X0341102Y0020158D01*
X0341147Y0020006D01*
X0341188Y0019853D01*
X0341226Y0019700D01*
X0341259Y0019545D01*
X0341289Y0019389D01*
X0341315Y0019233D01*
X0341336Y0019076D01*
X0341354Y0018919D01*
X0341368Y0018761D01*
X0341378Y0018603D01*
X0341384Y0018445D01*
X0341386Y0018287D01*
X0341384Y0018129D01*
X0341378Y0017971D01*
X0341368Y0017813D01*
X0341354Y0017655D01*
X0341336Y0017498D01*
X0341315Y0017341D01*
X0341289Y0017185D01*
X0341259Y0017029D01*
X0341226Y0016874D01*
X0341188Y0016721D01*
X0341147Y0016568D01*
X0341102Y0016416D01*
X0341053Y0016265D01*
X0341000Y0016116D01*
X0340944Y0015968D01*
X0340884Y0015822D01*
X0340820Y0015677D01*
X0340752Y0015534D01*
X0340681Y0015392D01*
X0340607Y0015252D01*
X0340529Y0015115D01*
X0340447Y0014979D01*
X0340363Y0014845D01*
X0340274Y0014714D01*
X0340183Y0014585D01*
X0340088Y0014458D01*
X0339991Y0014333D01*
X0339890Y0014211D01*
X0339786Y0014092D01*
X0339679Y0013975D01*
X0339569Y0013861D01*
X0339456Y0013750D01*
X0339341Y0013641D01*
X0339223Y0013536D01*
X0339102Y0013434D01*
X0338979Y0013334D01*
X0338853Y0013238D01*
X0338725Y0013145D01*
X0338595Y0013055D01*
X0338462Y0012969D01*
X0338327Y0012885D01*
X0338191Y0012806D01*
X0338052Y0012729D01*
X0337911Y0012657D01*
X0337769Y0012587D01*
X0337625Y0012522D01*
X0337479Y0012460D01*
X0337332Y0012402D01*
X0337183Y0012347D01*
X0337033Y0012296D01*
X0336882Y0012249D01*
X0336730Y0012206D01*
X0336577Y0012167D01*
X0336422Y0012131D01*
X0336267Y0012100D01*
X0336111Y0012072D01*
X0335955Y0012048D01*
X0335798Y0012028D01*
X0335640Y0012012D01*
X0335483Y0012000D01*
X0335324Y0011992D01*
X0335166Y0011988D01*
X0335008Y0011988D01*
X0334850Y0011992D01*
X0334691Y0012000D01*
X0334534Y0012012D01*
X0334376Y0012028D01*
X0334219Y0012048D01*
X0334063Y0012072D01*
X0333907Y0012100D01*
X0333752Y0012131D01*
X0333597Y0012167D01*
X0333444Y0012206D01*
X0333292Y0012249D01*
X0333141Y0012296D01*
X0332991Y0012347D01*
X0332842Y0012402D01*
X0332695Y0012460D01*
X0332549Y0012522D01*
X0332405Y0012587D01*
X0332263Y0012657D01*
X0332122Y0012729D01*
X0331983Y0012806D01*
X0331847Y0012885D01*
X0331712Y0012969D01*
X0331579Y0013055D01*
X0331449Y0013145D01*
X0331321Y0013238D01*
X0331195Y0013334D01*
X0331072Y0013434D01*
X0330951Y0013536D01*
X0330833Y0013641D01*
X0330718Y0013750D01*
X0330605Y0013861D01*
X0330495Y0013975D01*
X0330388Y0014092D01*
X0330284Y0014211D01*
X0330183Y0014333D01*
X0330086Y0014458D01*
X0329991Y0014585D01*
X0329900Y0014714D01*
X0329811Y0014845D01*
X0329727Y0014979D01*
X0329645Y0015115D01*
X0329567Y0015252D01*
X0329493Y0015392D01*
X0329422Y0015534D01*
X0329354Y0015677D01*
X0329290Y0015822D01*
X0329230Y0015968D01*
X0329174Y0016116D01*
X0329121Y0016265D01*
X0329072Y0016416D01*
X0329027Y0016568D01*
X0328986Y0016721D01*
X0328948Y0016874D01*
X0328915Y0017029D01*
X0328885Y0017185D01*
X0328859Y0017341D01*
X0328838Y0017498D01*
X0328820Y0017655D01*
X0328806Y0017813D01*
X0328796Y0017971D01*
X0328790Y0018129D01*
X0328788Y0018287D01*
D11*
X0296720Y0217618D03*
X0280972Y0217618D03*
X0265224Y0217618D03*
X0280972Y0237303D03*
X0265224Y0256988D03*
X0280972Y0262500D03*
X0296720Y0256988D03*
D12*
X0240520Y0182283D03*
X0240520Y0139429D03*
D13*
X0240520Y0129429D03*
X0240520Y0119429D03*
X0240520Y0109429D03*
X0270520Y0109429D03*
X0270520Y0119429D03*
X0270520Y0129429D03*
X0270520Y0139429D03*
X0270520Y0152283D03*
X0270520Y0162283D03*
X0270520Y0172283D03*
X0270520Y0182283D03*
X0240520Y0172283D03*
X0240520Y0162283D03*
X0240520Y0152283D03*
D14*
X0172542Y0247953D02*
X0165742Y0247953D01*
X0165742Y0257953D02*
X0172542Y0257953D01*
X0172542Y0267953D02*
X0165742Y0267953D01*
D15*
X0167181Y0096634D03*
X0167437Y0088209D03*
X0157437Y0088209D03*
X0157181Y0096634D03*
X0147181Y0096634D03*
X0147437Y0088209D03*
X0137437Y0088209D03*
X0137181Y0096634D03*
X0127181Y0096634D03*
X0127437Y0088209D03*
X0117437Y0088209D03*
X0117181Y0096634D03*
X0107181Y0096634D03*
X0107437Y0088209D03*
X0097437Y0088209D03*
X0087437Y0088209D03*
X0087181Y0096634D03*
X0077181Y0096634D03*
X0077437Y0088209D03*
X0067437Y0088209D03*
X0067181Y0096634D03*
X0057181Y0096634D03*
X0057437Y0088209D03*
X0047437Y0088209D03*
X0047181Y0096634D03*
X0037181Y0096634D03*
X0037437Y0088209D03*
X0027437Y0088209D03*
X0027181Y0096634D03*
X0097181Y0096634D03*
X0097437Y0028209D03*
X0087437Y0028209D03*
X0087575Y0019724D03*
X0097575Y0019724D03*
X0107575Y0019724D03*
X0107437Y0028209D03*
X0117437Y0028209D03*
X0117575Y0019724D03*
X0127575Y0019724D03*
X0127437Y0028209D03*
X0137437Y0028209D03*
X0137575Y0019724D03*
X0147575Y0019724D03*
X0147437Y0028209D03*
X0157437Y0028209D03*
X0167437Y0028209D03*
X0167575Y0019724D03*
X0157575Y0019724D03*
X0077575Y0019724D03*
X0077437Y0028209D03*
X0067437Y0028209D03*
X0067575Y0019724D03*
X0057575Y0019724D03*
X0057437Y0028209D03*
X0047437Y0028209D03*
X0047575Y0019724D03*
X0037575Y0019724D03*
X0037437Y0028209D03*
X0027437Y0028209D03*
X0027575Y0019724D03*
D16*
X0310972Y0021004D03*
D17*
X0310972Y0031004D03*
X0310972Y0041004D03*
X0310972Y0051004D03*
X0298925Y0077421D03*
X0288925Y0077421D03*
X0278925Y0077421D03*
X0268925Y0077421D03*
X0302819Y0090813D03*
X0312819Y0090813D03*
X0322819Y0090813D03*
X0332819Y0090813D03*
X0322819Y0100813D03*
X0312819Y0100813D03*
X0229772Y0079311D03*
X0221898Y0079311D03*
X0214024Y0079311D03*
X0147035Y0010000D03*
X0137035Y0010000D03*
X0127035Y0010000D03*
X0117035Y0010000D03*
X0107035Y0010000D03*
D18*
X0058512Y0051881D02*
X0058512Y0060481D01*
X0051001Y0075079D02*
X0042401Y0075079D01*
X0034890Y0060481D02*
X0034890Y0051881D01*
D19*
X0237646Y0079311D03*
X0258925Y0077421D03*
X0302819Y0100813D03*
X0332819Y0100813D03*
D20*
X0198378Y0093008D03*
X0188378Y0093008D03*
X0188378Y0058508D03*
X0198378Y0058508D03*
X0198378Y0025508D03*
X0188378Y0025508D03*
D21*
X0194778Y0031708D02*
X0181978Y0044508D01*
X0173978Y0044508D01*
X0130778Y0087708D01*
X0127578Y0087708D01*
X0127437Y0088209D01*
X0112378Y0086108D02*
X0112378Y0181308D01*
X0109978Y0183708D01*
X0109978Y0186108D01*
X0114128Y0190258D01*
X0109378Y0195008D01*
X0108378Y0198908D02*
X0067578Y0158108D01*
X0067578Y0097308D01*
X0067181Y0096634D01*
X0052378Y0098108D02*
X0052378Y0086108D01*
X0056378Y0082108D01*
X0081178Y0082108D01*
X0098778Y0078908D02*
X0056378Y0078908D01*
X0047578Y0087708D01*
X0047437Y0088209D01*
X0052378Y0098108D02*
X0048378Y0102108D01*
X0042778Y0102108D01*
X0037978Y0097308D01*
X0037181Y0096634D01*
X0081978Y0060508D02*
X0086778Y0060508D01*
X0112378Y0086108D01*
X0161878Y0130508D02*
X0239878Y0130508D01*
X0240520Y0129429D01*
X0249178Y0143708D02*
X0249178Y0153308D01*
X0245178Y0157308D01*
X0130778Y0157308D01*
X0125978Y0162108D01*
X0130378Y0168008D02*
X0134878Y0163508D01*
X0239878Y0163508D01*
X0240520Y0162283D01*
X0240520Y0172283D02*
X0239878Y0172508D01*
X0125878Y0172508D01*
X0113878Y0184508D01*
X0114128Y0190258D02*
X0127378Y0177008D01*
X0256378Y0177008D01*
X0269878Y0163508D01*
X0270520Y0162283D01*
X0269178Y0166908D02*
X0237178Y0198908D01*
X0108378Y0198908D01*
X0169378Y0204008D02*
X0212878Y0247508D01*
X0286378Y0247508D01*
X0295378Y0256508D01*
X0296720Y0256988D01*
X0305878Y0261008D02*
X0305878Y0219008D01*
X0296878Y0219008D01*
X0296720Y0217618D01*
X0280972Y0237303D02*
X0280378Y0237008D01*
X0251878Y0237008D01*
X0239878Y0225008D01*
X0295378Y0271508D02*
X0182878Y0271508D01*
X0169378Y0258008D01*
X0169142Y0257953D01*
X0269178Y0166908D02*
X0273178Y0166908D01*
X0332378Y0107708D01*
X0332378Y0101308D01*
X0332819Y0100813D01*
X0328378Y0094908D02*
X0332378Y0090908D01*
X0332819Y0090813D01*
X0328378Y0094908D02*
X0321178Y0094908D01*
X0317178Y0090908D01*
X0313178Y0090908D01*
X0312819Y0090813D01*
X0302819Y0090813D02*
X0302778Y0090908D01*
X0265978Y0090908D01*
X0261978Y0094908D01*
X0278925Y0077421D02*
X0280378Y0076508D01*
X0301378Y0055508D01*
X0317878Y0055508D01*
X0322378Y0051008D01*
X0322378Y0006008D01*
X0139378Y0006008D01*
X0136378Y0009008D01*
X0137035Y0010000D01*
X0127035Y0010000D02*
X0126778Y0010108D01*
X0122778Y0010108D01*
X0117978Y0014908D01*
X0104478Y0014908D01*
X0101178Y0019708D01*
X0097575Y0019724D01*
X0149178Y0033308D02*
X0042778Y0033308D01*
X0037978Y0028508D01*
X0037437Y0028209D01*
X0149178Y0033308D02*
X0152378Y0030108D01*
X0152378Y0026108D01*
X0152578Y0021408D01*
X0152578Y0017308D01*
X0162778Y0010108D01*
X0269978Y0119708D02*
X0270520Y0119429D01*
X0269978Y0119708D02*
X0269978Y0122908D01*
X0249178Y0143708D01*
X0161878Y0130508D02*
X0151378Y0141008D01*
X0295378Y0271508D02*
X0305878Y0261008D01*
D22*
X0239878Y0225008D03*
X0169378Y0204008D03*
X0130378Y0168008D03*
X0125978Y0162108D03*
X0151378Y0141008D03*
X0113878Y0184508D03*
X0109378Y0195008D03*
X0081178Y0082108D03*
X0098778Y0078908D03*
X0081978Y0060508D03*
X0162778Y0010108D03*
X0194778Y0031708D03*
X0261978Y0094908D03*
D23*
X0258803Y0092426D02*
X0203478Y0092426D01*
X0203478Y0093008D02*
X0203478Y0090895D01*
X0200490Y0087908D01*
X0198378Y0087908D01*
X0198378Y0093008D01*
X0198378Y0093008D01*
X0198378Y0098108D01*
X0200490Y0098108D01*
X0203478Y0095120D01*
X0203478Y0093008D01*
X0198378Y0093008D01*
X0198378Y0093008D01*
X0198378Y0098108D01*
X0196265Y0098108D01*
X0193519Y0095362D01*
X0190573Y0098308D01*
X0186183Y0098308D01*
X0183078Y0095203D01*
X0183078Y0090813D01*
X0186183Y0087708D01*
X0190573Y0087708D01*
X0193519Y0090654D01*
X0196265Y0087908D01*
X0198378Y0087908D01*
X0198378Y0093008D01*
X0203478Y0093008D01*
X0203478Y0094025D02*
X0258014Y0094025D01*
X0257978Y0094112D02*
X0258587Y0092642D01*
X0259712Y0091517D01*
X0261182Y0090908D01*
X0262584Y0090908D01*
X0264618Y0088873D01*
X0265501Y0088508D01*
X0298605Y0088508D01*
X0298771Y0088108D01*
X0300114Y0086765D01*
X0301869Y0086038D01*
X0303769Y0086038D01*
X0305524Y0086765D01*
X0306867Y0088108D01*
X0307594Y0089863D01*
X0307594Y0091763D01*
X0306867Y0093518D01*
X0305524Y0094861D01*
X0303769Y0095588D01*
X0301869Y0095588D01*
X0300114Y0094861D01*
X0298771Y0093518D01*
X0298684Y0093308D01*
X0266972Y0093308D01*
X0265978Y0094302D01*
X0265978Y0095704D01*
X0265369Y0097174D01*
X0264244Y0098299D01*
X0262774Y0098908D01*
X0261182Y0098908D01*
X0259712Y0098299D01*
X0258587Y0097174D01*
X0257978Y0095704D01*
X0257978Y0094112D01*
X0257978Y0095623D02*
X0202975Y0095623D01*
X0201377Y0097222D02*
X0258635Y0097222D01*
X0260970Y0098820D02*
X0172229Y0098820D01*
X0171844Y0099749D02*
X0170297Y0101297D01*
X0168275Y0102134D01*
X0166087Y0102134D01*
X0164066Y0101297D01*
X0162518Y0099749D01*
X0162181Y0098935D01*
X0161844Y0099749D01*
X0160297Y0101297D01*
X0158275Y0102134D01*
X0156087Y0102134D01*
X0154066Y0101297D01*
X0152518Y0099749D01*
X0152181Y0098935D01*
X0151844Y0099749D01*
X0150297Y0101297D01*
X0148275Y0102134D01*
X0146087Y0102134D01*
X0144066Y0101297D01*
X0142518Y0099749D01*
X0142081Y0098692D01*
X0141714Y0099412D01*
X0141224Y0100087D01*
X0140634Y0100676D01*
X0139959Y0101167D01*
X0139216Y0101546D01*
X0138422Y0101803D01*
X0137598Y0101934D01*
X0137381Y0101934D01*
X0137381Y0096834D01*
X0136981Y0096834D01*
X0136981Y0101934D01*
X0136764Y0101934D01*
X0135940Y0101803D01*
X0135147Y0101546D01*
X0134403Y0101167D01*
X0133728Y0100676D01*
X0133138Y0100087D01*
X0132648Y0099412D01*
X0132282Y0098692D01*
X0131844Y0099749D01*
X0130297Y0101297D01*
X0128275Y0102134D01*
X0126087Y0102134D01*
X0124066Y0101297D01*
X0122518Y0099749D01*
X0122181Y0098935D01*
X0121844Y0099749D01*
X0120297Y0101297D01*
X0118275Y0102134D01*
X0116087Y0102134D01*
X0114778Y0101592D01*
X0114778Y0180214D01*
X0123843Y0171148D01*
X0124518Y0170473D01*
X0125401Y0170108D01*
X0126918Y0170108D01*
X0126378Y0168804D01*
X0126378Y0167212D01*
X0126848Y0166077D01*
X0126774Y0166108D01*
X0125182Y0166108D01*
X0123712Y0165499D01*
X0122587Y0164374D01*
X0121978Y0162904D01*
X0121978Y0161312D01*
X0122587Y0159842D01*
X0123712Y0158717D01*
X0125182Y0158108D01*
X0126584Y0158108D01*
X0129418Y0155273D01*
X0130301Y0154908D01*
X0236021Y0154908D01*
X0235701Y0154280D01*
X0235448Y0153501D01*
X0235320Y0152693D01*
X0235320Y0152583D01*
X0240220Y0152583D01*
X0240220Y0151983D01*
X0240820Y0151983D01*
X0240820Y0147083D01*
X0240929Y0147083D01*
X0241737Y0147212D01*
X0242516Y0147464D01*
X0243245Y0147836D01*
X0243907Y0148317D01*
X0244486Y0148896D01*
X0244967Y0149558D01*
X0245339Y0150287D01*
X0245592Y0151066D01*
X0245720Y0151874D01*
X0245720Y0151983D01*
X0240820Y0151983D01*
X0240820Y0152583D01*
X0245720Y0152583D01*
X0245720Y0152693D01*
X0245592Y0153500D01*
X0246778Y0152314D01*
X0246778Y0143230D01*
X0247143Y0142348D01*
X0247818Y0141673D01*
X0266473Y0123019D01*
X0265942Y0122488D01*
X0265120Y0120503D01*
X0265120Y0118355D01*
X0265942Y0116370D01*
X0267461Y0114851D01*
X0268480Y0114429D01*
X0267461Y0114007D01*
X0265942Y0112488D01*
X0265120Y0110503D01*
X0265120Y0108355D01*
X0265942Y0106370D01*
X0267461Y0104851D01*
X0269446Y0104029D01*
X0271594Y0104029D01*
X0273579Y0104851D01*
X0275098Y0106370D01*
X0275920Y0108355D01*
X0275920Y0110503D01*
X0275098Y0112488D01*
X0273579Y0114007D01*
X0272559Y0114429D01*
X0273579Y0114851D01*
X0275098Y0116370D01*
X0275920Y0118355D01*
X0275920Y0120503D01*
X0275098Y0122488D01*
X0273579Y0124007D01*
X0272559Y0124429D01*
X0273579Y0124851D01*
X0275098Y0126370D01*
X0275920Y0128355D01*
X0275920Y0130503D01*
X0275098Y0132488D01*
X0273579Y0134007D01*
X0272559Y0134429D01*
X0273579Y0134851D01*
X0275098Y0136370D01*
X0275920Y0138355D01*
X0275920Y0140503D01*
X0275098Y0142488D01*
X0273579Y0144007D01*
X0271594Y0144829D01*
X0269446Y0144829D01*
X0267461Y0144007D01*
X0265942Y0142488D01*
X0265120Y0140503D01*
X0265120Y0138355D01*
X0265942Y0136370D01*
X0267461Y0134851D01*
X0268480Y0134429D01*
X0267461Y0134007D01*
X0265942Y0132488D01*
X0265312Y0130968D01*
X0251578Y0144702D01*
X0251578Y0153785D01*
X0251213Y0154667D01*
X0247213Y0158667D01*
X0246537Y0159342D01*
X0245655Y0159708D01*
X0245298Y0159708D01*
X0245920Y0161209D01*
X0245920Y0163358D01*
X0245098Y0165342D01*
X0243579Y0166861D01*
X0242559Y0167283D01*
X0243579Y0167706D01*
X0245098Y0169225D01*
X0245920Y0171209D01*
X0245920Y0173358D01*
X0245402Y0174608D01*
X0255384Y0174608D01*
X0265563Y0164428D01*
X0265120Y0163358D01*
X0265120Y0161209D01*
X0265942Y0159225D01*
X0267461Y0157706D01*
X0268480Y0157283D01*
X0267461Y0156861D01*
X0265942Y0155342D01*
X0265120Y0153358D01*
X0265120Y0151209D01*
X0265942Y0149225D01*
X0267461Y0147706D01*
X0269446Y0146883D01*
X0271594Y0146883D01*
X0273579Y0147706D01*
X0275098Y0149225D01*
X0275920Y0151209D01*
X0275920Y0153358D01*
X0275098Y0155342D01*
X0273579Y0156861D01*
X0272559Y0157283D01*
X0273579Y0157706D01*
X0275098Y0159225D01*
X0275792Y0160900D01*
X0329978Y0106714D01*
X0329978Y0105588D01*
X0329216Y0105588D01*
X0328044Y0104416D01*
X0328044Y0097308D01*
X0326066Y0097308D01*
X0326867Y0098108D01*
X0327594Y0099863D01*
X0327594Y0101763D01*
X0326867Y0103518D01*
X0325524Y0104861D01*
X0323769Y0105588D01*
X0321869Y0105588D01*
X0320114Y0104861D01*
X0318771Y0103518D01*
X0318044Y0101763D01*
X0318044Y0099863D01*
X0318771Y0098108D01*
X0319902Y0096977D01*
X0319818Y0096942D01*
X0319143Y0096267D01*
X0316630Y0093754D01*
X0315524Y0094861D01*
X0313769Y0095588D01*
X0311869Y0095588D01*
X0310114Y0094861D01*
X0308771Y0093518D01*
X0308044Y0091763D01*
X0308044Y0089863D01*
X0308771Y0088108D01*
X0310114Y0086765D01*
X0311869Y0086038D01*
X0313769Y0086038D01*
X0315524Y0086765D01*
X0316867Y0088108D01*
X0317032Y0088508D01*
X0317655Y0088508D01*
X0318466Y0088844D01*
X0318771Y0088108D01*
X0320114Y0086765D01*
X0321869Y0086038D01*
X0323769Y0086038D01*
X0325524Y0086765D01*
X0326867Y0088108D01*
X0327594Y0089863D01*
X0327594Y0091763D01*
X0327285Y0092508D01*
X0327384Y0092508D01*
X0328069Y0091823D01*
X0328044Y0091763D01*
X0328044Y0089863D01*
X0328771Y0088108D01*
X0330114Y0086765D01*
X0331869Y0086038D01*
X0333769Y0086038D01*
X0335524Y0086765D01*
X0336867Y0088108D01*
X0337594Y0089863D01*
X0337594Y0091763D01*
X0336867Y0093518D01*
X0335524Y0094861D01*
X0333769Y0095588D01*
X0331869Y0095588D01*
X0331320Y0095360D01*
X0330642Y0096038D01*
X0336422Y0096038D01*
X0337594Y0097210D01*
X0337594Y0104416D01*
X0336422Y0105588D01*
X0334778Y0105588D01*
X0334778Y0108185D01*
X0334413Y0109067D01*
X0275213Y0168267D01*
X0275213Y0168267D01*
X0274676Y0168803D01*
X0275098Y0169225D01*
X0275920Y0171209D01*
X0275920Y0173358D01*
X0275098Y0175342D01*
X0273579Y0176861D01*
X0272559Y0177283D01*
X0273579Y0177706D01*
X0275098Y0179225D01*
X0275920Y0181209D01*
X0275920Y0183358D01*
X0275098Y0185342D01*
X0273579Y0186861D01*
X0271594Y0187683D01*
X0269446Y0187683D01*
X0267461Y0186861D01*
X0265942Y0185342D01*
X0265120Y0183358D01*
X0265120Y0181209D01*
X0265942Y0179225D01*
X0267461Y0177706D01*
X0268480Y0177283D01*
X0267461Y0176861D01*
X0265942Y0175342D01*
X0265413Y0174067D01*
X0239213Y0200267D01*
X0238537Y0200942D01*
X0237655Y0201308D01*
X0172335Y0201308D01*
X0172769Y0201742D01*
X0173378Y0203212D01*
X0173378Y0204614D01*
X0213872Y0245108D01*
X0275988Y0245108D01*
X0275807Y0245033D01*
X0273242Y0242468D01*
X0271975Y0239408D01*
X0251401Y0239408D01*
X0250518Y0239042D01*
X0249843Y0238367D01*
X0240484Y0229008D01*
X0239082Y0229008D01*
X0237612Y0228399D01*
X0236487Y0227274D01*
X0235878Y0225804D01*
X0235878Y0224212D01*
X0236487Y0222742D01*
X0237612Y0221617D01*
X0239082Y0221008D01*
X0240674Y0221008D01*
X0242144Y0221617D01*
X0243269Y0222742D01*
X0243878Y0224212D01*
X0243878Y0225614D01*
X0252872Y0234608D01*
X0272219Y0234608D01*
X0273242Y0232138D01*
X0275807Y0229573D01*
X0279159Y0228185D01*
X0282786Y0228185D01*
X0286137Y0229573D01*
X0288702Y0232138D01*
X0290091Y0235489D01*
X0290091Y0239117D01*
X0288702Y0242468D01*
X0286137Y0245033D01*
X0285957Y0245108D01*
X0286855Y0245108D01*
X0287737Y0245473D01*
X0291539Y0249275D01*
X0291555Y0249258D01*
X0294907Y0247870D01*
X0298534Y0247870D01*
X0301885Y0249258D01*
X0303478Y0250851D01*
X0303478Y0223756D01*
X0301885Y0225348D01*
X0298534Y0226736D01*
X0294907Y0226736D01*
X0291555Y0225348D01*
X0288991Y0222783D01*
X0288846Y0222435D01*
X0288702Y0222783D01*
X0286137Y0225348D01*
X0282786Y0226736D01*
X0279159Y0226736D01*
X0275807Y0225348D01*
X0273242Y0222783D01*
X0273098Y0222435D01*
X0272954Y0222783D01*
X0270389Y0225348D01*
X0267038Y0226736D01*
X0263411Y0226736D01*
X0260059Y0225348D01*
X0257494Y0222783D01*
X0256106Y0219432D01*
X0256106Y0215804D01*
X0257494Y0212453D01*
X0260059Y0209888D01*
X0263411Y0208500D01*
X0267038Y0208500D01*
X0270389Y0209888D01*
X0272954Y0212453D01*
X0273098Y0212801D01*
X0273242Y0212453D01*
X0275807Y0209888D01*
X0279159Y0208500D01*
X0282786Y0208500D01*
X0286137Y0209888D01*
X0288702Y0212453D01*
X0288846Y0212801D01*
X0288991Y0212453D01*
X0291555Y0209888D01*
X0294907Y0208500D01*
X0298534Y0208500D01*
X0301885Y0209888D01*
X0304450Y0212453D01*
X0305839Y0215804D01*
X0305839Y0216608D01*
X0306355Y0216608D01*
X0307237Y0216973D01*
X0307913Y0217648D01*
X0308278Y0218530D01*
X0308278Y0261485D01*
X0307913Y0262367D01*
X0307237Y0263042D01*
X0296737Y0273542D01*
X0295855Y0273908D01*
X0182401Y0273908D01*
X0181518Y0273542D01*
X0180843Y0272867D01*
X0177667Y0269691D01*
X0177120Y0271012D01*
X0175601Y0272531D01*
X0173616Y0273353D01*
X0164668Y0273353D01*
X0162683Y0272531D01*
X0161164Y0271012D01*
X0160342Y0269027D01*
X0160342Y0266879D01*
X0161164Y0264894D01*
X0162683Y0263375D01*
X0163702Y0262953D01*
X0162683Y0262531D01*
X0161164Y0261012D01*
X0160342Y0259027D01*
X0160342Y0256879D01*
X0161164Y0254894D01*
X0162683Y0253375D01*
X0163966Y0252843D01*
X0163746Y0252772D01*
X0163016Y0252400D01*
X0162354Y0251919D01*
X0161775Y0251340D01*
X0161294Y0250678D01*
X0160923Y0249949D01*
X0160670Y0249170D01*
X0160542Y0248362D01*
X0160542Y0248253D01*
X0168842Y0248253D01*
X0168842Y0247653D01*
X0169442Y0247653D01*
X0169442Y0248253D01*
X0177742Y0248253D01*
X0177742Y0248362D01*
X0177614Y0249170D01*
X0177361Y0249949D01*
X0176989Y0250678D01*
X0176508Y0251340D01*
X0175929Y0251919D01*
X0175267Y0252400D01*
X0174538Y0252772D01*
X0174317Y0252843D01*
X0175601Y0253375D01*
X0177120Y0254894D01*
X0177942Y0256879D01*
X0177942Y0259027D01*
X0177120Y0261012D01*
X0176448Y0261684D01*
X0183872Y0269108D01*
X0274685Y0269108D01*
X0273242Y0267665D01*
X0271854Y0264314D01*
X0271854Y0262970D01*
X0271117Y0263708D01*
X0270190Y0264419D01*
X0269177Y0265004D01*
X0268097Y0265451D01*
X0266968Y0265754D01*
X0266024Y0265878D01*
X0266024Y0257788D01*
X0264424Y0257788D01*
X0264424Y0256188D01*
X0256335Y0256188D01*
X0256459Y0255245D01*
X0256761Y0254115D01*
X0257209Y0253035D01*
X0257793Y0252023D01*
X0258505Y0251095D01*
X0259332Y0250269D01*
X0259802Y0249908D01*
X0212401Y0249908D01*
X0211518Y0249542D01*
X0210843Y0248867D01*
X0169984Y0208008D01*
X0168582Y0208008D01*
X0167112Y0207399D01*
X0165987Y0206274D01*
X0165378Y0204804D01*
X0165378Y0203212D01*
X0165987Y0201742D01*
X0166421Y0201308D01*
X0107901Y0201308D01*
X0107018Y0200942D01*
X0066218Y0160142D01*
X0065543Y0159467D01*
X0065178Y0158585D01*
X0065178Y0101757D01*
X0064066Y0101297D01*
X0062518Y0099749D01*
X0062181Y0098935D01*
X0061844Y0099749D01*
X0060297Y0101297D01*
X0058275Y0102134D01*
X0056087Y0102134D01*
X0054066Y0101297D01*
X0053324Y0100555D01*
X0050413Y0103467D01*
X0049737Y0104142D01*
X0048855Y0104508D01*
X0042301Y0104508D01*
X0041418Y0104142D01*
X0039077Y0101801D01*
X0038275Y0102134D01*
X0036087Y0102134D01*
X0034066Y0101297D01*
X0032518Y0099749D01*
X0032181Y0098935D01*
X0031844Y0099749D01*
X0030297Y0101297D01*
X0028275Y0102134D01*
X0026087Y0102134D01*
X0024066Y0101297D01*
X0022518Y0099749D01*
X0021681Y0097728D01*
X0021681Y0095540D01*
X0022518Y0093518D01*
X0023743Y0092293D01*
X0022774Y0091324D01*
X0021937Y0089303D01*
X0021937Y0087115D01*
X0022774Y0085093D01*
X0024322Y0083546D01*
X0026343Y0082709D01*
X0028531Y0082709D01*
X0030552Y0083546D01*
X0032100Y0085093D01*
X0032437Y0085908D01*
X0032774Y0085093D01*
X0034322Y0083546D01*
X0036343Y0082709D01*
X0038531Y0082709D01*
X0040552Y0083546D01*
X0042100Y0085093D01*
X0042437Y0085908D01*
X0042774Y0085093D01*
X0044322Y0083546D01*
X0046343Y0082709D01*
X0048531Y0082709D01*
X0048992Y0082900D01*
X0050713Y0081179D01*
X0046701Y0081179D01*
X0046701Y0075079D01*
X0046701Y0075079D01*
X0057101Y0075079D01*
X0057101Y0075559D01*
X0056951Y0076507D01*
X0056950Y0076508D01*
X0095521Y0076508D01*
X0096512Y0075517D01*
X0097842Y0074966D01*
X0085784Y0062908D01*
X0085235Y0062908D01*
X0084244Y0063899D01*
X0082774Y0064508D01*
X0081182Y0064508D01*
X0079712Y0063899D01*
X0078587Y0062774D01*
X0077978Y0061304D01*
X0077978Y0059712D01*
X0078281Y0058981D01*
X0064812Y0058981D01*
X0064812Y0061734D01*
X0063853Y0064050D01*
X0062080Y0065822D01*
X0059765Y0066781D01*
X0057259Y0066781D01*
X0054943Y0065822D01*
X0053171Y0064050D01*
X0052212Y0061734D01*
X0052212Y0050628D01*
X0053171Y0048312D01*
X0054943Y0046540D01*
X0057259Y0045581D01*
X0059765Y0045581D01*
X0062080Y0046540D01*
X0063853Y0048312D01*
X0064812Y0050628D01*
X0064812Y0053381D01*
X0152677Y0053381D01*
X0162864Y0031414D01*
X0162774Y0031324D01*
X0162336Y0030267D01*
X0161970Y0030986D01*
X0161480Y0031661D01*
X0160890Y0032251D01*
X0160215Y0032742D01*
X0159471Y0033120D01*
X0158678Y0033378D01*
X0157854Y0033509D01*
X0157637Y0033509D01*
X0157637Y0028409D01*
X0157237Y0028409D01*
X0157237Y0033509D01*
X0157020Y0033509D01*
X0156196Y0033378D01*
X0155403Y0033120D01*
X0154659Y0032742D01*
X0153984Y0032251D01*
X0153806Y0032073D01*
X0151213Y0034667D01*
X0150537Y0035342D01*
X0149655Y0035708D01*
X0042301Y0035708D01*
X0041418Y0035342D01*
X0039417Y0033341D01*
X0038531Y0033709D01*
X0036343Y0033709D01*
X0034322Y0032871D01*
X0032774Y0031324D01*
X0032437Y0030510D01*
X0032100Y0031324D01*
X0030552Y0032871D01*
X0028531Y0033709D01*
X0026343Y0033709D01*
X0024322Y0032871D01*
X0022774Y0031324D01*
X0021937Y0029303D01*
X0021937Y0027115D01*
X0022774Y0025093D01*
X0023970Y0023898D01*
X0022912Y0022840D01*
X0022075Y0020818D01*
X0022075Y0018630D01*
X0022912Y0016609D01*
X0024459Y0015062D01*
X0026481Y0014224D01*
X0028669Y0014224D01*
X0030690Y0015062D01*
X0032237Y0016609D01*
X0032575Y0017423D01*
X0032912Y0016609D01*
X0034459Y0015062D01*
X0036481Y0014224D01*
X0038669Y0014224D01*
X0040690Y0015062D01*
X0042237Y0016609D01*
X0042575Y0017423D01*
X0042912Y0016609D01*
X0044459Y0015062D01*
X0046481Y0014224D01*
X0048669Y0014224D01*
X0050690Y0015062D01*
X0052237Y0016609D01*
X0052575Y0017423D01*
X0052912Y0016609D01*
X0054459Y0015062D01*
X0056481Y0014224D01*
X0058669Y0014224D01*
X0060690Y0015062D01*
X0062237Y0016609D01*
X0062575Y0017423D01*
X0062912Y0016609D01*
X0064459Y0015062D01*
X0066481Y0014224D01*
X0068669Y0014224D01*
X0070690Y0015062D01*
X0072237Y0016609D01*
X0072575Y0017423D01*
X0072912Y0016609D01*
X0074459Y0015062D01*
X0076481Y0014224D01*
X0078669Y0014224D01*
X0080690Y0015062D01*
X0082237Y0016609D01*
X0082575Y0017423D01*
X0082912Y0016609D01*
X0084459Y0015062D01*
X0086481Y0014224D01*
X0088669Y0014224D01*
X0090690Y0015062D01*
X0092237Y0016609D01*
X0092575Y0017423D01*
X0092912Y0016609D01*
X0094459Y0015062D01*
X0096481Y0014224D01*
X0098669Y0014224D01*
X0100690Y0015062D01*
X0101146Y0015518D01*
X0102357Y0013756D01*
X0102443Y0013548D01*
X0102625Y0013367D01*
X0102771Y0013155D01*
X0102959Y0013032D01*
X0103118Y0012873D01*
X0103356Y0012775D01*
X0103384Y0012757D01*
X0103123Y0012398D01*
X0102796Y0011756D01*
X0102573Y0011071D01*
X0102461Y0010360D01*
X0102461Y0010000D01*
X0102461Y0009640D01*
X0102573Y0008929D01*
X0102796Y0008244D01*
X0103123Y0007602D01*
X0103546Y0007020D01*
X0104055Y0006511D01*
X0104059Y0006508D01*
X0017770Y0006508D01*
X0018359Y0006752D01*
X0020693Y0009086D01*
X0021957Y0012137D01*
X0021957Y0015438D01*
X0020693Y0018489D01*
X0018359Y0020823D01*
X0015308Y0022087D01*
X0012007Y0022087D01*
X0008956Y0020823D01*
X0007378Y0019245D01*
X0007378Y0277469D01*
X0341878Y0277469D01*
X0341878Y0271264D01*
X0339788Y0273355D01*
X0336737Y0274618D01*
X0333436Y0274618D01*
X0330385Y0273355D01*
X0328051Y0271020D01*
X0326787Y0267970D01*
X0326787Y0264668D01*
X0328051Y0261618D01*
X0330385Y0259283D01*
X0333436Y0258020D01*
X0336737Y0258020D01*
X0339788Y0259283D01*
X0341878Y0261373D01*
X0341878Y0023233D01*
X0339788Y0025323D01*
X0336737Y0026587D01*
X0333436Y0026587D01*
X0330385Y0025323D01*
X0328051Y0022989D01*
X0326787Y0019938D01*
X0326787Y0016637D01*
X0328051Y0013586D01*
X0330385Y0011252D01*
X0333436Y0009988D01*
X0336737Y0009988D01*
X0339788Y0011252D01*
X0341878Y0013342D01*
X0341878Y0006508D01*
X0324778Y0006508D01*
X0324778Y0051485D01*
X0324413Y0052367D01*
X0323737Y0053042D01*
X0319237Y0057542D01*
X0318355Y0057908D01*
X0302372Y0057908D01*
X0287392Y0072888D01*
X0287975Y0072646D01*
X0289875Y0072646D01*
X0291630Y0073373D01*
X0292973Y0074717D01*
X0293700Y0076471D01*
X0293700Y0078371D01*
X0292973Y0080126D01*
X0291630Y0081469D01*
X0289875Y0082196D01*
X0287975Y0082196D01*
X0286220Y0081469D01*
X0284877Y0080126D01*
X0284150Y0078371D01*
X0284150Y0076471D01*
X0284392Y0075888D01*
X0283700Y0076580D01*
X0283700Y0078371D01*
X0282973Y0080126D01*
X0281630Y0081469D01*
X0279875Y0082196D01*
X0277975Y0082196D01*
X0276220Y0081469D01*
X0274877Y0080126D01*
X0274150Y0078371D01*
X0274150Y0076471D01*
X0274877Y0074717D01*
X0276220Y0073373D01*
X0277975Y0072646D01*
X0279875Y0072646D01*
X0280561Y0072931D01*
X0299343Y0054148D01*
X0300018Y0053473D01*
X0300901Y0053108D01*
X0306910Y0053108D01*
X0306733Y0052760D01*
X0306510Y0052075D01*
X0306398Y0051364D01*
X0306398Y0051004D01*
X0310972Y0051004D01*
X0310972Y0051004D01*
X0306398Y0051004D01*
X0306398Y0050644D01*
X0306510Y0049933D01*
X0306733Y0049248D01*
X0307060Y0048606D01*
X0307483Y0048024D01*
X0307992Y0047514D01*
X0308575Y0047091D01*
X0309216Y0046764D01*
X0309901Y0046542D01*
X0310612Y0046429D01*
X0310972Y0046429D01*
X0310972Y0051004D01*
X0310972Y0051004D01*
X0319339Y0051004D01*
X0319339Y0008445D01*
X0199378Y0008445D01*
X0176354Y0008445D01*
X0157575Y0019724D01*
X0157575Y0028209D01*
X0157437Y0028209D01*
X0157378Y0028209D01*
X0157378Y0036008D01*
X0046378Y0036008D01*
X0046378Y0056181D01*
X0034890Y0056181D01*
X0034890Y0056181D01*
X0040990Y0056181D01*
X0040990Y0051401D01*
X0040840Y0050453D01*
X0040543Y0049540D01*
X0040107Y0048684D01*
X0039543Y0047907D01*
X0038864Y0047228D01*
X0038087Y0046664D01*
X0037231Y0046228D01*
X0036318Y0045931D01*
X0035370Y0045781D01*
X0034890Y0045781D01*
X0034890Y0056181D01*
X0040990Y0056181D01*
X0040990Y0060961D01*
X0040840Y0061910D01*
X0040543Y0062823D01*
X0040107Y0063678D01*
X0039543Y0064455D01*
X0038864Y0065134D01*
X0038087Y0065698D01*
X0037231Y0066134D01*
X0036318Y0066431D01*
X0035370Y0066581D01*
X0034890Y0066581D01*
X0034890Y0056181D01*
X0034890Y0056181D01*
X0034890Y0063268D01*
X0046701Y0075079D01*
X0046701Y0075079D01*
X0046701Y0081179D01*
X0041921Y0081179D01*
X0040972Y0081029D01*
X0040059Y0080732D01*
X0039204Y0080296D01*
X0038427Y0079732D01*
X0037748Y0079053D01*
X0037184Y0078276D01*
X0036748Y0077420D01*
X0036451Y0076507D01*
X0036301Y0075559D01*
X0036301Y0075079D01*
X0046701Y0075079D01*
X0057101Y0075079D01*
X0057101Y0074599D01*
X0056951Y0073650D01*
X0056654Y0072737D01*
X0056218Y0071882D01*
X0055654Y0071105D01*
X0054975Y0070426D01*
X0054198Y0069862D01*
X0053342Y0069426D01*
X0052429Y0069129D01*
X0051481Y0068979D01*
X0046701Y0068979D01*
X0046701Y0075079D01*
X0046701Y0075079D01*
X0046701Y0075079D01*
X0036301Y0075079D01*
X0036301Y0074599D01*
X0036451Y0073650D01*
X0036748Y0072737D01*
X0037184Y0071882D01*
X0037748Y0071105D01*
X0038427Y0070426D01*
X0039204Y0069862D01*
X0040059Y0069426D01*
X0040972Y0069129D01*
X0041921Y0068979D01*
X0046701Y0068979D01*
X0046701Y0075079D01*
X0046701Y0074842D02*
X0046701Y0074842D01*
X0046701Y0073244D02*
X0046701Y0073244D01*
X0046701Y0071645D02*
X0046701Y0071645D01*
X0046701Y0070047D02*
X0046701Y0070047D01*
X0054453Y0070047D02*
X0092923Y0070047D01*
X0094521Y0071645D02*
X0056046Y0071645D01*
X0056819Y0073244D02*
X0096120Y0073244D01*
X0097718Y0074842D02*
X0057101Y0074842D01*
X0056961Y0076441D02*
X0095588Y0076441D01*
X0101310Y0071645D02*
X0143446Y0071645D01*
X0141848Y0073244D02*
X0102908Y0073244D01*
X0104507Y0074842D02*
X0140249Y0074842D01*
X0138651Y0076441D02*
X0106105Y0076441D01*
X0107704Y0078039D02*
X0137052Y0078039D01*
X0135454Y0079638D02*
X0109302Y0079638D01*
X0110901Y0081236D02*
X0133855Y0081236D01*
X0132257Y0082835D02*
X0128836Y0082835D01*
X0128531Y0082709D02*
X0130552Y0083546D01*
X0131049Y0084043D01*
X0171943Y0043148D01*
X0172618Y0042473D01*
X0173086Y0042280D01*
X0172697Y0041340D01*
X0172697Y0039676D01*
X0173333Y0038139D01*
X0174378Y0037095D01*
X0174378Y0035511D01*
X0174759Y0034592D01*
X0183078Y0026272D01*
X0183078Y0023313D01*
X0186183Y0020208D01*
X0190573Y0020208D01*
X0193519Y0023154D01*
X0196265Y0020408D01*
X0198378Y0020408D01*
X0200490Y0020408D01*
X0203478Y0023395D01*
X0203478Y0025508D01*
X0203478Y0027620D01*
X0200490Y0030608D01*
X0198652Y0030608D01*
X0198778Y0030912D01*
X0198778Y0032504D01*
X0198169Y0033974D01*
X0197044Y0035099D01*
X0195574Y0035708D01*
X0194172Y0035708D01*
X0183337Y0046542D01*
X0182455Y0046908D01*
X0174972Y0046908D01*
X0138801Y0083079D01*
X0139471Y0083297D01*
X0140215Y0083676D01*
X0140890Y0084166D01*
X0141480Y0084756D01*
X0141970Y0085431D01*
X0142336Y0086150D01*
X0142774Y0085093D01*
X0144322Y0083546D01*
X0146343Y0082709D01*
X0148531Y0082709D01*
X0150552Y0083546D01*
X0152100Y0085093D01*
X0152437Y0085908D01*
X0152774Y0085093D01*
X0154322Y0083546D01*
X0156343Y0082709D01*
X0158531Y0082709D01*
X0160552Y0083546D01*
X0162100Y0085093D01*
X0162437Y0085908D01*
X0162774Y0085093D01*
X0164322Y0083546D01*
X0166343Y0082709D01*
X0168531Y0082709D01*
X0170552Y0083546D01*
X0172100Y0085093D01*
X0172937Y0087115D01*
X0172937Y0089303D01*
X0172100Y0091324D01*
X0170875Y0092549D01*
X0171844Y0093518D01*
X0172681Y0095540D01*
X0172681Y0097728D01*
X0171844Y0099749D01*
X0171175Y0100419D02*
X0298244Y0100419D01*
X0298244Y0100813D02*
X0298244Y0097801D01*
X0298367Y0097343D01*
X0298604Y0096933D01*
X0298939Y0096598D01*
X0299349Y0096361D01*
X0299807Y0096238D01*
X0302819Y0096238D01*
X0305831Y0096238D01*
X0306288Y0096361D01*
X0306699Y0096598D01*
X0307034Y0096933D01*
X0307271Y0097343D01*
X0307394Y0097801D01*
X0307394Y0100813D01*
X0307394Y0103825D01*
X0307271Y0104283D01*
X0307034Y0104693D01*
X0306699Y0105028D01*
X0306288Y0105265D01*
X0305831Y0105388D01*
X0302819Y0105388D01*
X0302819Y0100813D01*
X0307394Y0100813D01*
X0302819Y0100813D01*
X0302819Y0100813D01*
X0302819Y0100813D01*
X0302819Y0096238D01*
X0302819Y0100813D01*
X0302819Y0100813D01*
X0302819Y0105388D01*
X0299807Y0105388D01*
X0299349Y0105265D01*
X0298939Y0105028D01*
X0298604Y0104693D01*
X0298367Y0104283D01*
X0298244Y0103825D01*
X0298244Y0100813D01*
X0302819Y0100813D01*
X0302819Y0100813D01*
X0298244Y0100813D01*
X0298244Y0102017D02*
X0168557Y0102017D01*
X0165805Y0102017D02*
X0158557Y0102017D01*
X0155805Y0102017D02*
X0148557Y0102017D01*
X0145805Y0102017D02*
X0128557Y0102017D01*
X0125805Y0102017D02*
X0118557Y0102017D01*
X0115805Y0102017D02*
X0114778Y0102017D01*
X0114778Y0103616D02*
X0298244Y0103616D01*
X0299261Y0105214D02*
X0273941Y0105214D01*
X0275281Y0106813D02*
X0329879Y0106813D01*
X0328842Y0105214D02*
X0324671Y0105214D01*
X0326769Y0103616D02*
X0328044Y0103616D01*
X0328044Y0102017D02*
X0327488Y0102017D01*
X0327594Y0100419D02*
X0328044Y0100419D01*
X0328044Y0098820D02*
X0327162Y0098820D01*
X0331057Y0095623D02*
X0341878Y0095623D01*
X0341878Y0094025D02*
X0336360Y0094025D01*
X0337319Y0092426D02*
X0341878Y0092426D01*
X0341878Y0090827D02*
X0337594Y0090827D01*
X0337331Y0089229D02*
X0341878Y0089229D01*
X0341878Y0087630D02*
X0336389Y0087630D01*
X0341878Y0086032D02*
X0172489Y0086032D01*
X0172937Y0087630D02*
X0299249Y0087630D01*
X0299875Y0082196D02*
X0297975Y0082196D01*
X0296220Y0081469D01*
X0294877Y0080126D01*
X0294150Y0078371D01*
X0294150Y0076471D01*
X0294877Y0074717D01*
X0296220Y0073373D01*
X0297975Y0072646D01*
X0299875Y0072646D01*
X0301630Y0073373D01*
X0302973Y0074717D01*
X0303700Y0076471D01*
X0303700Y0078371D01*
X0302973Y0080126D01*
X0301630Y0081469D01*
X0299875Y0082196D01*
X0301863Y0081236D02*
X0341878Y0081236D01*
X0341878Y0079638D02*
X0303175Y0079638D01*
X0303700Y0078039D02*
X0341878Y0078039D01*
X0341878Y0076441D02*
X0303687Y0076441D01*
X0303025Y0074842D02*
X0341878Y0074842D01*
X0341878Y0073244D02*
X0301317Y0073244D01*
X0296533Y0073244D02*
X0291317Y0073244D01*
X0293025Y0074842D02*
X0294825Y0074842D01*
X0294163Y0076441D02*
X0293687Y0076441D01*
X0293700Y0078039D02*
X0294150Y0078039D01*
X0294675Y0079638D02*
X0293175Y0079638D01*
X0291863Y0081236D02*
X0295988Y0081236D01*
X0285988Y0081236D02*
X0281863Y0081236D01*
X0283175Y0079638D02*
X0284675Y0079638D01*
X0284150Y0078039D02*
X0283700Y0078039D01*
X0283839Y0076441D02*
X0284163Y0076441D01*
X0281846Y0071645D02*
X0150235Y0071645D01*
X0151833Y0070047D02*
X0283445Y0070047D01*
X0285043Y0068448D02*
X0153432Y0068448D01*
X0155030Y0066850D02*
X0286642Y0066850D01*
X0288240Y0065251D02*
X0156629Y0065251D01*
X0158227Y0063653D02*
X0186028Y0063653D01*
X0186183Y0063808D02*
X0183078Y0060703D01*
X0183078Y0056313D01*
X0186183Y0053208D01*
X0190573Y0053208D01*
X0193519Y0056154D01*
X0196265Y0053408D01*
X0198378Y0053408D01*
X0200490Y0053408D01*
X0203478Y0056395D01*
X0203478Y0058508D01*
X0203478Y0060620D01*
X0200490Y0063608D01*
X0198378Y0063608D01*
X0198378Y0058508D01*
X0198378Y0058508D01*
X0203478Y0058508D01*
X0198378Y0058508D01*
X0198378Y0058508D01*
X0198378Y0063608D01*
X0196265Y0063608D01*
X0193519Y0060862D01*
X0190573Y0063808D01*
X0186183Y0063808D01*
X0184429Y0062054D02*
X0159826Y0062054D01*
X0161424Y0060456D02*
X0183078Y0060456D01*
X0183078Y0058857D02*
X0163023Y0058857D01*
X0164621Y0057259D02*
X0183078Y0057259D01*
X0183730Y0055660D02*
X0166220Y0055660D01*
X0167818Y0054062D02*
X0185329Y0054062D01*
X0191427Y0054062D02*
X0195612Y0054062D01*
X0194013Y0055660D02*
X0193026Y0055660D01*
X0198378Y0055660D02*
X0198378Y0055660D01*
X0198378Y0054062D02*
X0198378Y0054062D01*
X0198378Y0053408D02*
X0198378Y0058508D01*
X0198378Y0058508D01*
X0198378Y0053408D01*
X0201144Y0054062D02*
X0299430Y0054062D01*
X0297831Y0055660D02*
X0202743Y0055660D01*
X0203478Y0057259D02*
X0296233Y0057259D01*
X0294634Y0058857D02*
X0203478Y0058857D01*
X0203478Y0060456D02*
X0293036Y0060456D01*
X0291437Y0062054D02*
X0202044Y0062054D01*
X0198378Y0062054D02*
X0198378Y0062054D01*
X0198378Y0060456D02*
X0198378Y0060456D01*
X0198378Y0058857D02*
X0198378Y0058857D01*
X0198378Y0057259D02*
X0198378Y0057259D01*
X0194712Y0062054D02*
X0192327Y0062054D01*
X0190728Y0063653D02*
X0289839Y0063653D01*
X0293430Y0066850D02*
X0341878Y0066850D01*
X0341878Y0068448D02*
X0291832Y0068448D01*
X0290233Y0070047D02*
X0341878Y0070047D01*
X0341878Y0071645D02*
X0288635Y0071645D01*
X0295029Y0065251D02*
X0341878Y0065251D01*
X0341878Y0063653D02*
X0296627Y0063653D01*
X0298226Y0062054D02*
X0341878Y0062054D01*
X0341878Y0060456D02*
X0299824Y0060456D01*
X0301423Y0058857D02*
X0341878Y0058857D01*
X0341878Y0057259D02*
X0319521Y0057259D01*
X0321120Y0055660D02*
X0341878Y0055660D01*
X0341878Y0054062D02*
X0322718Y0054062D01*
X0324317Y0052463D02*
X0341878Y0052463D01*
X0341878Y0050865D02*
X0324778Y0050865D01*
X0324778Y0049266D02*
X0341878Y0049266D01*
X0341878Y0047668D02*
X0324778Y0047668D01*
X0324778Y0046069D02*
X0341878Y0046069D01*
X0341878Y0044471D02*
X0324778Y0044471D01*
X0324778Y0042872D02*
X0341878Y0042872D01*
X0341878Y0041274D02*
X0324778Y0041274D01*
X0324778Y0039675D02*
X0341878Y0039675D01*
X0341878Y0038077D02*
X0324778Y0038077D01*
X0324778Y0036478D02*
X0341878Y0036478D01*
X0341878Y0034880D02*
X0324778Y0034880D01*
X0324778Y0033281D02*
X0341878Y0033281D01*
X0341878Y0031683D02*
X0324778Y0031683D01*
X0324778Y0030084D02*
X0341878Y0030084D01*
X0341878Y0028486D02*
X0324778Y0028486D01*
X0324778Y0026887D02*
X0341878Y0026887D01*
X0341878Y0025289D02*
X0339822Y0025289D01*
X0341421Y0023690D02*
X0341878Y0023690D01*
X0330351Y0025289D02*
X0324778Y0025289D01*
X0324778Y0023690D02*
X0328752Y0023690D01*
X0327679Y0022091D02*
X0324778Y0022091D01*
X0324778Y0020493D02*
X0327017Y0020493D01*
X0326787Y0018894D02*
X0324778Y0018894D01*
X0324778Y0017296D02*
X0326787Y0017296D01*
X0327176Y0015697D02*
X0324778Y0015697D01*
X0324778Y0014099D02*
X0327839Y0014099D01*
X0329137Y0012500D02*
X0324778Y0012500D01*
X0324778Y0010902D02*
X0331230Y0010902D01*
X0324778Y0009303D02*
X0341878Y0009303D01*
X0341878Y0007705D02*
X0324778Y0007705D01*
X0319978Y0008408D02*
X0166403Y0008408D01*
X0166778Y0009312D01*
X0166778Y0010904D01*
X0166169Y0012374D01*
X0165044Y0013499D01*
X0163574Y0014108D01*
X0161982Y0014108D01*
X0161535Y0013923D01*
X0159996Y0015010D01*
X0160353Y0015191D01*
X0161028Y0015682D01*
X0161617Y0016272D01*
X0162108Y0016947D01*
X0162474Y0017666D01*
X0162912Y0016609D01*
X0164459Y0015062D01*
X0166481Y0014224D01*
X0168669Y0014224D01*
X0170690Y0015062D01*
X0172237Y0016609D01*
X0173075Y0018630D01*
X0173075Y0020818D01*
X0172237Y0022840D01*
X0171042Y0024035D01*
X0172100Y0025093D01*
X0172937Y0027115D01*
X0172937Y0029303D01*
X0172100Y0031324D01*
X0170552Y0032871D01*
X0168531Y0033709D01*
X0167973Y0033709D01*
X0157029Y0057306D01*
X0156838Y0057767D01*
X0156796Y0057810D01*
X0156770Y0057864D01*
X0156403Y0058202D01*
X0156051Y0058555D01*
X0155995Y0058578D01*
X0155951Y0058619D01*
X0155482Y0058790D01*
X0155022Y0058981D01*
X0154961Y0058981D01*
X0154905Y0059002D01*
X0154406Y0058981D01*
X0088645Y0058981D01*
X0113737Y0084073D01*
X0113766Y0084102D01*
X0114322Y0083546D01*
X0116343Y0082709D01*
X0118531Y0082709D01*
X0120552Y0083546D01*
X0122100Y0085093D01*
X0122437Y0085908D01*
X0122774Y0085093D01*
X0124322Y0083546D01*
X0126343Y0082709D01*
X0128531Y0082709D01*
X0126038Y0082835D02*
X0118836Y0082835D01*
X0116038Y0082835D02*
X0112499Y0082835D01*
X0117437Y0088209D02*
X0117437Y0096634D01*
X0117181Y0096634D01*
X0121175Y0100419D02*
X0123188Y0100419D01*
X0127181Y0096634D02*
X0127437Y0096634D01*
X0127437Y0088209D01*
X0123434Y0084433D02*
X0121440Y0084433D01*
X0107437Y0088209D02*
X0107437Y0096634D01*
X0107181Y0096634D01*
X0097437Y0096634D02*
X0097437Y0088209D01*
X0087437Y0088209D02*
X0087437Y0096634D01*
X0087181Y0096634D01*
X0077437Y0096634D02*
X0077437Y0088209D01*
X0077437Y0096634D02*
X0077181Y0096634D01*
X0067437Y0096634D02*
X0067437Y0088209D01*
X0067437Y0096634D02*
X0067181Y0096634D01*
X0063188Y0100419D02*
X0061175Y0100419D01*
X0058557Y0102017D02*
X0065178Y0102017D01*
X0065178Y0103616D02*
X0050264Y0103616D01*
X0051863Y0102017D02*
X0055805Y0102017D01*
X0065178Y0105214D02*
X0007378Y0105214D01*
X0007378Y0103616D02*
X0040892Y0103616D01*
X0039293Y0102017D02*
X0038557Y0102017D01*
X0035805Y0102017D02*
X0028557Y0102017D01*
X0025805Y0102017D02*
X0007378Y0102017D01*
X0007378Y0100419D02*
X0023188Y0100419D01*
X0022134Y0098820D02*
X0007378Y0098820D01*
X0007378Y0097222D02*
X0021681Y0097222D01*
X0021681Y0095623D02*
X0007378Y0095623D01*
X0007378Y0094025D02*
X0022309Y0094025D01*
X0023611Y0092426D02*
X0007378Y0092426D01*
X0007378Y0090827D02*
X0022569Y0090827D01*
X0021937Y0089229D02*
X0007378Y0089229D01*
X0007378Y0087630D02*
X0021937Y0087630D01*
X0022385Y0086032D02*
X0007378Y0086032D01*
X0007378Y0084433D02*
X0023434Y0084433D01*
X0026038Y0082835D02*
X0007378Y0082835D01*
X0007378Y0081236D02*
X0050655Y0081236D01*
X0049057Y0082835D02*
X0048836Y0082835D01*
X0046038Y0082835D02*
X0038836Y0082835D01*
X0036038Y0082835D02*
X0028836Y0082835D01*
X0031440Y0084433D02*
X0033434Y0084433D01*
X0038333Y0079638D02*
X0007378Y0079638D01*
X0007378Y0078039D02*
X0037063Y0078039D01*
X0036440Y0076441D02*
X0007378Y0076441D01*
X0007378Y0074842D02*
X0036301Y0074842D01*
X0036583Y0073244D02*
X0007378Y0073244D01*
X0007378Y0071645D02*
X0037355Y0071645D01*
X0038949Y0070047D02*
X0007378Y0070047D01*
X0007378Y0068448D02*
X0091324Y0068448D01*
X0089726Y0066850D02*
X0007378Y0066850D01*
X0007378Y0065251D02*
X0031077Y0065251D01*
X0030916Y0065134D02*
X0030237Y0064455D01*
X0029673Y0063678D01*
X0029237Y0062823D01*
X0028940Y0061910D01*
X0028790Y0060961D01*
X0028790Y0056181D01*
X0028790Y0051401D01*
X0028940Y0050453D01*
X0029237Y0049540D01*
X0029673Y0048684D01*
X0030237Y0047907D01*
X0030916Y0047228D01*
X0031693Y0046664D01*
X0032548Y0046228D01*
X0033461Y0045931D01*
X0034410Y0045781D01*
X0034890Y0045781D01*
X0034890Y0056181D01*
X0034890Y0056181D01*
X0028790Y0056181D01*
X0034890Y0056181D01*
X0034890Y0056181D01*
X0034890Y0066581D01*
X0034410Y0066581D01*
X0033461Y0066431D01*
X0032548Y0066134D01*
X0031693Y0065698D01*
X0030916Y0065134D01*
X0029660Y0063653D02*
X0007378Y0063653D01*
X0007378Y0062054D02*
X0028987Y0062054D01*
X0028790Y0060456D02*
X0007378Y0060456D01*
X0007378Y0058857D02*
X0028790Y0058857D01*
X0028790Y0057259D02*
X0007378Y0057259D01*
X0007378Y0055660D02*
X0028790Y0055660D01*
X0028790Y0054062D02*
X0007378Y0054062D01*
X0007378Y0052463D02*
X0028790Y0052463D01*
X0028875Y0050865D02*
X0007378Y0050865D01*
X0007378Y0049266D02*
X0029376Y0049266D01*
X0030476Y0047668D02*
X0007378Y0047668D01*
X0007378Y0046069D02*
X0033037Y0046069D01*
X0034890Y0046069D02*
X0034890Y0046069D01*
X0034890Y0047668D02*
X0034890Y0047668D01*
X0034890Y0049266D02*
X0034890Y0049266D01*
X0034890Y0050865D02*
X0034890Y0050865D01*
X0034890Y0052463D02*
X0034890Y0052463D01*
X0034890Y0054062D02*
X0034890Y0054062D01*
X0034890Y0055660D02*
X0034890Y0055660D01*
X0034890Y0057259D02*
X0034890Y0057259D01*
X0034890Y0058857D02*
X0034890Y0058857D01*
X0034890Y0060456D02*
X0034890Y0060456D01*
X0034890Y0062054D02*
X0034890Y0062054D01*
X0034890Y0063653D02*
X0034890Y0063653D01*
X0034890Y0065251D02*
X0034890Y0065251D01*
X0038702Y0065251D02*
X0054372Y0065251D01*
X0053007Y0063653D02*
X0040120Y0063653D01*
X0040793Y0062054D02*
X0052344Y0062054D01*
X0052212Y0060456D02*
X0040990Y0060456D01*
X0040990Y0058857D02*
X0052212Y0058857D01*
X0052212Y0057259D02*
X0040990Y0057259D01*
X0040990Y0055660D02*
X0052212Y0055660D01*
X0052212Y0054062D02*
X0040990Y0054062D01*
X0040990Y0052463D02*
X0052212Y0052463D01*
X0052212Y0050865D02*
X0040905Y0050865D01*
X0040404Y0049266D02*
X0052776Y0049266D01*
X0053816Y0047668D02*
X0039303Y0047668D01*
X0036742Y0046069D02*
X0056080Y0046069D01*
X0060943Y0046069D02*
X0156068Y0046069D01*
X0156809Y0044471D02*
X0007378Y0044471D01*
X0007378Y0042872D02*
X0157550Y0042872D01*
X0158292Y0041274D02*
X0007378Y0041274D01*
X0007378Y0039675D02*
X0159033Y0039675D01*
X0159774Y0038077D02*
X0007378Y0038077D01*
X0007378Y0036478D02*
X0160516Y0036478D01*
X0161257Y0034880D02*
X0151000Y0034880D01*
X0152599Y0033281D02*
X0155897Y0033281D01*
X0157237Y0033281D02*
X0157637Y0033281D01*
X0158977Y0033281D02*
X0161998Y0033281D01*
X0161458Y0031683D02*
X0162740Y0031683D01*
X0157637Y0031683D02*
X0157237Y0031683D01*
X0157237Y0030084D02*
X0157637Y0030084D01*
X0157637Y0028486D02*
X0157237Y0028486D01*
X0157237Y0028009D02*
X0157637Y0028009D01*
X0157637Y0022909D01*
X0157775Y0022909D01*
X0157775Y0019924D01*
X0162075Y0019924D01*
X0162075Y0019524D01*
X0157775Y0019524D01*
X0157775Y0016577D01*
X0157375Y0016860D01*
X0157375Y0019524D01*
X0157775Y0019524D01*
X0157775Y0019924D01*
X0157375Y0019924D01*
X0154978Y0019924D01*
X0154978Y0019524D01*
X0157375Y0019524D01*
X0157375Y0019924D01*
X0157375Y0025024D01*
X0157237Y0025024D01*
X0157237Y0028009D01*
X0157237Y0026887D02*
X0157637Y0026887D01*
X0157637Y0025289D02*
X0157237Y0025289D01*
X0157375Y0023690D02*
X0157637Y0023690D01*
X0157775Y0022091D02*
X0157375Y0022091D01*
X0157375Y0020493D02*
X0157775Y0020493D01*
X0157775Y0018894D02*
X0157375Y0018894D01*
X0157375Y0017296D02*
X0157775Y0017296D01*
X0161043Y0015697D02*
X0163824Y0015697D01*
X0163595Y0014099D02*
X0319978Y0014099D01*
X0319978Y0015697D02*
X0171326Y0015697D01*
X0172522Y0017296D02*
X0307928Y0017296D01*
X0308995Y0016229D02*
X0312950Y0016229D01*
X0315747Y0019026D01*
X0315747Y0022982D01*
X0312950Y0025779D01*
X0308995Y0025779D01*
X0306198Y0022982D01*
X0306198Y0019026D01*
X0308995Y0016229D01*
X0306329Y0018894D02*
X0173075Y0018894D01*
X0173075Y0020493D02*
X0185898Y0020493D01*
X0184299Y0022091D02*
X0172547Y0022091D01*
X0171387Y0023690D02*
X0183078Y0023690D01*
X0183078Y0025289D02*
X0172181Y0025289D01*
X0172843Y0026887D02*
X0182463Y0026887D01*
X0180865Y0028486D02*
X0172937Y0028486D01*
X0172613Y0030084D02*
X0179266Y0030084D01*
X0177668Y0031683D02*
X0171741Y0031683D01*
X0169563Y0033281D02*
X0176069Y0033281D01*
X0174639Y0034880D02*
X0167430Y0034880D01*
X0166688Y0036478D02*
X0174378Y0036478D01*
X0173396Y0038077D02*
X0165947Y0038077D01*
X0165206Y0039675D02*
X0172697Y0039675D01*
X0172697Y0041274D02*
X0164464Y0041274D01*
X0163723Y0042872D02*
X0172220Y0042872D01*
X0170621Y0044471D02*
X0162982Y0044471D01*
X0162240Y0046069D02*
X0169023Y0046069D01*
X0167424Y0047668D02*
X0161499Y0047668D01*
X0160758Y0049266D02*
X0165826Y0049266D01*
X0164227Y0050865D02*
X0160017Y0050865D01*
X0159275Y0052463D02*
X0162628Y0052463D01*
X0161030Y0054062D02*
X0158534Y0054062D01*
X0157793Y0055660D02*
X0159431Y0055660D01*
X0157833Y0057259D02*
X0157051Y0057259D01*
X0156234Y0058857D02*
X0155320Y0058857D01*
X0154636Y0060456D02*
X0090120Y0060456D01*
X0091718Y0062054D02*
X0153037Y0062054D01*
X0151439Y0063653D02*
X0093317Y0063653D01*
X0094915Y0065251D02*
X0149840Y0065251D01*
X0148242Y0066850D02*
X0096514Y0066850D01*
X0098112Y0068448D02*
X0146643Y0068448D01*
X0145045Y0070047D02*
X0099711Y0070047D01*
X0088127Y0065251D02*
X0062651Y0065251D01*
X0064017Y0063653D02*
X0079466Y0063653D01*
X0078289Y0062054D02*
X0064679Y0062054D01*
X0064812Y0060456D02*
X0077978Y0060456D01*
X0084490Y0063653D02*
X0086529Y0063653D01*
X0064812Y0052463D02*
X0153102Y0052463D01*
X0153844Y0050865D02*
X0064812Y0050865D01*
X0064248Y0049266D02*
X0154585Y0049266D01*
X0155326Y0047668D02*
X0063208Y0047668D01*
X0058512Y0056181D02*
X0154465Y0056181D01*
X0167437Y0028209D01*
X0167575Y0028209D01*
X0167575Y0019724D01*
X0162628Y0017296D02*
X0162286Y0017296D01*
X0161961Y0014099D02*
X0161286Y0014099D01*
X0166042Y0012500D02*
X0319978Y0012500D01*
X0319978Y0010902D02*
X0166778Y0010902D01*
X0166774Y0009303D02*
X0319978Y0009303D01*
X0319978Y0008408D02*
X0319978Y0050014D01*
X0316884Y0053108D01*
X0315035Y0053108D01*
X0315212Y0052760D01*
X0315435Y0052075D01*
X0315547Y0051364D01*
X0315547Y0051004D01*
X0310973Y0051004D01*
X0310973Y0051004D01*
X0315547Y0051004D01*
X0315547Y0050644D01*
X0315435Y0049933D01*
X0315212Y0049248D01*
X0314885Y0048606D01*
X0314462Y0048024D01*
X0313953Y0047514D01*
X0313370Y0047091D01*
X0312729Y0046764D01*
X0312044Y0046542D01*
X0311332Y0046429D01*
X0310972Y0046429D01*
X0310972Y0051004D01*
X0310972Y0050865D02*
X0310972Y0050865D01*
X0310972Y0049266D02*
X0310972Y0049266D01*
X0310972Y0047668D02*
X0310972Y0047668D01*
X0310023Y0045779D02*
X0308268Y0045052D01*
X0306925Y0043709D01*
X0306198Y0041954D01*
X0306198Y0040054D01*
X0306925Y0038299D01*
X0308268Y0036956D01*
X0310023Y0036229D01*
X0311922Y0036229D01*
X0313677Y0036956D01*
X0315020Y0038299D01*
X0315747Y0040054D01*
X0315747Y0041954D01*
X0315020Y0043709D01*
X0313677Y0045052D01*
X0311922Y0045779D01*
X0310023Y0045779D01*
X0307687Y0044471D02*
X0185409Y0044471D01*
X0183811Y0046069D02*
X0319978Y0046069D01*
X0319978Y0044471D02*
X0314258Y0044471D01*
X0315367Y0042872D02*
X0319978Y0042872D01*
X0319978Y0041274D02*
X0315747Y0041274D01*
X0315590Y0039675D02*
X0319978Y0039675D01*
X0319978Y0038077D02*
X0314798Y0038077D01*
X0312523Y0036478D02*
X0319978Y0036478D01*
X0319978Y0034880D02*
X0313849Y0034880D01*
X0313677Y0035052D02*
X0311922Y0035779D01*
X0310023Y0035779D01*
X0308268Y0035052D01*
X0306925Y0033709D01*
X0306198Y0031954D01*
X0306198Y0030054D01*
X0306925Y0028299D01*
X0308268Y0026956D01*
X0310023Y0026229D01*
X0311922Y0026229D01*
X0313677Y0026956D01*
X0315020Y0028299D01*
X0315747Y0030054D01*
X0315747Y0031954D01*
X0315020Y0033709D01*
X0313677Y0035052D01*
X0315197Y0033281D02*
X0319978Y0033281D01*
X0319978Y0031683D02*
X0315747Y0031683D01*
X0315747Y0030084D02*
X0319978Y0030084D01*
X0319978Y0028486D02*
X0315097Y0028486D01*
X0313511Y0026887D02*
X0319978Y0026887D01*
X0319978Y0025289D02*
X0313440Y0025289D01*
X0315039Y0023690D02*
X0319978Y0023690D01*
X0319978Y0022091D02*
X0315747Y0022091D01*
X0315747Y0020493D02*
X0319978Y0020493D01*
X0319978Y0018894D02*
X0315616Y0018894D01*
X0314017Y0017296D02*
X0319978Y0017296D01*
X0308504Y0025289D02*
X0203478Y0025289D01*
X0203478Y0025508D02*
X0198378Y0025508D01*
X0203478Y0025508D01*
X0203478Y0026887D02*
X0308434Y0026887D01*
X0306847Y0028486D02*
X0218309Y0028486D01*
X0219273Y0028885D02*
X0221635Y0031247D01*
X0222913Y0034334D01*
X0222913Y0037674D01*
X0221635Y0040761D01*
X0219273Y0043123D01*
X0216186Y0044402D01*
X0212845Y0044402D01*
X0209759Y0043123D01*
X0207397Y0040761D01*
X0206118Y0037674D01*
X0206118Y0034334D01*
X0207397Y0031247D01*
X0209759Y0028885D01*
X0212845Y0027606D01*
X0216186Y0027606D01*
X0219273Y0028885D01*
X0220472Y0030084D02*
X0306198Y0030084D01*
X0306198Y0031683D02*
X0221815Y0031683D01*
X0222477Y0033281D02*
X0306747Y0033281D01*
X0308096Y0034880D02*
X0222913Y0034880D01*
X0222913Y0036478D02*
X0309422Y0036478D01*
X0307147Y0038077D02*
X0222747Y0038077D01*
X0222085Y0039675D02*
X0306355Y0039675D01*
X0306198Y0041274D02*
X0221122Y0041274D01*
X0219524Y0042872D02*
X0306578Y0042872D01*
X0307839Y0047668D02*
X0174212Y0047668D01*
X0172614Y0049266D02*
X0306727Y0049266D01*
X0306398Y0050865D02*
X0171015Y0050865D01*
X0169417Y0052463D02*
X0306636Y0052463D01*
X0314106Y0047668D02*
X0319978Y0047668D01*
X0319978Y0049266D02*
X0315218Y0049266D01*
X0315547Y0050865D02*
X0319127Y0050865D01*
X0317528Y0052463D02*
X0315309Y0052463D01*
X0306906Y0023690D02*
X0203478Y0023690D01*
X0202174Y0022091D02*
X0306198Y0022091D01*
X0306198Y0020493D02*
X0200576Y0020493D01*
X0198378Y0020493D02*
X0198378Y0020493D01*
X0198378Y0020408D02*
X0198378Y0025508D01*
X0198378Y0025508D01*
X0198378Y0025508D01*
X0198378Y0020408D01*
X0198378Y0022091D02*
X0198378Y0022091D01*
X0198378Y0023690D02*
X0198378Y0023690D01*
X0198378Y0025289D02*
X0198378Y0025289D01*
X0202613Y0028486D02*
X0210723Y0028486D01*
X0208560Y0030084D02*
X0201014Y0030084D01*
X0198778Y0031683D02*
X0207216Y0031683D01*
X0206554Y0033281D02*
X0198456Y0033281D01*
X0197263Y0034880D02*
X0206118Y0034880D01*
X0206118Y0036478D02*
X0193402Y0036478D01*
X0191803Y0038077D02*
X0206285Y0038077D01*
X0206947Y0039675D02*
X0190205Y0039675D01*
X0188606Y0041274D02*
X0207909Y0041274D01*
X0209508Y0042872D02*
X0187008Y0042872D01*
X0192457Y0022091D02*
X0194582Y0022091D01*
X0196180Y0020493D02*
X0190858Y0020493D01*
X0148378Y0018008D02*
X0147575Y0018008D01*
X0147575Y0019724D01*
X0148378Y0018008D02*
X0148378Y0028209D01*
X0147437Y0028209D01*
X0127575Y0028209D02*
X0127575Y0019724D01*
X0127575Y0028209D02*
X0127437Y0028209D01*
X0117575Y0028209D02*
X0117575Y0019724D01*
X0117575Y0028209D02*
X0117437Y0028209D01*
X0107575Y0028209D02*
X0107575Y0019724D01*
X0102122Y0014099D02*
X0021957Y0014099D01*
X0021957Y0012500D02*
X0103197Y0012500D01*
X0102546Y0010902D02*
X0021445Y0010902D01*
X0020783Y0009303D02*
X0102514Y0009303D01*
X0102461Y0010000D02*
X0107035Y0010000D01*
X0107035Y0010000D01*
X0102461Y0010000D01*
X0103070Y0007705D02*
X0019312Y0007705D01*
X0021849Y0015697D02*
X0023824Y0015697D01*
X0022628Y0017296D02*
X0021187Y0017296D01*
X0022075Y0018894D02*
X0020287Y0018894D01*
X0018689Y0020493D02*
X0022075Y0020493D01*
X0022602Y0022091D02*
X0007378Y0022091D01*
X0007378Y0020493D02*
X0008626Y0020493D01*
X0007378Y0023690D02*
X0023762Y0023690D01*
X0022693Y0025289D02*
X0007378Y0025289D01*
X0007378Y0026887D02*
X0022031Y0026887D01*
X0021937Y0028486D02*
X0007378Y0028486D01*
X0007378Y0030084D02*
X0022261Y0030084D01*
X0023133Y0031683D02*
X0007378Y0031683D01*
X0007378Y0033281D02*
X0025311Y0033281D01*
X0029563Y0033281D02*
X0035311Y0033281D01*
X0033133Y0031683D02*
X0031741Y0031683D01*
X0037437Y0028209D02*
X0037575Y0028209D01*
X0037575Y0019724D01*
X0032628Y0017296D02*
X0032522Y0017296D01*
X0031326Y0015697D02*
X0033824Y0015697D01*
X0027575Y0019724D02*
X0027575Y0028209D01*
X0027437Y0028209D01*
X0040956Y0034880D02*
X0007378Y0034880D01*
X0041326Y0015697D02*
X0043824Y0015697D01*
X0042628Y0017296D02*
X0042522Y0017296D01*
X0047575Y0019724D02*
X0047575Y0028209D01*
X0047437Y0028209D01*
X0057437Y0028209D02*
X0057575Y0028209D01*
X0057575Y0019724D01*
X0062522Y0017296D02*
X0062628Y0017296D01*
X0063824Y0015697D02*
X0061326Y0015697D01*
X0067575Y0019724D02*
X0067575Y0028209D01*
X0067437Y0028209D01*
X0077437Y0028209D02*
X0077575Y0028209D01*
X0077575Y0019724D01*
X0082522Y0017296D02*
X0082628Y0017296D01*
X0083824Y0015697D02*
X0081326Y0015697D01*
X0087575Y0019724D02*
X0087575Y0027008D01*
X0086878Y0027008D01*
X0086878Y0028209D01*
X0087437Y0028209D01*
X0097437Y0028209D02*
X0097575Y0028209D01*
X0097575Y0019724D01*
X0092628Y0017296D02*
X0092522Y0017296D01*
X0091326Y0015697D02*
X0093824Y0015697D01*
X0107036Y0010000D02*
X0111610Y0010000D01*
X0111610Y0010360D01*
X0111498Y0011071D01*
X0111275Y0011756D01*
X0110948Y0012398D01*
X0110868Y0012508D01*
X0112906Y0012508D01*
X0112261Y0010950D01*
X0112261Y0009050D01*
X0112988Y0007295D01*
X0113775Y0006508D01*
X0110012Y0006508D01*
X0110016Y0006511D01*
X0110525Y0007020D01*
X0110948Y0007602D01*
X0111275Y0008244D01*
X0111498Y0008929D01*
X0111610Y0009640D01*
X0111610Y0010000D01*
X0107036Y0010000D01*
X0107036Y0010000D01*
X0111557Y0009303D02*
X0112261Y0009303D01*
X0112261Y0010902D02*
X0111524Y0010902D01*
X0110874Y0012500D02*
X0112903Y0012500D01*
X0112818Y0007705D02*
X0111000Y0007705D01*
X0107575Y0028209D02*
X0107437Y0028209D01*
X0073824Y0015697D02*
X0071326Y0015697D01*
X0072522Y0017296D02*
X0072628Y0017296D01*
X0053824Y0015697D02*
X0051326Y0015697D01*
X0052522Y0017296D02*
X0052628Y0017296D01*
X0046701Y0076441D02*
X0046701Y0076441D01*
X0046701Y0078039D02*
X0046701Y0078039D01*
X0046701Y0079638D02*
X0046701Y0079638D01*
X0043434Y0084433D02*
X0041440Y0084433D01*
X0033188Y0100419D02*
X0031175Y0100419D01*
X0037432Y0115813D02*
X0039614Y0114909D01*
X0041976Y0114909D01*
X0044158Y0115813D01*
X0045828Y0117483D01*
X0046732Y0119666D01*
X0046732Y0122027D01*
X0045828Y0124209D01*
X0044158Y0125880D01*
X0041976Y0126783D01*
X0039614Y0126783D01*
X0037432Y0125880D01*
X0035762Y0124209D01*
X0034858Y0122027D01*
X0034858Y0119666D01*
X0035762Y0117483D01*
X0037432Y0115813D01*
X0036842Y0116404D02*
X0007378Y0116404D01*
X0007378Y0118002D02*
X0035547Y0118002D01*
X0034885Y0119601D02*
X0007378Y0119601D01*
X0007378Y0121199D02*
X0034858Y0121199D01*
X0035177Y0122798D02*
X0007378Y0122798D01*
X0007378Y0124396D02*
X0035949Y0124396D01*
X0037710Y0125995D02*
X0007378Y0125995D01*
X0007378Y0127593D02*
X0065178Y0127593D01*
X0065178Y0125995D02*
X0043880Y0125995D01*
X0045642Y0124396D02*
X0065178Y0124396D01*
X0065178Y0122798D02*
X0046413Y0122798D01*
X0046732Y0121199D02*
X0065178Y0121199D01*
X0065178Y0119601D02*
X0046705Y0119601D01*
X0046043Y0118002D02*
X0065178Y0118002D01*
X0065178Y0116404D02*
X0044749Y0116404D01*
X0065178Y0114805D02*
X0007378Y0114805D01*
X0007378Y0113207D02*
X0065178Y0113207D01*
X0065178Y0111608D02*
X0007378Y0111608D01*
X0007378Y0110010D02*
X0065178Y0110010D01*
X0065178Y0108411D02*
X0007378Y0108411D01*
X0007378Y0106813D02*
X0065178Y0106813D01*
X0065178Y0129192D02*
X0007378Y0129192D01*
X0007378Y0130790D02*
X0065178Y0130790D01*
X0065178Y0132389D02*
X0007378Y0132389D01*
X0007378Y0133987D02*
X0065178Y0133987D01*
X0065178Y0135586D02*
X0007378Y0135586D01*
X0007378Y0137184D02*
X0065178Y0137184D01*
X0065178Y0138783D02*
X0007378Y0138783D01*
X0007378Y0140381D02*
X0065178Y0140381D01*
X0065178Y0141980D02*
X0007378Y0141980D01*
X0007378Y0143578D02*
X0065178Y0143578D01*
X0065178Y0145177D02*
X0007378Y0145177D01*
X0007378Y0146775D02*
X0065178Y0146775D01*
X0065178Y0148374D02*
X0007378Y0148374D01*
X0007378Y0149972D02*
X0065178Y0149972D01*
X0065178Y0151571D02*
X0007378Y0151571D01*
X0007378Y0153169D02*
X0065178Y0153169D01*
X0065178Y0154768D02*
X0007378Y0154768D01*
X0007378Y0156366D02*
X0065178Y0156366D01*
X0065178Y0157965D02*
X0007378Y0157965D01*
X0007378Y0159563D02*
X0065639Y0159563D01*
X0067238Y0161162D02*
X0007378Y0161162D01*
X0007378Y0162760D02*
X0068836Y0162760D01*
X0070435Y0164359D02*
X0007378Y0164359D01*
X0007378Y0165958D02*
X0072033Y0165958D01*
X0073632Y0167556D02*
X0007378Y0167556D01*
X0007378Y0169155D02*
X0075231Y0169155D01*
X0076829Y0170753D02*
X0007378Y0170753D01*
X0007378Y0172352D02*
X0078428Y0172352D01*
X0080026Y0173950D02*
X0007378Y0173950D01*
X0007378Y0175549D02*
X0081625Y0175549D01*
X0083223Y0177147D02*
X0007378Y0177147D01*
X0007378Y0178746D02*
X0084822Y0178746D01*
X0086420Y0180344D02*
X0007378Y0180344D01*
X0007378Y0181943D02*
X0088019Y0181943D01*
X0089617Y0183541D02*
X0007378Y0183541D01*
X0007378Y0185140D02*
X0091216Y0185140D01*
X0092814Y0186738D02*
X0007378Y0186738D01*
X0007378Y0188337D02*
X0094413Y0188337D01*
X0096011Y0189935D02*
X0007378Y0189935D01*
X0007378Y0191534D02*
X0097610Y0191534D01*
X0099208Y0193132D02*
X0007378Y0193132D01*
X0007378Y0194731D02*
X0100807Y0194731D01*
X0102405Y0196329D02*
X0007378Y0196329D01*
X0007378Y0197928D02*
X0104004Y0197928D01*
X0105602Y0199526D02*
X0007378Y0199526D01*
X0007378Y0201125D02*
X0107459Y0201125D01*
X0114778Y0178746D02*
X0116246Y0178746D01*
X0114778Y0177147D02*
X0117845Y0177147D01*
X0119443Y0175549D02*
X0114778Y0175549D01*
X0114778Y0173950D02*
X0121042Y0173950D01*
X0122640Y0172352D02*
X0114778Y0172352D01*
X0114778Y0170753D02*
X0124239Y0170753D01*
X0126523Y0169155D02*
X0114778Y0169155D01*
X0114778Y0167556D02*
X0126378Y0167556D01*
X0124819Y0165958D02*
X0114778Y0165958D01*
X0114778Y0164359D02*
X0122581Y0164359D01*
X0121978Y0162760D02*
X0114778Y0162760D01*
X0114778Y0161162D02*
X0122040Y0161162D01*
X0122865Y0159563D02*
X0114778Y0159563D01*
X0114778Y0157965D02*
X0126727Y0157965D01*
X0128325Y0156366D02*
X0114778Y0156366D01*
X0114778Y0154768D02*
X0235949Y0154768D01*
X0235395Y0153169D02*
X0114778Y0153169D01*
X0114778Y0151571D02*
X0235368Y0151571D01*
X0235320Y0151874D02*
X0235448Y0151066D01*
X0235701Y0150287D01*
X0236072Y0149558D01*
X0236553Y0148896D01*
X0237132Y0148317D01*
X0237794Y0147836D01*
X0238524Y0147464D01*
X0239302Y0147212D01*
X0240110Y0147083D01*
X0240220Y0147083D01*
X0240220Y0151983D01*
X0235320Y0151983D01*
X0235320Y0151874D01*
X0235861Y0149972D02*
X0114778Y0149972D01*
X0114778Y0148374D02*
X0237075Y0148374D01*
X0240220Y0148374D02*
X0240820Y0148374D01*
X0240820Y0149972D02*
X0240220Y0149972D01*
X0240220Y0151571D02*
X0240820Y0151571D01*
X0240520Y0152283D02*
X0246878Y0152283D01*
X0246878Y0109508D01*
X0268925Y0077421D01*
X0268925Y0077421D01*
X0268925Y0072846D01*
X0268565Y0072846D01*
X0267854Y0072959D01*
X0267169Y0073182D01*
X0266527Y0073509D01*
X0265945Y0073932D01*
X0265436Y0074441D01*
X0265012Y0075024D01*
X0264686Y0075665D01*
X0264463Y0076350D01*
X0264350Y0077061D01*
X0264350Y0077421D01*
X0268925Y0077421D01*
X0268925Y0077421D01*
X0268925Y0072846D01*
X0269285Y0072846D01*
X0269996Y0072959D01*
X0270681Y0073182D01*
X0271323Y0073509D01*
X0271905Y0073932D01*
X0272415Y0074441D01*
X0272838Y0075024D01*
X0273165Y0075665D01*
X0273387Y0076350D01*
X0273500Y0077061D01*
X0273500Y0077421D01*
X0268925Y0077421D01*
X0264350Y0077421D01*
X0264350Y0077781D01*
X0264463Y0078493D01*
X0264686Y0079177D01*
X0265012Y0079819D01*
X0265436Y0080402D01*
X0265945Y0080911D01*
X0266527Y0081334D01*
X0267169Y0081661D01*
X0267854Y0081883D01*
X0268565Y0081996D01*
X0268925Y0081996D01*
X0268925Y0077421D01*
X0268925Y0077421D01*
X0268925Y0077421D01*
X0268925Y0081996D01*
X0269285Y0081996D01*
X0269996Y0081883D01*
X0270681Y0081661D01*
X0271323Y0081334D01*
X0271905Y0080911D01*
X0272415Y0080402D01*
X0272838Y0079819D01*
X0273165Y0079177D01*
X0273387Y0078493D01*
X0273500Y0077781D01*
X0273500Y0077421D01*
X0268925Y0077421D01*
X0268925Y0078039D02*
X0268925Y0078039D01*
X0268925Y0076441D02*
X0268925Y0076441D01*
X0268925Y0074842D02*
X0268925Y0074842D01*
X0268925Y0073244D02*
X0268925Y0073244D01*
X0267047Y0073244D02*
X0263126Y0073244D01*
X0263700Y0073818D02*
X0262528Y0072646D01*
X0255322Y0072646D01*
X0254150Y0073818D01*
X0254150Y0081024D01*
X0255322Y0082196D01*
X0262528Y0082196D01*
X0263700Y0081024D01*
X0263700Y0073818D01*
X0263700Y0074842D02*
X0265144Y0074842D01*
X0264449Y0076441D02*
X0263700Y0076441D01*
X0263700Y0078039D02*
X0264391Y0078039D01*
X0264920Y0079638D02*
X0263700Y0079638D01*
X0263488Y0081236D02*
X0266393Y0081236D01*
X0268925Y0081236D02*
X0268925Y0081236D01*
X0268925Y0079638D02*
X0268925Y0079638D01*
X0271457Y0081236D02*
X0275988Y0081236D01*
X0274675Y0079638D02*
X0272930Y0079638D01*
X0273459Y0078039D02*
X0274150Y0078039D01*
X0274163Y0076441D02*
X0273402Y0076441D01*
X0272706Y0074842D02*
X0274825Y0074842D01*
X0276533Y0073244D02*
X0270803Y0073244D01*
X0254725Y0073244D02*
X0148636Y0073244D01*
X0147038Y0074842D02*
X0212993Y0074842D01*
X0212952Y0074849D02*
X0213664Y0074736D01*
X0214024Y0074736D01*
X0214384Y0074736D01*
X0215095Y0074849D01*
X0215780Y0075071D01*
X0216421Y0075398D01*
X0217004Y0075822D01*
X0217513Y0076331D01*
X0217800Y0076726D01*
X0217850Y0076606D01*
X0219193Y0075263D01*
X0220948Y0074536D01*
X0222847Y0074536D01*
X0224602Y0075263D01*
X0225835Y0076495D01*
X0227067Y0075263D01*
X0228822Y0074536D01*
X0230721Y0074536D01*
X0232476Y0075263D01*
X0232896Y0075683D01*
X0234042Y0074536D01*
X0241249Y0074536D01*
X0242420Y0075708D01*
X0242420Y0082914D01*
X0241249Y0084086D01*
X0234042Y0084086D01*
X0232896Y0082939D01*
X0232476Y0083359D01*
X0230721Y0084086D01*
X0228822Y0084086D01*
X0227067Y0083359D01*
X0225835Y0082127D01*
X0224602Y0083359D01*
X0222847Y0084086D01*
X0220948Y0084086D01*
X0219193Y0083359D01*
X0217850Y0082016D01*
X0217800Y0081896D01*
X0217513Y0082291D01*
X0217004Y0082800D01*
X0216421Y0083224D01*
X0215780Y0083551D01*
X0215095Y0083773D01*
X0214384Y0083886D01*
X0214024Y0083886D01*
X0214024Y0079311D01*
X0214024Y0074736D01*
X0214024Y0079311D01*
X0214024Y0079311D01*
X0214024Y0079311D01*
X0214024Y0109508D01*
X0240520Y0109508D01*
X0240520Y0109429D01*
X0240520Y0109508D02*
X0246878Y0109508D01*
X0245720Y0109729D02*
X0245720Y0109838D01*
X0245592Y0110647D01*
X0245339Y0111425D01*
X0244967Y0112155D01*
X0244486Y0112817D01*
X0243907Y0113395D01*
X0243245Y0113877D01*
X0242516Y0114248D01*
X0242295Y0114320D01*
X0243579Y0114851D01*
X0245098Y0116370D01*
X0245920Y0118355D01*
X0245920Y0120503D01*
X0245098Y0122488D01*
X0243579Y0124007D01*
X0242559Y0124429D01*
X0243579Y0124851D01*
X0245098Y0126370D01*
X0245920Y0128355D01*
X0245920Y0130503D01*
X0245098Y0132488D01*
X0243579Y0134007D01*
X0243525Y0134029D01*
X0244748Y0134029D01*
X0245920Y0135201D01*
X0245920Y0143658D01*
X0244748Y0144829D01*
X0236291Y0144829D01*
X0235120Y0143658D01*
X0235120Y0135201D01*
X0236291Y0134029D01*
X0237514Y0134029D01*
X0237461Y0134007D01*
X0236362Y0132908D01*
X0162872Y0132908D01*
X0155378Y0140402D01*
X0155378Y0141804D01*
X0154769Y0143274D01*
X0153644Y0144399D01*
X0152174Y0145008D01*
X0150582Y0145008D01*
X0149112Y0144399D01*
X0147987Y0143274D01*
X0147378Y0141804D01*
X0147378Y0140212D01*
X0147987Y0138742D01*
X0149112Y0137617D01*
X0150582Y0137008D01*
X0151984Y0137008D01*
X0159843Y0129148D01*
X0160518Y0128473D01*
X0161401Y0128108D01*
X0235222Y0128108D01*
X0235942Y0126370D01*
X0237461Y0124851D01*
X0238480Y0124429D01*
X0237461Y0124007D01*
X0235942Y0122488D01*
X0235120Y0120503D01*
X0235120Y0118355D01*
X0235942Y0116370D01*
X0237461Y0114851D01*
X0238744Y0114320D01*
X0238524Y0114248D01*
X0237794Y0113877D01*
X0237132Y0113395D01*
X0236553Y0112817D01*
X0236072Y0112155D01*
X0235701Y0111425D01*
X0235448Y0110647D01*
X0235320Y0109838D01*
X0235320Y0109729D01*
X0240220Y0109729D01*
X0240220Y0109129D01*
X0240820Y0109129D01*
X0240820Y0109729D01*
X0245720Y0109729D01*
X0245693Y0110010D02*
X0265120Y0110010D01*
X0265120Y0108411D02*
X0245623Y0108411D01*
X0245592Y0108211D02*
X0245720Y0109020D01*
X0245720Y0109129D01*
X0240820Y0109129D01*
X0240820Y0104229D01*
X0240929Y0104229D01*
X0241737Y0104357D01*
X0242516Y0104610D01*
X0243245Y0104982D01*
X0243907Y0105463D01*
X0244486Y0106042D01*
X0244967Y0106704D01*
X0245339Y0107433D01*
X0245592Y0108211D01*
X0245023Y0106813D02*
X0265759Y0106813D01*
X0267098Y0105214D02*
X0243565Y0105214D01*
X0240820Y0105214D02*
X0240220Y0105214D01*
X0240220Y0104229D02*
X0240220Y0109129D01*
X0235320Y0109129D01*
X0235320Y0109020D01*
X0235448Y0108211D01*
X0235701Y0107433D01*
X0236072Y0106704D01*
X0236553Y0106042D01*
X0237132Y0105463D01*
X0237794Y0104982D01*
X0238524Y0104610D01*
X0239302Y0104357D01*
X0240110Y0104229D01*
X0240220Y0104229D01*
X0240220Y0106813D02*
X0240820Y0106813D01*
X0240820Y0108411D02*
X0240220Y0108411D01*
X0237474Y0105214D02*
X0114778Y0105214D01*
X0114778Y0106813D02*
X0236017Y0106813D01*
X0235416Y0108411D02*
X0114778Y0108411D01*
X0114778Y0110010D02*
X0235347Y0110010D01*
X0235794Y0111608D02*
X0114778Y0111608D01*
X0114778Y0113207D02*
X0236943Y0113207D01*
X0237572Y0114805D02*
X0114778Y0114805D01*
X0114778Y0116404D02*
X0235928Y0116404D01*
X0235266Y0118002D02*
X0114778Y0118002D01*
X0114778Y0119601D02*
X0235120Y0119601D01*
X0235408Y0121199D02*
X0114778Y0121199D01*
X0114778Y0122798D02*
X0236252Y0122798D01*
X0238400Y0124396D02*
X0114778Y0124396D01*
X0114778Y0125995D02*
X0236317Y0125995D01*
X0235435Y0127593D02*
X0114778Y0127593D01*
X0114778Y0129192D02*
X0159800Y0129192D01*
X0159843Y0129148D02*
X0159843Y0129148D01*
X0158201Y0130790D02*
X0114778Y0130790D01*
X0114778Y0132389D02*
X0156603Y0132389D01*
X0155004Y0133987D02*
X0114778Y0133987D01*
X0114778Y0135586D02*
X0153406Y0135586D01*
X0150156Y0137184D02*
X0114778Y0137184D01*
X0114778Y0138783D02*
X0147970Y0138783D01*
X0147378Y0140381D02*
X0114778Y0140381D01*
X0114778Y0141980D02*
X0147451Y0141980D01*
X0148292Y0143578D02*
X0114778Y0143578D01*
X0114778Y0145177D02*
X0246778Y0145177D01*
X0246778Y0146775D02*
X0114778Y0146775D01*
X0154464Y0143578D02*
X0235120Y0143578D01*
X0235120Y0141980D02*
X0155305Y0141980D01*
X0155399Y0140381D02*
X0235120Y0140381D01*
X0235120Y0138783D02*
X0156997Y0138783D01*
X0158596Y0137184D02*
X0235120Y0137184D01*
X0235120Y0135586D02*
X0160194Y0135586D01*
X0161793Y0133987D02*
X0237441Y0133987D01*
X0243598Y0133987D02*
X0255504Y0133987D01*
X0253906Y0135586D02*
X0245920Y0135586D01*
X0245920Y0137184D02*
X0252307Y0137184D01*
X0250709Y0138783D02*
X0245920Y0138783D01*
X0245920Y0140381D02*
X0249110Y0140381D01*
X0247512Y0141980D02*
X0245920Y0141980D01*
X0245920Y0143578D02*
X0246778Y0143578D01*
X0246778Y0148374D02*
X0243964Y0148374D01*
X0245178Y0149972D02*
X0246778Y0149972D01*
X0246778Y0151571D02*
X0245672Y0151571D01*
X0245644Y0153169D02*
X0245922Y0153169D01*
X0249513Y0156366D02*
X0266966Y0156366D01*
X0267201Y0157965D02*
X0247915Y0157965D01*
X0246004Y0159563D02*
X0265801Y0159563D01*
X0265139Y0161162D02*
X0245900Y0161162D01*
X0245920Y0162760D02*
X0265120Y0162760D01*
X0265534Y0164359D02*
X0245505Y0164359D01*
X0244482Y0165958D02*
X0264034Y0165958D01*
X0262436Y0167556D02*
X0243218Y0167556D01*
X0245028Y0169155D02*
X0260837Y0169155D01*
X0259239Y0170753D02*
X0245731Y0170753D01*
X0245920Y0172352D02*
X0257640Y0172352D01*
X0256042Y0173950D02*
X0245674Y0173950D01*
X0255939Y0183541D02*
X0265196Y0183541D01*
X0265120Y0181943D02*
X0257537Y0181943D01*
X0259136Y0180344D02*
X0265478Y0180344D01*
X0266421Y0178746D02*
X0260734Y0178746D01*
X0262333Y0177147D02*
X0268151Y0177147D01*
X0266148Y0175549D02*
X0263931Y0175549D01*
X0272889Y0177147D02*
X0341878Y0177147D01*
X0341878Y0175549D02*
X0274891Y0175549D01*
X0275674Y0173950D02*
X0341878Y0173950D01*
X0341878Y0172352D02*
X0275920Y0172352D01*
X0275731Y0170753D02*
X0341878Y0170753D01*
X0341878Y0169155D02*
X0275028Y0169155D01*
X0275924Y0167556D02*
X0341878Y0167556D01*
X0341878Y0165958D02*
X0277522Y0165958D01*
X0279121Y0164359D02*
X0341878Y0164359D01*
X0341878Y0162760D02*
X0280719Y0162760D01*
X0282318Y0161162D02*
X0341878Y0161162D01*
X0341878Y0159563D02*
X0283916Y0159563D01*
X0285515Y0157965D02*
X0341878Y0157965D01*
X0341878Y0156366D02*
X0287113Y0156366D01*
X0288712Y0154768D02*
X0341878Y0154768D01*
X0341878Y0153169D02*
X0290310Y0153169D01*
X0291909Y0151571D02*
X0341878Y0151571D01*
X0341878Y0149972D02*
X0293508Y0149972D01*
X0295106Y0148374D02*
X0341878Y0148374D01*
X0341878Y0146775D02*
X0296705Y0146775D01*
X0298303Y0145177D02*
X0341878Y0145177D01*
X0341878Y0143578D02*
X0299902Y0143578D01*
X0301500Y0141980D02*
X0341878Y0141980D01*
X0341878Y0140381D02*
X0303099Y0140381D01*
X0304697Y0138783D02*
X0341878Y0138783D01*
X0341878Y0137184D02*
X0306296Y0137184D01*
X0307894Y0135586D02*
X0341878Y0135586D01*
X0341878Y0133987D02*
X0309493Y0133987D01*
X0311091Y0132389D02*
X0341878Y0132389D01*
X0341878Y0130790D02*
X0312690Y0130790D01*
X0314288Y0129192D02*
X0341878Y0129192D01*
X0341878Y0127593D02*
X0315887Y0127593D01*
X0317485Y0125995D02*
X0341878Y0125995D01*
X0341878Y0124396D02*
X0319084Y0124396D01*
X0320682Y0122798D02*
X0341878Y0122798D01*
X0341878Y0121199D02*
X0322281Y0121199D01*
X0323879Y0119601D02*
X0341878Y0119601D01*
X0341878Y0118002D02*
X0325478Y0118002D01*
X0327076Y0116404D02*
X0341878Y0116404D01*
X0341878Y0114805D02*
X0328675Y0114805D01*
X0330273Y0113207D02*
X0341878Y0113207D01*
X0341878Y0111608D02*
X0331872Y0111608D01*
X0333470Y0110010D02*
X0341878Y0110010D01*
X0341878Y0108411D02*
X0334684Y0108411D01*
X0334778Y0106813D02*
X0341878Y0106813D01*
X0341878Y0105214D02*
X0336796Y0105214D01*
X0337594Y0103616D02*
X0341878Y0103616D01*
X0341878Y0102017D02*
X0337594Y0102017D01*
X0337594Y0100419D02*
X0341878Y0100419D01*
X0341878Y0098820D02*
X0337594Y0098820D01*
X0337594Y0097222D02*
X0341878Y0097222D01*
X0329249Y0087630D02*
X0326389Y0087630D01*
X0327331Y0089229D02*
X0328307Y0089229D01*
X0328044Y0090827D02*
X0327594Y0090827D01*
X0327466Y0092426D02*
X0327319Y0092426D01*
X0319658Y0097222D02*
X0315980Y0097222D01*
X0315524Y0096765D02*
X0316867Y0098108D01*
X0317594Y0099863D01*
X0317594Y0101763D01*
X0316867Y0103518D01*
X0315524Y0104861D01*
X0313769Y0105588D01*
X0311869Y0105588D01*
X0310114Y0104861D01*
X0308771Y0103518D01*
X0308044Y0101763D01*
X0308044Y0099863D01*
X0308771Y0098108D01*
X0310114Y0096765D01*
X0311869Y0096038D01*
X0313769Y0096038D01*
X0315524Y0096765D01*
X0317162Y0098820D02*
X0318476Y0098820D01*
X0318044Y0100419D02*
X0317594Y0100419D01*
X0317488Y0102017D02*
X0318149Y0102017D01*
X0318869Y0103616D02*
X0316769Y0103616D01*
X0314671Y0105214D02*
X0320967Y0105214D01*
X0326682Y0110010D02*
X0275920Y0110010D01*
X0275920Y0108411D02*
X0328281Y0108411D01*
X0325084Y0111608D02*
X0275462Y0111608D01*
X0274379Y0113207D02*
X0323485Y0113207D01*
X0321887Y0114805D02*
X0273467Y0114805D01*
X0275111Y0116404D02*
X0320288Y0116404D01*
X0318690Y0118002D02*
X0275774Y0118002D01*
X0275920Y0119601D02*
X0317091Y0119601D01*
X0315493Y0121199D02*
X0275631Y0121199D01*
X0274788Y0122798D02*
X0313894Y0122798D01*
X0312295Y0124396D02*
X0272639Y0124396D01*
X0274722Y0125995D02*
X0310697Y0125995D01*
X0309098Y0127593D02*
X0275604Y0127593D01*
X0275920Y0129192D02*
X0307500Y0129192D01*
X0305901Y0130790D02*
X0275801Y0130790D01*
X0275139Y0132389D02*
X0304303Y0132389D01*
X0302704Y0133987D02*
X0273598Y0133987D01*
X0274313Y0135586D02*
X0301106Y0135586D01*
X0299507Y0137184D02*
X0275435Y0137184D01*
X0275920Y0138783D02*
X0297909Y0138783D01*
X0296310Y0140381D02*
X0275920Y0140381D01*
X0275308Y0141980D02*
X0294712Y0141980D01*
X0293113Y0143578D02*
X0274007Y0143578D01*
X0274247Y0148374D02*
X0288318Y0148374D01*
X0289916Y0146775D02*
X0251578Y0146775D01*
X0251578Y0145177D02*
X0291515Y0145177D01*
X0286719Y0149972D02*
X0275407Y0149972D01*
X0275920Y0151571D02*
X0285121Y0151571D01*
X0283522Y0153169D02*
X0275920Y0153169D01*
X0275335Y0154768D02*
X0281924Y0154768D01*
X0280325Y0156366D02*
X0274073Y0156366D01*
X0273838Y0157965D02*
X0278727Y0157965D01*
X0277128Y0159563D02*
X0275238Y0159563D01*
X0265704Y0154768D02*
X0251112Y0154768D01*
X0251578Y0153169D02*
X0265120Y0153169D01*
X0265120Y0151571D02*
X0251578Y0151571D01*
X0251578Y0149972D02*
X0265632Y0149972D01*
X0266792Y0148374D02*
X0251578Y0148374D01*
X0252702Y0143578D02*
X0267032Y0143578D01*
X0265731Y0141980D02*
X0254300Y0141980D01*
X0255899Y0140381D02*
X0265120Y0140381D01*
X0265120Y0138783D02*
X0257497Y0138783D01*
X0259096Y0137184D02*
X0265605Y0137184D01*
X0266726Y0135586D02*
X0260694Y0135586D01*
X0262293Y0133987D02*
X0267441Y0133987D01*
X0265901Y0132389D02*
X0263891Y0132389D01*
X0260300Y0129192D02*
X0245920Y0129192D01*
X0245801Y0130790D02*
X0258701Y0130790D01*
X0257103Y0132389D02*
X0245139Y0132389D01*
X0245604Y0127593D02*
X0261898Y0127593D01*
X0263497Y0125995D02*
X0244722Y0125995D01*
X0242639Y0124396D02*
X0265095Y0124396D01*
X0266252Y0122798D02*
X0244788Y0122798D01*
X0245631Y0121199D02*
X0265408Y0121199D01*
X0265120Y0119601D02*
X0245920Y0119601D01*
X0245774Y0118002D02*
X0265266Y0118002D01*
X0265928Y0116404D02*
X0245111Y0116404D01*
X0243467Y0114805D02*
X0267572Y0114805D01*
X0266660Y0113207D02*
X0244096Y0113207D01*
X0245246Y0111608D02*
X0265577Y0111608D01*
X0262986Y0098820D02*
X0298244Y0098820D01*
X0298437Y0097222D02*
X0265321Y0097222D01*
X0265978Y0095623D02*
X0318499Y0095623D01*
X0316900Y0094025D02*
X0316360Y0094025D01*
X0316389Y0087630D02*
X0319249Y0087630D01*
X0309249Y0087630D02*
X0306389Y0087630D01*
X0307331Y0089229D02*
X0308307Y0089229D01*
X0308044Y0090827D02*
X0307594Y0090827D01*
X0307319Y0092426D02*
X0308319Y0092426D01*
X0309278Y0094025D02*
X0306360Y0094025D01*
X0307201Y0097222D02*
X0309658Y0097222D01*
X0308476Y0098820D02*
X0307394Y0098820D01*
X0307394Y0100419D02*
X0308044Y0100419D01*
X0308149Y0102017D02*
X0307394Y0102017D01*
X0307394Y0103616D02*
X0308869Y0103616D01*
X0310967Y0105214D02*
X0306377Y0105214D01*
X0302819Y0105214D02*
X0302819Y0105214D01*
X0302819Y0103616D02*
X0302819Y0103616D01*
X0302819Y0102017D02*
X0302819Y0102017D01*
X0302819Y0100419D02*
X0302819Y0100419D01*
X0302819Y0098820D02*
X0302819Y0098820D01*
X0302819Y0097222D02*
X0302819Y0097222D01*
X0299278Y0094025D02*
X0266255Y0094025D01*
X0262664Y0090827D02*
X0203410Y0090827D01*
X0201812Y0089229D02*
X0264263Y0089229D01*
X0254362Y0081236D02*
X0242420Y0081236D01*
X0242420Y0079638D02*
X0254150Y0079638D01*
X0254150Y0078039D02*
X0242420Y0078039D01*
X0242420Y0076441D02*
X0254150Y0076441D01*
X0254150Y0074842D02*
X0241555Y0074842D01*
X0233736Y0074842D02*
X0231461Y0074842D01*
X0228083Y0074842D02*
X0223587Y0074842D01*
X0225780Y0076441D02*
X0225889Y0076441D01*
X0220209Y0074842D02*
X0215054Y0074842D01*
X0214024Y0074842D02*
X0214024Y0074842D01*
X0212952Y0074849D02*
X0212267Y0075071D01*
X0211626Y0075398D01*
X0211043Y0075822D01*
X0210534Y0076331D01*
X0210111Y0076913D01*
X0209784Y0077555D01*
X0209561Y0078240D01*
X0209449Y0078951D01*
X0209449Y0079311D01*
X0214023Y0079311D01*
X0214023Y0079311D01*
X0209449Y0079311D01*
X0209449Y0079671D01*
X0209561Y0080382D01*
X0209784Y0081067D01*
X0210111Y0081709D01*
X0210534Y0082291D01*
X0211043Y0082800D01*
X0211626Y0083224D01*
X0212267Y0083551D01*
X0212952Y0083773D01*
X0213664Y0083886D01*
X0214024Y0083886D01*
X0214024Y0079311D01*
X0214024Y0079638D02*
X0214024Y0079638D01*
X0214024Y0081236D02*
X0214024Y0081236D01*
X0214024Y0082835D02*
X0214024Y0082835D01*
X0216956Y0082835D02*
X0218669Y0082835D01*
X0218015Y0076441D02*
X0217593Y0076441D01*
X0214024Y0076441D02*
X0214024Y0076441D01*
X0214024Y0078039D02*
X0214024Y0078039D01*
X0210454Y0076441D02*
X0145439Y0076441D01*
X0143841Y0078039D02*
X0209627Y0078039D01*
X0209449Y0079638D02*
X0142242Y0079638D01*
X0140644Y0081236D02*
X0209870Y0081236D01*
X0211091Y0082835D02*
X0168836Y0082835D01*
X0166038Y0082835D02*
X0158836Y0082835D01*
X0156038Y0082835D02*
X0148836Y0082835D01*
X0146038Y0082835D02*
X0139045Y0082835D01*
X0141157Y0084433D02*
X0143434Y0084433D01*
X0142385Y0086032D02*
X0142276Y0086032D01*
X0137637Y0088409D02*
X0137237Y0088409D01*
X0137237Y0093509D01*
X0137020Y0093509D01*
X0136981Y0093502D01*
X0136981Y0096434D01*
X0137381Y0096434D01*
X0137381Y0091334D01*
X0137598Y0091334D01*
X0137637Y0091340D01*
X0137637Y0088409D01*
X0137637Y0089229D02*
X0137237Y0089229D01*
X0137237Y0090827D02*
X0137637Y0090827D01*
X0137381Y0092426D02*
X0137237Y0092426D01*
X0137381Y0094025D02*
X0136981Y0094025D01*
X0136981Y0095623D02*
X0137381Y0095623D01*
X0137381Y0097222D02*
X0136981Y0097222D01*
X0136981Y0098820D02*
X0137381Y0098820D01*
X0137381Y0100419D02*
X0136981Y0100419D01*
X0133470Y0100419D02*
X0131175Y0100419D01*
X0132229Y0098820D02*
X0132347Y0098820D01*
X0140892Y0100419D02*
X0143188Y0100419D01*
X0142134Y0098820D02*
X0142016Y0098820D01*
X0147181Y0096634D02*
X0147437Y0096634D01*
X0147437Y0088209D01*
X0151440Y0084433D02*
X0153434Y0084433D01*
X0157437Y0088209D02*
X0157437Y0096634D01*
X0157181Y0096634D01*
X0153188Y0100419D02*
X0151175Y0100419D01*
X0161175Y0100419D02*
X0163188Y0100419D01*
X0167181Y0096634D02*
X0167437Y0096634D01*
X0167437Y0088209D01*
X0163434Y0084433D02*
X0161440Y0084433D01*
X0170998Y0092426D02*
X0183078Y0092426D01*
X0183078Y0090827D02*
X0172305Y0090827D01*
X0172937Y0089229D02*
X0184662Y0089229D01*
X0183078Y0094025D02*
X0172053Y0094025D01*
X0172681Y0095623D02*
X0183498Y0095623D01*
X0185096Y0097222D02*
X0172681Y0097222D01*
X0171440Y0084433D02*
X0341878Y0084433D01*
X0341878Y0082835D02*
X0242420Y0082835D01*
X0226543Y0082835D02*
X0225126Y0082835D01*
X0198378Y0089229D02*
X0198378Y0089229D01*
X0198378Y0090827D02*
X0198378Y0090827D01*
X0198378Y0092426D02*
X0198378Y0092426D01*
X0198378Y0093008D02*
X0198378Y0093008D01*
X0198378Y0094025D02*
X0198378Y0094025D01*
X0198378Y0095623D02*
X0198378Y0095623D01*
X0198378Y0097222D02*
X0198378Y0097222D01*
X0195379Y0097222D02*
X0191660Y0097222D01*
X0193258Y0095623D02*
X0193781Y0095623D01*
X0194944Y0089229D02*
X0192094Y0089229D01*
X0097437Y0096634D02*
X0097181Y0096634D01*
X0165580Y0202723D02*
X0007378Y0202723D01*
X0007378Y0204322D02*
X0165378Y0204322D01*
X0165841Y0205920D02*
X0007378Y0205920D01*
X0007378Y0207519D02*
X0167402Y0207519D01*
X0171093Y0209117D02*
X0007378Y0209117D01*
X0007378Y0210716D02*
X0172692Y0210716D01*
X0174290Y0212314D02*
X0007378Y0212314D01*
X0007378Y0213913D02*
X0175889Y0213913D01*
X0177487Y0215511D02*
X0007378Y0215511D01*
X0007378Y0217110D02*
X0179086Y0217110D01*
X0180684Y0218708D02*
X0007378Y0218708D01*
X0007378Y0220307D02*
X0182283Y0220307D01*
X0183881Y0221905D02*
X0007378Y0221905D01*
X0007378Y0223504D02*
X0185480Y0223504D01*
X0187078Y0225102D02*
X0007378Y0225102D01*
X0007378Y0226701D02*
X0188677Y0226701D01*
X0190275Y0228299D02*
X0007378Y0228299D01*
X0007378Y0229898D02*
X0191874Y0229898D01*
X0193472Y0231496D02*
X0007378Y0231496D01*
X0007378Y0233095D02*
X0195071Y0233095D01*
X0196669Y0234694D02*
X0007378Y0234694D01*
X0007378Y0236292D02*
X0198268Y0236292D01*
X0199866Y0237891D02*
X0007378Y0237891D01*
X0007378Y0239489D02*
X0097571Y0239489D01*
X0097706Y0239453D02*
X0102577Y0239453D01*
X0107282Y0240713D01*
X0111501Y0243149D01*
X0114945Y0246593D01*
X0117381Y0250812D01*
X0118642Y0255517D01*
X0118642Y0260388D01*
X0117381Y0265093D01*
X0114945Y0269312D01*
X0111501Y0272756D01*
X0107282Y0275192D01*
X0102577Y0276453D01*
X0097706Y0276453D01*
X0093001Y0275192D01*
X0088782Y0272756D01*
X0085338Y0269312D01*
X0082902Y0265093D01*
X0081642Y0260388D01*
X0081642Y0255517D01*
X0082902Y0250812D01*
X0085338Y0246593D01*
X0088782Y0243149D01*
X0093001Y0240713D01*
X0097706Y0239453D01*
X0092353Y0241088D02*
X0007378Y0241088D01*
X0007378Y0242686D02*
X0089584Y0242686D01*
X0087647Y0244285D02*
X0007378Y0244285D01*
X0007378Y0245883D02*
X0086048Y0245883D01*
X0084825Y0247482D02*
X0007378Y0247482D01*
X0007378Y0249080D02*
X0083902Y0249080D01*
X0082979Y0250679D02*
X0007378Y0250679D01*
X0007378Y0252277D02*
X0082510Y0252277D01*
X0082082Y0253876D02*
X0007378Y0253876D01*
X0007378Y0255474D02*
X0081653Y0255474D01*
X0081642Y0257073D02*
X0007378Y0257073D01*
X0007378Y0258671D02*
X0014934Y0258671D01*
X0013456Y0259283D02*
X0011122Y0261618D01*
X0009858Y0264668D01*
X0009858Y0267970D01*
X0011122Y0271020D01*
X0013456Y0273355D01*
X0016507Y0274618D01*
X0019808Y0274618D01*
X0022859Y0273355D01*
X0025193Y0271020D01*
X0026457Y0267970D01*
X0026457Y0264668D01*
X0025193Y0261618D01*
X0022859Y0259283D01*
X0019808Y0258020D01*
X0016507Y0258020D01*
X0013456Y0259283D01*
X0012470Y0260270D02*
X0007378Y0260270D01*
X0007378Y0261868D02*
X0011018Y0261868D01*
X0010356Y0263467D02*
X0007378Y0263467D01*
X0007378Y0265065D02*
X0009858Y0265065D01*
X0009858Y0266664D02*
X0007378Y0266664D01*
X0007378Y0268262D02*
X0009979Y0268262D01*
X0010642Y0269861D02*
X0007378Y0269861D01*
X0007378Y0271459D02*
X0011561Y0271459D01*
X0013159Y0273058D02*
X0007378Y0273058D01*
X0007378Y0274656D02*
X0092073Y0274656D01*
X0089304Y0273058D02*
X0023155Y0273058D01*
X0024754Y0271459D02*
X0087485Y0271459D01*
X0085887Y0269861D02*
X0025673Y0269861D01*
X0026336Y0268262D02*
X0084732Y0268262D01*
X0083809Y0266664D02*
X0026457Y0266664D01*
X0026457Y0265065D02*
X0082895Y0265065D01*
X0082467Y0263467D02*
X0025959Y0263467D01*
X0025297Y0261868D02*
X0082038Y0261868D01*
X0081642Y0260270D02*
X0023845Y0260270D01*
X0021381Y0258671D02*
X0081642Y0258671D01*
X0096967Y0276255D02*
X0007378Y0276255D01*
X0103316Y0276255D02*
X0341878Y0276255D01*
X0341878Y0274656D02*
X0108210Y0274656D01*
X0110979Y0273058D02*
X0163955Y0273058D01*
X0161611Y0271459D02*
X0112798Y0271459D01*
X0114397Y0269861D02*
X0160687Y0269861D01*
X0160342Y0268262D02*
X0115552Y0268262D01*
X0116474Y0266664D02*
X0160431Y0266664D01*
X0161093Y0265065D02*
X0117389Y0265065D01*
X0117817Y0263467D02*
X0162591Y0263467D01*
X0162020Y0261868D02*
X0118245Y0261868D01*
X0118642Y0260270D02*
X0160857Y0260270D01*
X0160342Y0258671D02*
X0118642Y0258671D01*
X0118642Y0257073D02*
X0160342Y0257073D01*
X0160923Y0255474D02*
X0118630Y0255474D01*
X0118202Y0253876D02*
X0162182Y0253876D01*
X0162847Y0252277D02*
X0117774Y0252277D01*
X0117304Y0250679D02*
X0161295Y0250679D01*
X0160655Y0249080D02*
X0116381Y0249080D01*
X0115458Y0247482D02*
X0160552Y0247482D01*
X0160542Y0247543D02*
X0160670Y0246735D01*
X0160923Y0245957D01*
X0161294Y0245227D01*
X0161775Y0244565D01*
X0162354Y0243986D01*
X0163016Y0243505D01*
X0163746Y0243134D01*
X0164524Y0242881D01*
X0165332Y0242753D01*
X0168842Y0242753D01*
X0168842Y0247653D01*
X0160542Y0247653D01*
X0160542Y0247543D01*
X0160960Y0245883D02*
X0114235Y0245883D01*
X0112637Y0244285D02*
X0162056Y0244285D01*
X0168842Y0244285D02*
X0169442Y0244285D01*
X0169442Y0242753D02*
X0172951Y0242753D01*
X0173759Y0242881D01*
X0174538Y0243134D01*
X0175267Y0243505D01*
X0175929Y0243986D01*
X0176508Y0244565D01*
X0176989Y0245227D01*
X0177361Y0245957D01*
X0177614Y0246735D01*
X0177742Y0247543D01*
X0177742Y0247653D01*
X0169442Y0247653D01*
X0169442Y0242753D01*
X0169442Y0245883D02*
X0168842Y0245883D01*
X0168842Y0247482D02*
X0169442Y0247482D01*
X0176227Y0244285D02*
X0206261Y0244285D01*
X0207859Y0245883D02*
X0177323Y0245883D01*
X0177732Y0247482D02*
X0209458Y0247482D01*
X0211056Y0249080D02*
X0177628Y0249080D01*
X0176989Y0250679D02*
X0258922Y0250679D01*
X0257647Y0252277D02*
X0175437Y0252277D01*
X0176101Y0253876D02*
X0256861Y0253876D01*
X0256429Y0255474D02*
X0177360Y0255474D01*
X0177942Y0257073D02*
X0264424Y0257073D01*
X0264424Y0257788D02*
X0256335Y0257788D01*
X0256459Y0258732D01*
X0256761Y0259861D01*
X0257209Y0260941D01*
X0257793Y0261953D01*
X0258505Y0262881D01*
X0259332Y0263708D01*
X0260259Y0264419D01*
X0261272Y0265004D01*
X0262352Y0265451D01*
X0263481Y0265754D01*
X0264424Y0265878D01*
X0264424Y0257788D01*
X0264424Y0258671D02*
X0266024Y0258671D01*
X0266024Y0257788D02*
X0273055Y0257788D01*
X0273242Y0257335D01*
X0275807Y0254770D01*
X0279159Y0253382D01*
X0282786Y0253382D01*
X0286137Y0254770D01*
X0287602Y0256235D01*
X0287602Y0255174D01*
X0288495Y0253019D01*
X0285384Y0249908D01*
X0270647Y0249908D01*
X0271117Y0250269D01*
X0271944Y0251095D01*
X0272655Y0252023D01*
X0273240Y0253035D01*
X0273687Y0254115D01*
X0273990Y0255245D01*
X0274114Y0256188D01*
X0266024Y0256188D01*
X0266024Y0257788D01*
X0266024Y0257073D02*
X0273505Y0257073D01*
X0274020Y0255474D02*
X0275103Y0255474D01*
X0273588Y0253876D02*
X0277967Y0253876D01*
X0272802Y0252277D02*
X0287753Y0252277D01*
X0288140Y0253876D02*
X0283978Y0253876D01*
X0286842Y0255474D02*
X0287602Y0255474D01*
X0286155Y0250679D02*
X0271527Y0250679D01*
X0275059Y0244285D02*
X0213049Y0244285D01*
X0211450Y0242686D02*
X0273460Y0242686D01*
X0272671Y0241088D02*
X0209852Y0241088D01*
X0208253Y0239489D02*
X0272009Y0239489D01*
X0272846Y0233095D02*
X0251359Y0233095D01*
X0249761Y0231496D02*
X0273884Y0231496D01*
X0275483Y0229898D02*
X0248162Y0229898D01*
X0246564Y0228299D02*
X0278882Y0228299D01*
X0279074Y0226701D02*
X0267123Y0226701D01*
X0263326Y0226701D02*
X0244965Y0226701D01*
X0243878Y0225102D02*
X0259814Y0225102D01*
X0258215Y0223504D02*
X0243585Y0223504D01*
X0242432Y0221905D02*
X0257131Y0221905D01*
X0256469Y0220307D02*
X0189071Y0220307D01*
X0190670Y0221905D02*
X0237324Y0221905D01*
X0236171Y0223504D02*
X0192268Y0223504D01*
X0193867Y0225102D02*
X0214364Y0225102D01*
X0214598Y0224868D02*
X0216780Y0223965D01*
X0219142Y0223965D01*
X0221324Y0224868D01*
X0222994Y0226539D01*
X0223898Y0228721D01*
X0223898Y0231083D01*
X0222994Y0233265D01*
X0221324Y0234935D01*
X0219142Y0235839D01*
X0216780Y0235839D01*
X0214598Y0234935D01*
X0212927Y0233265D01*
X0212024Y0231083D01*
X0212024Y0228721D01*
X0212927Y0226539D01*
X0214598Y0224868D01*
X0212860Y0226701D02*
X0195465Y0226701D01*
X0197064Y0228299D02*
X0212198Y0228299D01*
X0212024Y0229898D02*
X0198662Y0229898D01*
X0200261Y0231496D02*
X0212195Y0231496D01*
X0212857Y0233095D02*
X0201859Y0233095D01*
X0203458Y0234694D02*
X0214356Y0234694D01*
X0221565Y0234694D02*
X0246169Y0234694D01*
X0247768Y0236292D02*
X0205056Y0236292D01*
X0206655Y0237891D02*
X0249366Y0237891D01*
X0244571Y0233095D02*
X0223064Y0233095D01*
X0223726Y0231496D02*
X0242972Y0231496D01*
X0241374Y0229898D02*
X0223898Y0229898D01*
X0223723Y0228299D02*
X0237513Y0228299D01*
X0236250Y0226701D02*
X0223061Y0226701D01*
X0221558Y0225102D02*
X0235878Y0225102D01*
X0256106Y0218708D02*
X0187473Y0218708D01*
X0185874Y0217110D02*
X0256106Y0217110D01*
X0256228Y0215511D02*
X0184276Y0215511D01*
X0182677Y0213913D02*
X0256890Y0213913D01*
X0257633Y0212314D02*
X0181079Y0212314D01*
X0179480Y0210716D02*
X0259232Y0210716D01*
X0261920Y0209117D02*
X0177882Y0209117D01*
X0176283Y0207519D02*
X0341878Y0207519D01*
X0341878Y0209117D02*
X0300025Y0209117D01*
X0302713Y0210716D02*
X0341878Y0210716D01*
X0341878Y0212314D02*
X0304312Y0212314D01*
X0305055Y0213913D02*
X0341878Y0213913D01*
X0341878Y0215511D02*
X0305717Y0215511D01*
X0307374Y0217110D02*
X0341878Y0217110D01*
X0341878Y0218708D02*
X0308278Y0218708D01*
X0308278Y0220307D02*
X0341878Y0220307D01*
X0341878Y0221905D02*
X0308278Y0221905D01*
X0308278Y0223504D02*
X0341878Y0223504D01*
X0341878Y0225102D02*
X0308278Y0225102D01*
X0308278Y0226701D02*
X0341878Y0226701D01*
X0341878Y0228299D02*
X0308278Y0228299D01*
X0308278Y0229898D02*
X0341878Y0229898D01*
X0341878Y0231496D02*
X0308278Y0231496D01*
X0308278Y0233095D02*
X0341878Y0233095D01*
X0341878Y0234694D02*
X0308278Y0234694D01*
X0308278Y0236292D02*
X0341878Y0236292D01*
X0341878Y0237891D02*
X0308278Y0237891D01*
X0308278Y0239489D02*
X0341878Y0239489D01*
X0341878Y0241088D02*
X0308278Y0241088D01*
X0308278Y0242686D02*
X0341878Y0242686D01*
X0341878Y0244285D02*
X0308278Y0244285D01*
X0308278Y0245883D02*
X0341878Y0245883D01*
X0341878Y0247482D02*
X0308278Y0247482D01*
X0308278Y0249080D02*
X0341878Y0249080D01*
X0341878Y0250679D02*
X0308278Y0250679D01*
X0308278Y0252277D02*
X0341878Y0252277D01*
X0341878Y0253876D02*
X0308278Y0253876D01*
X0308278Y0255474D02*
X0341878Y0255474D01*
X0341878Y0257073D02*
X0308278Y0257073D01*
X0308278Y0258671D02*
X0331863Y0258671D01*
X0329399Y0260270D02*
X0308278Y0260270D01*
X0308119Y0261868D02*
X0327947Y0261868D01*
X0327285Y0263467D02*
X0306813Y0263467D01*
X0305215Y0265065D02*
X0326787Y0265065D01*
X0326787Y0266664D02*
X0303616Y0266664D01*
X0302018Y0268262D02*
X0326909Y0268262D01*
X0327571Y0269861D02*
X0300419Y0269861D01*
X0298821Y0271459D02*
X0328490Y0271459D01*
X0330089Y0273058D02*
X0297222Y0273058D01*
X0273840Y0268262D02*
X0183026Y0268262D01*
X0181428Y0266664D02*
X0272828Y0266664D01*
X0272166Y0265065D02*
X0269029Y0265065D01*
X0271358Y0263467D02*
X0271854Y0263467D01*
X0266024Y0263467D02*
X0264424Y0263467D01*
X0264424Y0265065D02*
X0266024Y0265065D01*
X0266024Y0261868D02*
X0264424Y0261868D01*
X0264424Y0260270D02*
X0266024Y0260270D01*
X0261420Y0265065D02*
X0179829Y0265065D01*
X0178231Y0263467D02*
X0259091Y0263467D01*
X0257744Y0261868D02*
X0176632Y0261868D01*
X0177427Y0260270D02*
X0256931Y0260270D01*
X0256451Y0258671D02*
X0177942Y0258671D01*
X0177837Y0269861D02*
X0177596Y0269861D01*
X0176672Y0271459D02*
X0179435Y0271459D01*
X0181034Y0273058D02*
X0174328Y0273058D01*
X0204662Y0242686D02*
X0110699Y0242686D01*
X0107930Y0241088D02*
X0203064Y0241088D01*
X0201465Y0239489D02*
X0102713Y0239489D01*
X0173378Y0204322D02*
X0341878Y0204322D01*
X0341878Y0205920D02*
X0174684Y0205920D01*
X0173175Y0202723D02*
X0341878Y0202723D01*
X0341878Y0201125D02*
X0238097Y0201125D01*
X0239954Y0199526D02*
X0341878Y0199526D01*
X0341878Y0197928D02*
X0241552Y0197928D01*
X0243151Y0196329D02*
X0341878Y0196329D01*
X0341878Y0194731D02*
X0244749Y0194731D01*
X0246348Y0193132D02*
X0341878Y0193132D01*
X0341878Y0191534D02*
X0247946Y0191534D01*
X0249545Y0189935D02*
X0341878Y0189935D01*
X0341878Y0188337D02*
X0251143Y0188337D01*
X0252742Y0186738D02*
X0267338Y0186738D01*
X0265858Y0185140D02*
X0254340Y0185140D01*
X0273702Y0186738D02*
X0341878Y0186738D01*
X0341878Y0185140D02*
X0275182Y0185140D01*
X0275844Y0183541D02*
X0341878Y0183541D01*
X0341878Y0181943D02*
X0275920Y0181943D01*
X0275561Y0180344D02*
X0341878Y0180344D01*
X0341878Y0178746D02*
X0274619Y0178746D01*
X0277668Y0209117D02*
X0268528Y0209117D01*
X0271217Y0210716D02*
X0274980Y0210716D01*
X0273381Y0212314D02*
X0272816Y0212314D01*
X0284276Y0209117D02*
X0293416Y0209117D01*
X0290728Y0210716D02*
X0286965Y0210716D01*
X0288564Y0212314D02*
X0289129Y0212314D01*
X0289711Y0223504D02*
X0287982Y0223504D01*
X0286383Y0225102D02*
X0291310Y0225102D01*
X0294822Y0226701D02*
X0282871Y0226701D01*
X0283062Y0228299D02*
X0303478Y0228299D01*
X0303478Y0226701D02*
X0298619Y0226701D01*
X0302131Y0225102D02*
X0303478Y0225102D01*
X0303478Y0229898D02*
X0286462Y0229898D01*
X0288061Y0231496D02*
X0303478Y0231496D01*
X0303478Y0233095D02*
X0289099Y0233095D01*
X0289761Y0234694D02*
X0303478Y0234694D01*
X0303478Y0236292D02*
X0290091Y0236292D01*
X0290091Y0237891D02*
X0303478Y0237891D01*
X0303478Y0239489D02*
X0289936Y0239489D01*
X0289274Y0241088D02*
X0303478Y0241088D01*
X0303478Y0242686D02*
X0288484Y0242686D01*
X0286886Y0244285D02*
X0303478Y0244285D01*
X0303478Y0245883D02*
X0288147Y0245883D01*
X0289746Y0247482D02*
X0303478Y0247482D01*
X0303478Y0249080D02*
X0301455Y0249080D01*
X0303306Y0250679D02*
X0303478Y0250679D01*
X0291985Y0249080D02*
X0291344Y0249080D01*
X0275562Y0225102D02*
X0270635Y0225102D01*
X0272234Y0223504D02*
X0273963Y0223504D01*
X0338310Y0258671D02*
X0341878Y0258671D01*
X0341878Y0260270D02*
X0340774Y0260270D01*
X0341683Y0271459D02*
X0341878Y0271459D01*
X0341878Y0273058D02*
X0340085Y0273058D01*
X0341037Y0012500D02*
X0341878Y0012500D01*
X0341878Y0010902D02*
X0338943Y0010902D01*
D24*
X0214024Y0079311D02*
X0198575Y0079311D01*
X0198378Y0079508D01*
X0198378Y0093008D01*
X0198378Y0079508D02*
X0198378Y0058508D01*
X0198378Y0025508D01*
X0198378Y0009445D01*
X0199378Y0008445D01*
X0188378Y0025508D02*
X0187378Y0025508D01*
X0176878Y0036008D01*
X0176878Y0040508D01*
X0107035Y0010000D02*
X0030386Y0010000D01*
X0016378Y0024008D01*
X0016378Y0037669D01*
X0034890Y0056181D01*
D25*
X0176878Y0040508D03*
M02*
