G75*
%MOIN*%
%OFA0B0*%
%FSLAX25Y25*%
%IPPOS*%
%LPD*%
%AMOC8*
5,1,8,0,0,1.08239X$1,22.5*
%
%ADD10C,0.13398*%
%ADD11C,0.15036*%
%ADD12R,0.07600X0.07600*%
%ADD13C,0.07600*%
%ADD14C,0.07600*%
%ADD15C,0.13800*%
%ADD16C,0.07800*%
%ADD17OC8,0.06350*%
%ADD18C,0.06350*%
%ADD19C,0.13595*%
%ADD20C,0.09400*%
%ADD21R,0.06350X0.06350*%
%ADD22C,0.08674*%
%ADD23OC8,0.07400*%
%ADD24C,0.05162*%
D10*
X0013657Y0013787D03*
X0018157Y0266319D03*
X0335087Y0266319D03*
X0335087Y0018287D03*
D11*
X0296720Y0217618D03*
X0280972Y0217618D03*
X0265224Y0217618D03*
X0280972Y0237303D03*
X0265224Y0256988D03*
X0280972Y0262500D03*
X0296720Y0256988D03*
D12*
X0240520Y0182283D03*
X0240520Y0139429D03*
D13*
X0240520Y0129429D03*
X0240520Y0119429D03*
X0240520Y0109429D03*
X0270520Y0109429D03*
X0270520Y0119429D03*
X0270520Y0129429D03*
X0270520Y0139429D03*
X0270520Y0152283D03*
X0270520Y0162283D03*
X0270520Y0172283D03*
X0270520Y0182283D03*
X0240520Y0172283D03*
X0240520Y0162283D03*
X0240520Y0152283D03*
D14*
X0172542Y0247953D02*
X0165742Y0247953D01*
X0165742Y0257953D02*
X0172542Y0257953D01*
X0172542Y0267953D02*
X0165742Y0267953D01*
D15*
X0100142Y0257953D03*
D16*
X0097181Y0096634D03*
X0097437Y0088209D03*
X0087437Y0088209D03*
X0087181Y0096634D03*
X0077181Y0096634D03*
X0077437Y0088209D03*
X0067437Y0088209D03*
X0067181Y0096634D03*
X0057181Y0096634D03*
X0057437Y0088209D03*
X0047437Y0088209D03*
X0047181Y0096634D03*
X0037181Y0096634D03*
X0037437Y0088209D03*
X0027437Y0088209D03*
X0027181Y0096634D03*
X0107181Y0096634D03*
X0107437Y0088209D03*
X0117437Y0088209D03*
X0117181Y0096634D03*
X0127181Y0096634D03*
X0127437Y0088209D03*
X0137437Y0088209D03*
X0137181Y0096634D03*
X0147181Y0096634D03*
X0157181Y0096634D03*
X0157437Y0088209D03*
X0167437Y0088209D03*
X0167181Y0096634D03*
X0147437Y0088209D03*
X0147437Y0028209D03*
X0147575Y0019724D03*
X0157575Y0019724D03*
X0167575Y0019724D03*
X0167437Y0028209D03*
X0157437Y0028209D03*
X0137437Y0028209D03*
X0137575Y0019724D03*
X0127575Y0019724D03*
X0127437Y0028209D03*
X0117437Y0028209D03*
X0117575Y0019724D03*
X0107575Y0019724D03*
X0107437Y0028209D03*
X0097437Y0028209D03*
X0087437Y0028209D03*
X0087575Y0019724D03*
X0097575Y0019724D03*
X0077575Y0019724D03*
X0077437Y0028209D03*
X0067437Y0028209D03*
X0067575Y0019724D03*
X0057575Y0019724D03*
X0057437Y0028209D03*
X0047437Y0028209D03*
X0047575Y0019724D03*
X0037575Y0019724D03*
X0037437Y0028209D03*
X0027437Y0028209D03*
X0027575Y0019724D03*
D17*
X0310972Y0021004D03*
D18*
X0310972Y0031004D03*
X0310972Y0041004D03*
X0310972Y0051004D03*
X0298925Y0077421D03*
X0288925Y0077421D03*
X0278925Y0077421D03*
X0268925Y0077421D03*
X0302819Y0090813D03*
X0312819Y0090813D03*
X0322819Y0090813D03*
X0332819Y0090813D03*
X0322819Y0100813D03*
X0312819Y0100813D03*
X0229772Y0079311D03*
X0221898Y0079311D03*
X0214024Y0079311D03*
X0147035Y0010000D03*
X0137035Y0010000D03*
X0127035Y0010000D03*
X0117035Y0010000D03*
X0107035Y0010000D03*
D19*
X0214516Y0036004D03*
D20*
X0058512Y0051881D02*
X0058512Y0060481D01*
X0051001Y0075079D02*
X0042401Y0075079D01*
X0034890Y0060481D02*
X0034890Y0051881D01*
D21*
X0237646Y0079311D03*
X0258925Y0077421D03*
X0302819Y0100813D03*
X0332819Y0100813D03*
D22*
X0217961Y0229902D03*
X0040795Y0120846D03*
D23*
X0188378Y0093008D03*
X0198378Y0093008D03*
X0198378Y0058508D03*
X0188378Y0058508D03*
X0188378Y0025508D03*
X0198378Y0025508D03*
D24*
X0176878Y0040508D03*
M02*
