G75*
%MOIN*%
%OFA0B0*%
%FSLAX25Y25*%
%IPPOS*%
%LPD*%
%AMOC8*
5,1,8,0,0,1.08239X$1,22.5*
%
%ADD10C,0.01200*%
%ADD11C,0.00700*%
%ADD12C,0.00200*%
%ADD13C,0.00300*%
%ADD14C,0.00500*%
%ADD15C,0.00400*%
%ADD16C,0.00600*%
%ADD17C,0.00100*%
%ADD18C,0.01000*%
%ADD19C,0.00800*%
D10*
X0006588Y0107667D02*
X0011192Y0112271D01*
X0006588Y0116875D01*
X0020400Y0116875D01*
X0020400Y0121479D02*
X0011192Y0121479D01*
X0006588Y0126083D01*
X0011192Y0130687D01*
X0020400Y0130687D01*
X0020400Y0135291D02*
X0006588Y0135291D01*
X0006588Y0142196D01*
X0008890Y0144498D01*
X0013494Y0144498D01*
X0015796Y0142196D01*
X0015796Y0135291D01*
X0013494Y0130687D02*
X0013494Y0121479D01*
X0020400Y0107667D02*
X0006588Y0107667D01*
X0008890Y0149102D02*
X0006588Y0151404D01*
X0006588Y0156008D01*
X0008890Y0158310D01*
X0013494Y0156008D02*
X0015796Y0158310D01*
X0018098Y0158310D01*
X0020400Y0156008D01*
X0020400Y0151404D01*
X0018098Y0149102D01*
X0013494Y0151404D02*
X0013494Y0156008D01*
X0013494Y0151404D02*
X0011192Y0149102D01*
X0008890Y0149102D01*
X0011192Y0176726D02*
X0020400Y0181330D01*
X0011192Y0185934D01*
X0013494Y0190538D02*
X0013494Y0199746D01*
X0018098Y0204350D02*
X0018098Y0206651D01*
X0020400Y0206651D01*
X0020400Y0204350D01*
X0018098Y0204350D01*
X0020400Y0197444D02*
X0006588Y0197444D01*
X0013494Y0190538D01*
X0008890Y0211255D02*
X0006588Y0213557D01*
X0006588Y0218161D01*
X0008890Y0220463D01*
X0018098Y0211255D01*
X0020400Y0213557D01*
X0020400Y0218161D01*
X0018098Y0220463D01*
X0008890Y0220463D01*
X0008890Y0211255D02*
X0018098Y0211255D01*
D11*
X0332759Y0216823D02*
X0332759Y0219458D01*
X0332759Y0218141D02*
X0340666Y0218141D01*
X0340666Y0219458D02*
X0340666Y0216823D01*
X0336712Y0214175D02*
X0336712Y0208904D01*
X0338030Y0206256D02*
X0339348Y0206256D01*
X0340666Y0204939D01*
X0340666Y0202303D01*
X0339348Y0200985D01*
X0336712Y0202303D02*
X0336712Y0204939D01*
X0338030Y0206256D01*
X0334077Y0206256D02*
X0332759Y0204939D01*
X0332759Y0202303D01*
X0334077Y0200985D01*
X0335395Y0200985D01*
X0336712Y0202303D01*
X0336712Y0198338D02*
X0336712Y0193067D01*
X0335395Y0193067D02*
X0332759Y0195702D01*
X0335395Y0198338D01*
X0340666Y0198338D01*
X0340666Y0193067D02*
X0335395Y0193067D01*
X0332759Y0222102D02*
X0332759Y0224738D01*
X0332759Y0223420D02*
X0340666Y0223420D01*
X0340666Y0222102D02*
X0340666Y0224738D01*
X0339348Y0227381D02*
X0340666Y0228699D01*
X0340666Y0231335D01*
X0339348Y0232652D01*
X0338030Y0232652D01*
X0336712Y0231335D01*
X0336712Y0228699D01*
X0335395Y0227381D01*
X0334077Y0227381D01*
X0332759Y0228699D01*
X0332759Y0231335D01*
X0334077Y0232652D01*
X0336712Y0235300D02*
X0336712Y0240571D01*
X0332759Y0243219D02*
X0340666Y0248490D01*
X0332759Y0248490D01*
X0332759Y0251137D02*
X0332759Y0255091D01*
X0334077Y0256409D01*
X0336712Y0256409D01*
X0338030Y0255091D01*
X0338030Y0251137D01*
X0340666Y0251137D02*
X0332759Y0251137D01*
X0338030Y0253773D02*
X0340666Y0256409D01*
X0340666Y0259056D02*
X0340666Y0264327D01*
X0340666Y0259056D02*
X0332759Y0259056D01*
X0332759Y0243219D02*
X0340666Y0243219D01*
D12*
X0241410Y0061278D02*
X0242144Y0060544D01*
X0242144Y0059810D01*
X0241410Y0059076D01*
X0240668Y0059443D02*
X0240668Y0059810D01*
X0240301Y0060177D01*
X0239200Y0060177D01*
X0239200Y0059443D01*
X0239567Y0059076D01*
X0240301Y0059076D01*
X0240668Y0059443D01*
X0239934Y0060911D02*
X0239200Y0060177D01*
X0239934Y0060911D02*
X0240668Y0061278D01*
X0238458Y0060911D02*
X0238091Y0061278D01*
X0236990Y0061278D01*
X0236990Y0059076D01*
X0238091Y0059076D01*
X0238458Y0059443D01*
X0238458Y0060911D01*
X0234038Y0060911D02*
X0232571Y0059443D01*
X0232571Y0059076D01*
X0231829Y0059443D02*
X0231829Y0060911D01*
X0231462Y0061278D01*
X0230361Y0061278D01*
X0230361Y0059076D01*
X0231462Y0059076D01*
X0231829Y0059443D01*
X0232571Y0061278D02*
X0234038Y0061278D01*
X0234038Y0060911D01*
X0229621Y0061278D02*
X0228887Y0060544D01*
X0228887Y0059810D01*
X0229621Y0059076D01*
D13*
X0228482Y0063568D02*
X0228482Y0065503D01*
X0228482Y0064535D02*
X0231385Y0064535D01*
X0231385Y0066515D02*
X0229450Y0068449D01*
X0229450Y0066515D02*
X0231385Y0068449D01*
X0236950Y0068449D02*
X0238885Y0066515D01*
X0238885Y0065503D02*
X0237917Y0064535D01*
X0237917Y0065019D02*
X0237917Y0063568D01*
X0238885Y0063568D02*
X0235982Y0063568D01*
X0235982Y0065019D01*
X0236466Y0065503D01*
X0237433Y0065503D01*
X0237917Y0065019D01*
X0236950Y0066515D02*
X0238885Y0068449D01*
X0223885Y0067966D02*
X0223885Y0066998D01*
X0223401Y0066515D01*
X0221466Y0066515D01*
X0220982Y0066998D01*
X0220982Y0067966D01*
X0221466Y0068449D01*
X0223401Y0068449D02*
X0223885Y0067966D01*
X0223401Y0065503D02*
X0223885Y0065019D01*
X0223885Y0064052D01*
X0223401Y0063568D01*
X0221466Y0063568D01*
X0220982Y0064052D01*
X0220982Y0065019D01*
X0221466Y0065503D01*
X0220982Y0062556D02*
X0222917Y0062556D01*
X0223885Y0061589D01*
X0222917Y0060621D01*
X0220982Y0060621D01*
X0216385Y0061105D02*
X0216385Y0062073D01*
X0215901Y0062556D01*
X0214933Y0062556D01*
X0214933Y0061589D01*
X0213966Y0062556D02*
X0213482Y0062073D01*
X0213482Y0061105D01*
X0213966Y0060621D01*
X0215901Y0060621D01*
X0216385Y0061105D01*
X0216385Y0063568D02*
X0213482Y0063568D01*
X0216385Y0065503D01*
X0213482Y0065503D01*
X0213482Y0066515D02*
X0213482Y0067966D01*
X0213966Y0068449D01*
X0215901Y0068449D01*
X0216385Y0067966D01*
X0216385Y0066515D01*
X0213482Y0066515D01*
X0101231Y0037138D02*
X0098762Y0037138D01*
X0097548Y0037138D02*
X0097548Y0039607D01*
X0096314Y0040841D01*
X0095079Y0039607D01*
X0095079Y0037138D01*
X0095079Y0038990D02*
X0097548Y0038990D01*
X0098762Y0039607D02*
X0099997Y0040841D01*
X0099997Y0037138D01*
D14*
X0005137Y0046509D02*
X0005137Y0070009D01*
X0046137Y0070009D01*
X0046137Y0046509D01*
X0005137Y0046509D01*
X0030953Y0109823D02*
X0227803Y0109823D01*
X0227803Y0239744D01*
X0109693Y0239744D01*
X0109693Y0279114D01*
X0030953Y0279114D01*
X0030953Y0109823D01*
X0204524Y0108322D02*
X0204524Y0106070D01*
X0209028Y0106070D01*
X0209028Y0108322D01*
X0208277Y0109072D01*
X0205275Y0109072D01*
X0204524Y0108322D01*
X0204524Y0104468D02*
X0204524Y0101466D01*
X0209028Y0101466D01*
X0209028Y0104468D01*
X0206776Y0102967D02*
X0206776Y0101466D01*
X0209028Y0099864D02*
X0209028Y0096862D01*
X0204524Y0096862D01*
X0205275Y0095260D02*
X0204524Y0094510D01*
X0204524Y0093009D01*
X0205275Y0092258D01*
X0206025Y0092258D01*
X0206776Y0093009D01*
X0206776Y0094510D01*
X0207527Y0095260D01*
X0208277Y0095260D01*
X0209028Y0094510D01*
X0209028Y0093009D01*
X0208277Y0092258D01*
X0217669Y0094065D02*
X0217669Y0090312D01*
X0218420Y0089561D01*
X0219921Y0089561D01*
X0220671Y0090312D01*
X0220671Y0094065D01*
X0222273Y0092564D02*
X0223774Y0094065D01*
X0225275Y0092564D01*
X0225275Y0089561D01*
X0226877Y0089561D02*
X0226877Y0094065D01*
X0229129Y0094065D01*
X0229879Y0093314D01*
X0229879Y0091813D01*
X0229129Y0091062D01*
X0226877Y0091062D01*
X0228378Y0091062D02*
X0229879Y0089561D01*
X0232982Y0089561D02*
X0232982Y0094065D01*
X0231481Y0094065D02*
X0234483Y0094065D01*
X0225275Y0091813D02*
X0222273Y0091813D01*
X0222273Y0092564D02*
X0222273Y0089561D01*
X0245520Y0083248D02*
X0245520Y0075374D01*
X0253925Y0072421D02*
X0253925Y0082421D01*
X0303925Y0082421D01*
X0303925Y0072421D01*
X0253925Y0072421D01*
X0222390Y0065728D02*
X0204280Y0056673D01*
X0204280Y0015335D01*
X0222390Y0006280D01*
X0222390Y0065728D01*
X0301130Y0065728D01*
X0301130Y0006280D01*
X0222390Y0006280D01*
X0209028Y0008258D02*
X0209028Y0010510D01*
X0208277Y0011260D01*
X0205275Y0011260D01*
X0204524Y0010510D01*
X0204524Y0008258D01*
X0209028Y0008258D01*
X0209028Y0012862D02*
X0204524Y0012862D01*
X0209028Y0012862D02*
X0209028Y0015864D01*
X0209028Y0017466D02*
X0204524Y0017466D01*
X0204524Y0020468D01*
X0204524Y0022070D02*
X0204524Y0024322D01*
X0205275Y0025072D01*
X0208277Y0025072D01*
X0209028Y0024322D01*
X0209028Y0022070D01*
X0204524Y0022070D01*
X0206776Y0018967D02*
X0206776Y0017466D01*
X0209028Y0017466D02*
X0209028Y0020468D01*
X0209028Y0050258D02*
X0204524Y0050258D01*
X0204524Y0053260D02*
X0209028Y0053260D01*
X0207527Y0051759D01*
X0209028Y0050258D01*
X0209028Y0054862D02*
X0204524Y0054862D01*
X0209028Y0054862D02*
X0209028Y0057864D01*
X0209028Y0059466D02*
X0204524Y0059466D01*
X0204524Y0062468D01*
X0204524Y0064070D02*
X0204524Y0066322D01*
X0205275Y0067072D01*
X0208277Y0067072D01*
X0209028Y0066322D01*
X0209028Y0064070D01*
X0204524Y0064070D01*
X0206776Y0060967D02*
X0206776Y0059466D01*
X0209028Y0059466D02*
X0209028Y0062468D01*
X0290319Y0084563D02*
X0346569Y0084563D01*
X0346569Y0152063D01*
X0290319Y0152063D01*
X0290319Y0084563D01*
X0300972Y0051004D02*
X0305972Y0051004D01*
X0305972Y0041004D02*
X0300972Y0041004D01*
X0300972Y0031004D02*
X0305972Y0031004D01*
X0305972Y0021004D02*
X0300972Y0021004D01*
X0290319Y0152063D02*
X0290319Y0182063D01*
X0346569Y0182063D01*
X0346569Y0152063D01*
X0241602Y0237303D02*
X0241614Y0238269D01*
X0241649Y0239235D01*
X0241709Y0240199D01*
X0241792Y0241162D01*
X0241898Y0242122D01*
X0242028Y0243080D01*
X0242182Y0244034D01*
X0242358Y0244984D01*
X0242559Y0245929D01*
X0242782Y0246869D01*
X0243028Y0247803D01*
X0243297Y0248732D01*
X0243589Y0249653D01*
X0243903Y0250566D01*
X0244240Y0251472D01*
X0244599Y0252369D01*
X0244980Y0253257D01*
X0245382Y0254136D01*
X0245806Y0255004D01*
X0246251Y0255862D01*
X0246717Y0256708D01*
X0247203Y0257543D01*
X0247710Y0258366D01*
X0248237Y0259176D01*
X0248784Y0259973D01*
X0249350Y0260756D01*
X0249935Y0261525D01*
X0250539Y0262279D01*
X0251161Y0263018D01*
X0251801Y0263742D01*
X0252458Y0264450D01*
X0253133Y0265142D01*
X0253825Y0265817D01*
X0254533Y0266474D01*
X0255257Y0267114D01*
X0255996Y0267736D01*
X0256750Y0268340D01*
X0257519Y0268925D01*
X0258302Y0269491D01*
X0259099Y0270038D01*
X0259909Y0270565D01*
X0260732Y0271072D01*
X0261567Y0271558D01*
X0262413Y0272024D01*
X0263271Y0272469D01*
X0264139Y0272893D01*
X0265018Y0273295D01*
X0265906Y0273676D01*
X0266803Y0274035D01*
X0267709Y0274372D01*
X0268622Y0274686D01*
X0269543Y0274978D01*
X0270472Y0275247D01*
X0271406Y0275493D01*
X0272346Y0275716D01*
X0273291Y0275917D01*
X0274241Y0276093D01*
X0275195Y0276247D01*
X0276153Y0276377D01*
X0277113Y0276483D01*
X0278076Y0276566D01*
X0279040Y0276626D01*
X0280006Y0276661D01*
X0280972Y0276673D01*
X0281938Y0276661D01*
X0282904Y0276626D01*
X0283868Y0276566D01*
X0284831Y0276483D01*
X0285791Y0276377D01*
X0286749Y0276247D01*
X0287703Y0276093D01*
X0288653Y0275917D01*
X0289598Y0275716D01*
X0290538Y0275493D01*
X0291472Y0275247D01*
X0292401Y0274978D01*
X0293322Y0274686D01*
X0294235Y0274372D01*
X0295141Y0274035D01*
X0296038Y0273676D01*
X0296926Y0273295D01*
X0297805Y0272893D01*
X0298673Y0272469D01*
X0299531Y0272024D01*
X0300377Y0271558D01*
X0301212Y0271072D01*
X0302035Y0270565D01*
X0302845Y0270038D01*
X0303642Y0269491D01*
X0304425Y0268925D01*
X0305194Y0268340D01*
X0305948Y0267736D01*
X0306687Y0267114D01*
X0307411Y0266474D01*
X0308119Y0265817D01*
X0308811Y0265142D01*
X0309486Y0264450D01*
X0310143Y0263742D01*
X0310783Y0263018D01*
X0311405Y0262279D01*
X0312009Y0261525D01*
X0312594Y0260756D01*
X0313160Y0259973D01*
X0313707Y0259176D01*
X0314234Y0258366D01*
X0314741Y0257543D01*
X0315227Y0256708D01*
X0315693Y0255862D01*
X0316138Y0255004D01*
X0316562Y0254136D01*
X0316964Y0253257D01*
X0317345Y0252369D01*
X0317704Y0251472D01*
X0318041Y0250566D01*
X0318355Y0249653D01*
X0318647Y0248732D01*
X0318916Y0247803D01*
X0319162Y0246869D01*
X0319385Y0245929D01*
X0319586Y0244984D01*
X0319762Y0244034D01*
X0319916Y0243080D01*
X0320046Y0242122D01*
X0320152Y0241162D01*
X0320235Y0240199D01*
X0320295Y0239235D01*
X0320330Y0238269D01*
X0320342Y0237303D01*
X0320330Y0236337D01*
X0320295Y0235371D01*
X0320235Y0234407D01*
X0320152Y0233444D01*
X0320046Y0232484D01*
X0319916Y0231526D01*
X0319762Y0230572D01*
X0319586Y0229622D01*
X0319385Y0228677D01*
X0319162Y0227737D01*
X0318916Y0226803D01*
X0318647Y0225874D01*
X0318355Y0224953D01*
X0318041Y0224040D01*
X0317704Y0223134D01*
X0317345Y0222237D01*
X0316964Y0221349D01*
X0316562Y0220470D01*
X0316138Y0219602D01*
X0315693Y0218744D01*
X0315227Y0217898D01*
X0314741Y0217063D01*
X0314234Y0216240D01*
X0313707Y0215430D01*
X0313160Y0214633D01*
X0312594Y0213850D01*
X0312009Y0213081D01*
X0311405Y0212327D01*
X0310783Y0211588D01*
X0310143Y0210864D01*
X0309486Y0210156D01*
X0308811Y0209464D01*
X0308119Y0208789D01*
X0307411Y0208132D01*
X0306687Y0207492D01*
X0305948Y0206870D01*
X0305194Y0206266D01*
X0304425Y0205681D01*
X0303642Y0205115D01*
X0302845Y0204568D01*
X0302035Y0204041D01*
X0301212Y0203534D01*
X0300377Y0203048D01*
X0299531Y0202582D01*
X0298673Y0202137D01*
X0297805Y0201713D01*
X0296926Y0201311D01*
X0296038Y0200930D01*
X0295141Y0200571D01*
X0294235Y0200234D01*
X0293322Y0199920D01*
X0292401Y0199628D01*
X0291472Y0199359D01*
X0290538Y0199113D01*
X0289598Y0198890D01*
X0288653Y0198689D01*
X0287703Y0198513D01*
X0286749Y0198359D01*
X0285791Y0198229D01*
X0284831Y0198123D01*
X0283868Y0198040D01*
X0282904Y0197980D01*
X0281938Y0197945D01*
X0280972Y0197933D01*
X0280006Y0197945D01*
X0279040Y0197980D01*
X0278076Y0198040D01*
X0277113Y0198123D01*
X0276153Y0198229D01*
X0275195Y0198359D01*
X0274241Y0198513D01*
X0273291Y0198689D01*
X0272346Y0198890D01*
X0271406Y0199113D01*
X0270472Y0199359D01*
X0269543Y0199628D01*
X0268622Y0199920D01*
X0267709Y0200234D01*
X0266803Y0200571D01*
X0265906Y0200930D01*
X0265018Y0201311D01*
X0264139Y0201713D01*
X0263271Y0202137D01*
X0262413Y0202582D01*
X0261567Y0203048D01*
X0260732Y0203534D01*
X0259909Y0204041D01*
X0259099Y0204568D01*
X0258302Y0205115D01*
X0257519Y0205681D01*
X0256750Y0206266D01*
X0255996Y0206870D01*
X0255257Y0207492D01*
X0254533Y0208132D01*
X0253825Y0208789D01*
X0253133Y0209464D01*
X0252458Y0210156D01*
X0251801Y0210864D01*
X0251161Y0211588D01*
X0250539Y0212327D01*
X0249935Y0213081D01*
X0249350Y0213850D01*
X0248784Y0214633D01*
X0248237Y0215430D01*
X0247710Y0216240D01*
X0247203Y0217063D01*
X0246717Y0217898D01*
X0246251Y0218744D01*
X0245806Y0219602D01*
X0245382Y0220470D01*
X0244980Y0221349D01*
X0244599Y0222237D01*
X0244240Y0223134D01*
X0243903Y0224040D01*
X0243589Y0224953D01*
X0243297Y0225874D01*
X0243028Y0226803D01*
X0242782Y0227737D01*
X0242559Y0228677D01*
X0242358Y0229622D01*
X0242182Y0230572D01*
X0242028Y0231526D01*
X0241898Y0232484D01*
X0241792Y0233444D01*
X0241709Y0234407D01*
X0241649Y0235371D01*
X0241614Y0236337D01*
X0241602Y0237303D01*
D15*
X0242149Y0267366D02*
X0239079Y0267366D01*
X0237545Y0268900D02*
X0236778Y0268133D01*
X0235243Y0268133D01*
X0234476Y0268900D01*
X0234476Y0271970D01*
X0235243Y0272737D01*
X0236778Y0272737D01*
X0237545Y0271970D01*
X0232941Y0271970D02*
X0232174Y0272737D01*
X0229872Y0272737D01*
X0229872Y0268133D01*
X0229872Y0269668D02*
X0232174Y0269668D01*
X0232941Y0270435D01*
X0232941Y0271970D01*
X0231406Y0269668D02*
X0232941Y0268133D01*
X0228337Y0268133D02*
X0226802Y0268133D01*
X0227570Y0268133D02*
X0227570Y0272737D01*
X0228337Y0272737D02*
X0226802Y0272737D01*
X0243683Y0271202D02*
X0243683Y0268133D01*
X0243683Y0270435D02*
X0246753Y0270435D01*
X0246753Y0271202D02*
X0246753Y0268133D01*
X0248287Y0268133D02*
X0251357Y0268133D01*
X0249822Y0268133D02*
X0249822Y0272737D01*
X0248287Y0271202D01*
X0246753Y0271202D02*
X0245218Y0272737D01*
X0243683Y0271202D01*
X0290519Y0190804D02*
X0290519Y0186967D01*
X0291286Y0186200D01*
X0292821Y0186200D01*
X0293588Y0186967D01*
X0293588Y0190804D01*
X0295123Y0190037D02*
X0295890Y0190804D01*
X0297425Y0190804D01*
X0298192Y0190037D01*
X0299727Y0190037D02*
X0300494Y0190804D01*
X0302029Y0190804D01*
X0302796Y0190037D01*
X0302796Y0189269D01*
X0299727Y0186200D01*
X0302796Y0186200D01*
X0298192Y0186967D02*
X0298192Y0187735D01*
X0297425Y0188502D01*
X0295890Y0188502D01*
X0295123Y0189269D01*
X0295123Y0190037D01*
X0296657Y0191571D02*
X0296657Y0185433D01*
X0295890Y0186200D02*
X0297425Y0186200D01*
X0298192Y0186967D01*
X0295890Y0186200D02*
X0295123Y0186967D01*
X0283391Y0177817D02*
X0279787Y0177817D01*
X0279787Y0179619D01*
X0280388Y0180219D01*
X0281589Y0180219D01*
X0282190Y0179619D01*
X0282190Y0177817D01*
X0282790Y0176536D02*
X0283391Y0175936D01*
X0283391Y0174735D01*
X0282790Y0174134D01*
X0280388Y0174134D01*
X0279787Y0174735D01*
X0279787Y0175936D01*
X0280388Y0176536D01*
X0283391Y0172853D02*
X0283391Y0170451D01*
X0283391Y0171652D02*
X0279787Y0171652D01*
X0280989Y0170451D01*
X0280388Y0169170D02*
X0282790Y0166768D01*
X0283391Y0166768D01*
X0283391Y0165487D02*
X0283391Y0163085D01*
X0280989Y0165487D01*
X0280388Y0165487D01*
X0279787Y0164886D01*
X0279787Y0163685D01*
X0280388Y0163085D01*
X0280388Y0161804D02*
X0279787Y0161203D01*
X0279787Y0160002D01*
X0280388Y0159402D01*
X0282790Y0159402D01*
X0283391Y0160002D01*
X0283391Y0161203D01*
X0282790Y0161804D01*
X0283391Y0158121D02*
X0283391Y0155719D01*
X0279787Y0155719D01*
X0279787Y0154437D02*
X0279787Y0152035D01*
X0279787Y0153236D02*
X0283391Y0153236D01*
X0283922Y0143294D02*
X0283922Y0140892D01*
X0281520Y0143294D01*
X0280919Y0143294D01*
X0280319Y0142694D01*
X0280319Y0141493D01*
X0280919Y0140892D01*
X0284523Y0139611D02*
X0284523Y0137209D01*
X0282721Y0135328D02*
X0282721Y0133526D01*
X0283922Y0133526D02*
X0280319Y0133526D01*
X0280319Y0135328D01*
X0280919Y0135928D01*
X0282121Y0135928D01*
X0282721Y0135328D01*
X0283322Y0132245D02*
X0283922Y0131645D01*
X0283922Y0130443D01*
X0283322Y0129843D01*
X0280919Y0129843D01*
X0280319Y0130443D01*
X0280319Y0131645D01*
X0280919Y0132245D01*
X0283922Y0128562D02*
X0283922Y0126160D01*
X0283922Y0127361D02*
X0280319Y0127361D01*
X0281520Y0126160D01*
X0280919Y0124879D02*
X0283322Y0122477D01*
X0283922Y0122477D01*
X0283922Y0121196D02*
X0283922Y0118794D01*
X0281520Y0121196D01*
X0280919Y0121196D01*
X0280319Y0120595D01*
X0280319Y0119394D01*
X0280919Y0118794D01*
X0280919Y0117512D02*
X0280319Y0116912D01*
X0280319Y0115711D01*
X0280919Y0115110D01*
X0283322Y0115110D01*
X0283922Y0115711D01*
X0283922Y0116912D01*
X0283322Y0117512D01*
X0283922Y0113829D02*
X0283922Y0111427D01*
X0280319Y0111427D01*
X0280319Y0110146D02*
X0280319Y0107744D01*
X0280319Y0108945D02*
X0283922Y0108945D01*
X0285656Y0099898D02*
X0288725Y0099898D01*
X0286423Y0099898D02*
X0286423Y0096829D01*
X0285656Y0096829D02*
X0284121Y0098364D01*
X0285656Y0099898D01*
X0285656Y0096829D02*
X0288725Y0096829D01*
X0287958Y0095294D02*
X0284889Y0095294D01*
X0284121Y0094527D01*
X0284121Y0092225D01*
X0288725Y0092225D01*
X0288725Y0094527D01*
X0287958Y0095294D01*
X0287958Y0090691D02*
X0288725Y0089923D01*
X0288725Y0088389D01*
X0287958Y0087621D01*
X0286423Y0088389D02*
X0286423Y0089923D01*
X0287191Y0090691D01*
X0287958Y0090691D01*
X0286423Y0088389D02*
X0285656Y0087621D01*
X0284889Y0087621D01*
X0284121Y0088389D01*
X0284121Y0089923D01*
X0284889Y0090691D01*
X0278725Y0089923D02*
X0278725Y0088389D01*
X0277958Y0087621D01*
X0276423Y0088389D02*
X0276423Y0089923D01*
X0277191Y0090691D01*
X0277958Y0090691D01*
X0278725Y0089923D01*
X0277958Y0092225D02*
X0278725Y0092992D01*
X0278725Y0094527D01*
X0277958Y0095294D01*
X0278725Y0096829D02*
X0274121Y0096829D01*
X0274889Y0095294D02*
X0274121Y0094527D01*
X0274121Y0092992D01*
X0274889Y0092225D01*
X0277958Y0092225D01*
X0274889Y0090691D02*
X0274121Y0089923D01*
X0274121Y0088389D01*
X0274889Y0087621D01*
X0275656Y0087621D01*
X0276423Y0088389D01*
X0268725Y0088389D02*
X0268725Y0089923D01*
X0267958Y0090691D01*
X0266423Y0090691D01*
X0266423Y0089156D01*
X0264889Y0090691D02*
X0264121Y0089923D01*
X0264121Y0088389D01*
X0264889Y0087621D01*
X0267958Y0087621D01*
X0268725Y0088389D01*
X0268725Y0092225D02*
X0264121Y0092225D01*
X0268725Y0095294D01*
X0264121Y0095294D01*
X0264121Y0096829D02*
X0264121Y0099131D01*
X0264889Y0099898D01*
X0267958Y0099898D01*
X0268725Y0099131D01*
X0268725Y0096829D01*
X0264121Y0096829D01*
X0258725Y0097596D02*
X0258725Y0099131D01*
X0257958Y0099898D01*
X0258725Y0097596D02*
X0257958Y0096829D01*
X0254889Y0096829D01*
X0254121Y0097596D01*
X0254121Y0099131D01*
X0254889Y0099898D01*
X0254889Y0095294D02*
X0254121Y0094527D01*
X0254121Y0092992D01*
X0254889Y0092225D01*
X0257958Y0092225D01*
X0258725Y0092992D01*
X0258725Y0094527D01*
X0257958Y0095294D01*
X0257191Y0090691D02*
X0254121Y0090691D01*
X0257191Y0090691D02*
X0258725Y0089156D01*
X0257191Y0087621D01*
X0254121Y0087621D01*
X0278725Y0096829D02*
X0278725Y0099898D01*
X0280319Y0122477D02*
X0280319Y0124879D01*
X0280919Y0124879D01*
X0313019Y0084505D02*
X0313019Y0079901D01*
X0316088Y0079901D01*
X0317623Y0080668D02*
X0318390Y0079901D01*
X0319925Y0079901D01*
X0320692Y0080668D01*
X0320692Y0081435D01*
X0319925Y0082203D01*
X0318390Y0082203D01*
X0317623Y0082970D01*
X0317623Y0083737D01*
X0318390Y0084505D01*
X0319925Y0084505D01*
X0320692Y0083737D01*
X0322227Y0084505D02*
X0322227Y0079901D01*
X0322227Y0081435D02*
X0324529Y0081435D01*
X0325296Y0082203D01*
X0325296Y0083737D01*
X0324529Y0084505D01*
X0322227Y0084505D01*
X0326831Y0083737D02*
X0327598Y0084505D01*
X0329133Y0084505D01*
X0329900Y0083737D01*
X0326831Y0080668D01*
X0327598Y0079901D01*
X0329133Y0079901D01*
X0329900Y0080668D01*
X0329900Y0083737D01*
X0331435Y0082970D02*
X0332969Y0084505D01*
X0332969Y0079901D01*
X0331435Y0079901D02*
X0334504Y0079901D01*
X0326831Y0080668D02*
X0326831Y0083737D01*
X0316088Y0084505D02*
X0313019Y0084505D01*
X0313019Y0082203D02*
X0314554Y0082203D01*
X0288103Y0015808D02*
X0286569Y0014273D01*
X0288103Y0015808D02*
X0288103Y0011204D01*
X0286569Y0011204D02*
X0289638Y0011204D01*
X0285034Y0011971D02*
X0285034Y0015808D01*
X0281965Y0015808D02*
X0281965Y0011971D01*
X0282732Y0011204D01*
X0284267Y0011204D01*
X0285034Y0011971D01*
X0116028Y0064176D02*
X0116028Y0065711D01*
X0115261Y0066478D01*
X0113726Y0066478D01*
X0112959Y0065711D01*
X0112959Y0064176D01*
X0113726Y0063409D01*
X0115261Y0063409D01*
X0116028Y0064176D01*
X0111424Y0063409D02*
X0111424Y0065711D01*
X0110657Y0066478D01*
X0108355Y0066478D01*
X0108355Y0063409D01*
X0106820Y0063409D02*
X0105285Y0063409D01*
X0106053Y0063409D02*
X0106053Y0066478D01*
X0105285Y0066478D01*
X0103751Y0066478D02*
X0103751Y0063409D01*
X0101449Y0063409D01*
X0100681Y0064176D01*
X0100681Y0066478D01*
X0099147Y0066478D02*
X0096845Y0066478D01*
X0096078Y0065711D01*
X0096078Y0064176D01*
X0096845Y0063409D01*
X0099147Y0063409D01*
X0099147Y0068013D01*
X0094543Y0066478D02*
X0093776Y0066478D01*
X0092241Y0064943D01*
X0092241Y0063409D02*
X0092241Y0066478D01*
X0090706Y0066478D02*
X0090706Y0063409D01*
X0090706Y0065711D02*
X0087637Y0065711D01*
X0087637Y0066478D02*
X0089172Y0068013D01*
X0090706Y0066478D01*
X0087637Y0066478D02*
X0087637Y0063409D01*
X0087637Y0060513D02*
X0090706Y0055909D01*
X0090706Y0060513D01*
X0093008Y0058978D02*
X0094543Y0058978D01*
X0095310Y0058211D01*
X0095310Y0055909D01*
X0093008Y0055909D01*
X0092241Y0056676D01*
X0093008Y0057443D01*
X0095310Y0057443D01*
X0096845Y0055909D02*
X0096845Y0058978D01*
X0099147Y0058978D01*
X0099914Y0058211D01*
X0099914Y0055909D01*
X0101449Y0056676D02*
X0102216Y0055909D01*
X0103751Y0055909D01*
X0104518Y0056676D01*
X0104518Y0058211D01*
X0103751Y0058978D01*
X0102216Y0058978D01*
X0101449Y0058211D01*
X0101449Y0056676D01*
X0106053Y0068013D02*
X0106053Y0068780D01*
X0087637Y0060513D02*
X0087637Y0055909D01*
X0026048Y0184826D02*
X0022979Y0184826D01*
X0022212Y0185593D01*
X0022212Y0187128D01*
X0022979Y0187895D01*
X0024514Y0187895D02*
X0024514Y0186361D01*
X0024514Y0187895D02*
X0026048Y0187895D01*
X0026816Y0187128D01*
X0026816Y0185593D01*
X0026048Y0184826D01*
X0026048Y0189430D02*
X0026816Y0190197D01*
X0026816Y0191732D01*
X0026048Y0192499D01*
X0025281Y0192499D01*
X0024514Y0191732D01*
X0024514Y0190965D01*
X0024514Y0191732D02*
X0023746Y0192499D01*
X0022979Y0192499D01*
X0022212Y0191732D01*
X0022212Y0190197D01*
X0022979Y0189430D01*
X0279787Y0169170D02*
X0279787Y0166768D01*
X0279787Y0169170D02*
X0280388Y0169170D01*
D16*
X0268520Y0187283D02*
X0256720Y0187283D01*
X0254320Y0187283D01*
X0245020Y0187283D01*
X0254320Y0187283D02*
X0254322Y0187214D01*
X0254328Y0187146D01*
X0254338Y0187078D01*
X0254351Y0187011D01*
X0254369Y0186945D01*
X0254390Y0186880D01*
X0254415Y0186816D01*
X0254443Y0186754D01*
X0254475Y0186693D01*
X0254510Y0186634D01*
X0254549Y0186578D01*
X0254591Y0186523D01*
X0254636Y0186472D01*
X0254684Y0186422D01*
X0254734Y0186376D01*
X0254787Y0186333D01*
X0254843Y0186292D01*
X0254900Y0186255D01*
X0254960Y0186222D01*
X0255022Y0186191D01*
X0255085Y0186165D01*
X0255149Y0186142D01*
X0255215Y0186122D01*
X0255282Y0186107D01*
X0255349Y0186095D01*
X0255417Y0186087D01*
X0255486Y0186083D01*
X0255554Y0186083D01*
X0255623Y0186087D01*
X0255691Y0186095D01*
X0255758Y0186107D01*
X0255825Y0186122D01*
X0255891Y0186142D01*
X0255955Y0186165D01*
X0256018Y0186191D01*
X0256080Y0186222D01*
X0256140Y0186255D01*
X0256197Y0186292D01*
X0256253Y0186333D01*
X0256306Y0186376D01*
X0256356Y0186422D01*
X0256404Y0186472D01*
X0256449Y0186523D01*
X0256491Y0186578D01*
X0256530Y0186634D01*
X0256565Y0186693D01*
X0256597Y0186754D01*
X0256625Y0186816D01*
X0256650Y0186880D01*
X0256671Y0186945D01*
X0256689Y0187011D01*
X0256702Y0187078D01*
X0256712Y0187146D01*
X0256718Y0187214D01*
X0256720Y0187283D01*
X0268520Y0147283D02*
X0242520Y0147283D01*
X0245020Y0144429D02*
X0254320Y0144429D01*
X0256720Y0144429D01*
X0268520Y0144429D01*
X0256720Y0144429D02*
X0256718Y0144360D01*
X0256712Y0144292D01*
X0256702Y0144224D01*
X0256689Y0144157D01*
X0256671Y0144091D01*
X0256650Y0144026D01*
X0256625Y0143962D01*
X0256597Y0143900D01*
X0256565Y0143839D01*
X0256530Y0143780D01*
X0256491Y0143724D01*
X0256449Y0143669D01*
X0256404Y0143618D01*
X0256356Y0143568D01*
X0256306Y0143522D01*
X0256253Y0143479D01*
X0256197Y0143438D01*
X0256140Y0143401D01*
X0256080Y0143368D01*
X0256018Y0143337D01*
X0255955Y0143311D01*
X0255891Y0143288D01*
X0255825Y0143268D01*
X0255758Y0143253D01*
X0255691Y0143241D01*
X0255623Y0143233D01*
X0255554Y0143229D01*
X0255486Y0143229D01*
X0255417Y0143233D01*
X0255349Y0143241D01*
X0255282Y0143253D01*
X0255215Y0143268D01*
X0255149Y0143288D01*
X0255085Y0143311D01*
X0255022Y0143337D01*
X0254960Y0143368D01*
X0254900Y0143401D01*
X0254843Y0143438D01*
X0254787Y0143479D01*
X0254734Y0143522D01*
X0254684Y0143568D01*
X0254636Y0143618D01*
X0254591Y0143669D01*
X0254549Y0143724D01*
X0254510Y0143780D01*
X0254475Y0143839D01*
X0254443Y0143900D01*
X0254415Y0143962D01*
X0254390Y0144026D01*
X0254369Y0144091D01*
X0254351Y0144157D01*
X0254338Y0144224D01*
X0254328Y0144292D01*
X0254322Y0144360D01*
X0254320Y0144429D01*
X0242520Y0104429D02*
X0268520Y0104429D01*
X0183378Y0093008D02*
X0183381Y0093253D01*
X0183390Y0093499D01*
X0183405Y0093744D01*
X0183426Y0093988D01*
X0183453Y0094232D01*
X0183486Y0094475D01*
X0183525Y0094718D01*
X0183570Y0094959D01*
X0183621Y0095199D01*
X0183678Y0095438D01*
X0183740Y0095675D01*
X0183809Y0095911D01*
X0183883Y0096145D01*
X0183963Y0096377D01*
X0184048Y0096607D01*
X0184139Y0096835D01*
X0184236Y0097060D01*
X0184338Y0097284D01*
X0184446Y0097504D01*
X0184559Y0097722D01*
X0184677Y0097937D01*
X0184801Y0098149D01*
X0184929Y0098358D01*
X0185063Y0098564D01*
X0185202Y0098766D01*
X0185346Y0098965D01*
X0185495Y0099160D01*
X0185648Y0099352D01*
X0185806Y0099540D01*
X0185968Y0099724D01*
X0186136Y0099903D01*
X0186307Y0100079D01*
X0186483Y0100250D01*
X0186662Y0100418D01*
X0186846Y0100580D01*
X0187034Y0100738D01*
X0187226Y0100891D01*
X0187421Y0101040D01*
X0187620Y0101184D01*
X0187822Y0101323D01*
X0188028Y0101457D01*
X0188237Y0101585D01*
X0188449Y0101709D01*
X0188664Y0101827D01*
X0188882Y0101940D01*
X0189102Y0102048D01*
X0189326Y0102150D01*
X0189551Y0102247D01*
X0189779Y0102338D01*
X0190009Y0102423D01*
X0190241Y0102503D01*
X0190475Y0102577D01*
X0190711Y0102646D01*
X0190948Y0102708D01*
X0191187Y0102765D01*
X0191427Y0102816D01*
X0191668Y0102861D01*
X0191911Y0102900D01*
X0192154Y0102933D01*
X0192398Y0102960D01*
X0192642Y0102981D01*
X0192887Y0102996D01*
X0193133Y0103005D01*
X0193378Y0103008D01*
X0193623Y0103005D01*
X0193869Y0102996D01*
X0194114Y0102981D01*
X0194358Y0102960D01*
X0194602Y0102933D01*
X0194845Y0102900D01*
X0195088Y0102861D01*
X0195329Y0102816D01*
X0195569Y0102765D01*
X0195808Y0102708D01*
X0196045Y0102646D01*
X0196281Y0102577D01*
X0196515Y0102503D01*
X0196747Y0102423D01*
X0196977Y0102338D01*
X0197205Y0102247D01*
X0197430Y0102150D01*
X0197654Y0102048D01*
X0197874Y0101940D01*
X0198092Y0101827D01*
X0198307Y0101709D01*
X0198519Y0101585D01*
X0198728Y0101457D01*
X0198934Y0101323D01*
X0199136Y0101184D01*
X0199335Y0101040D01*
X0199530Y0100891D01*
X0199722Y0100738D01*
X0199910Y0100580D01*
X0200094Y0100418D01*
X0200273Y0100250D01*
X0200449Y0100079D01*
X0200620Y0099903D01*
X0200788Y0099724D01*
X0200950Y0099540D01*
X0201108Y0099352D01*
X0201261Y0099160D01*
X0201410Y0098965D01*
X0201554Y0098766D01*
X0201693Y0098564D01*
X0201827Y0098358D01*
X0201955Y0098149D01*
X0202079Y0097937D01*
X0202197Y0097722D01*
X0202310Y0097504D01*
X0202418Y0097284D01*
X0202520Y0097060D01*
X0202617Y0096835D01*
X0202708Y0096607D01*
X0202793Y0096377D01*
X0202873Y0096145D01*
X0202947Y0095911D01*
X0203016Y0095675D01*
X0203078Y0095438D01*
X0203135Y0095199D01*
X0203186Y0094959D01*
X0203231Y0094718D01*
X0203270Y0094475D01*
X0203303Y0094232D01*
X0203330Y0093988D01*
X0203351Y0093744D01*
X0203366Y0093499D01*
X0203375Y0093253D01*
X0203378Y0093008D01*
X0203375Y0092763D01*
X0203366Y0092517D01*
X0203351Y0092272D01*
X0203330Y0092028D01*
X0203303Y0091784D01*
X0203270Y0091541D01*
X0203231Y0091298D01*
X0203186Y0091057D01*
X0203135Y0090817D01*
X0203078Y0090578D01*
X0203016Y0090341D01*
X0202947Y0090105D01*
X0202873Y0089871D01*
X0202793Y0089639D01*
X0202708Y0089409D01*
X0202617Y0089181D01*
X0202520Y0088956D01*
X0202418Y0088732D01*
X0202310Y0088512D01*
X0202197Y0088294D01*
X0202079Y0088079D01*
X0201955Y0087867D01*
X0201827Y0087658D01*
X0201693Y0087452D01*
X0201554Y0087250D01*
X0201410Y0087051D01*
X0201261Y0086856D01*
X0201108Y0086664D01*
X0200950Y0086476D01*
X0200788Y0086292D01*
X0200620Y0086113D01*
X0200449Y0085937D01*
X0200273Y0085766D01*
X0200094Y0085598D01*
X0199910Y0085436D01*
X0199722Y0085278D01*
X0199530Y0085125D01*
X0199335Y0084976D01*
X0199136Y0084832D01*
X0198934Y0084693D01*
X0198728Y0084559D01*
X0198519Y0084431D01*
X0198307Y0084307D01*
X0198092Y0084189D01*
X0197874Y0084076D01*
X0197654Y0083968D01*
X0197430Y0083866D01*
X0197205Y0083769D01*
X0196977Y0083678D01*
X0196747Y0083593D01*
X0196515Y0083513D01*
X0196281Y0083439D01*
X0196045Y0083370D01*
X0195808Y0083308D01*
X0195569Y0083251D01*
X0195329Y0083200D01*
X0195088Y0083155D01*
X0194845Y0083116D01*
X0194602Y0083083D01*
X0194358Y0083056D01*
X0194114Y0083035D01*
X0193869Y0083020D01*
X0193623Y0083011D01*
X0193378Y0083008D01*
X0193133Y0083011D01*
X0192887Y0083020D01*
X0192642Y0083035D01*
X0192398Y0083056D01*
X0192154Y0083083D01*
X0191911Y0083116D01*
X0191668Y0083155D01*
X0191427Y0083200D01*
X0191187Y0083251D01*
X0190948Y0083308D01*
X0190711Y0083370D01*
X0190475Y0083439D01*
X0190241Y0083513D01*
X0190009Y0083593D01*
X0189779Y0083678D01*
X0189551Y0083769D01*
X0189326Y0083866D01*
X0189102Y0083968D01*
X0188882Y0084076D01*
X0188664Y0084189D01*
X0188449Y0084307D01*
X0188237Y0084431D01*
X0188028Y0084559D01*
X0187822Y0084693D01*
X0187620Y0084832D01*
X0187421Y0084976D01*
X0187226Y0085125D01*
X0187034Y0085278D01*
X0186846Y0085436D01*
X0186662Y0085598D01*
X0186483Y0085766D01*
X0186307Y0085937D01*
X0186136Y0086113D01*
X0185968Y0086292D01*
X0185806Y0086476D01*
X0185648Y0086664D01*
X0185495Y0086856D01*
X0185346Y0087051D01*
X0185202Y0087250D01*
X0185063Y0087452D01*
X0184929Y0087658D01*
X0184801Y0087867D01*
X0184677Y0088079D01*
X0184559Y0088294D01*
X0184446Y0088512D01*
X0184338Y0088732D01*
X0184236Y0088956D01*
X0184139Y0089181D01*
X0184048Y0089409D01*
X0183963Y0089639D01*
X0183883Y0089871D01*
X0183809Y0090105D01*
X0183740Y0090341D01*
X0183678Y0090578D01*
X0183621Y0090817D01*
X0183570Y0091057D01*
X0183525Y0091298D01*
X0183486Y0091541D01*
X0183453Y0091784D01*
X0183426Y0092028D01*
X0183405Y0092272D01*
X0183390Y0092517D01*
X0183381Y0092763D01*
X0183378Y0093008D01*
X0183378Y0058508D02*
X0183381Y0058753D01*
X0183390Y0058999D01*
X0183405Y0059244D01*
X0183426Y0059488D01*
X0183453Y0059732D01*
X0183486Y0059975D01*
X0183525Y0060218D01*
X0183570Y0060459D01*
X0183621Y0060699D01*
X0183678Y0060938D01*
X0183740Y0061175D01*
X0183809Y0061411D01*
X0183883Y0061645D01*
X0183963Y0061877D01*
X0184048Y0062107D01*
X0184139Y0062335D01*
X0184236Y0062560D01*
X0184338Y0062784D01*
X0184446Y0063004D01*
X0184559Y0063222D01*
X0184677Y0063437D01*
X0184801Y0063649D01*
X0184929Y0063858D01*
X0185063Y0064064D01*
X0185202Y0064266D01*
X0185346Y0064465D01*
X0185495Y0064660D01*
X0185648Y0064852D01*
X0185806Y0065040D01*
X0185968Y0065224D01*
X0186136Y0065403D01*
X0186307Y0065579D01*
X0186483Y0065750D01*
X0186662Y0065918D01*
X0186846Y0066080D01*
X0187034Y0066238D01*
X0187226Y0066391D01*
X0187421Y0066540D01*
X0187620Y0066684D01*
X0187822Y0066823D01*
X0188028Y0066957D01*
X0188237Y0067085D01*
X0188449Y0067209D01*
X0188664Y0067327D01*
X0188882Y0067440D01*
X0189102Y0067548D01*
X0189326Y0067650D01*
X0189551Y0067747D01*
X0189779Y0067838D01*
X0190009Y0067923D01*
X0190241Y0068003D01*
X0190475Y0068077D01*
X0190711Y0068146D01*
X0190948Y0068208D01*
X0191187Y0068265D01*
X0191427Y0068316D01*
X0191668Y0068361D01*
X0191911Y0068400D01*
X0192154Y0068433D01*
X0192398Y0068460D01*
X0192642Y0068481D01*
X0192887Y0068496D01*
X0193133Y0068505D01*
X0193378Y0068508D01*
X0193623Y0068505D01*
X0193869Y0068496D01*
X0194114Y0068481D01*
X0194358Y0068460D01*
X0194602Y0068433D01*
X0194845Y0068400D01*
X0195088Y0068361D01*
X0195329Y0068316D01*
X0195569Y0068265D01*
X0195808Y0068208D01*
X0196045Y0068146D01*
X0196281Y0068077D01*
X0196515Y0068003D01*
X0196747Y0067923D01*
X0196977Y0067838D01*
X0197205Y0067747D01*
X0197430Y0067650D01*
X0197654Y0067548D01*
X0197874Y0067440D01*
X0198092Y0067327D01*
X0198307Y0067209D01*
X0198519Y0067085D01*
X0198728Y0066957D01*
X0198934Y0066823D01*
X0199136Y0066684D01*
X0199335Y0066540D01*
X0199530Y0066391D01*
X0199722Y0066238D01*
X0199910Y0066080D01*
X0200094Y0065918D01*
X0200273Y0065750D01*
X0200449Y0065579D01*
X0200620Y0065403D01*
X0200788Y0065224D01*
X0200950Y0065040D01*
X0201108Y0064852D01*
X0201261Y0064660D01*
X0201410Y0064465D01*
X0201554Y0064266D01*
X0201693Y0064064D01*
X0201827Y0063858D01*
X0201955Y0063649D01*
X0202079Y0063437D01*
X0202197Y0063222D01*
X0202310Y0063004D01*
X0202418Y0062784D01*
X0202520Y0062560D01*
X0202617Y0062335D01*
X0202708Y0062107D01*
X0202793Y0061877D01*
X0202873Y0061645D01*
X0202947Y0061411D01*
X0203016Y0061175D01*
X0203078Y0060938D01*
X0203135Y0060699D01*
X0203186Y0060459D01*
X0203231Y0060218D01*
X0203270Y0059975D01*
X0203303Y0059732D01*
X0203330Y0059488D01*
X0203351Y0059244D01*
X0203366Y0058999D01*
X0203375Y0058753D01*
X0203378Y0058508D01*
X0203375Y0058263D01*
X0203366Y0058017D01*
X0203351Y0057772D01*
X0203330Y0057528D01*
X0203303Y0057284D01*
X0203270Y0057041D01*
X0203231Y0056798D01*
X0203186Y0056557D01*
X0203135Y0056317D01*
X0203078Y0056078D01*
X0203016Y0055841D01*
X0202947Y0055605D01*
X0202873Y0055371D01*
X0202793Y0055139D01*
X0202708Y0054909D01*
X0202617Y0054681D01*
X0202520Y0054456D01*
X0202418Y0054232D01*
X0202310Y0054012D01*
X0202197Y0053794D01*
X0202079Y0053579D01*
X0201955Y0053367D01*
X0201827Y0053158D01*
X0201693Y0052952D01*
X0201554Y0052750D01*
X0201410Y0052551D01*
X0201261Y0052356D01*
X0201108Y0052164D01*
X0200950Y0051976D01*
X0200788Y0051792D01*
X0200620Y0051613D01*
X0200449Y0051437D01*
X0200273Y0051266D01*
X0200094Y0051098D01*
X0199910Y0050936D01*
X0199722Y0050778D01*
X0199530Y0050625D01*
X0199335Y0050476D01*
X0199136Y0050332D01*
X0198934Y0050193D01*
X0198728Y0050059D01*
X0198519Y0049931D01*
X0198307Y0049807D01*
X0198092Y0049689D01*
X0197874Y0049576D01*
X0197654Y0049468D01*
X0197430Y0049366D01*
X0197205Y0049269D01*
X0196977Y0049178D01*
X0196747Y0049093D01*
X0196515Y0049013D01*
X0196281Y0048939D01*
X0196045Y0048870D01*
X0195808Y0048808D01*
X0195569Y0048751D01*
X0195329Y0048700D01*
X0195088Y0048655D01*
X0194845Y0048616D01*
X0194602Y0048583D01*
X0194358Y0048556D01*
X0194114Y0048535D01*
X0193869Y0048520D01*
X0193623Y0048511D01*
X0193378Y0048508D01*
X0193133Y0048511D01*
X0192887Y0048520D01*
X0192642Y0048535D01*
X0192398Y0048556D01*
X0192154Y0048583D01*
X0191911Y0048616D01*
X0191668Y0048655D01*
X0191427Y0048700D01*
X0191187Y0048751D01*
X0190948Y0048808D01*
X0190711Y0048870D01*
X0190475Y0048939D01*
X0190241Y0049013D01*
X0190009Y0049093D01*
X0189779Y0049178D01*
X0189551Y0049269D01*
X0189326Y0049366D01*
X0189102Y0049468D01*
X0188882Y0049576D01*
X0188664Y0049689D01*
X0188449Y0049807D01*
X0188237Y0049931D01*
X0188028Y0050059D01*
X0187822Y0050193D01*
X0187620Y0050332D01*
X0187421Y0050476D01*
X0187226Y0050625D01*
X0187034Y0050778D01*
X0186846Y0050936D01*
X0186662Y0051098D01*
X0186483Y0051266D01*
X0186307Y0051437D01*
X0186136Y0051613D01*
X0185968Y0051792D01*
X0185806Y0051976D01*
X0185648Y0052164D01*
X0185495Y0052356D01*
X0185346Y0052551D01*
X0185202Y0052750D01*
X0185063Y0052952D01*
X0184929Y0053158D01*
X0184801Y0053367D01*
X0184677Y0053579D01*
X0184559Y0053794D01*
X0184446Y0054012D01*
X0184338Y0054232D01*
X0184236Y0054456D01*
X0184139Y0054681D01*
X0184048Y0054909D01*
X0183963Y0055139D01*
X0183883Y0055371D01*
X0183809Y0055605D01*
X0183740Y0055841D01*
X0183678Y0056078D01*
X0183621Y0056317D01*
X0183570Y0056557D01*
X0183525Y0056798D01*
X0183486Y0057041D01*
X0183453Y0057284D01*
X0183426Y0057528D01*
X0183405Y0057772D01*
X0183390Y0058017D01*
X0183381Y0058263D01*
X0183378Y0058508D01*
X0183378Y0025508D02*
X0183381Y0025753D01*
X0183390Y0025999D01*
X0183405Y0026244D01*
X0183426Y0026488D01*
X0183453Y0026732D01*
X0183486Y0026975D01*
X0183525Y0027218D01*
X0183570Y0027459D01*
X0183621Y0027699D01*
X0183678Y0027938D01*
X0183740Y0028175D01*
X0183809Y0028411D01*
X0183883Y0028645D01*
X0183963Y0028877D01*
X0184048Y0029107D01*
X0184139Y0029335D01*
X0184236Y0029560D01*
X0184338Y0029784D01*
X0184446Y0030004D01*
X0184559Y0030222D01*
X0184677Y0030437D01*
X0184801Y0030649D01*
X0184929Y0030858D01*
X0185063Y0031064D01*
X0185202Y0031266D01*
X0185346Y0031465D01*
X0185495Y0031660D01*
X0185648Y0031852D01*
X0185806Y0032040D01*
X0185968Y0032224D01*
X0186136Y0032403D01*
X0186307Y0032579D01*
X0186483Y0032750D01*
X0186662Y0032918D01*
X0186846Y0033080D01*
X0187034Y0033238D01*
X0187226Y0033391D01*
X0187421Y0033540D01*
X0187620Y0033684D01*
X0187822Y0033823D01*
X0188028Y0033957D01*
X0188237Y0034085D01*
X0188449Y0034209D01*
X0188664Y0034327D01*
X0188882Y0034440D01*
X0189102Y0034548D01*
X0189326Y0034650D01*
X0189551Y0034747D01*
X0189779Y0034838D01*
X0190009Y0034923D01*
X0190241Y0035003D01*
X0190475Y0035077D01*
X0190711Y0035146D01*
X0190948Y0035208D01*
X0191187Y0035265D01*
X0191427Y0035316D01*
X0191668Y0035361D01*
X0191911Y0035400D01*
X0192154Y0035433D01*
X0192398Y0035460D01*
X0192642Y0035481D01*
X0192887Y0035496D01*
X0193133Y0035505D01*
X0193378Y0035508D01*
X0193623Y0035505D01*
X0193869Y0035496D01*
X0194114Y0035481D01*
X0194358Y0035460D01*
X0194602Y0035433D01*
X0194845Y0035400D01*
X0195088Y0035361D01*
X0195329Y0035316D01*
X0195569Y0035265D01*
X0195808Y0035208D01*
X0196045Y0035146D01*
X0196281Y0035077D01*
X0196515Y0035003D01*
X0196747Y0034923D01*
X0196977Y0034838D01*
X0197205Y0034747D01*
X0197430Y0034650D01*
X0197654Y0034548D01*
X0197874Y0034440D01*
X0198092Y0034327D01*
X0198307Y0034209D01*
X0198519Y0034085D01*
X0198728Y0033957D01*
X0198934Y0033823D01*
X0199136Y0033684D01*
X0199335Y0033540D01*
X0199530Y0033391D01*
X0199722Y0033238D01*
X0199910Y0033080D01*
X0200094Y0032918D01*
X0200273Y0032750D01*
X0200449Y0032579D01*
X0200620Y0032403D01*
X0200788Y0032224D01*
X0200950Y0032040D01*
X0201108Y0031852D01*
X0201261Y0031660D01*
X0201410Y0031465D01*
X0201554Y0031266D01*
X0201693Y0031064D01*
X0201827Y0030858D01*
X0201955Y0030649D01*
X0202079Y0030437D01*
X0202197Y0030222D01*
X0202310Y0030004D01*
X0202418Y0029784D01*
X0202520Y0029560D01*
X0202617Y0029335D01*
X0202708Y0029107D01*
X0202793Y0028877D01*
X0202873Y0028645D01*
X0202947Y0028411D01*
X0203016Y0028175D01*
X0203078Y0027938D01*
X0203135Y0027699D01*
X0203186Y0027459D01*
X0203231Y0027218D01*
X0203270Y0026975D01*
X0203303Y0026732D01*
X0203330Y0026488D01*
X0203351Y0026244D01*
X0203366Y0025999D01*
X0203375Y0025753D01*
X0203378Y0025508D01*
X0203375Y0025263D01*
X0203366Y0025017D01*
X0203351Y0024772D01*
X0203330Y0024528D01*
X0203303Y0024284D01*
X0203270Y0024041D01*
X0203231Y0023798D01*
X0203186Y0023557D01*
X0203135Y0023317D01*
X0203078Y0023078D01*
X0203016Y0022841D01*
X0202947Y0022605D01*
X0202873Y0022371D01*
X0202793Y0022139D01*
X0202708Y0021909D01*
X0202617Y0021681D01*
X0202520Y0021456D01*
X0202418Y0021232D01*
X0202310Y0021012D01*
X0202197Y0020794D01*
X0202079Y0020579D01*
X0201955Y0020367D01*
X0201827Y0020158D01*
X0201693Y0019952D01*
X0201554Y0019750D01*
X0201410Y0019551D01*
X0201261Y0019356D01*
X0201108Y0019164D01*
X0200950Y0018976D01*
X0200788Y0018792D01*
X0200620Y0018613D01*
X0200449Y0018437D01*
X0200273Y0018266D01*
X0200094Y0018098D01*
X0199910Y0017936D01*
X0199722Y0017778D01*
X0199530Y0017625D01*
X0199335Y0017476D01*
X0199136Y0017332D01*
X0198934Y0017193D01*
X0198728Y0017059D01*
X0198519Y0016931D01*
X0198307Y0016807D01*
X0198092Y0016689D01*
X0197874Y0016576D01*
X0197654Y0016468D01*
X0197430Y0016366D01*
X0197205Y0016269D01*
X0196977Y0016178D01*
X0196747Y0016093D01*
X0196515Y0016013D01*
X0196281Y0015939D01*
X0196045Y0015870D01*
X0195808Y0015808D01*
X0195569Y0015751D01*
X0195329Y0015700D01*
X0195088Y0015655D01*
X0194845Y0015616D01*
X0194602Y0015583D01*
X0194358Y0015556D01*
X0194114Y0015535D01*
X0193869Y0015520D01*
X0193623Y0015511D01*
X0193378Y0015508D01*
X0193133Y0015511D01*
X0192887Y0015520D01*
X0192642Y0015535D01*
X0192398Y0015556D01*
X0192154Y0015583D01*
X0191911Y0015616D01*
X0191668Y0015655D01*
X0191427Y0015700D01*
X0191187Y0015751D01*
X0190948Y0015808D01*
X0190711Y0015870D01*
X0190475Y0015939D01*
X0190241Y0016013D01*
X0190009Y0016093D01*
X0189779Y0016178D01*
X0189551Y0016269D01*
X0189326Y0016366D01*
X0189102Y0016468D01*
X0188882Y0016576D01*
X0188664Y0016689D01*
X0188449Y0016807D01*
X0188237Y0016931D01*
X0188028Y0017059D01*
X0187822Y0017193D01*
X0187620Y0017332D01*
X0187421Y0017476D01*
X0187226Y0017625D01*
X0187034Y0017778D01*
X0186846Y0017936D01*
X0186662Y0018098D01*
X0186483Y0018266D01*
X0186307Y0018437D01*
X0186136Y0018613D01*
X0185968Y0018792D01*
X0185806Y0018976D01*
X0185648Y0019164D01*
X0185495Y0019356D01*
X0185346Y0019551D01*
X0185202Y0019750D01*
X0185063Y0019952D01*
X0184929Y0020158D01*
X0184801Y0020367D01*
X0184677Y0020579D01*
X0184559Y0020794D01*
X0184446Y0021012D01*
X0184338Y0021232D01*
X0184236Y0021456D01*
X0184139Y0021681D01*
X0184048Y0021909D01*
X0183963Y0022139D01*
X0183883Y0022371D01*
X0183809Y0022605D01*
X0183740Y0022841D01*
X0183678Y0023078D01*
X0183621Y0023317D01*
X0183570Y0023557D01*
X0183525Y0023798D01*
X0183486Y0024041D01*
X0183453Y0024284D01*
X0183426Y0024528D01*
X0183405Y0024772D01*
X0183390Y0025017D01*
X0183381Y0025263D01*
X0183378Y0025508D01*
D17*
X0203707Y0033317D02*
X0202987Y0032777D01*
X0202988Y0032778D02*
X0202807Y0033011D01*
X0202621Y0033239D01*
X0202429Y0033463D01*
X0202232Y0033682D01*
X0202030Y0033896D01*
X0201822Y0034105D01*
X0201609Y0034308D01*
X0201392Y0034507D01*
X0201169Y0034700D01*
X0200942Y0034888D01*
X0200711Y0035070D01*
X0200475Y0035247D01*
X0200234Y0035417D01*
X0199990Y0035582D01*
X0199742Y0035740D01*
X0199490Y0035893D01*
X0199234Y0036039D01*
X0198975Y0036179D01*
X0198712Y0036313D01*
X0198447Y0036440D01*
X0198178Y0036561D01*
X0197906Y0036675D01*
X0197632Y0036782D01*
X0197355Y0036883D01*
X0197076Y0036977D01*
X0196794Y0037064D01*
X0196511Y0037144D01*
X0196225Y0037217D01*
X0195938Y0037283D01*
X0195649Y0037342D01*
X0195359Y0037394D01*
X0195068Y0037439D01*
X0194776Y0037477D01*
X0194483Y0037507D01*
X0194189Y0037531D01*
X0193895Y0037547D01*
X0193601Y0037556D01*
X0193306Y0037558D01*
X0193011Y0037552D01*
X0192717Y0037540D01*
X0192423Y0037520D01*
X0192130Y0037493D01*
X0191837Y0037459D01*
X0191545Y0037418D01*
X0191255Y0037369D01*
X0190965Y0037314D01*
X0190678Y0037252D01*
X0190391Y0037182D01*
X0190107Y0037105D01*
X0189824Y0037022D01*
X0189544Y0036932D01*
X0189266Y0036835D01*
X0188990Y0036731D01*
X0188717Y0036620D01*
X0188447Y0036503D01*
X0188179Y0036379D01*
X0187915Y0036249D01*
X0187654Y0036112D01*
X0187397Y0035969D01*
X0187143Y0035819D01*
X0186892Y0035664D01*
X0186646Y0035502D01*
X0186404Y0035335D01*
X0186166Y0035161D01*
X0185932Y0034982D01*
X0185702Y0034797D01*
X0185478Y0034607D01*
X0185257Y0034411D01*
X0185042Y0034210D01*
X0184832Y0034003D01*
X0184627Y0033792D01*
X0184427Y0033575D01*
X0184232Y0033354D01*
X0184043Y0033128D01*
X0183860Y0032898D01*
X0183682Y0032663D01*
X0183510Y0032423D01*
X0183344Y0032180D01*
X0183184Y0031933D01*
X0183030Y0031682D01*
X0182882Y0031427D01*
X0182740Y0031168D01*
X0182605Y0030907D01*
X0182476Y0030642D01*
X0182354Y0030374D01*
X0182238Y0030103D01*
X0182129Y0029829D01*
X0182027Y0029553D01*
X0181932Y0029274D01*
X0181843Y0028993D01*
X0181761Y0028710D01*
X0181686Y0028425D01*
X0181619Y0028138D01*
X0181558Y0027850D01*
X0181504Y0027560D01*
X0181457Y0027269D01*
X0181418Y0026977D01*
X0181386Y0026685D01*
X0181360Y0026391D01*
X0181342Y0026097D01*
X0181332Y0025803D01*
X0181328Y0025508D01*
X0181332Y0025213D01*
X0181342Y0024919D01*
X0181360Y0024625D01*
X0181386Y0024331D01*
X0181418Y0024039D01*
X0181457Y0023747D01*
X0181504Y0023456D01*
X0181558Y0023166D01*
X0181619Y0022878D01*
X0181686Y0022591D01*
X0181761Y0022306D01*
X0181843Y0022023D01*
X0181932Y0021742D01*
X0182027Y0021463D01*
X0182129Y0021187D01*
X0182238Y0020913D01*
X0182354Y0020642D01*
X0182476Y0020374D01*
X0182605Y0020109D01*
X0182740Y0019848D01*
X0182882Y0019589D01*
X0183030Y0019334D01*
X0183184Y0019083D01*
X0183344Y0018836D01*
X0183510Y0018593D01*
X0183682Y0018353D01*
X0183860Y0018118D01*
X0184043Y0017888D01*
X0184232Y0017662D01*
X0184427Y0017441D01*
X0184627Y0017224D01*
X0184832Y0017013D01*
X0185042Y0016806D01*
X0185257Y0016605D01*
X0185478Y0016409D01*
X0185702Y0016219D01*
X0185932Y0016034D01*
X0186166Y0015855D01*
X0186404Y0015681D01*
X0186646Y0015514D01*
X0186892Y0015352D01*
X0187143Y0015197D01*
X0187397Y0015047D01*
X0187654Y0014904D01*
X0187915Y0014767D01*
X0188179Y0014637D01*
X0188447Y0014513D01*
X0188717Y0014396D01*
X0188990Y0014285D01*
X0189266Y0014181D01*
X0189544Y0014084D01*
X0189824Y0013994D01*
X0190107Y0013911D01*
X0190391Y0013834D01*
X0190678Y0013764D01*
X0190965Y0013702D01*
X0191255Y0013647D01*
X0191545Y0013598D01*
X0191837Y0013557D01*
X0192130Y0013523D01*
X0192423Y0013496D01*
X0192717Y0013476D01*
X0193011Y0013464D01*
X0193306Y0013458D01*
X0193601Y0013460D01*
X0193895Y0013469D01*
X0194189Y0013485D01*
X0194483Y0013509D01*
X0194776Y0013539D01*
X0195068Y0013577D01*
X0195359Y0013622D01*
X0195649Y0013674D01*
X0195938Y0013733D01*
X0196225Y0013799D01*
X0196511Y0013872D01*
X0196794Y0013952D01*
X0197076Y0014039D01*
X0197355Y0014133D01*
X0197632Y0014234D01*
X0197906Y0014341D01*
X0198178Y0014455D01*
X0198447Y0014576D01*
X0198712Y0014703D01*
X0198975Y0014837D01*
X0199234Y0014977D01*
X0199490Y0015123D01*
X0199742Y0015276D01*
X0199990Y0015434D01*
X0200234Y0015599D01*
X0200475Y0015769D01*
X0200711Y0015946D01*
X0200942Y0016128D01*
X0201169Y0016316D01*
X0201392Y0016509D01*
X0201609Y0016708D01*
X0201822Y0016911D01*
X0202030Y0017120D01*
X0202232Y0017334D01*
X0202429Y0017553D01*
X0202621Y0017777D01*
X0202807Y0018005D01*
X0202988Y0018238D01*
X0203707Y0017699D01*
X0203708Y0017698D01*
X0203514Y0017448D01*
X0203314Y0017202D01*
X0203108Y0016962D01*
X0202896Y0016727D01*
X0202678Y0016497D01*
X0202455Y0016272D01*
X0202227Y0016053D01*
X0201993Y0015839D01*
X0201754Y0015631D01*
X0201510Y0015429D01*
X0201261Y0015234D01*
X0201007Y0015044D01*
X0200749Y0014861D01*
X0200487Y0014684D01*
X0200220Y0014513D01*
X0199949Y0014349D01*
X0199674Y0014192D01*
X0199396Y0014041D01*
X0199113Y0013897D01*
X0198828Y0013761D01*
X0198539Y0013631D01*
X0198247Y0013508D01*
X0197952Y0013393D01*
X0197655Y0013285D01*
X0197354Y0013184D01*
X0197052Y0013090D01*
X0196747Y0013004D01*
X0196440Y0012925D01*
X0196132Y0012854D01*
X0195822Y0012791D01*
X0195510Y0012735D01*
X0195197Y0012686D01*
X0194883Y0012646D01*
X0194568Y0012613D01*
X0194252Y0012588D01*
X0193936Y0012570D01*
X0193620Y0012560D01*
X0193303Y0012558D01*
X0192986Y0012564D01*
X0192670Y0012577D01*
X0192354Y0012599D01*
X0192039Y0012627D01*
X0191724Y0012664D01*
X0191411Y0012708D01*
X0191098Y0012760D01*
X0190787Y0012820D01*
X0190478Y0012887D01*
X0190170Y0012962D01*
X0189864Y0013044D01*
X0189561Y0013133D01*
X0189259Y0013230D01*
X0188960Y0013335D01*
X0188664Y0013447D01*
X0188370Y0013565D01*
X0188080Y0013691D01*
X0187793Y0013824D01*
X0187508Y0013965D01*
X0187228Y0014112D01*
X0186951Y0014265D01*
X0186678Y0014426D01*
X0186409Y0014593D01*
X0186144Y0014767D01*
X0185884Y0014947D01*
X0185628Y0015133D01*
X0185377Y0015326D01*
X0185130Y0015524D01*
X0184888Y0015729D01*
X0184652Y0015939D01*
X0184420Y0016156D01*
X0184195Y0016378D01*
X0183974Y0016605D01*
X0183759Y0016837D01*
X0183550Y0017075D01*
X0183347Y0017318D01*
X0183149Y0017566D01*
X0182958Y0017818D01*
X0182773Y0018075D01*
X0182595Y0018337D01*
X0182423Y0018603D01*
X0182257Y0018872D01*
X0182098Y0019146D01*
X0181946Y0019424D01*
X0181801Y0019705D01*
X0181662Y0019990D01*
X0181531Y0020278D01*
X0181407Y0020570D01*
X0181289Y0020864D01*
X0181179Y0021161D01*
X0181077Y0021460D01*
X0180982Y0021762D01*
X0180894Y0022066D01*
X0180813Y0022373D01*
X0180740Y0022681D01*
X0180675Y0022991D01*
X0180617Y0023302D01*
X0180567Y0023615D01*
X0180525Y0023929D01*
X0180490Y0024243D01*
X0180463Y0024559D01*
X0180443Y0024875D01*
X0180432Y0025191D01*
X0180428Y0025508D01*
X0180432Y0025825D01*
X0180443Y0026141D01*
X0180463Y0026457D01*
X0180490Y0026773D01*
X0180525Y0027087D01*
X0180567Y0027401D01*
X0180617Y0027714D01*
X0180675Y0028025D01*
X0180740Y0028335D01*
X0180813Y0028643D01*
X0180894Y0028950D01*
X0180982Y0029254D01*
X0181077Y0029556D01*
X0181179Y0029855D01*
X0181289Y0030152D01*
X0181407Y0030446D01*
X0181531Y0030738D01*
X0181662Y0031026D01*
X0181801Y0031311D01*
X0181946Y0031592D01*
X0182098Y0031870D01*
X0182257Y0032144D01*
X0182423Y0032413D01*
X0182595Y0032679D01*
X0182773Y0032941D01*
X0182958Y0033198D01*
X0183149Y0033450D01*
X0183347Y0033698D01*
X0183550Y0033941D01*
X0183759Y0034179D01*
X0183974Y0034411D01*
X0184195Y0034638D01*
X0184420Y0034860D01*
X0184652Y0035077D01*
X0184888Y0035287D01*
X0185130Y0035492D01*
X0185377Y0035690D01*
X0185628Y0035883D01*
X0185884Y0036069D01*
X0186144Y0036249D01*
X0186409Y0036423D01*
X0186678Y0036590D01*
X0186951Y0036751D01*
X0187228Y0036904D01*
X0187508Y0037051D01*
X0187793Y0037192D01*
X0188080Y0037325D01*
X0188370Y0037451D01*
X0188664Y0037569D01*
X0188960Y0037681D01*
X0189259Y0037786D01*
X0189561Y0037883D01*
X0189864Y0037972D01*
X0190170Y0038054D01*
X0190478Y0038129D01*
X0190787Y0038196D01*
X0191098Y0038256D01*
X0191411Y0038308D01*
X0191724Y0038352D01*
X0192039Y0038389D01*
X0192354Y0038417D01*
X0192670Y0038439D01*
X0192986Y0038452D01*
X0193303Y0038458D01*
X0193620Y0038456D01*
X0193936Y0038446D01*
X0194252Y0038428D01*
X0194568Y0038403D01*
X0194883Y0038370D01*
X0195197Y0038330D01*
X0195510Y0038281D01*
X0195822Y0038225D01*
X0196132Y0038162D01*
X0196440Y0038091D01*
X0196747Y0038012D01*
X0197052Y0037926D01*
X0197354Y0037832D01*
X0197655Y0037731D01*
X0197952Y0037623D01*
X0198247Y0037508D01*
X0198539Y0037385D01*
X0198828Y0037255D01*
X0199113Y0037119D01*
X0199396Y0036975D01*
X0199674Y0036824D01*
X0199949Y0036667D01*
X0200220Y0036503D01*
X0200487Y0036332D01*
X0200749Y0036155D01*
X0201007Y0035972D01*
X0201261Y0035782D01*
X0201510Y0035587D01*
X0201754Y0035385D01*
X0201993Y0035177D01*
X0202227Y0034963D01*
X0202455Y0034744D01*
X0202678Y0034519D01*
X0202896Y0034289D01*
X0203108Y0034054D01*
X0203314Y0033814D01*
X0203514Y0033568D01*
X0203708Y0033318D01*
X0203633Y0033262D01*
X0203440Y0033510D01*
X0203241Y0033754D01*
X0203037Y0033992D01*
X0202827Y0034226D01*
X0202611Y0034454D01*
X0202389Y0034677D01*
X0202162Y0034895D01*
X0201930Y0035107D01*
X0201693Y0035313D01*
X0201451Y0035514D01*
X0201203Y0035708D01*
X0200952Y0035896D01*
X0200695Y0036078D01*
X0200435Y0036254D01*
X0200170Y0036423D01*
X0199901Y0036586D01*
X0199628Y0036742D01*
X0199352Y0036892D01*
X0199072Y0037034D01*
X0198788Y0037170D01*
X0198501Y0037299D01*
X0198211Y0037421D01*
X0197919Y0037535D01*
X0197623Y0037643D01*
X0197325Y0037743D01*
X0197025Y0037836D01*
X0196722Y0037921D01*
X0196418Y0037999D01*
X0196112Y0038070D01*
X0195804Y0038133D01*
X0195494Y0038189D01*
X0195184Y0038237D01*
X0194872Y0038277D01*
X0194559Y0038310D01*
X0194246Y0038335D01*
X0193932Y0038352D01*
X0193618Y0038362D01*
X0193303Y0038364D01*
X0192989Y0038358D01*
X0192675Y0038345D01*
X0192361Y0038324D01*
X0192048Y0038295D01*
X0191736Y0038259D01*
X0191425Y0038215D01*
X0191115Y0038163D01*
X0190806Y0038104D01*
X0190499Y0038037D01*
X0190193Y0037963D01*
X0189890Y0037882D01*
X0189588Y0037793D01*
X0189289Y0037696D01*
X0188992Y0037593D01*
X0188698Y0037482D01*
X0188407Y0037364D01*
X0188118Y0037239D01*
X0187833Y0037107D01*
X0187551Y0036968D01*
X0187273Y0036822D01*
X0186998Y0036669D01*
X0186727Y0036510D01*
X0186460Y0036344D01*
X0186197Y0036171D01*
X0185938Y0035993D01*
X0185684Y0035808D01*
X0185435Y0035616D01*
X0185190Y0035419D01*
X0184950Y0035216D01*
X0184715Y0035007D01*
X0184485Y0034792D01*
X0184261Y0034572D01*
X0184042Y0034347D01*
X0183829Y0034116D01*
X0183621Y0033880D01*
X0183419Y0033638D01*
X0183224Y0033393D01*
X0183034Y0033142D01*
X0182850Y0032887D01*
X0182673Y0032627D01*
X0182502Y0032363D01*
X0182338Y0032095D01*
X0182180Y0031823D01*
X0182029Y0031548D01*
X0181885Y0031268D01*
X0181747Y0030986D01*
X0181617Y0030700D01*
X0181493Y0030411D01*
X0181377Y0030118D01*
X0181268Y0029824D01*
X0181166Y0029526D01*
X0181072Y0029227D01*
X0180984Y0028924D01*
X0180904Y0028620D01*
X0180832Y0028315D01*
X0180767Y0028007D01*
X0180710Y0027698D01*
X0180660Y0027387D01*
X0180618Y0027076D01*
X0180583Y0026763D01*
X0180557Y0026450D01*
X0180537Y0026136D01*
X0180526Y0025822D01*
X0180522Y0025508D01*
X0180526Y0025194D01*
X0180537Y0024880D01*
X0180557Y0024566D01*
X0180583Y0024253D01*
X0180618Y0023940D01*
X0180660Y0023629D01*
X0180710Y0023318D01*
X0180767Y0023009D01*
X0180832Y0022701D01*
X0180904Y0022396D01*
X0180984Y0022092D01*
X0181072Y0021789D01*
X0181166Y0021490D01*
X0181268Y0021192D01*
X0181377Y0020898D01*
X0181493Y0020605D01*
X0181617Y0020316D01*
X0181747Y0020030D01*
X0181885Y0019748D01*
X0182029Y0019468D01*
X0182180Y0019193D01*
X0182338Y0018921D01*
X0182502Y0018653D01*
X0182673Y0018389D01*
X0182850Y0018129D01*
X0183034Y0017874D01*
X0183224Y0017623D01*
X0183419Y0017378D01*
X0183621Y0017136D01*
X0183829Y0016900D01*
X0184042Y0016669D01*
X0184261Y0016444D01*
X0184485Y0016224D01*
X0184715Y0016009D01*
X0184950Y0015800D01*
X0185190Y0015597D01*
X0185435Y0015400D01*
X0185684Y0015208D01*
X0185938Y0015023D01*
X0186197Y0014845D01*
X0186460Y0014672D01*
X0186727Y0014506D01*
X0186998Y0014347D01*
X0187273Y0014194D01*
X0187551Y0014048D01*
X0187833Y0013909D01*
X0188118Y0013777D01*
X0188407Y0013652D01*
X0188698Y0013534D01*
X0188992Y0013423D01*
X0189289Y0013320D01*
X0189588Y0013223D01*
X0189890Y0013134D01*
X0190193Y0013053D01*
X0190499Y0012979D01*
X0190806Y0012912D01*
X0191115Y0012853D01*
X0191425Y0012801D01*
X0191736Y0012757D01*
X0192048Y0012721D01*
X0192361Y0012692D01*
X0192675Y0012671D01*
X0192989Y0012658D01*
X0193303Y0012652D01*
X0193618Y0012654D01*
X0193932Y0012664D01*
X0194246Y0012681D01*
X0194559Y0012706D01*
X0194872Y0012739D01*
X0195184Y0012779D01*
X0195494Y0012827D01*
X0195804Y0012883D01*
X0196112Y0012946D01*
X0196418Y0013017D01*
X0196722Y0013095D01*
X0197025Y0013180D01*
X0197325Y0013273D01*
X0197623Y0013373D01*
X0197919Y0013481D01*
X0198211Y0013595D01*
X0198501Y0013717D01*
X0198788Y0013846D01*
X0199072Y0013982D01*
X0199352Y0014124D01*
X0199628Y0014274D01*
X0199901Y0014430D01*
X0200170Y0014593D01*
X0200435Y0014762D01*
X0200695Y0014938D01*
X0200952Y0015120D01*
X0201203Y0015308D01*
X0201451Y0015502D01*
X0201693Y0015703D01*
X0201930Y0015909D01*
X0202162Y0016121D01*
X0202389Y0016339D01*
X0202611Y0016562D01*
X0202827Y0016790D01*
X0203037Y0017024D01*
X0203241Y0017262D01*
X0203440Y0017506D01*
X0203633Y0017754D01*
X0203558Y0017811D01*
X0203366Y0017564D01*
X0203169Y0017322D01*
X0202966Y0017085D01*
X0202757Y0016854D01*
X0202543Y0016627D01*
X0202323Y0016405D01*
X0202098Y0016189D01*
X0201867Y0015979D01*
X0201632Y0015774D01*
X0201391Y0015575D01*
X0201146Y0015382D01*
X0200896Y0015196D01*
X0200642Y0015015D01*
X0200383Y0014840D01*
X0200120Y0014672D01*
X0199853Y0014511D01*
X0199582Y0014356D01*
X0199308Y0014207D01*
X0199030Y0014066D01*
X0198748Y0013931D01*
X0198464Y0013803D01*
X0198176Y0013682D01*
X0197885Y0013568D01*
X0197592Y0013462D01*
X0197296Y0013362D01*
X0196998Y0013270D01*
X0196698Y0013185D01*
X0196395Y0013108D01*
X0196091Y0013038D01*
X0195786Y0012975D01*
X0195479Y0012920D01*
X0195170Y0012872D01*
X0194861Y0012832D01*
X0194550Y0012800D01*
X0194239Y0012775D01*
X0193928Y0012758D01*
X0193616Y0012748D01*
X0193304Y0012746D01*
X0192992Y0012752D01*
X0192680Y0012765D01*
X0192369Y0012786D01*
X0192058Y0012814D01*
X0191748Y0012851D01*
X0191439Y0012894D01*
X0191131Y0012945D01*
X0190824Y0013004D01*
X0190520Y0013070D01*
X0190216Y0013144D01*
X0189915Y0013225D01*
X0189616Y0013313D01*
X0189319Y0013409D01*
X0189024Y0013512D01*
X0188732Y0013622D01*
X0188443Y0013739D01*
X0188156Y0013863D01*
X0187873Y0013994D01*
X0187593Y0014132D01*
X0187317Y0014277D01*
X0187044Y0014429D01*
X0186775Y0014587D01*
X0186510Y0014752D01*
X0186249Y0014923D01*
X0185993Y0015100D01*
X0185740Y0015284D01*
X0185493Y0015474D01*
X0185250Y0015669D01*
X0185011Y0015871D01*
X0184778Y0016079D01*
X0184550Y0016292D01*
X0184328Y0016510D01*
X0184110Y0016734D01*
X0183899Y0016963D01*
X0183693Y0017198D01*
X0183492Y0017437D01*
X0183298Y0017681D01*
X0183110Y0017930D01*
X0182927Y0018183D01*
X0182751Y0018441D01*
X0182582Y0018703D01*
X0182419Y0018969D01*
X0182262Y0019239D01*
X0182112Y0019513D01*
X0181969Y0019790D01*
X0181832Y0020070D01*
X0181703Y0020354D01*
X0181580Y0020641D01*
X0181465Y0020931D01*
X0181357Y0021224D01*
X0181255Y0021519D01*
X0181161Y0021817D01*
X0181075Y0022117D01*
X0180996Y0022418D01*
X0180924Y0022722D01*
X0180859Y0023027D01*
X0180802Y0023334D01*
X0180753Y0023642D01*
X0180711Y0023952D01*
X0180677Y0024262D01*
X0180650Y0024573D01*
X0180631Y0024884D01*
X0180620Y0025196D01*
X0180616Y0025508D01*
X0180620Y0025820D01*
X0180631Y0026132D01*
X0180650Y0026443D01*
X0180677Y0026754D01*
X0180711Y0027064D01*
X0180753Y0027374D01*
X0180802Y0027682D01*
X0180859Y0027989D01*
X0180924Y0028294D01*
X0180996Y0028598D01*
X0181075Y0028899D01*
X0181161Y0029199D01*
X0181255Y0029497D01*
X0181357Y0029792D01*
X0181465Y0030085D01*
X0181580Y0030375D01*
X0181703Y0030662D01*
X0181832Y0030946D01*
X0181969Y0031226D01*
X0182112Y0031503D01*
X0182262Y0031777D01*
X0182419Y0032047D01*
X0182582Y0032313D01*
X0182751Y0032575D01*
X0182927Y0032833D01*
X0183110Y0033086D01*
X0183298Y0033335D01*
X0183492Y0033579D01*
X0183693Y0033818D01*
X0183899Y0034053D01*
X0184110Y0034282D01*
X0184328Y0034506D01*
X0184550Y0034724D01*
X0184778Y0034937D01*
X0185011Y0035145D01*
X0185250Y0035347D01*
X0185493Y0035542D01*
X0185740Y0035732D01*
X0185993Y0035916D01*
X0186249Y0036093D01*
X0186510Y0036264D01*
X0186775Y0036429D01*
X0187044Y0036587D01*
X0187317Y0036739D01*
X0187593Y0036884D01*
X0187873Y0037022D01*
X0188156Y0037153D01*
X0188443Y0037277D01*
X0188732Y0037394D01*
X0189024Y0037504D01*
X0189319Y0037607D01*
X0189616Y0037703D01*
X0189915Y0037791D01*
X0190216Y0037872D01*
X0190520Y0037946D01*
X0190824Y0038012D01*
X0191131Y0038071D01*
X0191439Y0038122D01*
X0191748Y0038165D01*
X0192058Y0038202D01*
X0192369Y0038230D01*
X0192680Y0038251D01*
X0192992Y0038264D01*
X0193304Y0038270D01*
X0193616Y0038268D01*
X0193928Y0038258D01*
X0194239Y0038241D01*
X0194550Y0038216D01*
X0194861Y0038184D01*
X0195170Y0038144D01*
X0195479Y0038096D01*
X0195786Y0038041D01*
X0196091Y0037978D01*
X0196395Y0037908D01*
X0196698Y0037831D01*
X0196998Y0037746D01*
X0197296Y0037654D01*
X0197592Y0037554D01*
X0197885Y0037448D01*
X0198176Y0037334D01*
X0198464Y0037213D01*
X0198748Y0037085D01*
X0199030Y0036950D01*
X0199308Y0036809D01*
X0199582Y0036660D01*
X0199853Y0036505D01*
X0200120Y0036344D01*
X0200383Y0036176D01*
X0200642Y0036001D01*
X0200896Y0035820D01*
X0201146Y0035634D01*
X0201391Y0035441D01*
X0201632Y0035242D01*
X0201867Y0035037D01*
X0202098Y0034827D01*
X0202323Y0034611D01*
X0202543Y0034389D01*
X0202757Y0034162D01*
X0202966Y0033931D01*
X0203169Y0033694D01*
X0203366Y0033452D01*
X0203558Y0033205D01*
X0203482Y0033149D01*
X0203292Y0033394D01*
X0203097Y0033634D01*
X0202895Y0033869D01*
X0202688Y0034099D01*
X0202475Y0034324D01*
X0202257Y0034544D01*
X0202033Y0034758D01*
X0201804Y0034967D01*
X0201571Y0035170D01*
X0201332Y0035368D01*
X0201089Y0035559D01*
X0200840Y0035745D01*
X0200588Y0035924D01*
X0200331Y0036097D01*
X0200070Y0036264D01*
X0199805Y0036425D01*
X0199536Y0036578D01*
X0199264Y0036726D01*
X0198988Y0036866D01*
X0198708Y0037000D01*
X0198426Y0037127D01*
X0198140Y0037247D01*
X0197852Y0037360D01*
X0197561Y0037466D01*
X0197267Y0037564D01*
X0196971Y0037656D01*
X0196673Y0037740D01*
X0196373Y0037817D01*
X0196071Y0037886D01*
X0195768Y0037949D01*
X0195463Y0038003D01*
X0195157Y0038051D01*
X0194849Y0038090D01*
X0194541Y0038122D01*
X0194233Y0038147D01*
X0193923Y0038164D01*
X0193614Y0038174D01*
X0193304Y0038176D01*
X0192994Y0038170D01*
X0192685Y0038157D01*
X0192376Y0038136D01*
X0192067Y0038108D01*
X0191760Y0038072D01*
X0191453Y0038029D01*
X0191147Y0037978D01*
X0190843Y0037920D01*
X0190540Y0037854D01*
X0190239Y0037781D01*
X0189940Y0037701D01*
X0189643Y0037613D01*
X0189348Y0037518D01*
X0189056Y0037416D01*
X0188766Y0037307D01*
X0188479Y0037190D01*
X0188195Y0037067D01*
X0187914Y0036937D01*
X0187636Y0036800D01*
X0187362Y0036656D01*
X0187091Y0036506D01*
X0186824Y0036349D01*
X0186561Y0036185D01*
X0186302Y0036015D01*
X0186047Y0035839D01*
X0185796Y0035657D01*
X0185551Y0035468D01*
X0185309Y0035274D01*
X0185073Y0035074D01*
X0184842Y0034868D01*
X0184615Y0034656D01*
X0184394Y0034439D01*
X0184179Y0034217D01*
X0183968Y0033990D01*
X0183764Y0033757D01*
X0183565Y0033519D01*
X0183372Y0033277D01*
X0183185Y0033030D01*
X0183004Y0032779D01*
X0182830Y0032523D01*
X0182661Y0032263D01*
X0182499Y0031999D01*
X0182344Y0031731D01*
X0182195Y0031459D01*
X0182053Y0031184D01*
X0181917Y0030905D01*
X0181789Y0030624D01*
X0181667Y0030339D01*
X0181553Y0030051D01*
X0181445Y0029760D01*
X0181345Y0029467D01*
X0181251Y0029172D01*
X0181165Y0028874D01*
X0181087Y0028575D01*
X0181016Y0028273D01*
X0180952Y0027970D01*
X0180895Y0027666D01*
X0180846Y0027360D01*
X0180805Y0027053D01*
X0180771Y0026745D01*
X0180744Y0026436D01*
X0180725Y0026127D01*
X0180714Y0025818D01*
X0180710Y0025508D01*
X0180714Y0025198D01*
X0180725Y0024889D01*
X0180744Y0024580D01*
X0180771Y0024271D01*
X0180805Y0023963D01*
X0180846Y0023656D01*
X0180895Y0023350D01*
X0180952Y0023046D01*
X0181016Y0022743D01*
X0181087Y0022441D01*
X0181165Y0022142D01*
X0181251Y0021844D01*
X0181345Y0021549D01*
X0181445Y0021256D01*
X0181553Y0020965D01*
X0181667Y0020677D01*
X0181789Y0020392D01*
X0181917Y0020111D01*
X0182053Y0019832D01*
X0182195Y0019557D01*
X0182344Y0019285D01*
X0182499Y0019017D01*
X0182661Y0018753D01*
X0182830Y0018493D01*
X0183004Y0018237D01*
X0183185Y0017986D01*
X0183372Y0017739D01*
X0183565Y0017497D01*
X0183764Y0017259D01*
X0183968Y0017026D01*
X0184179Y0016799D01*
X0184394Y0016577D01*
X0184615Y0016360D01*
X0184842Y0016148D01*
X0185073Y0015942D01*
X0185309Y0015742D01*
X0185551Y0015548D01*
X0185796Y0015359D01*
X0186047Y0015177D01*
X0186302Y0015001D01*
X0186561Y0014831D01*
X0186824Y0014667D01*
X0187091Y0014510D01*
X0187362Y0014360D01*
X0187636Y0014216D01*
X0187914Y0014079D01*
X0188195Y0013949D01*
X0188479Y0013826D01*
X0188766Y0013709D01*
X0189056Y0013600D01*
X0189348Y0013498D01*
X0189643Y0013403D01*
X0189940Y0013315D01*
X0190239Y0013235D01*
X0190540Y0013162D01*
X0190843Y0013096D01*
X0191147Y0013038D01*
X0191453Y0012987D01*
X0191760Y0012944D01*
X0192067Y0012908D01*
X0192376Y0012880D01*
X0192685Y0012859D01*
X0192994Y0012846D01*
X0193304Y0012840D01*
X0193614Y0012842D01*
X0193923Y0012852D01*
X0194233Y0012869D01*
X0194541Y0012894D01*
X0194849Y0012926D01*
X0195157Y0012965D01*
X0195463Y0013013D01*
X0195768Y0013067D01*
X0196071Y0013130D01*
X0196373Y0013199D01*
X0196673Y0013276D01*
X0196971Y0013360D01*
X0197267Y0013452D01*
X0197561Y0013550D01*
X0197852Y0013656D01*
X0198140Y0013769D01*
X0198426Y0013889D01*
X0198708Y0014016D01*
X0198988Y0014150D01*
X0199264Y0014290D01*
X0199536Y0014438D01*
X0199805Y0014591D01*
X0200070Y0014752D01*
X0200331Y0014919D01*
X0200588Y0015092D01*
X0200840Y0015271D01*
X0201089Y0015457D01*
X0201332Y0015648D01*
X0201571Y0015846D01*
X0201804Y0016049D01*
X0202033Y0016258D01*
X0202257Y0016472D01*
X0202475Y0016692D01*
X0202688Y0016917D01*
X0202895Y0017147D01*
X0203097Y0017382D01*
X0203292Y0017622D01*
X0203482Y0017867D01*
X0203407Y0017924D01*
X0203219Y0017681D01*
X0203024Y0017442D01*
X0202824Y0017209D01*
X0202619Y0016981D01*
X0202407Y0016757D01*
X0202191Y0016539D01*
X0201969Y0016326D01*
X0201742Y0016119D01*
X0201510Y0015917D01*
X0201273Y0015721D01*
X0201031Y0015531D01*
X0200785Y0015347D01*
X0200534Y0015169D01*
X0200279Y0014997D01*
X0200020Y0014832D01*
X0199757Y0014672D01*
X0199490Y0014520D01*
X0199220Y0014373D01*
X0198946Y0014234D01*
X0198669Y0014101D01*
X0198388Y0013975D01*
X0198105Y0013856D01*
X0197818Y0013744D01*
X0197529Y0013639D01*
X0197238Y0013541D01*
X0196944Y0013450D01*
X0196648Y0013367D01*
X0196351Y0013290D01*
X0196051Y0013221D01*
X0195750Y0013160D01*
X0195447Y0013105D01*
X0195143Y0013059D01*
X0194838Y0013019D01*
X0194533Y0012987D01*
X0194226Y0012963D01*
X0193919Y0012946D01*
X0193612Y0012936D01*
X0193304Y0012934D01*
X0192997Y0012940D01*
X0192690Y0012953D01*
X0192383Y0012973D01*
X0192077Y0013002D01*
X0191771Y0013037D01*
X0191467Y0013080D01*
X0191164Y0013131D01*
X0190862Y0013188D01*
X0190561Y0013254D01*
X0190262Y0013326D01*
X0189966Y0013406D01*
X0189671Y0013493D01*
X0189378Y0013587D01*
X0189088Y0013689D01*
X0188800Y0013797D01*
X0188515Y0013912D01*
X0188233Y0014035D01*
X0187954Y0014164D01*
X0187678Y0014300D01*
X0187406Y0014443D01*
X0187137Y0014592D01*
X0186872Y0014748D01*
X0186611Y0014910D01*
X0186354Y0015079D01*
X0186101Y0015254D01*
X0185853Y0015435D01*
X0185609Y0015622D01*
X0185369Y0015815D01*
X0185135Y0016013D01*
X0184905Y0016218D01*
X0184680Y0016428D01*
X0184461Y0016643D01*
X0184247Y0016864D01*
X0184038Y0017089D01*
X0183835Y0017320D01*
X0183638Y0017556D01*
X0183446Y0017797D01*
X0183261Y0018042D01*
X0183081Y0018291D01*
X0182908Y0018545D01*
X0182741Y0018803D01*
X0182580Y0019065D01*
X0182426Y0019331D01*
X0182278Y0019601D01*
X0182137Y0019874D01*
X0182002Y0020151D01*
X0181875Y0020430D01*
X0181754Y0020713D01*
X0181640Y0020999D01*
X0181534Y0021287D01*
X0181434Y0021578D01*
X0181341Y0021871D01*
X0181256Y0022167D01*
X0181178Y0022464D01*
X0181107Y0022763D01*
X0181044Y0023064D01*
X0180988Y0023366D01*
X0180939Y0023670D01*
X0180898Y0023975D01*
X0180864Y0024280D01*
X0180838Y0024586D01*
X0180819Y0024893D01*
X0180808Y0025201D01*
X0180804Y0025508D01*
X0180808Y0025815D01*
X0180819Y0026123D01*
X0180838Y0026430D01*
X0180864Y0026736D01*
X0180898Y0027041D01*
X0180939Y0027346D01*
X0180988Y0027650D01*
X0181044Y0027952D01*
X0181107Y0028253D01*
X0181178Y0028552D01*
X0181256Y0028849D01*
X0181341Y0029145D01*
X0181434Y0029438D01*
X0181534Y0029729D01*
X0181640Y0030017D01*
X0181754Y0030303D01*
X0181875Y0030586D01*
X0182002Y0030865D01*
X0182137Y0031142D01*
X0182278Y0031415D01*
X0182426Y0031685D01*
X0182580Y0031951D01*
X0182741Y0032213D01*
X0182908Y0032471D01*
X0183081Y0032725D01*
X0183261Y0032974D01*
X0183446Y0033219D01*
X0183638Y0033460D01*
X0183835Y0033696D01*
X0184038Y0033927D01*
X0184247Y0034152D01*
X0184461Y0034373D01*
X0184680Y0034588D01*
X0184905Y0034798D01*
X0185135Y0035003D01*
X0185369Y0035201D01*
X0185609Y0035394D01*
X0185853Y0035581D01*
X0186101Y0035762D01*
X0186354Y0035937D01*
X0186611Y0036106D01*
X0186872Y0036268D01*
X0187137Y0036424D01*
X0187406Y0036573D01*
X0187678Y0036716D01*
X0187954Y0036852D01*
X0188233Y0036981D01*
X0188515Y0037104D01*
X0188800Y0037219D01*
X0189088Y0037327D01*
X0189378Y0037429D01*
X0189671Y0037523D01*
X0189966Y0037610D01*
X0190262Y0037690D01*
X0190561Y0037762D01*
X0190862Y0037828D01*
X0191164Y0037885D01*
X0191467Y0037936D01*
X0191771Y0037979D01*
X0192077Y0038014D01*
X0192383Y0038043D01*
X0192690Y0038063D01*
X0192997Y0038076D01*
X0193304Y0038082D01*
X0193612Y0038080D01*
X0193919Y0038070D01*
X0194226Y0038053D01*
X0194533Y0038029D01*
X0194838Y0037997D01*
X0195143Y0037957D01*
X0195447Y0037911D01*
X0195750Y0037856D01*
X0196051Y0037795D01*
X0196351Y0037726D01*
X0196648Y0037649D01*
X0196944Y0037566D01*
X0197238Y0037475D01*
X0197529Y0037377D01*
X0197818Y0037272D01*
X0198105Y0037160D01*
X0198388Y0037041D01*
X0198669Y0036915D01*
X0198946Y0036782D01*
X0199220Y0036643D01*
X0199490Y0036496D01*
X0199757Y0036344D01*
X0200020Y0036184D01*
X0200279Y0036019D01*
X0200534Y0035847D01*
X0200785Y0035669D01*
X0201031Y0035485D01*
X0201273Y0035295D01*
X0201510Y0035099D01*
X0201742Y0034897D01*
X0201969Y0034690D01*
X0202191Y0034477D01*
X0202407Y0034259D01*
X0202619Y0034035D01*
X0202824Y0033807D01*
X0203024Y0033574D01*
X0203219Y0033335D01*
X0203407Y0033092D01*
X0203332Y0033036D01*
X0203145Y0033277D01*
X0202952Y0033514D01*
X0202753Y0033745D01*
X0202549Y0033972D01*
X0202340Y0034194D01*
X0202125Y0034410D01*
X0201904Y0034621D01*
X0201679Y0034827D01*
X0201449Y0035027D01*
X0201213Y0035222D01*
X0200974Y0035410D01*
X0200729Y0035593D01*
X0200480Y0035770D01*
X0200227Y0035940D01*
X0199970Y0036105D01*
X0199709Y0036263D01*
X0199444Y0036414D01*
X0199176Y0036559D01*
X0198904Y0036698D01*
X0198629Y0036830D01*
X0198350Y0036955D01*
X0198069Y0037073D01*
X0197785Y0037184D01*
X0197498Y0037288D01*
X0197209Y0037386D01*
X0196917Y0037476D01*
X0196624Y0037559D01*
X0196328Y0037634D01*
X0196031Y0037703D01*
X0195732Y0037764D01*
X0195431Y0037818D01*
X0195130Y0037864D01*
X0194827Y0037904D01*
X0194524Y0037935D01*
X0194219Y0037960D01*
X0193915Y0037976D01*
X0193610Y0037986D01*
X0193305Y0037988D01*
X0193000Y0037982D01*
X0192695Y0037969D01*
X0192390Y0037949D01*
X0192086Y0037921D01*
X0191783Y0037886D01*
X0191481Y0037843D01*
X0191180Y0037793D01*
X0190880Y0037736D01*
X0190582Y0037671D01*
X0190286Y0037599D01*
X0189991Y0037520D01*
X0189698Y0037433D01*
X0189408Y0037340D01*
X0189120Y0037239D01*
X0188834Y0037131D01*
X0188551Y0037017D01*
X0188271Y0036895D01*
X0187994Y0036767D01*
X0187721Y0036632D01*
X0187451Y0036491D01*
X0187184Y0036342D01*
X0186921Y0036188D01*
X0186662Y0036027D01*
X0186406Y0035859D01*
X0186155Y0035686D01*
X0185909Y0035506D01*
X0185667Y0035320D01*
X0185429Y0035129D01*
X0185196Y0034932D01*
X0184968Y0034729D01*
X0184745Y0034520D01*
X0184527Y0034307D01*
X0184315Y0034088D01*
X0184108Y0033864D01*
X0183906Y0033634D01*
X0183710Y0033400D01*
X0183520Y0033162D01*
X0183336Y0032918D01*
X0183158Y0032671D01*
X0182986Y0032419D01*
X0182820Y0032162D01*
X0182661Y0031902D01*
X0182507Y0031638D01*
X0182361Y0031371D01*
X0182221Y0031100D01*
X0182087Y0030825D01*
X0181961Y0030548D01*
X0181841Y0030267D01*
X0181728Y0029983D01*
X0181622Y0029697D01*
X0181523Y0029409D01*
X0181431Y0029118D01*
X0181347Y0028824D01*
X0181269Y0028529D01*
X0181199Y0028232D01*
X0181136Y0027934D01*
X0181080Y0027634D01*
X0181032Y0027332D01*
X0180991Y0027030D01*
X0180958Y0026727D01*
X0180932Y0026423D01*
X0180913Y0026118D01*
X0180902Y0025813D01*
X0180898Y0025508D01*
X0180902Y0025203D01*
X0180913Y0024898D01*
X0180932Y0024593D01*
X0180958Y0024289D01*
X0180991Y0023986D01*
X0181032Y0023684D01*
X0181080Y0023382D01*
X0181136Y0023082D01*
X0181199Y0022784D01*
X0181269Y0022487D01*
X0181347Y0022192D01*
X0181431Y0021898D01*
X0181523Y0021607D01*
X0181622Y0021319D01*
X0181728Y0021033D01*
X0181841Y0020749D01*
X0181961Y0020468D01*
X0182087Y0020191D01*
X0182221Y0019916D01*
X0182361Y0019645D01*
X0182507Y0019378D01*
X0182661Y0019114D01*
X0182820Y0018854D01*
X0182986Y0018597D01*
X0183158Y0018345D01*
X0183336Y0018098D01*
X0183520Y0017854D01*
X0183710Y0017616D01*
X0183906Y0017382D01*
X0184108Y0017152D01*
X0184315Y0016928D01*
X0184527Y0016709D01*
X0184745Y0016496D01*
X0184968Y0016287D01*
X0185196Y0016084D01*
X0185429Y0015887D01*
X0185667Y0015696D01*
X0185909Y0015510D01*
X0186155Y0015330D01*
X0186406Y0015157D01*
X0186662Y0014989D01*
X0186921Y0014828D01*
X0187184Y0014674D01*
X0187451Y0014525D01*
X0187721Y0014384D01*
X0187994Y0014249D01*
X0188271Y0014121D01*
X0188551Y0013999D01*
X0188834Y0013885D01*
X0189120Y0013777D01*
X0189408Y0013676D01*
X0189698Y0013583D01*
X0189991Y0013496D01*
X0190286Y0013417D01*
X0190582Y0013345D01*
X0190880Y0013280D01*
X0191180Y0013223D01*
X0191481Y0013173D01*
X0191783Y0013130D01*
X0192086Y0013095D01*
X0192390Y0013067D01*
X0192695Y0013047D01*
X0193000Y0013034D01*
X0193305Y0013028D01*
X0193610Y0013030D01*
X0193915Y0013040D01*
X0194219Y0013056D01*
X0194524Y0013081D01*
X0194827Y0013112D01*
X0195130Y0013152D01*
X0195431Y0013198D01*
X0195732Y0013252D01*
X0196031Y0013313D01*
X0196328Y0013382D01*
X0196624Y0013457D01*
X0196917Y0013540D01*
X0197209Y0013630D01*
X0197498Y0013728D01*
X0197785Y0013832D01*
X0198069Y0013943D01*
X0198350Y0014061D01*
X0198629Y0014186D01*
X0198904Y0014318D01*
X0199176Y0014457D01*
X0199444Y0014602D01*
X0199709Y0014753D01*
X0199970Y0014911D01*
X0200227Y0015076D01*
X0200480Y0015246D01*
X0200729Y0015423D01*
X0200974Y0015606D01*
X0201213Y0015794D01*
X0201449Y0015989D01*
X0201679Y0016189D01*
X0201904Y0016395D01*
X0202125Y0016606D01*
X0202340Y0016822D01*
X0202549Y0017044D01*
X0202753Y0017271D01*
X0202952Y0017502D01*
X0203145Y0017739D01*
X0203332Y0017980D01*
X0203257Y0018036D01*
X0203071Y0017797D01*
X0202880Y0017562D01*
X0202683Y0017333D01*
X0202480Y0017108D01*
X0202272Y0016887D01*
X0202058Y0016673D01*
X0201840Y0016463D01*
X0201616Y0016259D01*
X0201388Y0016060D01*
X0201154Y0015867D01*
X0200916Y0015680D01*
X0200674Y0015499D01*
X0200427Y0015323D01*
X0200176Y0015154D01*
X0199920Y0014991D01*
X0199661Y0014834D01*
X0199398Y0014684D01*
X0199132Y0014540D01*
X0198862Y0014402D01*
X0198589Y0014271D01*
X0198313Y0014147D01*
X0198033Y0014030D01*
X0197751Y0013920D01*
X0197467Y0013816D01*
X0197180Y0013720D01*
X0196890Y0013630D01*
X0196599Y0013548D01*
X0196306Y0013473D01*
X0196010Y0013405D01*
X0195714Y0013344D01*
X0195416Y0013291D01*
X0195116Y0013245D01*
X0194816Y0013206D01*
X0194515Y0013174D01*
X0194213Y0013150D01*
X0193910Y0013133D01*
X0193608Y0013124D01*
X0193305Y0013122D01*
X0193002Y0013128D01*
X0192700Y0013141D01*
X0192397Y0013161D01*
X0192096Y0013189D01*
X0191795Y0013224D01*
X0191495Y0013266D01*
X0191196Y0013316D01*
X0190899Y0013373D01*
X0190603Y0013437D01*
X0190309Y0013508D01*
X0190016Y0013587D01*
X0189726Y0013673D01*
X0189437Y0013766D01*
X0189152Y0013865D01*
X0188868Y0013972D01*
X0188588Y0014086D01*
X0188310Y0014206D01*
X0188035Y0014334D01*
X0187763Y0014468D01*
X0187495Y0014608D01*
X0187230Y0014755D01*
X0186969Y0014909D01*
X0186712Y0015069D01*
X0186459Y0015235D01*
X0186210Y0015407D01*
X0185965Y0015585D01*
X0185724Y0015770D01*
X0185489Y0015960D01*
X0185258Y0016155D01*
X0185031Y0016357D01*
X0184810Y0016563D01*
X0184594Y0016776D01*
X0184383Y0016993D01*
X0184178Y0017215D01*
X0183978Y0017443D01*
X0183783Y0017675D01*
X0183595Y0017912D01*
X0183412Y0018154D01*
X0183235Y0018399D01*
X0183064Y0018650D01*
X0182900Y0018904D01*
X0182741Y0019162D01*
X0182589Y0019424D01*
X0182444Y0019689D01*
X0182305Y0019958D01*
X0182172Y0020231D01*
X0182047Y0020506D01*
X0181928Y0020785D01*
X0181816Y0021066D01*
X0181711Y0021350D01*
X0181612Y0021637D01*
X0181521Y0021926D01*
X0181437Y0022217D01*
X0181360Y0022510D01*
X0181291Y0022804D01*
X0181228Y0023101D01*
X0181173Y0023398D01*
X0181125Y0023697D01*
X0181084Y0023997D01*
X0181051Y0024299D01*
X0181025Y0024600D01*
X0181007Y0024903D01*
X0180996Y0025205D01*
X0180992Y0025508D01*
X0180996Y0025811D01*
X0181007Y0026113D01*
X0181025Y0026416D01*
X0181051Y0026717D01*
X0181084Y0027019D01*
X0181125Y0027319D01*
X0181173Y0027618D01*
X0181228Y0027915D01*
X0181291Y0028212D01*
X0181360Y0028506D01*
X0181437Y0028799D01*
X0181521Y0029090D01*
X0181612Y0029379D01*
X0181711Y0029666D01*
X0181816Y0029950D01*
X0181928Y0030231D01*
X0182047Y0030510D01*
X0182172Y0030785D01*
X0182305Y0031058D01*
X0182444Y0031327D01*
X0182589Y0031592D01*
X0182741Y0031854D01*
X0182900Y0032112D01*
X0183064Y0032366D01*
X0183235Y0032617D01*
X0183412Y0032862D01*
X0183595Y0033104D01*
X0183783Y0033341D01*
X0183978Y0033573D01*
X0184178Y0033801D01*
X0184383Y0034023D01*
X0184594Y0034240D01*
X0184810Y0034453D01*
X0185031Y0034659D01*
X0185258Y0034861D01*
X0185489Y0035056D01*
X0185724Y0035246D01*
X0185965Y0035431D01*
X0186210Y0035609D01*
X0186459Y0035781D01*
X0186712Y0035947D01*
X0186969Y0036107D01*
X0187230Y0036261D01*
X0187495Y0036408D01*
X0187763Y0036548D01*
X0188035Y0036682D01*
X0188310Y0036810D01*
X0188588Y0036930D01*
X0188868Y0037044D01*
X0189152Y0037151D01*
X0189437Y0037250D01*
X0189726Y0037343D01*
X0190016Y0037429D01*
X0190309Y0037508D01*
X0190603Y0037579D01*
X0190899Y0037643D01*
X0191196Y0037700D01*
X0191495Y0037750D01*
X0191795Y0037792D01*
X0192096Y0037827D01*
X0192397Y0037855D01*
X0192700Y0037875D01*
X0193002Y0037888D01*
X0193305Y0037894D01*
X0193608Y0037892D01*
X0193910Y0037883D01*
X0194213Y0037866D01*
X0194515Y0037842D01*
X0194816Y0037810D01*
X0195116Y0037771D01*
X0195416Y0037725D01*
X0195714Y0037672D01*
X0196010Y0037611D01*
X0196306Y0037543D01*
X0196599Y0037468D01*
X0196890Y0037386D01*
X0197180Y0037296D01*
X0197467Y0037200D01*
X0197751Y0037096D01*
X0198033Y0036986D01*
X0198313Y0036869D01*
X0198589Y0036745D01*
X0198862Y0036614D01*
X0199132Y0036476D01*
X0199398Y0036332D01*
X0199661Y0036182D01*
X0199920Y0036025D01*
X0200176Y0035862D01*
X0200427Y0035693D01*
X0200674Y0035517D01*
X0200916Y0035336D01*
X0201154Y0035149D01*
X0201388Y0034956D01*
X0201616Y0034757D01*
X0201840Y0034553D01*
X0202058Y0034343D01*
X0202272Y0034129D01*
X0202480Y0033908D01*
X0202683Y0033683D01*
X0202880Y0033454D01*
X0203071Y0033219D01*
X0203257Y0032980D01*
X0203182Y0032923D01*
X0202997Y0033161D01*
X0202807Y0033393D01*
X0202612Y0033622D01*
X0202411Y0033845D01*
X0202204Y0034063D01*
X0201992Y0034277D01*
X0201775Y0034485D01*
X0201553Y0034687D01*
X0201326Y0034884D01*
X0201095Y0035076D01*
X0200859Y0035262D01*
X0200618Y0035442D01*
X0200373Y0035616D01*
X0200124Y0035784D01*
X0199870Y0035946D01*
X0199613Y0036101D01*
X0199352Y0036250D01*
X0199088Y0036393D01*
X0198820Y0036530D01*
X0198549Y0036659D01*
X0198275Y0036782D01*
X0197998Y0036899D01*
X0197718Y0037008D01*
X0197435Y0037111D01*
X0197151Y0037207D01*
X0196863Y0037295D01*
X0196574Y0037377D01*
X0196283Y0037452D01*
X0195990Y0037519D01*
X0195696Y0037580D01*
X0195400Y0037633D01*
X0195103Y0037678D01*
X0194805Y0037717D01*
X0194506Y0037748D01*
X0194206Y0037772D01*
X0193906Y0037789D01*
X0193606Y0037798D01*
X0193305Y0037800D01*
X0193005Y0037794D01*
X0192704Y0037782D01*
X0192405Y0037761D01*
X0192105Y0037734D01*
X0191807Y0037699D01*
X0191509Y0037657D01*
X0191213Y0037608D01*
X0190918Y0037551D01*
X0190624Y0037487D01*
X0190332Y0037417D01*
X0190042Y0037339D01*
X0189753Y0037253D01*
X0189467Y0037161D01*
X0189183Y0037062D01*
X0188902Y0036956D01*
X0188624Y0036843D01*
X0188348Y0036724D01*
X0188075Y0036597D01*
X0187806Y0036464D01*
X0187540Y0036325D01*
X0187277Y0036179D01*
X0187018Y0036027D01*
X0186762Y0035868D01*
X0186511Y0035703D01*
X0186264Y0035532D01*
X0186021Y0035355D01*
X0185782Y0035172D01*
X0185548Y0034984D01*
X0185319Y0034790D01*
X0185095Y0034590D01*
X0184875Y0034385D01*
X0184661Y0034174D01*
X0184451Y0033958D01*
X0184247Y0033738D01*
X0184049Y0033512D01*
X0183856Y0033281D01*
X0183669Y0033046D01*
X0183487Y0032807D01*
X0183312Y0032563D01*
X0183142Y0032314D01*
X0182979Y0032062D01*
X0182822Y0031806D01*
X0182671Y0031546D01*
X0182527Y0031282D01*
X0182389Y0031015D01*
X0182257Y0030745D01*
X0182133Y0030472D01*
X0182015Y0030195D01*
X0181904Y0029916D01*
X0181799Y0029634D01*
X0181702Y0029350D01*
X0181611Y0029063D01*
X0181528Y0028774D01*
X0181452Y0028484D01*
X0181382Y0028191D01*
X0181320Y0027897D01*
X0181266Y0027602D01*
X0181218Y0027305D01*
X0181178Y0027007D01*
X0181145Y0026708D01*
X0181119Y0026409D01*
X0181101Y0026109D01*
X0181090Y0025809D01*
X0181086Y0025508D01*
X0181090Y0025207D01*
X0181101Y0024907D01*
X0181119Y0024607D01*
X0181145Y0024308D01*
X0181178Y0024009D01*
X0181218Y0023711D01*
X0181266Y0023414D01*
X0181320Y0023119D01*
X0181382Y0022825D01*
X0181452Y0022532D01*
X0181528Y0022242D01*
X0181611Y0021953D01*
X0181702Y0021666D01*
X0181799Y0021382D01*
X0181904Y0021100D01*
X0182015Y0020821D01*
X0182133Y0020544D01*
X0182257Y0020271D01*
X0182389Y0020001D01*
X0182527Y0019734D01*
X0182671Y0019470D01*
X0182822Y0019210D01*
X0182979Y0018954D01*
X0183142Y0018702D01*
X0183312Y0018453D01*
X0183487Y0018209D01*
X0183669Y0017970D01*
X0183856Y0017735D01*
X0184049Y0017504D01*
X0184247Y0017278D01*
X0184451Y0017058D01*
X0184661Y0016842D01*
X0184875Y0016631D01*
X0185095Y0016426D01*
X0185319Y0016226D01*
X0185548Y0016032D01*
X0185782Y0015844D01*
X0186021Y0015661D01*
X0186264Y0015484D01*
X0186511Y0015313D01*
X0186762Y0015148D01*
X0187018Y0014989D01*
X0187277Y0014837D01*
X0187540Y0014691D01*
X0187806Y0014552D01*
X0188075Y0014419D01*
X0188348Y0014292D01*
X0188624Y0014173D01*
X0188902Y0014060D01*
X0189183Y0013954D01*
X0189467Y0013855D01*
X0189753Y0013763D01*
X0190042Y0013677D01*
X0190332Y0013599D01*
X0190624Y0013529D01*
X0190918Y0013465D01*
X0191213Y0013408D01*
X0191509Y0013359D01*
X0191807Y0013317D01*
X0192105Y0013282D01*
X0192405Y0013255D01*
X0192704Y0013234D01*
X0193005Y0013222D01*
X0193305Y0013216D01*
X0193606Y0013218D01*
X0193906Y0013227D01*
X0194206Y0013244D01*
X0194506Y0013268D01*
X0194805Y0013299D01*
X0195103Y0013338D01*
X0195400Y0013383D01*
X0195696Y0013436D01*
X0195990Y0013497D01*
X0196283Y0013564D01*
X0196574Y0013639D01*
X0196863Y0013721D01*
X0197151Y0013809D01*
X0197435Y0013905D01*
X0197718Y0014008D01*
X0197998Y0014117D01*
X0198275Y0014234D01*
X0198549Y0014357D01*
X0198820Y0014486D01*
X0199088Y0014623D01*
X0199352Y0014766D01*
X0199613Y0014915D01*
X0199870Y0015070D01*
X0200124Y0015232D01*
X0200373Y0015400D01*
X0200618Y0015574D01*
X0200859Y0015754D01*
X0201095Y0015940D01*
X0201326Y0016132D01*
X0201553Y0016329D01*
X0201775Y0016531D01*
X0201992Y0016739D01*
X0202204Y0016953D01*
X0202411Y0017171D01*
X0202612Y0017394D01*
X0202807Y0017623D01*
X0202997Y0017855D01*
X0203182Y0018093D01*
X0203106Y0018149D01*
X0202924Y0017914D01*
X0202735Y0017683D01*
X0202541Y0017456D01*
X0202341Y0017234D01*
X0202136Y0017018D01*
X0201926Y0016806D01*
X0201711Y0016600D01*
X0201491Y0016399D01*
X0201265Y0016203D01*
X0201036Y0016013D01*
X0200801Y0015829D01*
X0200562Y0015650D01*
X0200319Y0015477D01*
X0200072Y0015311D01*
X0199820Y0015150D01*
X0199565Y0014996D01*
X0199306Y0014848D01*
X0199044Y0014706D01*
X0198778Y0014571D01*
X0198509Y0014442D01*
X0198237Y0014320D01*
X0197962Y0014204D01*
X0197684Y0014095D01*
X0197404Y0013994D01*
X0197121Y0013899D01*
X0196836Y0013811D01*
X0196549Y0013730D01*
X0196261Y0013655D01*
X0195970Y0013589D01*
X0195678Y0013529D01*
X0195384Y0013476D01*
X0195089Y0013431D01*
X0194794Y0013392D01*
X0194497Y0013361D01*
X0194200Y0013338D01*
X0193902Y0013321D01*
X0193604Y0013312D01*
X0193306Y0013310D01*
X0193007Y0013316D01*
X0192709Y0013328D01*
X0192412Y0013348D01*
X0192115Y0013376D01*
X0191819Y0013410D01*
X0191523Y0013452D01*
X0191229Y0013501D01*
X0190936Y0013557D01*
X0190645Y0013620D01*
X0190355Y0013691D01*
X0190067Y0013768D01*
X0189781Y0013852D01*
X0189497Y0013944D01*
X0189215Y0014042D01*
X0188936Y0014147D01*
X0188660Y0014259D01*
X0188386Y0014378D01*
X0188116Y0014503D01*
X0187848Y0014635D01*
X0187584Y0014774D01*
X0187323Y0014919D01*
X0187066Y0015070D01*
X0186813Y0015227D01*
X0186564Y0015391D01*
X0186318Y0015561D01*
X0186077Y0015736D01*
X0185840Y0015918D01*
X0185608Y0016105D01*
X0185381Y0016297D01*
X0185158Y0016496D01*
X0184940Y0016699D01*
X0184727Y0016908D01*
X0184519Y0017122D01*
X0184317Y0017342D01*
X0184120Y0017565D01*
X0183929Y0017794D01*
X0183743Y0018028D01*
X0183563Y0018265D01*
X0183389Y0018507D01*
X0183221Y0018754D01*
X0183059Y0019004D01*
X0182903Y0019258D01*
X0182753Y0019516D01*
X0182610Y0019778D01*
X0182473Y0020043D01*
X0182342Y0020311D01*
X0182219Y0020582D01*
X0182102Y0020857D01*
X0181991Y0021134D01*
X0181888Y0021414D01*
X0181791Y0021696D01*
X0181701Y0021980D01*
X0181619Y0022267D01*
X0181543Y0022555D01*
X0181474Y0022845D01*
X0181413Y0023137D01*
X0181358Y0023430D01*
X0181311Y0023725D01*
X0181271Y0024020D01*
X0181238Y0024317D01*
X0181213Y0024614D01*
X0181195Y0024912D01*
X0181184Y0025210D01*
X0181180Y0025508D01*
X0181184Y0025806D01*
X0181195Y0026104D01*
X0181213Y0026402D01*
X0181238Y0026699D01*
X0181271Y0026996D01*
X0181311Y0027291D01*
X0181358Y0027586D01*
X0181413Y0027879D01*
X0181474Y0028171D01*
X0181543Y0028461D01*
X0181619Y0028749D01*
X0181701Y0029036D01*
X0181791Y0029320D01*
X0181888Y0029602D01*
X0181991Y0029882D01*
X0182102Y0030159D01*
X0182219Y0030434D01*
X0182342Y0030705D01*
X0182473Y0030973D01*
X0182610Y0031238D01*
X0182753Y0031500D01*
X0182903Y0031758D01*
X0183059Y0032012D01*
X0183221Y0032262D01*
X0183389Y0032509D01*
X0183563Y0032751D01*
X0183743Y0032988D01*
X0183929Y0033222D01*
X0184120Y0033451D01*
X0184317Y0033674D01*
X0184519Y0033894D01*
X0184727Y0034108D01*
X0184940Y0034317D01*
X0185158Y0034520D01*
X0185381Y0034719D01*
X0185608Y0034911D01*
X0185840Y0035098D01*
X0186077Y0035280D01*
X0186318Y0035455D01*
X0186564Y0035625D01*
X0186813Y0035789D01*
X0187066Y0035946D01*
X0187323Y0036097D01*
X0187584Y0036242D01*
X0187848Y0036381D01*
X0188116Y0036513D01*
X0188386Y0036638D01*
X0188660Y0036757D01*
X0188936Y0036869D01*
X0189215Y0036974D01*
X0189497Y0037072D01*
X0189781Y0037164D01*
X0190067Y0037248D01*
X0190355Y0037325D01*
X0190645Y0037396D01*
X0190936Y0037459D01*
X0191229Y0037515D01*
X0191523Y0037564D01*
X0191819Y0037606D01*
X0192115Y0037640D01*
X0192412Y0037668D01*
X0192709Y0037688D01*
X0193007Y0037700D01*
X0193306Y0037706D01*
X0193604Y0037704D01*
X0193902Y0037695D01*
X0194200Y0037678D01*
X0194497Y0037655D01*
X0194794Y0037624D01*
X0195089Y0037585D01*
X0195384Y0037540D01*
X0195678Y0037487D01*
X0195970Y0037427D01*
X0196261Y0037361D01*
X0196549Y0037286D01*
X0196836Y0037205D01*
X0197121Y0037117D01*
X0197404Y0037022D01*
X0197684Y0036921D01*
X0197962Y0036812D01*
X0198237Y0036696D01*
X0198509Y0036574D01*
X0198778Y0036445D01*
X0199044Y0036310D01*
X0199306Y0036168D01*
X0199565Y0036020D01*
X0199820Y0035866D01*
X0200072Y0035705D01*
X0200319Y0035539D01*
X0200562Y0035366D01*
X0200801Y0035187D01*
X0201036Y0035003D01*
X0201265Y0034813D01*
X0201491Y0034617D01*
X0201711Y0034416D01*
X0201926Y0034210D01*
X0202136Y0033998D01*
X0202341Y0033782D01*
X0202541Y0033560D01*
X0202735Y0033333D01*
X0202924Y0033102D01*
X0203106Y0032867D01*
X0203031Y0032810D01*
X0202850Y0033044D01*
X0202663Y0033273D01*
X0202470Y0033498D01*
X0202272Y0033718D01*
X0202069Y0033933D01*
X0201860Y0034143D01*
X0201646Y0034348D01*
X0201428Y0034547D01*
X0201204Y0034741D01*
X0200976Y0034930D01*
X0200744Y0035113D01*
X0200507Y0035290D01*
X0200265Y0035461D01*
X0200020Y0035627D01*
X0199771Y0035786D01*
X0199517Y0035939D01*
X0199261Y0036086D01*
X0199000Y0036227D01*
X0198736Y0036361D01*
X0198469Y0036489D01*
X0198199Y0036610D01*
X0197927Y0036725D01*
X0197651Y0036833D01*
X0197373Y0036934D01*
X0197092Y0037028D01*
X0196810Y0037115D01*
X0196525Y0037196D01*
X0196238Y0037269D01*
X0195950Y0037336D01*
X0195660Y0037395D01*
X0195368Y0037447D01*
X0195076Y0037492D01*
X0194782Y0037530D01*
X0194488Y0037561D01*
X0194193Y0037585D01*
X0193898Y0037601D01*
X0193602Y0037610D01*
X0193306Y0037612D01*
X0193010Y0037606D01*
X0192714Y0037594D01*
X0192419Y0037574D01*
X0192124Y0037547D01*
X0191830Y0037513D01*
X0191537Y0037471D01*
X0191245Y0037423D01*
X0190955Y0037367D01*
X0190666Y0037304D01*
X0190378Y0037234D01*
X0190092Y0037157D01*
X0189808Y0037074D01*
X0189527Y0036983D01*
X0189247Y0036885D01*
X0188970Y0036781D01*
X0188696Y0036670D01*
X0188425Y0036552D01*
X0188156Y0036428D01*
X0187891Y0036297D01*
X0187629Y0036159D01*
X0187370Y0036016D01*
X0187115Y0035866D01*
X0186863Y0035709D01*
X0186616Y0035547D01*
X0186373Y0035379D01*
X0186133Y0035204D01*
X0185898Y0035024D01*
X0185668Y0034839D01*
X0185442Y0034647D01*
X0185221Y0034451D01*
X0185005Y0034249D01*
X0184794Y0034041D01*
X0184588Y0033829D01*
X0184387Y0033611D01*
X0184191Y0033389D01*
X0184001Y0033162D01*
X0183817Y0032931D01*
X0183639Y0032695D01*
X0183466Y0032455D01*
X0183299Y0032210D01*
X0183138Y0031962D01*
X0182983Y0031709D01*
X0182835Y0031453D01*
X0182693Y0031194D01*
X0182557Y0030931D01*
X0182427Y0030665D01*
X0182305Y0030396D01*
X0182188Y0030123D01*
X0182079Y0029848D01*
X0181976Y0029571D01*
X0181880Y0029291D01*
X0181791Y0029009D01*
X0181709Y0028724D01*
X0181634Y0028438D01*
X0181566Y0028150D01*
X0181505Y0027861D01*
X0181451Y0027570D01*
X0181404Y0027277D01*
X0181364Y0026984D01*
X0181332Y0026690D01*
X0181307Y0026395D01*
X0181288Y0026100D01*
X0181278Y0025804D01*
X0181274Y0025508D01*
X0181278Y0025212D01*
X0181288Y0024916D01*
X0181307Y0024621D01*
X0181332Y0024326D01*
X0181364Y0024032D01*
X0181404Y0023739D01*
X0181451Y0023446D01*
X0181505Y0023155D01*
X0181566Y0022866D01*
X0181634Y0022578D01*
X0181709Y0022292D01*
X0181791Y0022007D01*
X0181880Y0021725D01*
X0181976Y0021445D01*
X0182079Y0021168D01*
X0182188Y0020893D01*
X0182305Y0020620D01*
X0182427Y0020351D01*
X0182557Y0020085D01*
X0182693Y0019822D01*
X0182835Y0019563D01*
X0182983Y0019307D01*
X0183138Y0019054D01*
X0183299Y0018806D01*
X0183466Y0018561D01*
X0183639Y0018321D01*
X0183817Y0018085D01*
X0184001Y0017854D01*
X0184191Y0017627D01*
X0184387Y0017405D01*
X0184588Y0017187D01*
X0184794Y0016975D01*
X0185005Y0016767D01*
X0185221Y0016565D01*
X0185442Y0016369D01*
X0185668Y0016177D01*
X0185898Y0015992D01*
X0186133Y0015812D01*
X0186373Y0015637D01*
X0186616Y0015469D01*
X0186863Y0015307D01*
X0187115Y0015150D01*
X0187370Y0015000D01*
X0187629Y0014857D01*
X0187891Y0014719D01*
X0188156Y0014588D01*
X0188425Y0014464D01*
X0188696Y0014346D01*
X0188970Y0014235D01*
X0189247Y0014131D01*
X0189527Y0014033D01*
X0189808Y0013942D01*
X0190092Y0013859D01*
X0190378Y0013782D01*
X0190666Y0013712D01*
X0190955Y0013649D01*
X0191245Y0013593D01*
X0191537Y0013545D01*
X0191830Y0013503D01*
X0192124Y0013469D01*
X0192419Y0013442D01*
X0192714Y0013422D01*
X0193010Y0013410D01*
X0193306Y0013404D01*
X0193602Y0013406D01*
X0193898Y0013415D01*
X0194193Y0013431D01*
X0194488Y0013455D01*
X0194782Y0013486D01*
X0195076Y0013524D01*
X0195368Y0013569D01*
X0195660Y0013621D01*
X0195950Y0013680D01*
X0196238Y0013747D01*
X0196525Y0013820D01*
X0196810Y0013901D01*
X0197092Y0013988D01*
X0197373Y0014082D01*
X0197651Y0014183D01*
X0197927Y0014291D01*
X0198199Y0014406D01*
X0198469Y0014527D01*
X0198736Y0014655D01*
X0199000Y0014789D01*
X0199261Y0014930D01*
X0199517Y0015077D01*
X0199771Y0015230D01*
X0200020Y0015389D01*
X0200265Y0015555D01*
X0200507Y0015726D01*
X0200744Y0015903D01*
X0200976Y0016086D01*
X0201204Y0016275D01*
X0201428Y0016469D01*
X0201646Y0016668D01*
X0201860Y0016873D01*
X0202069Y0017083D01*
X0202272Y0017298D01*
X0202470Y0017518D01*
X0202663Y0017743D01*
X0202850Y0017972D01*
X0203031Y0018206D01*
X0168723Y0037759D02*
X0168723Y0039160D01*
X0167789Y0039160D02*
X0168723Y0037759D01*
X0167789Y0037759D02*
X0167789Y0039160D01*
X0167335Y0039160D02*
X0166868Y0039160D01*
X0167102Y0039160D02*
X0167102Y0037759D01*
X0167335Y0037759D02*
X0166868Y0037759D01*
X0166421Y0038226D02*
X0166421Y0039160D01*
X0165487Y0039160D02*
X0165487Y0038226D01*
X0165954Y0037759D01*
X0166421Y0038226D01*
X0203707Y0066317D02*
X0202987Y0065777D01*
X0202988Y0065778D02*
X0202807Y0066011D01*
X0202621Y0066239D01*
X0202429Y0066463D01*
X0202232Y0066682D01*
X0202030Y0066896D01*
X0201822Y0067105D01*
X0201609Y0067308D01*
X0201392Y0067507D01*
X0201169Y0067700D01*
X0200942Y0067888D01*
X0200711Y0068070D01*
X0200475Y0068247D01*
X0200234Y0068417D01*
X0199990Y0068582D01*
X0199742Y0068740D01*
X0199490Y0068893D01*
X0199234Y0069039D01*
X0198975Y0069179D01*
X0198712Y0069313D01*
X0198447Y0069440D01*
X0198178Y0069561D01*
X0197906Y0069675D01*
X0197632Y0069782D01*
X0197355Y0069883D01*
X0197076Y0069977D01*
X0196794Y0070064D01*
X0196511Y0070144D01*
X0196225Y0070217D01*
X0195938Y0070283D01*
X0195649Y0070342D01*
X0195359Y0070394D01*
X0195068Y0070439D01*
X0194776Y0070477D01*
X0194483Y0070507D01*
X0194189Y0070531D01*
X0193895Y0070547D01*
X0193601Y0070556D01*
X0193306Y0070558D01*
X0193011Y0070552D01*
X0192717Y0070540D01*
X0192423Y0070520D01*
X0192130Y0070493D01*
X0191837Y0070459D01*
X0191545Y0070418D01*
X0191255Y0070369D01*
X0190965Y0070314D01*
X0190678Y0070252D01*
X0190391Y0070182D01*
X0190107Y0070105D01*
X0189824Y0070022D01*
X0189544Y0069932D01*
X0189266Y0069835D01*
X0188990Y0069731D01*
X0188717Y0069620D01*
X0188447Y0069503D01*
X0188179Y0069379D01*
X0187915Y0069249D01*
X0187654Y0069112D01*
X0187397Y0068969D01*
X0187143Y0068819D01*
X0186892Y0068664D01*
X0186646Y0068502D01*
X0186404Y0068335D01*
X0186166Y0068161D01*
X0185932Y0067982D01*
X0185702Y0067797D01*
X0185478Y0067607D01*
X0185257Y0067411D01*
X0185042Y0067210D01*
X0184832Y0067003D01*
X0184627Y0066792D01*
X0184427Y0066575D01*
X0184232Y0066354D01*
X0184043Y0066128D01*
X0183860Y0065898D01*
X0183682Y0065663D01*
X0183510Y0065423D01*
X0183344Y0065180D01*
X0183184Y0064933D01*
X0183030Y0064682D01*
X0182882Y0064427D01*
X0182740Y0064168D01*
X0182605Y0063907D01*
X0182476Y0063642D01*
X0182354Y0063374D01*
X0182238Y0063103D01*
X0182129Y0062829D01*
X0182027Y0062553D01*
X0181932Y0062274D01*
X0181843Y0061993D01*
X0181761Y0061710D01*
X0181686Y0061425D01*
X0181619Y0061138D01*
X0181558Y0060850D01*
X0181504Y0060560D01*
X0181457Y0060269D01*
X0181418Y0059977D01*
X0181386Y0059685D01*
X0181360Y0059391D01*
X0181342Y0059097D01*
X0181332Y0058803D01*
X0181328Y0058508D01*
X0181332Y0058213D01*
X0181342Y0057919D01*
X0181360Y0057625D01*
X0181386Y0057331D01*
X0181418Y0057039D01*
X0181457Y0056747D01*
X0181504Y0056456D01*
X0181558Y0056166D01*
X0181619Y0055878D01*
X0181686Y0055591D01*
X0181761Y0055306D01*
X0181843Y0055023D01*
X0181932Y0054742D01*
X0182027Y0054463D01*
X0182129Y0054187D01*
X0182238Y0053913D01*
X0182354Y0053642D01*
X0182476Y0053374D01*
X0182605Y0053109D01*
X0182740Y0052848D01*
X0182882Y0052589D01*
X0183030Y0052334D01*
X0183184Y0052083D01*
X0183344Y0051836D01*
X0183510Y0051593D01*
X0183682Y0051353D01*
X0183860Y0051118D01*
X0184043Y0050888D01*
X0184232Y0050662D01*
X0184427Y0050441D01*
X0184627Y0050224D01*
X0184832Y0050013D01*
X0185042Y0049806D01*
X0185257Y0049605D01*
X0185478Y0049409D01*
X0185702Y0049219D01*
X0185932Y0049034D01*
X0186166Y0048855D01*
X0186404Y0048681D01*
X0186646Y0048514D01*
X0186892Y0048352D01*
X0187143Y0048197D01*
X0187397Y0048047D01*
X0187654Y0047904D01*
X0187915Y0047767D01*
X0188179Y0047637D01*
X0188447Y0047513D01*
X0188717Y0047396D01*
X0188990Y0047285D01*
X0189266Y0047181D01*
X0189544Y0047084D01*
X0189824Y0046994D01*
X0190107Y0046911D01*
X0190391Y0046834D01*
X0190678Y0046764D01*
X0190965Y0046702D01*
X0191255Y0046647D01*
X0191545Y0046598D01*
X0191837Y0046557D01*
X0192130Y0046523D01*
X0192423Y0046496D01*
X0192717Y0046476D01*
X0193011Y0046464D01*
X0193306Y0046458D01*
X0193601Y0046460D01*
X0193895Y0046469D01*
X0194189Y0046485D01*
X0194483Y0046509D01*
X0194776Y0046539D01*
X0195068Y0046577D01*
X0195359Y0046622D01*
X0195649Y0046674D01*
X0195938Y0046733D01*
X0196225Y0046799D01*
X0196511Y0046872D01*
X0196794Y0046952D01*
X0197076Y0047039D01*
X0197355Y0047133D01*
X0197632Y0047234D01*
X0197906Y0047341D01*
X0198178Y0047455D01*
X0198447Y0047576D01*
X0198712Y0047703D01*
X0198975Y0047837D01*
X0199234Y0047977D01*
X0199490Y0048123D01*
X0199742Y0048276D01*
X0199990Y0048434D01*
X0200234Y0048599D01*
X0200475Y0048769D01*
X0200711Y0048946D01*
X0200942Y0049128D01*
X0201169Y0049316D01*
X0201392Y0049509D01*
X0201609Y0049708D01*
X0201822Y0049911D01*
X0202030Y0050120D01*
X0202232Y0050334D01*
X0202429Y0050553D01*
X0202621Y0050777D01*
X0202807Y0051005D01*
X0202988Y0051238D01*
X0203707Y0050699D01*
X0203708Y0050698D01*
X0203514Y0050448D01*
X0203314Y0050202D01*
X0203108Y0049962D01*
X0202896Y0049727D01*
X0202678Y0049497D01*
X0202455Y0049272D01*
X0202227Y0049053D01*
X0201993Y0048839D01*
X0201754Y0048631D01*
X0201510Y0048429D01*
X0201261Y0048234D01*
X0201007Y0048044D01*
X0200749Y0047861D01*
X0200487Y0047684D01*
X0200220Y0047513D01*
X0199949Y0047349D01*
X0199674Y0047192D01*
X0199396Y0047041D01*
X0199113Y0046897D01*
X0198828Y0046761D01*
X0198539Y0046631D01*
X0198247Y0046508D01*
X0197952Y0046393D01*
X0197655Y0046285D01*
X0197354Y0046184D01*
X0197052Y0046090D01*
X0196747Y0046004D01*
X0196440Y0045925D01*
X0196132Y0045854D01*
X0195822Y0045791D01*
X0195510Y0045735D01*
X0195197Y0045686D01*
X0194883Y0045646D01*
X0194568Y0045613D01*
X0194252Y0045588D01*
X0193936Y0045570D01*
X0193620Y0045560D01*
X0193303Y0045558D01*
X0192986Y0045564D01*
X0192670Y0045577D01*
X0192354Y0045599D01*
X0192039Y0045627D01*
X0191724Y0045664D01*
X0191411Y0045708D01*
X0191098Y0045760D01*
X0190787Y0045820D01*
X0190478Y0045887D01*
X0190170Y0045962D01*
X0189864Y0046044D01*
X0189561Y0046133D01*
X0189259Y0046230D01*
X0188960Y0046335D01*
X0188664Y0046447D01*
X0188370Y0046565D01*
X0188080Y0046691D01*
X0187793Y0046824D01*
X0187508Y0046965D01*
X0187228Y0047112D01*
X0186951Y0047265D01*
X0186678Y0047426D01*
X0186409Y0047593D01*
X0186144Y0047767D01*
X0185884Y0047947D01*
X0185628Y0048133D01*
X0185377Y0048326D01*
X0185130Y0048524D01*
X0184888Y0048729D01*
X0184652Y0048939D01*
X0184420Y0049156D01*
X0184195Y0049378D01*
X0183974Y0049605D01*
X0183759Y0049837D01*
X0183550Y0050075D01*
X0183347Y0050318D01*
X0183149Y0050566D01*
X0182958Y0050818D01*
X0182773Y0051075D01*
X0182595Y0051337D01*
X0182423Y0051603D01*
X0182257Y0051872D01*
X0182098Y0052146D01*
X0181946Y0052424D01*
X0181801Y0052705D01*
X0181662Y0052990D01*
X0181531Y0053278D01*
X0181407Y0053570D01*
X0181289Y0053864D01*
X0181179Y0054161D01*
X0181077Y0054460D01*
X0180982Y0054762D01*
X0180894Y0055066D01*
X0180813Y0055373D01*
X0180740Y0055681D01*
X0180675Y0055991D01*
X0180617Y0056302D01*
X0180567Y0056615D01*
X0180525Y0056929D01*
X0180490Y0057243D01*
X0180463Y0057559D01*
X0180443Y0057875D01*
X0180432Y0058191D01*
X0180428Y0058508D01*
X0180432Y0058825D01*
X0180443Y0059141D01*
X0180463Y0059457D01*
X0180490Y0059773D01*
X0180525Y0060087D01*
X0180567Y0060401D01*
X0180617Y0060714D01*
X0180675Y0061025D01*
X0180740Y0061335D01*
X0180813Y0061643D01*
X0180894Y0061950D01*
X0180982Y0062254D01*
X0181077Y0062556D01*
X0181179Y0062855D01*
X0181289Y0063152D01*
X0181407Y0063446D01*
X0181531Y0063738D01*
X0181662Y0064026D01*
X0181801Y0064311D01*
X0181946Y0064592D01*
X0182098Y0064870D01*
X0182257Y0065144D01*
X0182423Y0065413D01*
X0182595Y0065679D01*
X0182773Y0065941D01*
X0182958Y0066198D01*
X0183149Y0066450D01*
X0183347Y0066698D01*
X0183550Y0066941D01*
X0183759Y0067179D01*
X0183974Y0067411D01*
X0184195Y0067638D01*
X0184420Y0067860D01*
X0184652Y0068077D01*
X0184888Y0068287D01*
X0185130Y0068492D01*
X0185377Y0068690D01*
X0185628Y0068883D01*
X0185884Y0069069D01*
X0186144Y0069249D01*
X0186409Y0069423D01*
X0186678Y0069590D01*
X0186951Y0069751D01*
X0187228Y0069904D01*
X0187508Y0070051D01*
X0187793Y0070192D01*
X0188080Y0070325D01*
X0188370Y0070451D01*
X0188664Y0070569D01*
X0188960Y0070681D01*
X0189259Y0070786D01*
X0189561Y0070883D01*
X0189864Y0070972D01*
X0190170Y0071054D01*
X0190478Y0071129D01*
X0190787Y0071196D01*
X0191098Y0071256D01*
X0191411Y0071308D01*
X0191724Y0071352D01*
X0192039Y0071389D01*
X0192354Y0071417D01*
X0192670Y0071439D01*
X0192986Y0071452D01*
X0193303Y0071458D01*
X0193620Y0071456D01*
X0193936Y0071446D01*
X0194252Y0071428D01*
X0194568Y0071403D01*
X0194883Y0071370D01*
X0195197Y0071330D01*
X0195510Y0071281D01*
X0195822Y0071225D01*
X0196132Y0071162D01*
X0196440Y0071091D01*
X0196747Y0071012D01*
X0197052Y0070926D01*
X0197354Y0070832D01*
X0197655Y0070731D01*
X0197952Y0070623D01*
X0198247Y0070508D01*
X0198539Y0070385D01*
X0198828Y0070255D01*
X0199113Y0070119D01*
X0199396Y0069975D01*
X0199674Y0069824D01*
X0199949Y0069667D01*
X0200220Y0069503D01*
X0200487Y0069332D01*
X0200749Y0069155D01*
X0201007Y0068972D01*
X0201261Y0068782D01*
X0201510Y0068587D01*
X0201754Y0068385D01*
X0201993Y0068177D01*
X0202227Y0067963D01*
X0202455Y0067744D01*
X0202678Y0067519D01*
X0202896Y0067289D01*
X0203108Y0067054D01*
X0203314Y0066814D01*
X0203514Y0066568D01*
X0203708Y0066318D01*
X0203633Y0066262D01*
X0203440Y0066510D01*
X0203241Y0066754D01*
X0203037Y0066992D01*
X0202827Y0067226D01*
X0202611Y0067454D01*
X0202389Y0067677D01*
X0202162Y0067895D01*
X0201930Y0068107D01*
X0201693Y0068313D01*
X0201451Y0068514D01*
X0201203Y0068708D01*
X0200952Y0068896D01*
X0200695Y0069078D01*
X0200435Y0069254D01*
X0200170Y0069423D01*
X0199901Y0069586D01*
X0199628Y0069742D01*
X0199352Y0069892D01*
X0199072Y0070034D01*
X0198788Y0070170D01*
X0198501Y0070299D01*
X0198211Y0070421D01*
X0197919Y0070535D01*
X0197623Y0070643D01*
X0197325Y0070743D01*
X0197025Y0070836D01*
X0196722Y0070921D01*
X0196418Y0070999D01*
X0196112Y0071070D01*
X0195804Y0071133D01*
X0195494Y0071189D01*
X0195184Y0071237D01*
X0194872Y0071277D01*
X0194559Y0071310D01*
X0194246Y0071335D01*
X0193932Y0071352D01*
X0193618Y0071362D01*
X0193303Y0071364D01*
X0192989Y0071358D01*
X0192675Y0071345D01*
X0192361Y0071324D01*
X0192048Y0071295D01*
X0191736Y0071259D01*
X0191425Y0071215D01*
X0191115Y0071163D01*
X0190806Y0071104D01*
X0190499Y0071037D01*
X0190193Y0070963D01*
X0189890Y0070882D01*
X0189588Y0070793D01*
X0189289Y0070696D01*
X0188992Y0070593D01*
X0188698Y0070482D01*
X0188407Y0070364D01*
X0188118Y0070239D01*
X0187833Y0070107D01*
X0187551Y0069968D01*
X0187273Y0069822D01*
X0186998Y0069669D01*
X0186727Y0069510D01*
X0186460Y0069344D01*
X0186197Y0069171D01*
X0185938Y0068993D01*
X0185684Y0068808D01*
X0185435Y0068616D01*
X0185190Y0068419D01*
X0184950Y0068216D01*
X0184715Y0068007D01*
X0184485Y0067792D01*
X0184261Y0067572D01*
X0184042Y0067347D01*
X0183829Y0067116D01*
X0183621Y0066880D01*
X0183419Y0066638D01*
X0183224Y0066393D01*
X0183034Y0066142D01*
X0182850Y0065887D01*
X0182673Y0065627D01*
X0182502Y0065363D01*
X0182338Y0065095D01*
X0182180Y0064823D01*
X0182029Y0064548D01*
X0181885Y0064268D01*
X0181747Y0063986D01*
X0181617Y0063700D01*
X0181493Y0063411D01*
X0181377Y0063118D01*
X0181268Y0062824D01*
X0181166Y0062526D01*
X0181072Y0062227D01*
X0180984Y0061924D01*
X0180904Y0061620D01*
X0180832Y0061315D01*
X0180767Y0061007D01*
X0180710Y0060698D01*
X0180660Y0060387D01*
X0180618Y0060076D01*
X0180583Y0059763D01*
X0180557Y0059450D01*
X0180537Y0059136D01*
X0180526Y0058822D01*
X0180522Y0058508D01*
X0180526Y0058194D01*
X0180537Y0057880D01*
X0180557Y0057566D01*
X0180583Y0057253D01*
X0180618Y0056940D01*
X0180660Y0056629D01*
X0180710Y0056318D01*
X0180767Y0056009D01*
X0180832Y0055701D01*
X0180904Y0055396D01*
X0180984Y0055092D01*
X0181072Y0054789D01*
X0181166Y0054490D01*
X0181268Y0054192D01*
X0181377Y0053898D01*
X0181493Y0053605D01*
X0181617Y0053316D01*
X0181747Y0053030D01*
X0181885Y0052748D01*
X0182029Y0052468D01*
X0182180Y0052193D01*
X0182338Y0051921D01*
X0182502Y0051653D01*
X0182673Y0051389D01*
X0182850Y0051129D01*
X0183034Y0050874D01*
X0183224Y0050623D01*
X0183419Y0050378D01*
X0183621Y0050136D01*
X0183829Y0049900D01*
X0184042Y0049669D01*
X0184261Y0049444D01*
X0184485Y0049224D01*
X0184715Y0049009D01*
X0184950Y0048800D01*
X0185190Y0048597D01*
X0185435Y0048400D01*
X0185684Y0048208D01*
X0185938Y0048023D01*
X0186197Y0047845D01*
X0186460Y0047672D01*
X0186727Y0047506D01*
X0186998Y0047347D01*
X0187273Y0047194D01*
X0187551Y0047048D01*
X0187833Y0046909D01*
X0188118Y0046777D01*
X0188407Y0046652D01*
X0188698Y0046534D01*
X0188992Y0046423D01*
X0189289Y0046320D01*
X0189588Y0046223D01*
X0189890Y0046134D01*
X0190193Y0046053D01*
X0190499Y0045979D01*
X0190806Y0045912D01*
X0191115Y0045853D01*
X0191425Y0045801D01*
X0191736Y0045757D01*
X0192048Y0045721D01*
X0192361Y0045692D01*
X0192675Y0045671D01*
X0192989Y0045658D01*
X0193303Y0045652D01*
X0193618Y0045654D01*
X0193932Y0045664D01*
X0194246Y0045681D01*
X0194559Y0045706D01*
X0194872Y0045739D01*
X0195184Y0045779D01*
X0195494Y0045827D01*
X0195804Y0045883D01*
X0196112Y0045946D01*
X0196418Y0046017D01*
X0196722Y0046095D01*
X0197025Y0046180D01*
X0197325Y0046273D01*
X0197623Y0046373D01*
X0197919Y0046481D01*
X0198211Y0046595D01*
X0198501Y0046717D01*
X0198788Y0046846D01*
X0199072Y0046982D01*
X0199352Y0047124D01*
X0199628Y0047274D01*
X0199901Y0047430D01*
X0200170Y0047593D01*
X0200435Y0047762D01*
X0200695Y0047938D01*
X0200952Y0048120D01*
X0201203Y0048308D01*
X0201451Y0048502D01*
X0201693Y0048703D01*
X0201930Y0048909D01*
X0202162Y0049121D01*
X0202389Y0049339D01*
X0202611Y0049562D01*
X0202827Y0049790D01*
X0203037Y0050024D01*
X0203241Y0050262D01*
X0203440Y0050506D01*
X0203633Y0050754D01*
X0203558Y0050811D01*
X0203366Y0050564D01*
X0203169Y0050322D01*
X0202966Y0050085D01*
X0202757Y0049854D01*
X0202543Y0049627D01*
X0202323Y0049405D01*
X0202098Y0049189D01*
X0201867Y0048979D01*
X0201632Y0048774D01*
X0201391Y0048575D01*
X0201146Y0048382D01*
X0200896Y0048196D01*
X0200642Y0048015D01*
X0200383Y0047840D01*
X0200120Y0047672D01*
X0199853Y0047511D01*
X0199582Y0047356D01*
X0199308Y0047207D01*
X0199030Y0047066D01*
X0198748Y0046931D01*
X0198464Y0046803D01*
X0198176Y0046682D01*
X0197885Y0046568D01*
X0197592Y0046462D01*
X0197296Y0046362D01*
X0196998Y0046270D01*
X0196698Y0046185D01*
X0196395Y0046108D01*
X0196091Y0046038D01*
X0195786Y0045975D01*
X0195479Y0045920D01*
X0195170Y0045872D01*
X0194861Y0045832D01*
X0194550Y0045800D01*
X0194239Y0045775D01*
X0193928Y0045758D01*
X0193616Y0045748D01*
X0193304Y0045746D01*
X0192992Y0045752D01*
X0192680Y0045765D01*
X0192369Y0045786D01*
X0192058Y0045814D01*
X0191748Y0045851D01*
X0191439Y0045894D01*
X0191131Y0045945D01*
X0190824Y0046004D01*
X0190520Y0046070D01*
X0190216Y0046144D01*
X0189915Y0046225D01*
X0189616Y0046313D01*
X0189319Y0046409D01*
X0189024Y0046512D01*
X0188732Y0046622D01*
X0188443Y0046739D01*
X0188156Y0046863D01*
X0187873Y0046994D01*
X0187593Y0047132D01*
X0187317Y0047277D01*
X0187044Y0047429D01*
X0186775Y0047587D01*
X0186510Y0047752D01*
X0186249Y0047923D01*
X0185993Y0048100D01*
X0185740Y0048284D01*
X0185493Y0048474D01*
X0185250Y0048669D01*
X0185011Y0048871D01*
X0184778Y0049079D01*
X0184550Y0049292D01*
X0184328Y0049510D01*
X0184110Y0049734D01*
X0183899Y0049963D01*
X0183693Y0050198D01*
X0183492Y0050437D01*
X0183298Y0050681D01*
X0183110Y0050930D01*
X0182927Y0051183D01*
X0182751Y0051441D01*
X0182582Y0051703D01*
X0182419Y0051969D01*
X0182262Y0052239D01*
X0182112Y0052513D01*
X0181969Y0052790D01*
X0181832Y0053070D01*
X0181703Y0053354D01*
X0181580Y0053641D01*
X0181465Y0053931D01*
X0181357Y0054224D01*
X0181255Y0054519D01*
X0181161Y0054817D01*
X0181075Y0055117D01*
X0180996Y0055418D01*
X0180924Y0055722D01*
X0180859Y0056027D01*
X0180802Y0056334D01*
X0180753Y0056642D01*
X0180711Y0056952D01*
X0180677Y0057262D01*
X0180650Y0057573D01*
X0180631Y0057884D01*
X0180620Y0058196D01*
X0180616Y0058508D01*
X0180620Y0058820D01*
X0180631Y0059132D01*
X0180650Y0059443D01*
X0180677Y0059754D01*
X0180711Y0060064D01*
X0180753Y0060374D01*
X0180802Y0060682D01*
X0180859Y0060989D01*
X0180924Y0061294D01*
X0180996Y0061598D01*
X0181075Y0061899D01*
X0181161Y0062199D01*
X0181255Y0062497D01*
X0181357Y0062792D01*
X0181465Y0063085D01*
X0181580Y0063375D01*
X0181703Y0063662D01*
X0181832Y0063946D01*
X0181969Y0064226D01*
X0182112Y0064503D01*
X0182262Y0064777D01*
X0182419Y0065047D01*
X0182582Y0065313D01*
X0182751Y0065575D01*
X0182927Y0065833D01*
X0183110Y0066086D01*
X0183298Y0066335D01*
X0183492Y0066579D01*
X0183693Y0066818D01*
X0183899Y0067053D01*
X0184110Y0067282D01*
X0184328Y0067506D01*
X0184550Y0067724D01*
X0184778Y0067937D01*
X0185011Y0068145D01*
X0185250Y0068347D01*
X0185493Y0068542D01*
X0185740Y0068732D01*
X0185993Y0068916D01*
X0186249Y0069093D01*
X0186510Y0069264D01*
X0186775Y0069429D01*
X0187044Y0069587D01*
X0187317Y0069739D01*
X0187593Y0069884D01*
X0187873Y0070022D01*
X0188156Y0070153D01*
X0188443Y0070277D01*
X0188732Y0070394D01*
X0189024Y0070504D01*
X0189319Y0070607D01*
X0189616Y0070703D01*
X0189915Y0070791D01*
X0190216Y0070872D01*
X0190520Y0070946D01*
X0190824Y0071012D01*
X0191131Y0071071D01*
X0191439Y0071122D01*
X0191748Y0071165D01*
X0192058Y0071202D01*
X0192369Y0071230D01*
X0192680Y0071251D01*
X0192992Y0071264D01*
X0193304Y0071270D01*
X0193616Y0071268D01*
X0193928Y0071258D01*
X0194239Y0071241D01*
X0194550Y0071216D01*
X0194861Y0071184D01*
X0195170Y0071144D01*
X0195479Y0071096D01*
X0195786Y0071041D01*
X0196091Y0070978D01*
X0196395Y0070908D01*
X0196698Y0070831D01*
X0196998Y0070746D01*
X0197296Y0070654D01*
X0197592Y0070554D01*
X0197885Y0070448D01*
X0198176Y0070334D01*
X0198464Y0070213D01*
X0198748Y0070085D01*
X0199030Y0069950D01*
X0199308Y0069809D01*
X0199582Y0069660D01*
X0199853Y0069505D01*
X0200120Y0069344D01*
X0200383Y0069176D01*
X0200642Y0069001D01*
X0200896Y0068820D01*
X0201146Y0068634D01*
X0201391Y0068441D01*
X0201632Y0068242D01*
X0201867Y0068037D01*
X0202098Y0067827D01*
X0202323Y0067611D01*
X0202543Y0067389D01*
X0202757Y0067162D01*
X0202966Y0066931D01*
X0203169Y0066694D01*
X0203366Y0066452D01*
X0203558Y0066205D01*
X0203482Y0066149D01*
X0203292Y0066394D01*
X0203097Y0066634D01*
X0202895Y0066869D01*
X0202688Y0067099D01*
X0202475Y0067324D01*
X0202257Y0067544D01*
X0202033Y0067758D01*
X0201804Y0067967D01*
X0201571Y0068170D01*
X0201332Y0068368D01*
X0201089Y0068559D01*
X0200840Y0068745D01*
X0200588Y0068924D01*
X0200331Y0069097D01*
X0200070Y0069264D01*
X0199805Y0069425D01*
X0199536Y0069578D01*
X0199264Y0069726D01*
X0198988Y0069866D01*
X0198708Y0070000D01*
X0198426Y0070127D01*
X0198140Y0070247D01*
X0197852Y0070360D01*
X0197561Y0070466D01*
X0197267Y0070564D01*
X0196971Y0070656D01*
X0196673Y0070740D01*
X0196373Y0070817D01*
X0196071Y0070886D01*
X0195768Y0070949D01*
X0195463Y0071003D01*
X0195157Y0071051D01*
X0194849Y0071090D01*
X0194541Y0071122D01*
X0194233Y0071147D01*
X0193923Y0071164D01*
X0193614Y0071174D01*
X0193304Y0071176D01*
X0192994Y0071170D01*
X0192685Y0071157D01*
X0192376Y0071136D01*
X0192067Y0071108D01*
X0191760Y0071072D01*
X0191453Y0071029D01*
X0191147Y0070978D01*
X0190843Y0070920D01*
X0190540Y0070854D01*
X0190239Y0070781D01*
X0189940Y0070701D01*
X0189643Y0070613D01*
X0189348Y0070518D01*
X0189056Y0070416D01*
X0188766Y0070307D01*
X0188479Y0070190D01*
X0188195Y0070067D01*
X0187914Y0069937D01*
X0187636Y0069800D01*
X0187362Y0069656D01*
X0187091Y0069506D01*
X0186824Y0069349D01*
X0186561Y0069185D01*
X0186302Y0069015D01*
X0186047Y0068839D01*
X0185796Y0068657D01*
X0185551Y0068468D01*
X0185309Y0068274D01*
X0185073Y0068074D01*
X0184842Y0067868D01*
X0184615Y0067656D01*
X0184394Y0067439D01*
X0184179Y0067217D01*
X0183968Y0066990D01*
X0183764Y0066757D01*
X0183565Y0066519D01*
X0183372Y0066277D01*
X0183185Y0066030D01*
X0183004Y0065779D01*
X0182830Y0065523D01*
X0182661Y0065263D01*
X0182499Y0064999D01*
X0182344Y0064731D01*
X0182195Y0064459D01*
X0182053Y0064184D01*
X0181917Y0063905D01*
X0181789Y0063624D01*
X0181667Y0063339D01*
X0181553Y0063051D01*
X0181445Y0062760D01*
X0181345Y0062467D01*
X0181251Y0062172D01*
X0181165Y0061874D01*
X0181087Y0061575D01*
X0181016Y0061273D01*
X0180952Y0060970D01*
X0180895Y0060666D01*
X0180846Y0060360D01*
X0180805Y0060053D01*
X0180771Y0059745D01*
X0180744Y0059436D01*
X0180725Y0059127D01*
X0180714Y0058818D01*
X0180710Y0058508D01*
X0180714Y0058198D01*
X0180725Y0057889D01*
X0180744Y0057580D01*
X0180771Y0057271D01*
X0180805Y0056963D01*
X0180846Y0056656D01*
X0180895Y0056350D01*
X0180952Y0056046D01*
X0181016Y0055743D01*
X0181087Y0055441D01*
X0181165Y0055142D01*
X0181251Y0054844D01*
X0181345Y0054549D01*
X0181445Y0054256D01*
X0181553Y0053965D01*
X0181667Y0053677D01*
X0181789Y0053392D01*
X0181917Y0053111D01*
X0182053Y0052832D01*
X0182195Y0052557D01*
X0182344Y0052285D01*
X0182499Y0052017D01*
X0182661Y0051753D01*
X0182830Y0051493D01*
X0183004Y0051237D01*
X0183185Y0050986D01*
X0183372Y0050739D01*
X0183565Y0050497D01*
X0183764Y0050259D01*
X0183968Y0050026D01*
X0184179Y0049799D01*
X0184394Y0049577D01*
X0184615Y0049360D01*
X0184842Y0049148D01*
X0185073Y0048942D01*
X0185309Y0048742D01*
X0185551Y0048548D01*
X0185796Y0048359D01*
X0186047Y0048177D01*
X0186302Y0048001D01*
X0186561Y0047831D01*
X0186824Y0047667D01*
X0187091Y0047510D01*
X0187362Y0047360D01*
X0187636Y0047216D01*
X0187914Y0047079D01*
X0188195Y0046949D01*
X0188479Y0046826D01*
X0188766Y0046709D01*
X0189056Y0046600D01*
X0189348Y0046498D01*
X0189643Y0046403D01*
X0189940Y0046315D01*
X0190239Y0046235D01*
X0190540Y0046162D01*
X0190843Y0046096D01*
X0191147Y0046038D01*
X0191453Y0045987D01*
X0191760Y0045944D01*
X0192067Y0045908D01*
X0192376Y0045880D01*
X0192685Y0045859D01*
X0192994Y0045846D01*
X0193304Y0045840D01*
X0193614Y0045842D01*
X0193923Y0045852D01*
X0194233Y0045869D01*
X0194541Y0045894D01*
X0194849Y0045926D01*
X0195157Y0045965D01*
X0195463Y0046013D01*
X0195768Y0046067D01*
X0196071Y0046130D01*
X0196373Y0046199D01*
X0196673Y0046276D01*
X0196971Y0046360D01*
X0197267Y0046452D01*
X0197561Y0046550D01*
X0197852Y0046656D01*
X0198140Y0046769D01*
X0198426Y0046889D01*
X0198708Y0047016D01*
X0198988Y0047150D01*
X0199264Y0047290D01*
X0199536Y0047438D01*
X0199805Y0047591D01*
X0200070Y0047752D01*
X0200331Y0047919D01*
X0200588Y0048092D01*
X0200840Y0048271D01*
X0201089Y0048457D01*
X0201332Y0048648D01*
X0201571Y0048846D01*
X0201804Y0049049D01*
X0202033Y0049258D01*
X0202257Y0049472D01*
X0202475Y0049692D01*
X0202688Y0049917D01*
X0202895Y0050147D01*
X0203097Y0050382D01*
X0203292Y0050622D01*
X0203482Y0050867D01*
X0203407Y0050924D01*
X0203219Y0050681D01*
X0203024Y0050442D01*
X0202824Y0050209D01*
X0202619Y0049981D01*
X0202407Y0049757D01*
X0202191Y0049539D01*
X0201969Y0049326D01*
X0201742Y0049119D01*
X0201510Y0048917D01*
X0201273Y0048721D01*
X0201031Y0048531D01*
X0200785Y0048347D01*
X0200534Y0048169D01*
X0200279Y0047997D01*
X0200020Y0047832D01*
X0199757Y0047672D01*
X0199490Y0047520D01*
X0199220Y0047373D01*
X0198946Y0047234D01*
X0198669Y0047101D01*
X0198388Y0046975D01*
X0198105Y0046856D01*
X0197818Y0046744D01*
X0197529Y0046639D01*
X0197238Y0046541D01*
X0196944Y0046450D01*
X0196648Y0046367D01*
X0196351Y0046290D01*
X0196051Y0046221D01*
X0195750Y0046160D01*
X0195447Y0046105D01*
X0195143Y0046059D01*
X0194838Y0046019D01*
X0194533Y0045987D01*
X0194226Y0045963D01*
X0193919Y0045946D01*
X0193612Y0045936D01*
X0193304Y0045934D01*
X0192997Y0045940D01*
X0192690Y0045953D01*
X0192383Y0045973D01*
X0192077Y0046002D01*
X0191771Y0046037D01*
X0191467Y0046080D01*
X0191164Y0046131D01*
X0190862Y0046188D01*
X0190561Y0046254D01*
X0190262Y0046326D01*
X0189966Y0046406D01*
X0189671Y0046493D01*
X0189378Y0046587D01*
X0189088Y0046689D01*
X0188800Y0046797D01*
X0188515Y0046912D01*
X0188233Y0047035D01*
X0187954Y0047164D01*
X0187678Y0047300D01*
X0187406Y0047443D01*
X0187137Y0047592D01*
X0186872Y0047748D01*
X0186611Y0047910D01*
X0186354Y0048079D01*
X0186101Y0048254D01*
X0185853Y0048435D01*
X0185609Y0048622D01*
X0185369Y0048815D01*
X0185135Y0049013D01*
X0184905Y0049218D01*
X0184680Y0049428D01*
X0184461Y0049643D01*
X0184247Y0049864D01*
X0184038Y0050089D01*
X0183835Y0050320D01*
X0183638Y0050556D01*
X0183446Y0050797D01*
X0183261Y0051042D01*
X0183081Y0051291D01*
X0182908Y0051545D01*
X0182741Y0051803D01*
X0182580Y0052065D01*
X0182426Y0052331D01*
X0182278Y0052601D01*
X0182137Y0052874D01*
X0182002Y0053151D01*
X0181875Y0053430D01*
X0181754Y0053713D01*
X0181640Y0053999D01*
X0181534Y0054287D01*
X0181434Y0054578D01*
X0181341Y0054871D01*
X0181256Y0055167D01*
X0181178Y0055464D01*
X0181107Y0055763D01*
X0181044Y0056064D01*
X0180988Y0056366D01*
X0180939Y0056670D01*
X0180898Y0056975D01*
X0180864Y0057280D01*
X0180838Y0057586D01*
X0180819Y0057893D01*
X0180808Y0058201D01*
X0180804Y0058508D01*
X0180808Y0058815D01*
X0180819Y0059123D01*
X0180838Y0059430D01*
X0180864Y0059736D01*
X0180898Y0060041D01*
X0180939Y0060346D01*
X0180988Y0060650D01*
X0181044Y0060952D01*
X0181107Y0061253D01*
X0181178Y0061552D01*
X0181256Y0061849D01*
X0181341Y0062145D01*
X0181434Y0062438D01*
X0181534Y0062729D01*
X0181640Y0063017D01*
X0181754Y0063303D01*
X0181875Y0063586D01*
X0182002Y0063865D01*
X0182137Y0064142D01*
X0182278Y0064415D01*
X0182426Y0064685D01*
X0182580Y0064951D01*
X0182741Y0065213D01*
X0182908Y0065471D01*
X0183081Y0065725D01*
X0183261Y0065974D01*
X0183446Y0066219D01*
X0183638Y0066460D01*
X0183835Y0066696D01*
X0184038Y0066927D01*
X0184247Y0067152D01*
X0184461Y0067373D01*
X0184680Y0067588D01*
X0184905Y0067798D01*
X0185135Y0068003D01*
X0185369Y0068201D01*
X0185609Y0068394D01*
X0185853Y0068581D01*
X0186101Y0068762D01*
X0186354Y0068937D01*
X0186611Y0069106D01*
X0186872Y0069268D01*
X0187137Y0069424D01*
X0187406Y0069573D01*
X0187678Y0069716D01*
X0187954Y0069852D01*
X0188233Y0069981D01*
X0188515Y0070104D01*
X0188800Y0070219D01*
X0189088Y0070327D01*
X0189378Y0070429D01*
X0189671Y0070523D01*
X0189966Y0070610D01*
X0190262Y0070690D01*
X0190561Y0070762D01*
X0190862Y0070828D01*
X0191164Y0070885D01*
X0191467Y0070936D01*
X0191771Y0070979D01*
X0192077Y0071014D01*
X0192383Y0071043D01*
X0192690Y0071063D01*
X0192997Y0071076D01*
X0193304Y0071082D01*
X0193612Y0071080D01*
X0193919Y0071070D01*
X0194226Y0071053D01*
X0194533Y0071029D01*
X0194838Y0070997D01*
X0195143Y0070957D01*
X0195447Y0070911D01*
X0195750Y0070856D01*
X0196051Y0070795D01*
X0196351Y0070726D01*
X0196648Y0070649D01*
X0196944Y0070566D01*
X0197238Y0070475D01*
X0197529Y0070377D01*
X0197818Y0070272D01*
X0198105Y0070160D01*
X0198388Y0070041D01*
X0198669Y0069915D01*
X0198946Y0069782D01*
X0199220Y0069643D01*
X0199490Y0069496D01*
X0199757Y0069344D01*
X0200020Y0069184D01*
X0200279Y0069019D01*
X0200534Y0068847D01*
X0200785Y0068669D01*
X0201031Y0068485D01*
X0201273Y0068295D01*
X0201510Y0068099D01*
X0201742Y0067897D01*
X0201969Y0067690D01*
X0202191Y0067477D01*
X0202407Y0067259D01*
X0202619Y0067035D01*
X0202824Y0066807D01*
X0203024Y0066574D01*
X0203219Y0066335D01*
X0203407Y0066092D01*
X0203332Y0066036D01*
X0203145Y0066277D01*
X0202952Y0066514D01*
X0202753Y0066745D01*
X0202549Y0066972D01*
X0202340Y0067194D01*
X0202125Y0067410D01*
X0201904Y0067621D01*
X0201679Y0067827D01*
X0201449Y0068027D01*
X0201213Y0068222D01*
X0200974Y0068410D01*
X0200729Y0068593D01*
X0200480Y0068770D01*
X0200227Y0068940D01*
X0199970Y0069105D01*
X0199709Y0069263D01*
X0199444Y0069414D01*
X0199176Y0069559D01*
X0198904Y0069698D01*
X0198629Y0069830D01*
X0198350Y0069955D01*
X0198069Y0070073D01*
X0197785Y0070184D01*
X0197498Y0070288D01*
X0197209Y0070386D01*
X0196917Y0070476D01*
X0196624Y0070559D01*
X0196328Y0070634D01*
X0196031Y0070703D01*
X0195732Y0070764D01*
X0195431Y0070818D01*
X0195130Y0070864D01*
X0194827Y0070904D01*
X0194524Y0070935D01*
X0194219Y0070960D01*
X0193915Y0070976D01*
X0193610Y0070986D01*
X0193305Y0070988D01*
X0193000Y0070982D01*
X0192695Y0070969D01*
X0192390Y0070949D01*
X0192086Y0070921D01*
X0191783Y0070886D01*
X0191481Y0070843D01*
X0191180Y0070793D01*
X0190880Y0070736D01*
X0190582Y0070671D01*
X0190286Y0070599D01*
X0189991Y0070520D01*
X0189698Y0070433D01*
X0189408Y0070340D01*
X0189120Y0070239D01*
X0188834Y0070131D01*
X0188551Y0070017D01*
X0188271Y0069895D01*
X0187994Y0069767D01*
X0187721Y0069632D01*
X0187451Y0069491D01*
X0187184Y0069342D01*
X0186921Y0069188D01*
X0186662Y0069027D01*
X0186406Y0068859D01*
X0186155Y0068686D01*
X0185909Y0068506D01*
X0185667Y0068320D01*
X0185429Y0068129D01*
X0185196Y0067932D01*
X0184968Y0067729D01*
X0184745Y0067520D01*
X0184527Y0067307D01*
X0184315Y0067088D01*
X0184108Y0066864D01*
X0183906Y0066634D01*
X0183710Y0066400D01*
X0183520Y0066162D01*
X0183336Y0065918D01*
X0183158Y0065671D01*
X0182986Y0065419D01*
X0182820Y0065162D01*
X0182661Y0064902D01*
X0182507Y0064638D01*
X0182361Y0064371D01*
X0182221Y0064100D01*
X0182087Y0063825D01*
X0181961Y0063548D01*
X0181841Y0063267D01*
X0181728Y0062983D01*
X0181622Y0062697D01*
X0181523Y0062409D01*
X0181431Y0062118D01*
X0181347Y0061824D01*
X0181269Y0061529D01*
X0181199Y0061232D01*
X0181136Y0060934D01*
X0181080Y0060634D01*
X0181032Y0060332D01*
X0180991Y0060030D01*
X0180958Y0059727D01*
X0180932Y0059423D01*
X0180913Y0059118D01*
X0180902Y0058813D01*
X0180898Y0058508D01*
X0180902Y0058203D01*
X0180913Y0057898D01*
X0180932Y0057593D01*
X0180958Y0057289D01*
X0180991Y0056986D01*
X0181032Y0056684D01*
X0181080Y0056382D01*
X0181136Y0056082D01*
X0181199Y0055784D01*
X0181269Y0055487D01*
X0181347Y0055192D01*
X0181431Y0054898D01*
X0181523Y0054607D01*
X0181622Y0054319D01*
X0181728Y0054033D01*
X0181841Y0053749D01*
X0181961Y0053468D01*
X0182087Y0053191D01*
X0182221Y0052916D01*
X0182361Y0052645D01*
X0182507Y0052378D01*
X0182661Y0052114D01*
X0182820Y0051854D01*
X0182986Y0051597D01*
X0183158Y0051345D01*
X0183336Y0051098D01*
X0183520Y0050854D01*
X0183710Y0050616D01*
X0183906Y0050382D01*
X0184108Y0050152D01*
X0184315Y0049928D01*
X0184527Y0049709D01*
X0184745Y0049496D01*
X0184968Y0049287D01*
X0185196Y0049084D01*
X0185429Y0048887D01*
X0185667Y0048696D01*
X0185909Y0048510D01*
X0186155Y0048330D01*
X0186406Y0048157D01*
X0186662Y0047989D01*
X0186921Y0047828D01*
X0187184Y0047674D01*
X0187451Y0047525D01*
X0187721Y0047384D01*
X0187994Y0047249D01*
X0188271Y0047121D01*
X0188551Y0046999D01*
X0188834Y0046885D01*
X0189120Y0046777D01*
X0189408Y0046676D01*
X0189698Y0046583D01*
X0189991Y0046496D01*
X0190286Y0046417D01*
X0190582Y0046345D01*
X0190880Y0046280D01*
X0191180Y0046223D01*
X0191481Y0046173D01*
X0191783Y0046130D01*
X0192086Y0046095D01*
X0192390Y0046067D01*
X0192695Y0046047D01*
X0193000Y0046034D01*
X0193305Y0046028D01*
X0193610Y0046030D01*
X0193915Y0046040D01*
X0194219Y0046056D01*
X0194524Y0046081D01*
X0194827Y0046112D01*
X0195130Y0046152D01*
X0195431Y0046198D01*
X0195732Y0046252D01*
X0196031Y0046313D01*
X0196328Y0046382D01*
X0196624Y0046457D01*
X0196917Y0046540D01*
X0197209Y0046630D01*
X0197498Y0046728D01*
X0197785Y0046832D01*
X0198069Y0046943D01*
X0198350Y0047061D01*
X0198629Y0047186D01*
X0198904Y0047318D01*
X0199176Y0047457D01*
X0199444Y0047602D01*
X0199709Y0047753D01*
X0199970Y0047911D01*
X0200227Y0048076D01*
X0200480Y0048246D01*
X0200729Y0048423D01*
X0200974Y0048606D01*
X0201213Y0048794D01*
X0201449Y0048989D01*
X0201679Y0049189D01*
X0201904Y0049395D01*
X0202125Y0049606D01*
X0202340Y0049822D01*
X0202549Y0050044D01*
X0202753Y0050271D01*
X0202952Y0050502D01*
X0203145Y0050739D01*
X0203332Y0050980D01*
X0203257Y0051036D01*
X0203071Y0050797D01*
X0202880Y0050562D01*
X0202683Y0050333D01*
X0202480Y0050108D01*
X0202272Y0049887D01*
X0202058Y0049673D01*
X0201840Y0049463D01*
X0201616Y0049259D01*
X0201388Y0049060D01*
X0201154Y0048867D01*
X0200916Y0048680D01*
X0200674Y0048499D01*
X0200427Y0048323D01*
X0200176Y0048154D01*
X0199920Y0047991D01*
X0199661Y0047834D01*
X0199398Y0047684D01*
X0199132Y0047540D01*
X0198862Y0047402D01*
X0198589Y0047271D01*
X0198313Y0047147D01*
X0198033Y0047030D01*
X0197751Y0046920D01*
X0197467Y0046816D01*
X0197180Y0046720D01*
X0196890Y0046630D01*
X0196599Y0046548D01*
X0196306Y0046473D01*
X0196010Y0046405D01*
X0195714Y0046344D01*
X0195416Y0046291D01*
X0195116Y0046245D01*
X0194816Y0046206D01*
X0194515Y0046174D01*
X0194213Y0046150D01*
X0193910Y0046133D01*
X0193608Y0046124D01*
X0193305Y0046122D01*
X0193002Y0046128D01*
X0192700Y0046141D01*
X0192397Y0046161D01*
X0192096Y0046189D01*
X0191795Y0046224D01*
X0191495Y0046266D01*
X0191196Y0046316D01*
X0190899Y0046373D01*
X0190603Y0046437D01*
X0190309Y0046508D01*
X0190016Y0046587D01*
X0189726Y0046673D01*
X0189437Y0046766D01*
X0189152Y0046865D01*
X0188868Y0046972D01*
X0188588Y0047086D01*
X0188310Y0047206D01*
X0188035Y0047334D01*
X0187763Y0047468D01*
X0187495Y0047608D01*
X0187230Y0047755D01*
X0186969Y0047909D01*
X0186712Y0048069D01*
X0186459Y0048235D01*
X0186210Y0048407D01*
X0185965Y0048585D01*
X0185724Y0048770D01*
X0185489Y0048960D01*
X0185258Y0049155D01*
X0185031Y0049357D01*
X0184810Y0049563D01*
X0184594Y0049776D01*
X0184383Y0049993D01*
X0184178Y0050215D01*
X0183978Y0050443D01*
X0183783Y0050675D01*
X0183595Y0050912D01*
X0183412Y0051154D01*
X0183235Y0051399D01*
X0183064Y0051650D01*
X0182900Y0051904D01*
X0182741Y0052162D01*
X0182589Y0052424D01*
X0182444Y0052689D01*
X0182305Y0052958D01*
X0182172Y0053231D01*
X0182047Y0053506D01*
X0181928Y0053785D01*
X0181816Y0054066D01*
X0181711Y0054350D01*
X0181612Y0054637D01*
X0181521Y0054926D01*
X0181437Y0055217D01*
X0181360Y0055510D01*
X0181291Y0055804D01*
X0181228Y0056101D01*
X0181173Y0056398D01*
X0181125Y0056697D01*
X0181084Y0056997D01*
X0181051Y0057299D01*
X0181025Y0057600D01*
X0181007Y0057903D01*
X0180996Y0058205D01*
X0180992Y0058508D01*
X0180996Y0058811D01*
X0181007Y0059113D01*
X0181025Y0059416D01*
X0181051Y0059717D01*
X0181084Y0060019D01*
X0181125Y0060319D01*
X0181173Y0060618D01*
X0181228Y0060915D01*
X0181291Y0061212D01*
X0181360Y0061506D01*
X0181437Y0061799D01*
X0181521Y0062090D01*
X0181612Y0062379D01*
X0181711Y0062666D01*
X0181816Y0062950D01*
X0181928Y0063231D01*
X0182047Y0063510D01*
X0182172Y0063785D01*
X0182305Y0064058D01*
X0182444Y0064327D01*
X0182589Y0064592D01*
X0182741Y0064854D01*
X0182900Y0065112D01*
X0183064Y0065366D01*
X0183235Y0065617D01*
X0183412Y0065862D01*
X0183595Y0066104D01*
X0183783Y0066341D01*
X0183978Y0066573D01*
X0184178Y0066801D01*
X0184383Y0067023D01*
X0184594Y0067240D01*
X0184810Y0067453D01*
X0185031Y0067659D01*
X0185258Y0067861D01*
X0185489Y0068056D01*
X0185724Y0068246D01*
X0185965Y0068431D01*
X0186210Y0068609D01*
X0186459Y0068781D01*
X0186712Y0068947D01*
X0186969Y0069107D01*
X0187230Y0069261D01*
X0187495Y0069408D01*
X0187763Y0069548D01*
X0188035Y0069682D01*
X0188310Y0069810D01*
X0188588Y0069930D01*
X0188868Y0070044D01*
X0189152Y0070151D01*
X0189437Y0070250D01*
X0189726Y0070343D01*
X0190016Y0070429D01*
X0190309Y0070508D01*
X0190603Y0070579D01*
X0190899Y0070643D01*
X0191196Y0070700D01*
X0191495Y0070750D01*
X0191795Y0070792D01*
X0192096Y0070827D01*
X0192397Y0070855D01*
X0192700Y0070875D01*
X0193002Y0070888D01*
X0193305Y0070894D01*
X0193608Y0070892D01*
X0193910Y0070883D01*
X0194213Y0070866D01*
X0194515Y0070842D01*
X0194816Y0070810D01*
X0195116Y0070771D01*
X0195416Y0070725D01*
X0195714Y0070672D01*
X0196010Y0070611D01*
X0196306Y0070543D01*
X0196599Y0070468D01*
X0196890Y0070386D01*
X0197180Y0070296D01*
X0197467Y0070200D01*
X0197751Y0070096D01*
X0198033Y0069986D01*
X0198313Y0069869D01*
X0198589Y0069745D01*
X0198862Y0069614D01*
X0199132Y0069476D01*
X0199398Y0069332D01*
X0199661Y0069182D01*
X0199920Y0069025D01*
X0200176Y0068862D01*
X0200427Y0068693D01*
X0200674Y0068517D01*
X0200916Y0068336D01*
X0201154Y0068149D01*
X0201388Y0067956D01*
X0201616Y0067757D01*
X0201840Y0067553D01*
X0202058Y0067343D01*
X0202272Y0067129D01*
X0202480Y0066908D01*
X0202683Y0066683D01*
X0202880Y0066454D01*
X0203071Y0066219D01*
X0203257Y0065980D01*
X0203182Y0065923D01*
X0202997Y0066161D01*
X0202807Y0066393D01*
X0202612Y0066622D01*
X0202411Y0066845D01*
X0202204Y0067063D01*
X0201992Y0067277D01*
X0201775Y0067485D01*
X0201553Y0067687D01*
X0201326Y0067884D01*
X0201095Y0068076D01*
X0200859Y0068262D01*
X0200618Y0068442D01*
X0200373Y0068616D01*
X0200124Y0068784D01*
X0199870Y0068946D01*
X0199613Y0069101D01*
X0199352Y0069250D01*
X0199088Y0069393D01*
X0198820Y0069530D01*
X0198549Y0069659D01*
X0198275Y0069782D01*
X0197998Y0069899D01*
X0197718Y0070008D01*
X0197435Y0070111D01*
X0197151Y0070207D01*
X0196863Y0070295D01*
X0196574Y0070377D01*
X0196283Y0070452D01*
X0195990Y0070519D01*
X0195696Y0070580D01*
X0195400Y0070633D01*
X0195103Y0070678D01*
X0194805Y0070717D01*
X0194506Y0070748D01*
X0194206Y0070772D01*
X0193906Y0070789D01*
X0193606Y0070798D01*
X0193305Y0070800D01*
X0193005Y0070794D01*
X0192704Y0070782D01*
X0192405Y0070761D01*
X0192105Y0070734D01*
X0191807Y0070699D01*
X0191509Y0070657D01*
X0191213Y0070608D01*
X0190918Y0070551D01*
X0190624Y0070487D01*
X0190332Y0070417D01*
X0190042Y0070339D01*
X0189753Y0070253D01*
X0189467Y0070161D01*
X0189183Y0070062D01*
X0188902Y0069956D01*
X0188624Y0069843D01*
X0188348Y0069724D01*
X0188075Y0069597D01*
X0187806Y0069464D01*
X0187540Y0069325D01*
X0187277Y0069179D01*
X0187018Y0069027D01*
X0186762Y0068868D01*
X0186511Y0068703D01*
X0186264Y0068532D01*
X0186021Y0068355D01*
X0185782Y0068172D01*
X0185548Y0067984D01*
X0185319Y0067790D01*
X0185095Y0067590D01*
X0184875Y0067385D01*
X0184661Y0067174D01*
X0184451Y0066958D01*
X0184247Y0066738D01*
X0184049Y0066512D01*
X0183856Y0066281D01*
X0183669Y0066046D01*
X0183487Y0065807D01*
X0183312Y0065563D01*
X0183142Y0065314D01*
X0182979Y0065062D01*
X0182822Y0064806D01*
X0182671Y0064546D01*
X0182527Y0064282D01*
X0182389Y0064015D01*
X0182257Y0063745D01*
X0182133Y0063472D01*
X0182015Y0063195D01*
X0181904Y0062916D01*
X0181799Y0062634D01*
X0181702Y0062350D01*
X0181611Y0062063D01*
X0181528Y0061774D01*
X0181452Y0061484D01*
X0181382Y0061191D01*
X0181320Y0060897D01*
X0181266Y0060602D01*
X0181218Y0060305D01*
X0181178Y0060007D01*
X0181145Y0059708D01*
X0181119Y0059409D01*
X0181101Y0059109D01*
X0181090Y0058809D01*
X0181086Y0058508D01*
X0181090Y0058207D01*
X0181101Y0057907D01*
X0181119Y0057607D01*
X0181145Y0057308D01*
X0181178Y0057009D01*
X0181218Y0056711D01*
X0181266Y0056414D01*
X0181320Y0056119D01*
X0181382Y0055825D01*
X0181452Y0055532D01*
X0181528Y0055242D01*
X0181611Y0054953D01*
X0181702Y0054666D01*
X0181799Y0054382D01*
X0181904Y0054100D01*
X0182015Y0053821D01*
X0182133Y0053544D01*
X0182257Y0053271D01*
X0182389Y0053001D01*
X0182527Y0052734D01*
X0182671Y0052470D01*
X0182822Y0052210D01*
X0182979Y0051954D01*
X0183142Y0051702D01*
X0183312Y0051453D01*
X0183487Y0051209D01*
X0183669Y0050970D01*
X0183856Y0050735D01*
X0184049Y0050504D01*
X0184247Y0050278D01*
X0184451Y0050058D01*
X0184661Y0049842D01*
X0184875Y0049631D01*
X0185095Y0049426D01*
X0185319Y0049226D01*
X0185548Y0049032D01*
X0185782Y0048844D01*
X0186021Y0048661D01*
X0186264Y0048484D01*
X0186511Y0048313D01*
X0186762Y0048148D01*
X0187018Y0047989D01*
X0187277Y0047837D01*
X0187540Y0047691D01*
X0187806Y0047552D01*
X0188075Y0047419D01*
X0188348Y0047292D01*
X0188624Y0047173D01*
X0188902Y0047060D01*
X0189183Y0046954D01*
X0189467Y0046855D01*
X0189753Y0046763D01*
X0190042Y0046677D01*
X0190332Y0046599D01*
X0190624Y0046529D01*
X0190918Y0046465D01*
X0191213Y0046408D01*
X0191509Y0046359D01*
X0191807Y0046317D01*
X0192105Y0046282D01*
X0192405Y0046255D01*
X0192704Y0046234D01*
X0193005Y0046222D01*
X0193305Y0046216D01*
X0193606Y0046218D01*
X0193906Y0046227D01*
X0194206Y0046244D01*
X0194506Y0046268D01*
X0194805Y0046299D01*
X0195103Y0046338D01*
X0195400Y0046383D01*
X0195696Y0046436D01*
X0195990Y0046497D01*
X0196283Y0046564D01*
X0196574Y0046639D01*
X0196863Y0046721D01*
X0197151Y0046809D01*
X0197435Y0046905D01*
X0197718Y0047008D01*
X0197998Y0047117D01*
X0198275Y0047234D01*
X0198549Y0047357D01*
X0198820Y0047486D01*
X0199088Y0047623D01*
X0199352Y0047766D01*
X0199613Y0047915D01*
X0199870Y0048070D01*
X0200124Y0048232D01*
X0200373Y0048400D01*
X0200618Y0048574D01*
X0200859Y0048754D01*
X0201095Y0048940D01*
X0201326Y0049132D01*
X0201553Y0049329D01*
X0201775Y0049531D01*
X0201992Y0049739D01*
X0202204Y0049953D01*
X0202411Y0050171D01*
X0202612Y0050394D01*
X0202807Y0050623D01*
X0202997Y0050855D01*
X0203182Y0051093D01*
X0203106Y0051149D01*
X0202924Y0050914D01*
X0202735Y0050683D01*
X0202541Y0050456D01*
X0202341Y0050234D01*
X0202136Y0050018D01*
X0201926Y0049806D01*
X0201711Y0049600D01*
X0201491Y0049399D01*
X0201265Y0049203D01*
X0201036Y0049013D01*
X0200801Y0048829D01*
X0200562Y0048650D01*
X0200319Y0048477D01*
X0200072Y0048311D01*
X0199820Y0048150D01*
X0199565Y0047996D01*
X0199306Y0047848D01*
X0199044Y0047706D01*
X0198778Y0047571D01*
X0198509Y0047442D01*
X0198237Y0047320D01*
X0197962Y0047204D01*
X0197684Y0047095D01*
X0197404Y0046994D01*
X0197121Y0046899D01*
X0196836Y0046811D01*
X0196549Y0046730D01*
X0196261Y0046655D01*
X0195970Y0046589D01*
X0195678Y0046529D01*
X0195384Y0046476D01*
X0195089Y0046431D01*
X0194794Y0046392D01*
X0194497Y0046361D01*
X0194200Y0046338D01*
X0193902Y0046321D01*
X0193604Y0046312D01*
X0193306Y0046310D01*
X0193007Y0046316D01*
X0192709Y0046328D01*
X0192412Y0046348D01*
X0192115Y0046376D01*
X0191819Y0046410D01*
X0191523Y0046452D01*
X0191229Y0046501D01*
X0190936Y0046557D01*
X0190645Y0046620D01*
X0190355Y0046691D01*
X0190067Y0046768D01*
X0189781Y0046852D01*
X0189497Y0046944D01*
X0189215Y0047042D01*
X0188936Y0047147D01*
X0188660Y0047259D01*
X0188386Y0047378D01*
X0188116Y0047503D01*
X0187848Y0047635D01*
X0187584Y0047774D01*
X0187323Y0047919D01*
X0187066Y0048070D01*
X0186813Y0048227D01*
X0186564Y0048391D01*
X0186318Y0048561D01*
X0186077Y0048736D01*
X0185840Y0048918D01*
X0185608Y0049105D01*
X0185381Y0049297D01*
X0185158Y0049496D01*
X0184940Y0049699D01*
X0184727Y0049908D01*
X0184519Y0050122D01*
X0184317Y0050342D01*
X0184120Y0050565D01*
X0183929Y0050794D01*
X0183743Y0051028D01*
X0183563Y0051265D01*
X0183389Y0051507D01*
X0183221Y0051754D01*
X0183059Y0052004D01*
X0182903Y0052258D01*
X0182753Y0052516D01*
X0182610Y0052778D01*
X0182473Y0053043D01*
X0182342Y0053311D01*
X0182219Y0053582D01*
X0182102Y0053857D01*
X0181991Y0054134D01*
X0181888Y0054414D01*
X0181791Y0054696D01*
X0181701Y0054980D01*
X0181619Y0055267D01*
X0181543Y0055555D01*
X0181474Y0055845D01*
X0181413Y0056137D01*
X0181358Y0056430D01*
X0181311Y0056725D01*
X0181271Y0057020D01*
X0181238Y0057317D01*
X0181213Y0057614D01*
X0181195Y0057912D01*
X0181184Y0058210D01*
X0181180Y0058508D01*
X0181184Y0058806D01*
X0181195Y0059104D01*
X0181213Y0059402D01*
X0181238Y0059699D01*
X0181271Y0059996D01*
X0181311Y0060291D01*
X0181358Y0060586D01*
X0181413Y0060879D01*
X0181474Y0061171D01*
X0181543Y0061461D01*
X0181619Y0061749D01*
X0181701Y0062036D01*
X0181791Y0062320D01*
X0181888Y0062602D01*
X0181991Y0062882D01*
X0182102Y0063159D01*
X0182219Y0063434D01*
X0182342Y0063705D01*
X0182473Y0063973D01*
X0182610Y0064238D01*
X0182753Y0064500D01*
X0182903Y0064758D01*
X0183059Y0065012D01*
X0183221Y0065262D01*
X0183389Y0065509D01*
X0183563Y0065751D01*
X0183743Y0065988D01*
X0183929Y0066222D01*
X0184120Y0066451D01*
X0184317Y0066674D01*
X0184519Y0066894D01*
X0184727Y0067108D01*
X0184940Y0067317D01*
X0185158Y0067520D01*
X0185381Y0067719D01*
X0185608Y0067911D01*
X0185840Y0068098D01*
X0186077Y0068280D01*
X0186318Y0068455D01*
X0186564Y0068625D01*
X0186813Y0068789D01*
X0187066Y0068946D01*
X0187323Y0069097D01*
X0187584Y0069242D01*
X0187848Y0069381D01*
X0188116Y0069513D01*
X0188386Y0069638D01*
X0188660Y0069757D01*
X0188936Y0069869D01*
X0189215Y0069974D01*
X0189497Y0070072D01*
X0189781Y0070164D01*
X0190067Y0070248D01*
X0190355Y0070325D01*
X0190645Y0070396D01*
X0190936Y0070459D01*
X0191229Y0070515D01*
X0191523Y0070564D01*
X0191819Y0070606D01*
X0192115Y0070640D01*
X0192412Y0070668D01*
X0192709Y0070688D01*
X0193007Y0070700D01*
X0193306Y0070706D01*
X0193604Y0070704D01*
X0193902Y0070695D01*
X0194200Y0070678D01*
X0194497Y0070655D01*
X0194794Y0070624D01*
X0195089Y0070585D01*
X0195384Y0070540D01*
X0195678Y0070487D01*
X0195970Y0070427D01*
X0196261Y0070361D01*
X0196549Y0070286D01*
X0196836Y0070205D01*
X0197121Y0070117D01*
X0197404Y0070022D01*
X0197684Y0069921D01*
X0197962Y0069812D01*
X0198237Y0069696D01*
X0198509Y0069574D01*
X0198778Y0069445D01*
X0199044Y0069310D01*
X0199306Y0069168D01*
X0199565Y0069020D01*
X0199820Y0068866D01*
X0200072Y0068705D01*
X0200319Y0068539D01*
X0200562Y0068366D01*
X0200801Y0068187D01*
X0201036Y0068003D01*
X0201265Y0067813D01*
X0201491Y0067617D01*
X0201711Y0067416D01*
X0201926Y0067210D01*
X0202136Y0066998D01*
X0202341Y0066782D01*
X0202541Y0066560D01*
X0202735Y0066333D01*
X0202924Y0066102D01*
X0203106Y0065867D01*
X0203031Y0065810D01*
X0202850Y0066044D01*
X0202663Y0066273D01*
X0202470Y0066498D01*
X0202272Y0066718D01*
X0202069Y0066933D01*
X0201860Y0067143D01*
X0201646Y0067348D01*
X0201428Y0067547D01*
X0201204Y0067741D01*
X0200976Y0067930D01*
X0200744Y0068113D01*
X0200507Y0068290D01*
X0200265Y0068461D01*
X0200020Y0068627D01*
X0199771Y0068786D01*
X0199517Y0068939D01*
X0199261Y0069086D01*
X0199000Y0069227D01*
X0198736Y0069361D01*
X0198469Y0069489D01*
X0198199Y0069610D01*
X0197927Y0069725D01*
X0197651Y0069833D01*
X0197373Y0069934D01*
X0197092Y0070028D01*
X0196810Y0070115D01*
X0196525Y0070196D01*
X0196238Y0070269D01*
X0195950Y0070336D01*
X0195660Y0070395D01*
X0195368Y0070447D01*
X0195076Y0070492D01*
X0194782Y0070530D01*
X0194488Y0070561D01*
X0194193Y0070585D01*
X0193898Y0070601D01*
X0193602Y0070610D01*
X0193306Y0070612D01*
X0193010Y0070606D01*
X0192714Y0070594D01*
X0192419Y0070574D01*
X0192124Y0070547D01*
X0191830Y0070513D01*
X0191537Y0070471D01*
X0191245Y0070423D01*
X0190955Y0070367D01*
X0190666Y0070304D01*
X0190378Y0070234D01*
X0190092Y0070157D01*
X0189808Y0070074D01*
X0189527Y0069983D01*
X0189247Y0069885D01*
X0188970Y0069781D01*
X0188696Y0069670D01*
X0188425Y0069552D01*
X0188156Y0069428D01*
X0187891Y0069297D01*
X0187629Y0069159D01*
X0187370Y0069016D01*
X0187115Y0068866D01*
X0186863Y0068709D01*
X0186616Y0068547D01*
X0186373Y0068379D01*
X0186133Y0068204D01*
X0185898Y0068024D01*
X0185668Y0067839D01*
X0185442Y0067647D01*
X0185221Y0067451D01*
X0185005Y0067249D01*
X0184794Y0067041D01*
X0184588Y0066829D01*
X0184387Y0066611D01*
X0184191Y0066389D01*
X0184001Y0066162D01*
X0183817Y0065931D01*
X0183639Y0065695D01*
X0183466Y0065455D01*
X0183299Y0065210D01*
X0183138Y0064962D01*
X0182983Y0064709D01*
X0182835Y0064453D01*
X0182693Y0064194D01*
X0182557Y0063931D01*
X0182427Y0063665D01*
X0182305Y0063396D01*
X0182188Y0063123D01*
X0182079Y0062848D01*
X0181976Y0062571D01*
X0181880Y0062291D01*
X0181791Y0062009D01*
X0181709Y0061724D01*
X0181634Y0061438D01*
X0181566Y0061150D01*
X0181505Y0060861D01*
X0181451Y0060570D01*
X0181404Y0060277D01*
X0181364Y0059984D01*
X0181332Y0059690D01*
X0181307Y0059395D01*
X0181288Y0059100D01*
X0181278Y0058804D01*
X0181274Y0058508D01*
X0181278Y0058212D01*
X0181288Y0057916D01*
X0181307Y0057621D01*
X0181332Y0057326D01*
X0181364Y0057032D01*
X0181404Y0056739D01*
X0181451Y0056446D01*
X0181505Y0056155D01*
X0181566Y0055866D01*
X0181634Y0055578D01*
X0181709Y0055292D01*
X0181791Y0055007D01*
X0181880Y0054725D01*
X0181976Y0054445D01*
X0182079Y0054168D01*
X0182188Y0053893D01*
X0182305Y0053620D01*
X0182427Y0053351D01*
X0182557Y0053085D01*
X0182693Y0052822D01*
X0182835Y0052563D01*
X0182983Y0052307D01*
X0183138Y0052054D01*
X0183299Y0051806D01*
X0183466Y0051561D01*
X0183639Y0051321D01*
X0183817Y0051085D01*
X0184001Y0050854D01*
X0184191Y0050627D01*
X0184387Y0050405D01*
X0184588Y0050187D01*
X0184794Y0049975D01*
X0185005Y0049767D01*
X0185221Y0049565D01*
X0185442Y0049369D01*
X0185668Y0049177D01*
X0185898Y0048992D01*
X0186133Y0048812D01*
X0186373Y0048637D01*
X0186616Y0048469D01*
X0186863Y0048307D01*
X0187115Y0048150D01*
X0187370Y0048000D01*
X0187629Y0047857D01*
X0187891Y0047719D01*
X0188156Y0047588D01*
X0188425Y0047464D01*
X0188696Y0047346D01*
X0188970Y0047235D01*
X0189247Y0047131D01*
X0189527Y0047033D01*
X0189808Y0046942D01*
X0190092Y0046859D01*
X0190378Y0046782D01*
X0190666Y0046712D01*
X0190955Y0046649D01*
X0191245Y0046593D01*
X0191537Y0046545D01*
X0191830Y0046503D01*
X0192124Y0046469D01*
X0192419Y0046442D01*
X0192714Y0046422D01*
X0193010Y0046410D01*
X0193306Y0046404D01*
X0193602Y0046406D01*
X0193898Y0046415D01*
X0194193Y0046431D01*
X0194488Y0046455D01*
X0194782Y0046486D01*
X0195076Y0046524D01*
X0195368Y0046569D01*
X0195660Y0046621D01*
X0195950Y0046680D01*
X0196238Y0046747D01*
X0196525Y0046820D01*
X0196810Y0046901D01*
X0197092Y0046988D01*
X0197373Y0047082D01*
X0197651Y0047183D01*
X0197927Y0047291D01*
X0198199Y0047406D01*
X0198469Y0047527D01*
X0198736Y0047655D01*
X0199000Y0047789D01*
X0199261Y0047930D01*
X0199517Y0048077D01*
X0199771Y0048230D01*
X0200020Y0048389D01*
X0200265Y0048555D01*
X0200507Y0048726D01*
X0200744Y0048903D01*
X0200976Y0049086D01*
X0201204Y0049275D01*
X0201428Y0049469D01*
X0201646Y0049668D01*
X0201860Y0049873D01*
X0202069Y0050083D01*
X0202272Y0050298D01*
X0202470Y0050518D01*
X0202663Y0050743D01*
X0202850Y0050972D01*
X0203031Y0051206D01*
X0170065Y0077759D02*
X0169131Y0079160D01*
X0168683Y0078926D02*
X0168683Y0078459D01*
X0168450Y0078226D01*
X0167749Y0078226D01*
X0167749Y0077759D02*
X0167749Y0079160D01*
X0168450Y0079160D01*
X0168683Y0078926D01*
X0168216Y0078226D02*
X0168683Y0077759D01*
X0169131Y0077759D02*
X0170065Y0079160D01*
X0167302Y0078926D02*
X0167302Y0077992D01*
X0167069Y0077759D01*
X0166602Y0077759D01*
X0166368Y0077992D01*
X0166368Y0078926D01*
X0166602Y0079160D01*
X0167069Y0079160D01*
X0167302Y0078926D01*
X0165921Y0078926D02*
X0165688Y0079160D01*
X0164987Y0079160D01*
X0164987Y0077759D01*
X0165688Y0077759D01*
X0165921Y0077992D01*
X0165921Y0078926D01*
X0203707Y0100817D02*
X0202987Y0100277D01*
X0202988Y0100278D02*
X0202807Y0100511D01*
X0202621Y0100739D01*
X0202429Y0100963D01*
X0202232Y0101182D01*
X0202030Y0101396D01*
X0201822Y0101605D01*
X0201609Y0101808D01*
X0201392Y0102007D01*
X0201169Y0102200D01*
X0200942Y0102388D01*
X0200711Y0102570D01*
X0200475Y0102747D01*
X0200234Y0102917D01*
X0199990Y0103082D01*
X0199742Y0103240D01*
X0199490Y0103393D01*
X0199234Y0103539D01*
X0198975Y0103679D01*
X0198712Y0103813D01*
X0198447Y0103940D01*
X0198178Y0104061D01*
X0197906Y0104175D01*
X0197632Y0104282D01*
X0197355Y0104383D01*
X0197076Y0104477D01*
X0196794Y0104564D01*
X0196511Y0104644D01*
X0196225Y0104717D01*
X0195938Y0104783D01*
X0195649Y0104842D01*
X0195359Y0104894D01*
X0195068Y0104939D01*
X0194776Y0104977D01*
X0194483Y0105007D01*
X0194189Y0105031D01*
X0193895Y0105047D01*
X0193601Y0105056D01*
X0193306Y0105058D01*
X0193011Y0105052D01*
X0192717Y0105040D01*
X0192423Y0105020D01*
X0192130Y0104993D01*
X0191837Y0104959D01*
X0191545Y0104918D01*
X0191255Y0104869D01*
X0190965Y0104814D01*
X0190678Y0104752D01*
X0190391Y0104682D01*
X0190107Y0104605D01*
X0189824Y0104522D01*
X0189544Y0104432D01*
X0189266Y0104335D01*
X0188990Y0104231D01*
X0188717Y0104120D01*
X0188447Y0104003D01*
X0188179Y0103879D01*
X0187915Y0103749D01*
X0187654Y0103612D01*
X0187397Y0103469D01*
X0187143Y0103319D01*
X0186892Y0103164D01*
X0186646Y0103002D01*
X0186404Y0102835D01*
X0186166Y0102661D01*
X0185932Y0102482D01*
X0185702Y0102297D01*
X0185478Y0102107D01*
X0185257Y0101911D01*
X0185042Y0101710D01*
X0184832Y0101503D01*
X0184627Y0101292D01*
X0184427Y0101075D01*
X0184232Y0100854D01*
X0184043Y0100628D01*
X0183860Y0100398D01*
X0183682Y0100163D01*
X0183510Y0099923D01*
X0183344Y0099680D01*
X0183184Y0099433D01*
X0183030Y0099182D01*
X0182882Y0098927D01*
X0182740Y0098668D01*
X0182605Y0098407D01*
X0182476Y0098142D01*
X0182354Y0097874D01*
X0182238Y0097603D01*
X0182129Y0097329D01*
X0182027Y0097053D01*
X0181932Y0096774D01*
X0181843Y0096493D01*
X0181761Y0096210D01*
X0181686Y0095925D01*
X0181619Y0095638D01*
X0181558Y0095350D01*
X0181504Y0095060D01*
X0181457Y0094769D01*
X0181418Y0094477D01*
X0181386Y0094185D01*
X0181360Y0093891D01*
X0181342Y0093597D01*
X0181332Y0093303D01*
X0181328Y0093008D01*
X0181332Y0092713D01*
X0181342Y0092419D01*
X0181360Y0092125D01*
X0181386Y0091831D01*
X0181418Y0091539D01*
X0181457Y0091247D01*
X0181504Y0090956D01*
X0181558Y0090666D01*
X0181619Y0090378D01*
X0181686Y0090091D01*
X0181761Y0089806D01*
X0181843Y0089523D01*
X0181932Y0089242D01*
X0182027Y0088963D01*
X0182129Y0088687D01*
X0182238Y0088413D01*
X0182354Y0088142D01*
X0182476Y0087874D01*
X0182605Y0087609D01*
X0182740Y0087348D01*
X0182882Y0087089D01*
X0183030Y0086834D01*
X0183184Y0086583D01*
X0183344Y0086336D01*
X0183510Y0086093D01*
X0183682Y0085853D01*
X0183860Y0085618D01*
X0184043Y0085388D01*
X0184232Y0085162D01*
X0184427Y0084941D01*
X0184627Y0084724D01*
X0184832Y0084513D01*
X0185042Y0084306D01*
X0185257Y0084105D01*
X0185478Y0083909D01*
X0185702Y0083719D01*
X0185932Y0083534D01*
X0186166Y0083355D01*
X0186404Y0083181D01*
X0186646Y0083014D01*
X0186892Y0082852D01*
X0187143Y0082697D01*
X0187397Y0082547D01*
X0187654Y0082404D01*
X0187915Y0082267D01*
X0188179Y0082137D01*
X0188447Y0082013D01*
X0188717Y0081896D01*
X0188990Y0081785D01*
X0189266Y0081681D01*
X0189544Y0081584D01*
X0189824Y0081494D01*
X0190107Y0081411D01*
X0190391Y0081334D01*
X0190678Y0081264D01*
X0190965Y0081202D01*
X0191255Y0081147D01*
X0191545Y0081098D01*
X0191837Y0081057D01*
X0192130Y0081023D01*
X0192423Y0080996D01*
X0192717Y0080976D01*
X0193011Y0080964D01*
X0193306Y0080958D01*
X0193601Y0080960D01*
X0193895Y0080969D01*
X0194189Y0080985D01*
X0194483Y0081009D01*
X0194776Y0081039D01*
X0195068Y0081077D01*
X0195359Y0081122D01*
X0195649Y0081174D01*
X0195938Y0081233D01*
X0196225Y0081299D01*
X0196511Y0081372D01*
X0196794Y0081452D01*
X0197076Y0081539D01*
X0197355Y0081633D01*
X0197632Y0081734D01*
X0197906Y0081841D01*
X0198178Y0081955D01*
X0198447Y0082076D01*
X0198712Y0082203D01*
X0198975Y0082337D01*
X0199234Y0082477D01*
X0199490Y0082623D01*
X0199742Y0082776D01*
X0199990Y0082934D01*
X0200234Y0083099D01*
X0200475Y0083269D01*
X0200711Y0083446D01*
X0200942Y0083628D01*
X0201169Y0083816D01*
X0201392Y0084009D01*
X0201609Y0084208D01*
X0201822Y0084411D01*
X0202030Y0084620D01*
X0202232Y0084834D01*
X0202429Y0085053D01*
X0202621Y0085277D01*
X0202807Y0085505D01*
X0202988Y0085738D01*
X0203707Y0085199D01*
X0203708Y0085198D01*
X0203514Y0084948D01*
X0203314Y0084702D01*
X0203108Y0084462D01*
X0202896Y0084227D01*
X0202678Y0083997D01*
X0202455Y0083772D01*
X0202227Y0083553D01*
X0201993Y0083339D01*
X0201754Y0083131D01*
X0201510Y0082929D01*
X0201261Y0082734D01*
X0201007Y0082544D01*
X0200749Y0082361D01*
X0200487Y0082184D01*
X0200220Y0082013D01*
X0199949Y0081849D01*
X0199674Y0081692D01*
X0199396Y0081541D01*
X0199113Y0081397D01*
X0198828Y0081261D01*
X0198539Y0081131D01*
X0198247Y0081008D01*
X0197952Y0080893D01*
X0197655Y0080785D01*
X0197354Y0080684D01*
X0197052Y0080590D01*
X0196747Y0080504D01*
X0196440Y0080425D01*
X0196132Y0080354D01*
X0195822Y0080291D01*
X0195510Y0080235D01*
X0195197Y0080186D01*
X0194883Y0080146D01*
X0194568Y0080113D01*
X0194252Y0080088D01*
X0193936Y0080070D01*
X0193620Y0080060D01*
X0193303Y0080058D01*
X0192986Y0080064D01*
X0192670Y0080077D01*
X0192354Y0080099D01*
X0192039Y0080127D01*
X0191724Y0080164D01*
X0191411Y0080208D01*
X0191098Y0080260D01*
X0190787Y0080320D01*
X0190478Y0080387D01*
X0190170Y0080462D01*
X0189864Y0080544D01*
X0189561Y0080633D01*
X0189259Y0080730D01*
X0188960Y0080835D01*
X0188664Y0080947D01*
X0188370Y0081065D01*
X0188080Y0081191D01*
X0187793Y0081324D01*
X0187508Y0081465D01*
X0187228Y0081612D01*
X0186951Y0081765D01*
X0186678Y0081926D01*
X0186409Y0082093D01*
X0186144Y0082267D01*
X0185884Y0082447D01*
X0185628Y0082633D01*
X0185377Y0082826D01*
X0185130Y0083024D01*
X0184888Y0083229D01*
X0184652Y0083439D01*
X0184420Y0083656D01*
X0184195Y0083878D01*
X0183974Y0084105D01*
X0183759Y0084337D01*
X0183550Y0084575D01*
X0183347Y0084818D01*
X0183149Y0085066D01*
X0182958Y0085318D01*
X0182773Y0085575D01*
X0182595Y0085837D01*
X0182423Y0086103D01*
X0182257Y0086372D01*
X0182098Y0086646D01*
X0181946Y0086924D01*
X0181801Y0087205D01*
X0181662Y0087490D01*
X0181531Y0087778D01*
X0181407Y0088070D01*
X0181289Y0088364D01*
X0181179Y0088661D01*
X0181077Y0088960D01*
X0180982Y0089262D01*
X0180894Y0089566D01*
X0180813Y0089873D01*
X0180740Y0090181D01*
X0180675Y0090491D01*
X0180617Y0090802D01*
X0180567Y0091115D01*
X0180525Y0091429D01*
X0180490Y0091743D01*
X0180463Y0092059D01*
X0180443Y0092375D01*
X0180432Y0092691D01*
X0180428Y0093008D01*
X0180432Y0093325D01*
X0180443Y0093641D01*
X0180463Y0093957D01*
X0180490Y0094273D01*
X0180525Y0094587D01*
X0180567Y0094901D01*
X0180617Y0095214D01*
X0180675Y0095525D01*
X0180740Y0095835D01*
X0180813Y0096143D01*
X0180894Y0096450D01*
X0180982Y0096754D01*
X0181077Y0097056D01*
X0181179Y0097355D01*
X0181289Y0097652D01*
X0181407Y0097946D01*
X0181531Y0098238D01*
X0181662Y0098526D01*
X0181801Y0098811D01*
X0181946Y0099092D01*
X0182098Y0099370D01*
X0182257Y0099644D01*
X0182423Y0099913D01*
X0182595Y0100179D01*
X0182773Y0100441D01*
X0182958Y0100698D01*
X0183149Y0100950D01*
X0183347Y0101198D01*
X0183550Y0101441D01*
X0183759Y0101679D01*
X0183974Y0101911D01*
X0184195Y0102138D01*
X0184420Y0102360D01*
X0184652Y0102577D01*
X0184888Y0102787D01*
X0185130Y0102992D01*
X0185377Y0103190D01*
X0185628Y0103383D01*
X0185884Y0103569D01*
X0186144Y0103749D01*
X0186409Y0103923D01*
X0186678Y0104090D01*
X0186951Y0104251D01*
X0187228Y0104404D01*
X0187508Y0104551D01*
X0187793Y0104692D01*
X0188080Y0104825D01*
X0188370Y0104951D01*
X0188664Y0105069D01*
X0188960Y0105181D01*
X0189259Y0105286D01*
X0189561Y0105383D01*
X0189864Y0105472D01*
X0190170Y0105554D01*
X0190478Y0105629D01*
X0190787Y0105696D01*
X0191098Y0105756D01*
X0191411Y0105808D01*
X0191724Y0105852D01*
X0192039Y0105889D01*
X0192354Y0105917D01*
X0192670Y0105939D01*
X0192986Y0105952D01*
X0193303Y0105958D01*
X0193620Y0105956D01*
X0193936Y0105946D01*
X0194252Y0105928D01*
X0194568Y0105903D01*
X0194883Y0105870D01*
X0195197Y0105830D01*
X0195510Y0105781D01*
X0195822Y0105725D01*
X0196132Y0105662D01*
X0196440Y0105591D01*
X0196747Y0105512D01*
X0197052Y0105426D01*
X0197354Y0105332D01*
X0197655Y0105231D01*
X0197952Y0105123D01*
X0198247Y0105008D01*
X0198539Y0104885D01*
X0198828Y0104755D01*
X0199113Y0104619D01*
X0199396Y0104475D01*
X0199674Y0104324D01*
X0199949Y0104167D01*
X0200220Y0104003D01*
X0200487Y0103832D01*
X0200749Y0103655D01*
X0201007Y0103472D01*
X0201261Y0103282D01*
X0201510Y0103087D01*
X0201754Y0102885D01*
X0201993Y0102677D01*
X0202227Y0102463D01*
X0202455Y0102244D01*
X0202678Y0102019D01*
X0202896Y0101789D01*
X0203108Y0101554D01*
X0203314Y0101314D01*
X0203514Y0101068D01*
X0203708Y0100818D01*
X0203633Y0100762D01*
X0203440Y0101010D01*
X0203241Y0101254D01*
X0203037Y0101492D01*
X0202827Y0101726D01*
X0202611Y0101954D01*
X0202389Y0102177D01*
X0202162Y0102395D01*
X0201930Y0102607D01*
X0201693Y0102813D01*
X0201451Y0103014D01*
X0201203Y0103208D01*
X0200952Y0103396D01*
X0200695Y0103578D01*
X0200435Y0103754D01*
X0200170Y0103923D01*
X0199901Y0104086D01*
X0199628Y0104242D01*
X0199352Y0104392D01*
X0199072Y0104534D01*
X0198788Y0104670D01*
X0198501Y0104799D01*
X0198211Y0104921D01*
X0197919Y0105035D01*
X0197623Y0105143D01*
X0197325Y0105243D01*
X0197025Y0105336D01*
X0196722Y0105421D01*
X0196418Y0105499D01*
X0196112Y0105570D01*
X0195804Y0105633D01*
X0195494Y0105689D01*
X0195184Y0105737D01*
X0194872Y0105777D01*
X0194559Y0105810D01*
X0194246Y0105835D01*
X0193932Y0105852D01*
X0193618Y0105862D01*
X0193303Y0105864D01*
X0192989Y0105858D01*
X0192675Y0105845D01*
X0192361Y0105824D01*
X0192048Y0105795D01*
X0191736Y0105759D01*
X0191425Y0105715D01*
X0191115Y0105663D01*
X0190806Y0105604D01*
X0190499Y0105537D01*
X0190193Y0105463D01*
X0189890Y0105382D01*
X0189588Y0105293D01*
X0189289Y0105196D01*
X0188992Y0105093D01*
X0188698Y0104982D01*
X0188407Y0104864D01*
X0188118Y0104739D01*
X0187833Y0104607D01*
X0187551Y0104468D01*
X0187273Y0104322D01*
X0186998Y0104169D01*
X0186727Y0104010D01*
X0186460Y0103844D01*
X0186197Y0103671D01*
X0185938Y0103493D01*
X0185684Y0103308D01*
X0185435Y0103116D01*
X0185190Y0102919D01*
X0184950Y0102716D01*
X0184715Y0102507D01*
X0184485Y0102292D01*
X0184261Y0102072D01*
X0184042Y0101847D01*
X0183829Y0101616D01*
X0183621Y0101380D01*
X0183419Y0101138D01*
X0183224Y0100893D01*
X0183034Y0100642D01*
X0182850Y0100387D01*
X0182673Y0100127D01*
X0182502Y0099863D01*
X0182338Y0099595D01*
X0182180Y0099323D01*
X0182029Y0099048D01*
X0181885Y0098768D01*
X0181747Y0098486D01*
X0181617Y0098200D01*
X0181493Y0097911D01*
X0181377Y0097618D01*
X0181268Y0097324D01*
X0181166Y0097026D01*
X0181072Y0096727D01*
X0180984Y0096424D01*
X0180904Y0096120D01*
X0180832Y0095815D01*
X0180767Y0095507D01*
X0180710Y0095198D01*
X0180660Y0094887D01*
X0180618Y0094576D01*
X0180583Y0094263D01*
X0180557Y0093950D01*
X0180537Y0093636D01*
X0180526Y0093322D01*
X0180522Y0093008D01*
X0180526Y0092694D01*
X0180537Y0092380D01*
X0180557Y0092066D01*
X0180583Y0091753D01*
X0180618Y0091440D01*
X0180660Y0091129D01*
X0180710Y0090818D01*
X0180767Y0090509D01*
X0180832Y0090201D01*
X0180904Y0089896D01*
X0180984Y0089592D01*
X0181072Y0089289D01*
X0181166Y0088990D01*
X0181268Y0088692D01*
X0181377Y0088398D01*
X0181493Y0088105D01*
X0181617Y0087816D01*
X0181747Y0087530D01*
X0181885Y0087248D01*
X0182029Y0086968D01*
X0182180Y0086693D01*
X0182338Y0086421D01*
X0182502Y0086153D01*
X0182673Y0085889D01*
X0182850Y0085629D01*
X0183034Y0085374D01*
X0183224Y0085123D01*
X0183419Y0084878D01*
X0183621Y0084636D01*
X0183829Y0084400D01*
X0184042Y0084169D01*
X0184261Y0083944D01*
X0184485Y0083724D01*
X0184715Y0083509D01*
X0184950Y0083300D01*
X0185190Y0083097D01*
X0185435Y0082900D01*
X0185684Y0082708D01*
X0185938Y0082523D01*
X0186197Y0082345D01*
X0186460Y0082172D01*
X0186727Y0082006D01*
X0186998Y0081847D01*
X0187273Y0081694D01*
X0187551Y0081548D01*
X0187833Y0081409D01*
X0188118Y0081277D01*
X0188407Y0081152D01*
X0188698Y0081034D01*
X0188992Y0080923D01*
X0189289Y0080820D01*
X0189588Y0080723D01*
X0189890Y0080634D01*
X0190193Y0080553D01*
X0190499Y0080479D01*
X0190806Y0080412D01*
X0191115Y0080353D01*
X0191425Y0080301D01*
X0191736Y0080257D01*
X0192048Y0080221D01*
X0192361Y0080192D01*
X0192675Y0080171D01*
X0192989Y0080158D01*
X0193303Y0080152D01*
X0193618Y0080154D01*
X0193932Y0080164D01*
X0194246Y0080181D01*
X0194559Y0080206D01*
X0194872Y0080239D01*
X0195184Y0080279D01*
X0195494Y0080327D01*
X0195804Y0080383D01*
X0196112Y0080446D01*
X0196418Y0080517D01*
X0196722Y0080595D01*
X0197025Y0080680D01*
X0197325Y0080773D01*
X0197623Y0080873D01*
X0197919Y0080981D01*
X0198211Y0081095D01*
X0198501Y0081217D01*
X0198788Y0081346D01*
X0199072Y0081482D01*
X0199352Y0081624D01*
X0199628Y0081774D01*
X0199901Y0081930D01*
X0200170Y0082093D01*
X0200435Y0082262D01*
X0200695Y0082438D01*
X0200952Y0082620D01*
X0201203Y0082808D01*
X0201451Y0083002D01*
X0201693Y0083203D01*
X0201930Y0083409D01*
X0202162Y0083621D01*
X0202389Y0083839D01*
X0202611Y0084062D01*
X0202827Y0084290D01*
X0203037Y0084524D01*
X0203241Y0084762D01*
X0203440Y0085006D01*
X0203633Y0085254D01*
X0203558Y0085311D01*
X0203366Y0085064D01*
X0203169Y0084822D01*
X0202966Y0084585D01*
X0202757Y0084354D01*
X0202543Y0084127D01*
X0202323Y0083905D01*
X0202098Y0083689D01*
X0201867Y0083479D01*
X0201632Y0083274D01*
X0201391Y0083075D01*
X0201146Y0082882D01*
X0200896Y0082696D01*
X0200642Y0082515D01*
X0200383Y0082340D01*
X0200120Y0082172D01*
X0199853Y0082011D01*
X0199582Y0081856D01*
X0199308Y0081707D01*
X0199030Y0081566D01*
X0198748Y0081431D01*
X0198464Y0081303D01*
X0198176Y0081182D01*
X0197885Y0081068D01*
X0197592Y0080962D01*
X0197296Y0080862D01*
X0196998Y0080770D01*
X0196698Y0080685D01*
X0196395Y0080608D01*
X0196091Y0080538D01*
X0195786Y0080475D01*
X0195479Y0080420D01*
X0195170Y0080372D01*
X0194861Y0080332D01*
X0194550Y0080300D01*
X0194239Y0080275D01*
X0193928Y0080258D01*
X0193616Y0080248D01*
X0193304Y0080246D01*
X0192992Y0080252D01*
X0192680Y0080265D01*
X0192369Y0080286D01*
X0192058Y0080314D01*
X0191748Y0080351D01*
X0191439Y0080394D01*
X0191131Y0080445D01*
X0190824Y0080504D01*
X0190520Y0080570D01*
X0190216Y0080644D01*
X0189915Y0080725D01*
X0189616Y0080813D01*
X0189319Y0080909D01*
X0189024Y0081012D01*
X0188732Y0081122D01*
X0188443Y0081239D01*
X0188156Y0081363D01*
X0187873Y0081494D01*
X0187593Y0081632D01*
X0187317Y0081777D01*
X0187044Y0081929D01*
X0186775Y0082087D01*
X0186510Y0082252D01*
X0186249Y0082423D01*
X0185993Y0082600D01*
X0185740Y0082784D01*
X0185493Y0082974D01*
X0185250Y0083169D01*
X0185011Y0083371D01*
X0184778Y0083579D01*
X0184550Y0083792D01*
X0184328Y0084010D01*
X0184110Y0084234D01*
X0183899Y0084463D01*
X0183693Y0084698D01*
X0183492Y0084937D01*
X0183298Y0085181D01*
X0183110Y0085430D01*
X0182927Y0085683D01*
X0182751Y0085941D01*
X0182582Y0086203D01*
X0182419Y0086469D01*
X0182262Y0086739D01*
X0182112Y0087013D01*
X0181969Y0087290D01*
X0181832Y0087570D01*
X0181703Y0087854D01*
X0181580Y0088141D01*
X0181465Y0088431D01*
X0181357Y0088724D01*
X0181255Y0089019D01*
X0181161Y0089317D01*
X0181075Y0089617D01*
X0180996Y0089918D01*
X0180924Y0090222D01*
X0180859Y0090527D01*
X0180802Y0090834D01*
X0180753Y0091142D01*
X0180711Y0091452D01*
X0180677Y0091762D01*
X0180650Y0092073D01*
X0180631Y0092384D01*
X0180620Y0092696D01*
X0180616Y0093008D01*
X0180620Y0093320D01*
X0180631Y0093632D01*
X0180650Y0093943D01*
X0180677Y0094254D01*
X0180711Y0094564D01*
X0180753Y0094874D01*
X0180802Y0095182D01*
X0180859Y0095489D01*
X0180924Y0095794D01*
X0180996Y0096098D01*
X0181075Y0096399D01*
X0181161Y0096699D01*
X0181255Y0096997D01*
X0181357Y0097292D01*
X0181465Y0097585D01*
X0181580Y0097875D01*
X0181703Y0098162D01*
X0181832Y0098446D01*
X0181969Y0098726D01*
X0182112Y0099003D01*
X0182262Y0099277D01*
X0182419Y0099547D01*
X0182582Y0099813D01*
X0182751Y0100075D01*
X0182927Y0100333D01*
X0183110Y0100586D01*
X0183298Y0100835D01*
X0183492Y0101079D01*
X0183693Y0101318D01*
X0183899Y0101553D01*
X0184110Y0101782D01*
X0184328Y0102006D01*
X0184550Y0102224D01*
X0184778Y0102437D01*
X0185011Y0102645D01*
X0185250Y0102847D01*
X0185493Y0103042D01*
X0185740Y0103232D01*
X0185993Y0103416D01*
X0186249Y0103593D01*
X0186510Y0103764D01*
X0186775Y0103929D01*
X0187044Y0104087D01*
X0187317Y0104239D01*
X0187593Y0104384D01*
X0187873Y0104522D01*
X0188156Y0104653D01*
X0188443Y0104777D01*
X0188732Y0104894D01*
X0189024Y0105004D01*
X0189319Y0105107D01*
X0189616Y0105203D01*
X0189915Y0105291D01*
X0190216Y0105372D01*
X0190520Y0105446D01*
X0190824Y0105512D01*
X0191131Y0105571D01*
X0191439Y0105622D01*
X0191748Y0105665D01*
X0192058Y0105702D01*
X0192369Y0105730D01*
X0192680Y0105751D01*
X0192992Y0105764D01*
X0193304Y0105770D01*
X0193616Y0105768D01*
X0193928Y0105758D01*
X0194239Y0105741D01*
X0194550Y0105716D01*
X0194861Y0105684D01*
X0195170Y0105644D01*
X0195479Y0105596D01*
X0195786Y0105541D01*
X0196091Y0105478D01*
X0196395Y0105408D01*
X0196698Y0105331D01*
X0196998Y0105246D01*
X0197296Y0105154D01*
X0197592Y0105054D01*
X0197885Y0104948D01*
X0198176Y0104834D01*
X0198464Y0104713D01*
X0198748Y0104585D01*
X0199030Y0104450D01*
X0199308Y0104309D01*
X0199582Y0104160D01*
X0199853Y0104005D01*
X0200120Y0103844D01*
X0200383Y0103676D01*
X0200642Y0103501D01*
X0200896Y0103320D01*
X0201146Y0103134D01*
X0201391Y0102941D01*
X0201632Y0102742D01*
X0201867Y0102537D01*
X0202098Y0102327D01*
X0202323Y0102111D01*
X0202543Y0101889D01*
X0202757Y0101662D01*
X0202966Y0101431D01*
X0203169Y0101194D01*
X0203366Y0100952D01*
X0203558Y0100705D01*
X0203482Y0100649D01*
X0203292Y0100894D01*
X0203097Y0101134D01*
X0202895Y0101369D01*
X0202688Y0101599D01*
X0202475Y0101824D01*
X0202257Y0102044D01*
X0202033Y0102258D01*
X0201804Y0102467D01*
X0201571Y0102670D01*
X0201332Y0102868D01*
X0201089Y0103059D01*
X0200840Y0103245D01*
X0200588Y0103424D01*
X0200331Y0103597D01*
X0200070Y0103764D01*
X0199805Y0103925D01*
X0199536Y0104078D01*
X0199264Y0104226D01*
X0198988Y0104366D01*
X0198708Y0104500D01*
X0198426Y0104627D01*
X0198140Y0104747D01*
X0197852Y0104860D01*
X0197561Y0104966D01*
X0197267Y0105064D01*
X0196971Y0105156D01*
X0196673Y0105240D01*
X0196373Y0105317D01*
X0196071Y0105386D01*
X0195768Y0105449D01*
X0195463Y0105503D01*
X0195157Y0105551D01*
X0194849Y0105590D01*
X0194541Y0105622D01*
X0194233Y0105647D01*
X0193923Y0105664D01*
X0193614Y0105674D01*
X0193304Y0105676D01*
X0192994Y0105670D01*
X0192685Y0105657D01*
X0192376Y0105636D01*
X0192067Y0105608D01*
X0191760Y0105572D01*
X0191453Y0105529D01*
X0191147Y0105478D01*
X0190843Y0105420D01*
X0190540Y0105354D01*
X0190239Y0105281D01*
X0189940Y0105201D01*
X0189643Y0105113D01*
X0189348Y0105018D01*
X0189056Y0104916D01*
X0188766Y0104807D01*
X0188479Y0104690D01*
X0188195Y0104567D01*
X0187914Y0104437D01*
X0187636Y0104300D01*
X0187362Y0104156D01*
X0187091Y0104006D01*
X0186824Y0103849D01*
X0186561Y0103685D01*
X0186302Y0103515D01*
X0186047Y0103339D01*
X0185796Y0103157D01*
X0185551Y0102968D01*
X0185309Y0102774D01*
X0185073Y0102574D01*
X0184842Y0102368D01*
X0184615Y0102156D01*
X0184394Y0101939D01*
X0184179Y0101717D01*
X0183968Y0101490D01*
X0183764Y0101257D01*
X0183565Y0101019D01*
X0183372Y0100777D01*
X0183185Y0100530D01*
X0183004Y0100279D01*
X0182830Y0100023D01*
X0182661Y0099763D01*
X0182499Y0099499D01*
X0182344Y0099231D01*
X0182195Y0098959D01*
X0182053Y0098684D01*
X0181917Y0098405D01*
X0181789Y0098124D01*
X0181667Y0097839D01*
X0181553Y0097551D01*
X0181445Y0097260D01*
X0181345Y0096967D01*
X0181251Y0096672D01*
X0181165Y0096374D01*
X0181087Y0096075D01*
X0181016Y0095773D01*
X0180952Y0095470D01*
X0180895Y0095166D01*
X0180846Y0094860D01*
X0180805Y0094553D01*
X0180771Y0094245D01*
X0180744Y0093936D01*
X0180725Y0093627D01*
X0180714Y0093318D01*
X0180710Y0093008D01*
X0180714Y0092698D01*
X0180725Y0092389D01*
X0180744Y0092080D01*
X0180771Y0091771D01*
X0180805Y0091463D01*
X0180846Y0091156D01*
X0180895Y0090850D01*
X0180952Y0090546D01*
X0181016Y0090243D01*
X0181087Y0089941D01*
X0181165Y0089642D01*
X0181251Y0089344D01*
X0181345Y0089049D01*
X0181445Y0088756D01*
X0181553Y0088465D01*
X0181667Y0088177D01*
X0181789Y0087892D01*
X0181917Y0087611D01*
X0182053Y0087332D01*
X0182195Y0087057D01*
X0182344Y0086785D01*
X0182499Y0086517D01*
X0182661Y0086253D01*
X0182830Y0085993D01*
X0183004Y0085737D01*
X0183185Y0085486D01*
X0183372Y0085239D01*
X0183565Y0084997D01*
X0183764Y0084759D01*
X0183968Y0084526D01*
X0184179Y0084299D01*
X0184394Y0084077D01*
X0184615Y0083860D01*
X0184842Y0083648D01*
X0185073Y0083442D01*
X0185309Y0083242D01*
X0185551Y0083048D01*
X0185796Y0082859D01*
X0186047Y0082677D01*
X0186302Y0082501D01*
X0186561Y0082331D01*
X0186824Y0082167D01*
X0187091Y0082010D01*
X0187362Y0081860D01*
X0187636Y0081716D01*
X0187914Y0081579D01*
X0188195Y0081449D01*
X0188479Y0081326D01*
X0188766Y0081209D01*
X0189056Y0081100D01*
X0189348Y0080998D01*
X0189643Y0080903D01*
X0189940Y0080815D01*
X0190239Y0080735D01*
X0190540Y0080662D01*
X0190843Y0080596D01*
X0191147Y0080538D01*
X0191453Y0080487D01*
X0191760Y0080444D01*
X0192067Y0080408D01*
X0192376Y0080380D01*
X0192685Y0080359D01*
X0192994Y0080346D01*
X0193304Y0080340D01*
X0193614Y0080342D01*
X0193923Y0080352D01*
X0194233Y0080369D01*
X0194541Y0080394D01*
X0194849Y0080426D01*
X0195157Y0080465D01*
X0195463Y0080513D01*
X0195768Y0080567D01*
X0196071Y0080630D01*
X0196373Y0080699D01*
X0196673Y0080776D01*
X0196971Y0080860D01*
X0197267Y0080952D01*
X0197561Y0081050D01*
X0197852Y0081156D01*
X0198140Y0081269D01*
X0198426Y0081389D01*
X0198708Y0081516D01*
X0198988Y0081650D01*
X0199264Y0081790D01*
X0199536Y0081938D01*
X0199805Y0082091D01*
X0200070Y0082252D01*
X0200331Y0082419D01*
X0200588Y0082592D01*
X0200840Y0082771D01*
X0201089Y0082957D01*
X0201332Y0083148D01*
X0201571Y0083346D01*
X0201804Y0083549D01*
X0202033Y0083758D01*
X0202257Y0083972D01*
X0202475Y0084192D01*
X0202688Y0084417D01*
X0202895Y0084647D01*
X0203097Y0084882D01*
X0203292Y0085122D01*
X0203482Y0085367D01*
X0203407Y0085424D01*
X0203219Y0085181D01*
X0203024Y0084942D01*
X0202824Y0084709D01*
X0202619Y0084481D01*
X0202407Y0084257D01*
X0202191Y0084039D01*
X0201969Y0083826D01*
X0201742Y0083619D01*
X0201510Y0083417D01*
X0201273Y0083221D01*
X0201031Y0083031D01*
X0200785Y0082847D01*
X0200534Y0082669D01*
X0200279Y0082497D01*
X0200020Y0082332D01*
X0199757Y0082172D01*
X0199490Y0082020D01*
X0199220Y0081873D01*
X0198946Y0081734D01*
X0198669Y0081601D01*
X0198388Y0081475D01*
X0198105Y0081356D01*
X0197818Y0081244D01*
X0197529Y0081139D01*
X0197238Y0081041D01*
X0196944Y0080950D01*
X0196648Y0080867D01*
X0196351Y0080790D01*
X0196051Y0080721D01*
X0195750Y0080660D01*
X0195447Y0080605D01*
X0195143Y0080559D01*
X0194838Y0080519D01*
X0194533Y0080487D01*
X0194226Y0080463D01*
X0193919Y0080446D01*
X0193612Y0080436D01*
X0193304Y0080434D01*
X0192997Y0080440D01*
X0192690Y0080453D01*
X0192383Y0080473D01*
X0192077Y0080502D01*
X0191771Y0080537D01*
X0191467Y0080580D01*
X0191164Y0080631D01*
X0190862Y0080688D01*
X0190561Y0080754D01*
X0190262Y0080826D01*
X0189966Y0080906D01*
X0189671Y0080993D01*
X0189378Y0081087D01*
X0189088Y0081189D01*
X0188800Y0081297D01*
X0188515Y0081412D01*
X0188233Y0081535D01*
X0187954Y0081664D01*
X0187678Y0081800D01*
X0187406Y0081943D01*
X0187137Y0082092D01*
X0186872Y0082248D01*
X0186611Y0082410D01*
X0186354Y0082579D01*
X0186101Y0082754D01*
X0185853Y0082935D01*
X0185609Y0083122D01*
X0185369Y0083315D01*
X0185135Y0083513D01*
X0184905Y0083718D01*
X0184680Y0083928D01*
X0184461Y0084143D01*
X0184247Y0084364D01*
X0184038Y0084589D01*
X0183835Y0084820D01*
X0183638Y0085056D01*
X0183446Y0085297D01*
X0183261Y0085542D01*
X0183081Y0085791D01*
X0182908Y0086045D01*
X0182741Y0086303D01*
X0182580Y0086565D01*
X0182426Y0086831D01*
X0182278Y0087101D01*
X0182137Y0087374D01*
X0182002Y0087651D01*
X0181875Y0087930D01*
X0181754Y0088213D01*
X0181640Y0088499D01*
X0181534Y0088787D01*
X0181434Y0089078D01*
X0181341Y0089371D01*
X0181256Y0089667D01*
X0181178Y0089964D01*
X0181107Y0090263D01*
X0181044Y0090564D01*
X0180988Y0090866D01*
X0180939Y0091170D01*
X0180898Y0091475D01*
X0180864Y0091780D01*
X0180838Y0092086D01*
X0180819Y0092393D01*
X0180808Y0092701D01*
X0180804Y0093008D01*
X0180808Y0093315D01*
X0180819Y0093623D01*
X0180838Y0093930D01*
X0180864Y0094236D01*
X0180898Y0094541D01*
X0180939Y0094846D01*
X0180988Y0095150D01*
X0181044Y0095452D01*
X0181107Y0095753D01*
X0181178Y0096052D01*
X0181256Y0096349D01*
X0181341Y0096645D01*
X0181434Y0096938D01*
X0181534Y0097229D01*
X0181640Y0097517D01*
X0181754Y0097803D01*
X0181875Y0098086D01*
X0182002Y0098365D01*
X0182137Y0098642D01*
X0182278Y0098915D01*
X0182426Y0099185D01*
X0182580Y0099451D01*
X0182741Y0099713D01*
X0182908Y0099971D01*
X0183081Y0100225D01*
X0183261Y0100474D01*
X0183446Y0100719D01*
X0183638Y0100960D01*
X0183835Y0101196D01*
X0184038Y0101427D01*
X0184247Y0101652D01*
X0184461Y0101873D01*
X0184680Y0102088D01*
X0184905Y0102298D01*
X0185135Y0102503D01*
X0185369Y0102701D01*
X0185609Y0102894D01*
X0185853Y0103081D01*
X0186101Y0103262D01*
X0186354Y0103437D01*
X0186611Y0103606D01*
X0186872Y0103768D01*
X0187137Y0103924D01*
X0187406Y0104073D01*
X0187678Y0104216D01*
X0187954Y0104352D01*
X0188233Y0104481D01*
X0188515Y0104604D01*
X0188800Y0104719D01*
X0189088Y0104827D01*
X0189378Y0104929D01*
X0189671Y0105023D01*
X0189966Y0105110D01*
X0190262Y0105190D01*
X0190561Y0105262D01*
X0190862Y0105328D01*
X0191164Y0105385D01*
X0191467Y0105436D01*
X0191771Y0105479D01*
X0192077Y0105514D01*
X0192383Y0105543D01*
X0192690Y0105563D01*
X0192997Y0105576D01*
X0193304Y0105582D01*
X0193612Y0105580D01*
X0193919Y0105570D01*
X0194226Y0105553D01*
X0194533Y0105529D01*
X0194838Y0105497D01*
X0195143Y0105457D01*
X0195447Y0105411D01*
X0195750Y0105356D01*
X0196051Y0105295D01*
X0196351Y0105226D01*
X0196648Y0105149D01*
X0196944Y0105066D01*
X0197238Y0104975D01*
X0197529Y0104877D01*
X0197818Y0104772D01*
X0198105Y0104660D01*
X0198388Y0104541D01*
X0198669Y0104415D01*
X0198946Y0104282D01*
X0199220Y0104143D01*
X0199490Y0103996D01*
X0199757Y0103844D01*
X0200020Y0103684D01*
X0200279Y0103519D01*
X0200534Y0103347D01*
X0200785Y0103169D01*
X0201031Y0102985D01*
X0201273Y0102795D01*
X0201510Y0102599D01*
X0201742Y0102397D01*
X0201969Y0102190D01*
X0202191Y0101977D01*
X0202407Y0101759D01*
X0202619Y0101535D01*
X0202824Y0101307D01*
X0203024Y0101074D01*
X0203219Y0100835D01*
X0203407Y0100592D01*
X0203332Y0100536D01*
X0203145Y0100777D01*
X0202952Y0101014D01*
X0202753Y0101245D01*
X0202549Y0101472D01*
X0202340Y0101694D01*
X0202125Y0101910D01*
X0201904Y0102121D01*
X0201679Y0102327D01*
X0201449Y0102527D01*
X0201213Y0102722D01*
X0200974Y0102910D01*
X0200729Y0103093D01*
X0200480Y0103270D01*
X0200227Y0103440D01*
X0199970Y0103605D01*
X0199709Y0103763D01*
X0199444Y0103914D01*
X0199176Y0104059D01*
X0198904Y0104198D01*
X0198629Y0104330D01*
X0198350Y0104455D01*
X0198069Y0104573D01*
X0197785Y0104684D01*
X0197498Y0104788D01*
X0197209Y0104886D01*
X0196917Y0104976D01*
X0196624Y0105059D01*
X0196328Y0105134D01*
X0196031Y0105203D01*
X0195732Y0105264D01*
X0195431Y0105318D01*
X0195130Y0105364D01*
X0194827Y0105404D01*
X0194524Y0105435D01*
X0194219Y0105460D01*
X0193915Y0105476D01*
X0193610Y0105486D01*
X0193305Y0105488D01*
X0193000Y0105482D01*
X0192695Y0105469D01*
X0192390Y0105449D01*
X0192086Y0105421D01*
X0191783Y0105386D01*
X0191481Y0105343D01*
X0191180Y0105293D01*
X0190880Y0105236D01*
X0190582Y0105171D01*
X0190286Y0105099D01*
X0189991Y0105020D01*
X0189698Y0104933D01*
X0189408Y0104840D01*
X0189120Y0104739D01*
X0188834Y0104631D01*
X0188551Y0104517D01*
X0188271Y0104395D01*
X0187994Y0104267D01*
X0187721Y0104132D01*
X0187451Y0103991D01*
X0187184Y0103842D01*
X0186921Y0103688D01*
X0186662Y0103527D01*
X0186406Y0103359D01*
X0186155Y0103186D01*
X0185909Y0103006D01*
X0185667Y0102820D01*
X0185429Y0102629D01*
X0185196Y0102432D01*
X0184968Y0102229D01*
X0184745Y0102020D01*
X0184527Y0101807D01*
X0184315Y0101588D01*
X0184108Y0101364D01*
X0183906Y0101134D01*
X0183710Y0100900D01*
X0183520Y0100662D01*
X0183336Y0100418D01*
X0183158Y0100171D01*
X0182986Y0099919D01*
X0182820Y0099662D01*
X0182661Y0099402D01*
X0182507Y0099138D01*
X0182361Y0098871D01*
X0182221Y0098600D01*
X0182087Y0098325D01*
X0181961Y0098048D01*
X0181841Y0097767D01*
X0181728Y0097483D01*
X0181622Y0097197D01*
X0181523Y0096909D01*
X0181431Y0096618D01*
X0181347Y0096324D01*
X0181269Y0096029D01*
X0181199Y0095732D01*
X0181136Y0095434D01*
X0181080Y0095134D01*
X0181032Y0094832D01*
X0180991Y0094530D01*
X0180958Y0094227D01*
X0180932Y0093923D01*
X0180913Y0093618D01*
X0180902Y0093313D01*
X0180898Y0093008D01*
X0180902Y0092703D01*
X0180913Y0092398D01*
X0180932Y0092093D01*
X0180958Y0091789D01*
X0180991Y0091486D01*
X0181032Y0091184D01*
X0181080Y0090882D01*
X0181136Y0090582D01*
X0181199Y0090284D01*
X0181269Y0089987D01*
X0181347Y0089692D01*
X0181431Y0089398D01*
X0181523Y0089107D01*
X0181622Y0088819D01*
X0181728Y0088533D01*
X0181841Y0088249D01*
X0181961Y0087968D01*
X0182087Y0087691D01*
X0182221Y0087416D01*
X0182361Y0087145D01*
X0182507Y0086878D01*
X0182661Y0086614D01*
X0182820Y0086354D01*
X0182986Y0086097D01*
X0183158Y0085845D01*
X0183336Y0085598D01*
X0183520Y0085354D01*
X0183710Y0085116D01*
X0183906Y0084882D01*
X0184108Y0084652D01*
X0184315Y0084428D01*
X0184527Y0084209D01*
X0184745Y0083996D01*
X0184968Y0083787D01*
X0185196Y0083584D01*
X0185429Y0083387D01*
X0185667Y0083196D01*
X0185909Y0083010D01*
X0186155Y0082830D01*
X0186406Y0082657D01*
X0186662Y0082489D01*
X0186921Y0082328D01*
X0187184Y0082174D01*
X0187451Y0082025D01*
X0187721Y0081884D01*
X0187994Y0081749D01*
X0188271Y0081621D01*
X0188551Y0081499D01*
X0188834Y0081385D01*
X0189120Y0081277D01*
X0189408Y0081176D01*
X0189698Y0081083D01*
X0189991Y0080996D01*
X0190286Y0080917D01*
X0190582Y0080845D01*
X0190880Y0080780D01*
X0191180Y0080723D01*
X0191481Y0080673D01*
X0191783Y0080630D01*
X0192086Y0080595D01*
X0192390Y0080567D01*
X0192695Y0080547D01*
X0193000Y0080534D01*
X0193305Y0080528D01*
X0193610Y0080530D01*
X0193915Y0080540D01*
X0194219Y0080556D01*
X0194524Y0080581D01*
X0194827Y0080612D01*
X0195130Y0080652D01*
X0195431Y0080698D01*
X0195732Y0080752D01*
X0196031Y0080813D01*
X0196328Y0080882D01*
X0196624Y0080957D01*
X0196917Y0081040D01*
X0197209Y0081130D01*
X0197498Y0081228D01*
X0197785Y0081332D01*
X0198069Y0081443D01*
X0198350Y0081561D01*
X0198629Y0081686D01*
X0198904Y0081818D01*
X0199176Y0081957D01*
X0199444Y0082102D01*
X0199709Y0082253D01*
X0199970Y0082411D01*
X0200227Y0082576D01*
X0200480Y0082746D01*
X0200729Y0082923D01*
X0200974Y0083106D01*
X0201213Y0083294D01*
X0201449Y0083489D01*
X0201679Y0083689D01*
X0201904Y0083895D01*
X0202125Y0084106D01*
X0202340Y0084322D01*
X0202549Y0084544D01*
X0202753Y0084771D01*
X0202952Y0085002D01*
X0203145Y0085239D01*
X0203332Y0085480D01*
X0203257Y0085536D01*
X0203071Y0085297D01*
X0202880Y0085062D01*
X0202683Y0084833D01*
X0202480Y0084608D01*
X0202272Y0084387D01*
X0202058Y0084173D01*
X0201840Y0083963D01*
X0201616Y0083759D01*
X0201388Y0083560D01*
X0201154Y0083367D01*
X0200916Y0083180D01*
X0200674Y0082999D01*
X0200427Y0082823D01*
X0200176Y0082654D01*
X0199920Y0082491D01*
X0199661Y0082334D01*
X0199398Y0082184D01*
X0199132Y0082040D01*
X0198862Y0081902D01*
X0198589Y0081771D01*
X0198313Y0081647D01*
X0198033Y0081530D01*
X0197751Y0081420D01*
X0197467Y0081316D01*
X0197180Y0081220D01*
X0196890Y0081130D01*
X0196599Y0081048D01*
X0196306Y0080973D01*
X0196010Y0080905D01*
X0195714Y0080844D01*
X0195416Y0080791D01*
X0195116Y0080745D01*
X0194816Y0080706D01*
X0194515Y0080674D01*
X0194213Y0080650D01*
X0193910Y0080633D01*
X0193608Y0080624D01*
X0193305Y0080622D01*
X0193002Y0080628D01*
X0192700Y0080641D01*
X0192397Y0080661D01*
X0192096Y0080689D01*
X0191795Y0080724D01*
X0191495Y0080766D01*
X0191196Y0080816D01*
X0190899Y0080873D01*
X0190603Y0080937D01*
X0190309Y0081008D01*
X0190016Y0081087D01*
X0189726Y0081173D01*
X0189437Y0081266D01*
X0189152Y0081365D01*
X0188868Y0081472D01*
X0188588Y0081586D01*
X0188310Y0081706D01*
X0188035Y0081834D01*
X0187763Y0081968D01*
X0187495Y0082108D01*
X0187230Y0082255D01*
X0186969Y0082409D01*
X0186712Y0082569D01*
X0186459Y0082735D01*
X0186210Y0082907D01*
X0185965Y0083085D01*
X0185724Y0083270D01*
X0185489Y0083460D01*
X0185258Y0083655D01*
X0185031Y0083857D01*
X0184810Y0084063D01*
X0184594Y0084276D01*
X0184383Y0084493D01*
X0184178Y0084715D01*
X0183978Y0084943D01*
X0183783Y0085175D01*
X0183595Y0085412D01*
X0183412Y0085654D01*
X0183235Y0085899D01*
X0183064Y0086150D01*
X0182900Y0086404D01*
X0182741Y0086662D01*
X0182589Y0086924D01*
X0182444Y0087189D01*
X0182305Y0087458D01*
X0182172Y0087731D01*
X0182047Y0088006D01*
X0181928Y0088285D01*
X0181816Y0088566D01*
X0181711Y0088850D01*
X0181612Y0089137D01*
X0181521Y0089426D01*
X0181437Y0089717D01*
X0181360Y0090010D01*
X0181291Y0090304D01*
X0181228Y0090601D01*
X0181173Y0090898D01*
X0181125Y0091197D01*
X0181084Y0091497D01*
X0181051Y0091799D01*
X0181025Y0092100D01*
X0181007Y0092403D01*
X0180996Y0092705D01*
X0180992Y0093008D01*
X0180996Y0093311D01*
X0181007Y0093613D01*
X0181025Y0093916D01*
X0181051Y0094217D01*
X0181084Y0094519D01*
X0181125Y0094819D01*
X0181173Y0095118D01*
X0181228Y0095415D01*
X0181291Y0095712D01*
X0181360Y0096006D01*
X0181437Y0096299D01*
X0181521Y0096590D01*
X0181612Y0096879D01*
X0181711Y0097166D01*
X0181816Y0097450D01*
X0181928Y0097731D01*
X0182047Y0098010D01*
X0182172Y0098285D01*
X0182305Y0098558D01*
X0182444Y0098827D01*
X0182589Y0099092D01*
X0182741Y0099354D01*
X0182900Y0099612D01*
X0183064Y0099866D01*
X0183235Y0100117D01*
X0183412Y0100362D01*
X0183595Y0100604D01*
X0183783Y0100841D01*
X0183978Y0101073D01*
X0184178Y0101301D01*
X0184383Y0101523D01*
X0184594Y0101740D01*
X0184810Y0101953D01*
X0185031Y0102159D01*
X0185258Y0102361D01*
X0185489Y0102556D01*
X0185724Y0102746D01*
X0185965Y0102931D01*
X0186210Y0103109D01*
X0186459Y0103281D01*
X0186712Y0103447D01*
X0186969Y0103607D01*
X0187230Y0103761D01*
X0187495Y0103908D01*
X0187763Y0104048D01*
X0188035Y0104182D01*
X0188310Y0104310D01*
X0188588Y0104430D01*
X0188868Y0104544D01*
X0189152Y0104651D01*
X0189437Y0104750D01*
X0189726Y0104843D01*
X0190016Y0104929D01*
X0190309Y0105008D01*
X0190603Y0105079D01*
X0190899Y0105143D01*
X0191196Y0105200D01*
X0191495Y0105250D01*
X0191795Y0105292D01*
X0192096Y0105327D01*
X0192397Y0105355D01*
X0192700Y0105375D01*
X0193002Y0105388D01*
X0193305Y0105394D01*
X0193608Y0105392D01*
X0193910Y0105383D01*
X0194213Y0105366D01*
X0194515Y0105342D01*
X0194816Y0105310D01*
X0195116Y0105271D01*
X0195416Y0105225D01*
X0195714Y0105172D01*
X0196010Y0105111D01*
X0196306Y0105043D01*
X0196599Y0104968D01*
X0196890Y0104886D01*
X0197180Y0104796D01*
X0197467Y0104700D01*
X0197751Y0104596D01*
X0198033Y0104486D01*
X0198313Y0104369D01*
X0198589Y0104245D01*
X0198862Y0104114D01*
X0199132Y0103976D01*
X0199398Y0103832D01*
X0199661Y0103682D01*
X0199920Y0103525D01*
X0200176Y0103362D01*
X0200427Y0103193D01*
X0200674Y0103017D01*
X0200916Y0102836D01*
X0201154Y0102649D01*
X0201388Y0102456D01*
X0201616Y0102257D01*
X0201840Y0102053D01*
X0202058Y0101843D01*
X0202272Y0101629D01*
X0202480Y0101408D01*
X0202683Y0101183D01*
X0202880Y0100954D01*
X0203071Y0100719D01*
X0203257Y0100480D01*
X0203182Y0100423D01*
X0202997Y0100661D01*
X0202807Y0100893D01*
X0202612Y0101122D01*
X0202411Y0101345D01*
X0202204Y0101563D01*
X0201992Y0101777D01*
X0201775Y0101985D01*
X0201553Y0102187D01*
X0201326Y0102384D01*
X0201095Y0102576D01*
X0200859Y0102762D01*
X0200618Y0102942D01*
X0200373Y0103116D01*
X0200124Y0103284D01*
X0199870Y0103446D01*
X0199613Y0103601D01*
X0199352Y0103750D01*
X0199088Y0103893D01*
X0198820Y0104030D01*
X0198549Y0104159D01*
X0198275Y0104282D01*
X0197998Y0104399D01*
X0197718Y0104508D01*
X0197435Y0104611D01*
X0197151Y0104707D01*
X0196863Y0104795D01*
X0196574Y0104877D01*
X0196283Y0104952D01*
X0195990Y0105019D01*
X0195696Y0105080D01*
X0195400Y0105133D01*
X0195103Y0105178D01*
X0194805Y0105217D01*
X0194506Y0105248D01*
X0194206Y0105272D01*
X0193906Y0105289D01*
X0193606Y0105298D01*
X0193305Y0105300D01*
X0193005Y0105294D01*
X0192704Y0105282D01*
X0192405Y0105261D01*
X0192105Y0105234D01*
X0191807Y0105199D01*
X0191509Y0105157D01*
X0191213Y0105108D01*
X0190918Y0105051D01*
X0190624Y0104987D01*
X0190332Y0104917D01*
X0190042Y0104839D01*
X0189753Y0104753D01*
X0189467Y0104661D01*
X0189183Y0104562D01*
X0188902Y0104456D01*
X0188624Y0104343D01*
X0188348Y0104224D01*
X0188075Y0104097D01*
X0187806Y0103964D01*
X0187540Y0103825D01*
X0187277Y0103679D01*
X0187018Y0103527D01*
X0186762Y0103368D01*
X0186511Y0103203D01*
X0186264Y0103032D01*
X0186021Y0102855D01*
X0185782Y0102672D01*
X0185548Y0102484D01*
X0185319Y0102290D01*
X0185095Y0102090D01*
X0184875Y0101885D01*
X0184661Y0101674D01*
X0184451Y0101458D01*
X0184247Y0101238D01*
X0184049Y0101012D01*
X0183856Y0100781D01*
X0183669Y0100546D01*
X0183487Y0100307D01*
X0183312Y0100063D01*
X0183142Y0099814D01*
X0182979Y0099562D01*
X0182822Y0099306D01*
X0182671Y0099046D01*
X0182527Y0098782D01*
X0182389Y0098515D01*
X0182257Y0098245D01*
X0182133Y0097972D01*
X0182015Y0097695D01*
X0181904Y0097416D01*
X0181799Y0097134D01*
X0181702Y0096850D01*
X0181611Y0096563D01*
X0181528Y0096274D01*
X0181452Y0095984D01*
X0181382Y0095691D01*
X0181320Y0095397D01*
X0181266Y0095102D01*
X0181218Y0094805D01*
X0181178Y0094507D01*
X0181145Y0094208D01*
X0181119Y0093909D01*
X0181101Y0093609D01*
X0181090Y0093309D01*
X0181086Y0093008D01*
X0181090Y0092707D01*
X0181101Y0092407D01*
X0181119Y0092107D01*
X0181145Y0091808D01*
X0181178Y0091509D01*
X0181218Y0091211D01*
X0181266Y0090914D01*
X0181320Y0090619D01*
X0181382Y0090325D01*
X0181452Y0090032D01*
X0181528Y0089742D01*
X0181611Y0089453D01*
X0181702Y0089166D01*
X0181799Y0088882D01*
X0181904Y0088600D01*
X0182015Y0088321D01*
X0182133Y0088044D01*
X0182257Y0087771D01*
X0182389Y0087501D01*
X0182527Y0087234D01*
X0182671Y0086970D01*
X0182822Y0086710D01*
X0182979Y0086454D01*
X0183142Y0086202D01*
X0183312Y0085953D01*
X0183487Y0085709D01*
X0183669Y0085470D01*
X0183856Y0085235D01*
X0184049Y0085004D01*
X0184247Y0084778D01*
X0184451Y0084558D01*
X0184661Y0084342D01*
X0184875Y0084131D01*
X0185095Y0083926D01*
X0185319Y0083726D01*
X0185548Y0083532D01*
X0185782Y0083344D01*
X0186021Y0083161D01*
X0186264Y0082984D01*
X0186511Y0082813D01*
X0186762Y0082648D01*
X0187018Y0082489D01*
X0187277Y0082337D01*
X0187540Y0082191D01*
X0187806Y0082052D01*
X0188075Y0081919D01*
X0188348Y0081792D01*
X0188624Y0081673D01*
X0188902Y0081560D01*
X0189183Y0081454D01*
X0189467Y0081355D01*
X0189753Y0081263D01*
X0190042Y0081177D01*
X0190332Y0081099D01*
X0190624Y0081029D01*
X0190918Y0080965D01*
X0191213Y0080908D01*
X0191509Y0080859D01*
X0191807Y0080817D01*
X0192105Y0080782D01*
X0192405Y0080755D01*
X0192704Y0080734D01*
X0193005Y0080722D01*
X0193305Y0080716D01*
X0193606Y0080718D01*
X0193906Y0080727D01*
X0194206Y0080744D01*
X0194506Y0080768D01*
X0194805Y0080799D01*
X0195103Y0080838D01*
X0195400Y0080883D01*
X0195696Y0080936D01*
X0195990Y0080997D01*
X0196283Y0081064D01*
X0196574Y0081139D01*
X0196863Y0081221D01*
X0197151Y0081309D01*
X0197435Y0081405D01*
X0197718Y0081508D01*
X0197998Y0081617D01*
X0198275Y0081734D01*
X0198549Y0081857D01*
X0198820Y0081986D01*
X0199088Y0082123D01*
X0199352Y0082266D01*
X0199613Y0082415D01*
X0199870Y0082570D01*
X0200124Y0082732D01*
X0200373Y0082900D01*
X0200618Y0083074D01*
X0200859Y0083254D01*
X0201095Y0083440D01*
X0201326Y0083632D01*
X0201553Y0083829D01*
X0201775Y0084031D01*
X0201992Y0084239D01*
X0202204Y0084453D01*
X0202411Y0084671D01*
X0202612Y0084894D01*
X0202807Y0085123D01*
X0202997Y0085355D01*
X0203182Y0085593D01*
X0203106Y0085649D01*
X0202924Y0085414D01*
X0202735Y0085183D01*
X0202541Y0084956D01*
X0202341Y0084734D01*
X0202136Y0084518D01*
X0201926Y0084306D01*
X0201711Y0084100D01*
X0201491Y0083899D01*
X0201265Y0083703D01*
X0201036Y0083513D01*
X0200801Y0083329D01*
X0200562Y0083150D01*
X0200319Y0082977D01*
X0200072Y0082811D01*
X0199820Y0082650D01*
X0199565Y0082496D01*
X0199306Y0082348D01*
X0199044Y0082206D01*
X0198778Y0082071D01*
X0198509Y0081942D01*
X0198237Y0081820D01*
X0197962Y0081704D01*
X0197684Y0081595D01*
X0197404Y0081494D01*
X0197121Y0081399D01*
X0196836Y0081311D01*
X0196549Y0081230D01*
X0196261Y0081155D01*
X0195970Y0081089D01*
X0195678Y0081029D01*
X0195384Y0080976D01*
X0195089Y0080931D01*
X0194794Y0080892D01*
X0194497Y0080861D01*
X0194200Y0080838D01*
X0193902Y0080821D01*
X0193604Y0080812D01*
X0193306Y0080810D01*
X0193007Y0080816D01*
X0192709Y0080828D01*
X0192412Y0080848D01*
X0192115Y0080876D01*
X0191819Y0080910D01*
X0191523Y0080952D01*
X0191229Y0081001D01*
X0190936Y0081057D01*
X0190645Y0081120D01*
X0190355Y0081191D01*
X0190067Y0081268D01*
X0189781Y0081352D01*
X0189497Y0081444D01*
X0189215Y0081542D01*
X0188936Y0081647D01*
X0188660Y0081759D01*
X0188386Y0081878D01*
X0188116Y0082003D01*
X0187848Y0082135D01*
X0187584Y0082274D01*
X0187323Y0082419D01*
X0187066Y0082570D01*
X0186813Y0082727D01*
X0186564Y0082891D01*
X0186318Y0083061D01*
X0186077Y0083236D01*
X0185840Y0083418D01*
X0185608Y0083605D01*
X0185381Y0083797D01*
X0185158Y0083996D01*
X0184940Y0084199D01*
X0184727Y0084408D01*
X0184519Y0084622D01*
X0184317Y0084842D01*
X0184120Y0085065D01*
X0183929Y0085294D01*
X0183743Y0085528D01*
X0183563Y0085765D01*
X0183389Y0086007D01*
X0183221Y0086254D01*
X0183059Y0086504D01*
X0182903Y0086758D01*
X0182753Y0087016D01*
X0182610Y0087278D01*
X0182473Y0087543D01*
X0182342Y0087811D01*
X0182219Y0088082D01*
X0182102Y0088357D01*
X0181991Y0088634D01*
X0181888Y0088914D01*
X0181791Y0089196D01*
X0181701Y0089480D01*
X0181619Y0089767D01*
X0181543Y0090055D01*
X0181474Y0090345D01*
X0181413Y0090637D01*
X0181358Y0090930D01*
X0181311Y0091225D01*
X0181271Y0091520D01*
X0181238Y0091817D01*
X0181213Y0092114D01*
X0181195Y0092412D01*
X0181184Y0092710D01*
X0181180Y0093008D01*
X0181184Y0093306D01*
X0181195Y0093604D01*
X0181213Y0093902D01*
X0181238Y0094199D01*
X0181271Y0094496D01*
X0181311Y0094791D01*
X0181358Y0095086D01*
X0181413Y0095379D01*
X0181474Y0095671D01*
X0181543Y0095961D01*
X0181619Y0096249D01*
X0181701Y0096536D01*
X0181791Y0096820D01*
X0181888Y0097102D01*
X0181991Y0097382D01*
X0182102Y0097659D01*
X0182219Y0097934D01*
X0182342Y0098205D01*
X0182473Y0098473D01*
X0182610Y0098738D01*
X0182753Y0099000D01*
X0182903Y0099258D01*
X0183059Y0099512D01*
X0183221Y0099762D01*
X0183389Y0100009D01*
X0183563Y0100251D01*
X0183743Y0100488D01*
X0183929Y0100722D01*
X0184120Y0100951D01*
X0184317Y0101174D01*
X0184519Y0101394D01*
X0184727Y0101608D01*
X0184940Y0101817D01*
X0185158Y0102020D01*
X0185381Y0102219D01*
X0185608Y0102411D01*
X0185840Y0102598D01*
X0186077Y0102780D01*
X0186318Y0102955D01*
X0186564Y0103125D01*
X0186813Y0103289D01*
X0187066Y0103446D01*
X0187323Y0103597D01*
X0187584Y0103742D01*
X0187848Y0103881D01*
X0188116Y0104013D01*
X0188386Y0104138D01*
X0188660Y0104257D01*
X0188936Y0104369D01*
X0189215Y0104474D01*
X0189497Y0104572D01*
X0189781Y0104664D01*
X0190067Y0104748D01*
X0190355Y0104825D01*
X0190645Y0104896D01*
X0190936Y0104959D01*
X0191229Y0105015D01*
X0191523Y0105064D01*
X0191819Y0105106D01*
X0192115Y0105140D01*
X0192412Y0105168D01*
X0192709Y0105188D01*
X0193007Y0105200D01*
X0193306Y0105206D01*
X0193604Y0105204D01*
X0193902Y0105195D01*
X0194200Y0105178D01*
X0194497Y0105155D01*
X0194794Y0105124D01*
X0195089Y0105085D01*
X0195384Y0105040D01*
X0195678Y0104987D01*
X0195970Y0104927D01*
X0196261Y0104861D01*
X0196549Y0104786D01*
X0196836Y0104705D01*
X0197121Y0104617D01*
X0197404Y0104522D01*
X0197684Y0104421D01*
X0197962Y0104312D01*
X0198237Y0104196D01*
X0198509Y0104074D01*
X0198778Y0103945D01*
X0199044Y0103810D01*
X0199306Y0103668D01*
X0199565Y0103520D01*
X0199820Y0103366D01*
X0200072Y0103205D01*
X0200319Y0103039D01*
X0200562Y0102866D01*
X0200801Y0102687D01*
X0201036Y0102503D01*
X0201265Y0102313D01*
X0201491Y0102117D01*
X0201711Y0101916D01*
X0201926Y0101710D01*
X0202136Y0101498D01*
X0202341Y0101282D01*
X0202541Y0101060D01*
X0202735Y0100833D01*
X0202924Y0100602D01*
X0203106Y0100367D01*
X0203031Y0100310D01*
X0202850Y0100544D01*
X0202663Y0100773D01*
X0202470Y0100998D01*
X0202272Y0101218D01*
X0202069Y0101433D01*
X0201860Y0101643D01*
X0201646Y0101848D01*
X0201428Y0102047D01*
X0201204Y0102241D01*
X0200976Y0102430D01*
X0200744Y0102613D01*
X0200507Y0102790D01*
X0200265Y0102961D01*
X0200020Y0103127D01*
X0199771Y0103286D01*
X0199517Y0103439D01*
X0199261Y0103586D01*
X0199000Y0103727D01*
X0198736Y0103861D01*
X0198469Y0103989D01*
X0198199Y0104110D01*
X0197927Y0104225D01*
X0197651Y0104333D01*
X0197373Y0104434D01*
X0197092Y0104528D01*
X0196810Y0104615D01*
X0196525Y0104696D01*
X0196238Y0104769D01*
X0195950Y0104836D01*
X0195660Y0104895D01*
X0195368Y0104947D01*
X0195076Y0104992D01*
X0194782Y0105030D01*
X0194488Y0105061D01*
X0194193Y0105085D01*
X0193898Y0105101D01*
X0193602Y0105110D01*
X0193306Y0105112D01*
X0193010Y0105106D01*
X0192714Y0105094D01*
X0192419Y0105074D01*
X0192124Y0105047D01*
X0191830Y0105013D01*
X0191537Y0104971D01*
X0191245Y0104923D01*
X0190955Y0104867D01*
X0190666Y0104804D01*
X0190378Y0104734D01*
X0190092Y0104657D01*
X0189808Y0104574D01*
X0189527Y0104483D01*
X0189247Y0104385D01*
X0188970Y0104281D01*
X0188696Y0104170D01*
X0188425Y0104052D01*
X0188156Y0103928D01*
X0187891Y0103797D01*
X0187629Y0103659D01*
X0187370Y0103516D01*
X0187115Y0103366D01*
X0186863Y0103209D01*
X0186616Y0103047D01*
X0186373Y0102879D01*
X0186133Y0102704D01*
X0185898Y0102524D01*
X0185668Y0102339D01*
X0185442Y0102147D01*
X0185221Y0101951D01*
X0185005Y0101749D01*
X0184794Y0101541D01*
X0184588Y0101329D01*
X0184387Y0101111D01*
X0184191Y0100889D01*
X0184001Y0100662D01*
X0183817Y0100431D01*
X0183639Y0100195D01*
X0183466Y0099955D01*
X0183299Y0099710D01*
X0183138Y0099462D01*
X0182983Y0099209D01*
X0182835Y0098953D01*
X0182693Y0098694D01*
X0182557Y0098431D01*
X0182427Y0098165D01*
X0182305Y0097896D01*
X0182188Y0097623D01*
X0182079Y0097348D01*
X0181976Y0097071D01*
X0181880Y0096791D01*
X0181791Y0096509D01*
X0181709Y0096224D01*
X0181634Y0095938D01*
X0181566Y0095650D01*
X0181505Y0095361D01*
X0181451Y0095070D01*
X0181404Y0094777D01*
X0181364Y0094484D01*
X0181332Y0094190D01*
X0181307Y0093895D01*
X0181288Y0093600D01*
X0181278Y0093304D01*
X0181274Y0093008D01*
X0181278Y0092712D01*
X0181288Y0092416D01*
X0181307Y0092121D01*
X0181332Y0091826D01*
X0181364Y0091532D01*
X0181404Y0091239D01*
X0181451Y0090946D01*
X0181505Y0090655D01*
X0181566Y0090366D01*
X0181634Y0090078D01*
X0181709Y0089792D01*
X0181791Y0089507D01*
X0181880Y0089225D01*
X0181976Y0088945D01*
X0182079Y0088668D01*
X0182188Y0088393D01*
X0182305Y0088120D01*
X0182427Y0087851D01*
X0182557Y0087585D01*
X0182693Y0087322D01*
X0182835Y0087063D01*
X0182983Y0086807D01*
X0183138Y0086554D01*
X0183299Y0086306D01*
X0183466Y0086061D01*
X0183639Y0085821D01*
X0183817Y0085585D01*
X0184001Y0085354D01*
X0184191Y0085127D01*
X0184387Y0084905D01*
X0184588Y0084687D01*
X0184794Y0084475D01*
X0185005Y0084267D01*
X0185221Y0084065D01*
X0185442Y0083869D01*
X0185668Y0083677D01*
X0185898Y0083492D01*
X0186133Y0083312D01*
X0186373Y0083137D01*
X0186616Y0082969D01*
X0186863Y0082807D01*
X0187115Y0082650D01*
X0187370Y0082500D01*
X0187629Y0082357D01*
X0187891Y0082219D01*
X0188156Y0082088D01*
X0188425Y0081964D01*
X0188696Y0081846D01*
X0188970Y0081735D01*
X0189247Y0081631D01*
X0189527Y0081533D01*
X0189808Y0081442D01*
X0190092Y0081359D01*
X0190378Y0081282D01*
X0190666Y0081212D01*
X0190955Y0081149D01*
X0191245Y0081093D01*
X0191537Y0081045D01*
X0191830Y0081003D01*
X0192124Y0080969D01*
X0192419Y0080942D01*
X0192714Y0080922D01*
X0193010Y0080910D01*
X0193306Y0080904D01*
X0193602Y0080906D01*
X0193898Y0080915D01*
X0194193Y0080931D01*
X0194488Y0080955D01*
X0194782Y0080986D01*
X0195076Y0081024D01*
X0195368Y0081069D01*
X0195660Y0081121D01*
X0195950Y0081180D01*
X0196238Y0081247D01*
X0196525Y0081320D01*
X0196810Y0081401D01*
X0197092Y0081488D01*
X0197373Y0081582D01*
X0197651Y0081683D01*
X0197927Y0081791D01*
X0198199Y0081906D01*
X0198469Y0082027D01*
X0198736Y0082155D01*
X0199000Y0082289D01*
X0199261Y0082430D01*
X0199517Y0082577D01*
X0199771Y0082730D01*
X0200020Y0082889D01*
X0200265Y0083055D01*
X0200507Y0083226D01*
X0200744Y0083403D01*
X0200976Y0083586D01*
X0201204Y0083775D01*
X0201428Y0083969D01*
X0201646Y0084168D01*
X0201860Y0084373D01*
X0202069Y0084583D01*
X0202272Y0084798D01*
X0202470Y0085018D01*
X0202663Y0085243D01*
X0202850Y0085472D01*
X0203031Y0085706D01*
D18*
X0206150Y0085217D02*
X0206150Y0073406D01*
X0206150Y0070650D02*
X0245520Y0070650D01*
X0245520Y0087972D01*
X0245520Y0090335D01*
X0238433Y0090335D01*
X0238433Y0087972D01*
X0213236Y0087972D01*
X0213236Y0090335D01*
X0206150Y0090335D01*
X0206150Y0087972D01*
X0213236Y0087972D01*
X0206150Y0087972D02*
X0206150Y0070650D01*
X0238433Y0087972D02*
X0245520Y0087972D01*
D19*
X0203378Y0085508D02*
X0203378Y0100508D01*
X0203378Y0066008D02*
X0203378Y0051008D01*
X0203378Y0033008D02*
X0203378Y0018008D01*
X0295719Y0162463D02*
X0301857Y0162463D01*
X0304927Y0163998D02*
X0306461Y0162463D01*
X0309531Y0162463D01*
X0311065Y0163998D01*
X0311065Y0165532D01*
X0309531Y0167067D01*
X0306461Y0167067D01*
X0304927Y0168602D01*
X0304927Y0170136D01*
X0306461Y0171671D01*
X0309531Y0171671D01*
X0311065Y0170136D01*
X0314135Y0171671D02*
X0318739Y0171671D01*
X0320273Y0170136D01*
X0320273Y0167067D01*
X0318739Y0165532D01*
X0314135Y0165532D01*
X0314135Y0162463D02*
X0314135Y0171671D01*
X0323342Y0167067D02*
X0329481Y0167067D01*
X0332550Y0163998D02*
X0332550Y0170136D01*
X0334085Y0171671D01*
X0337154Y0171671D01*
X0338689Y0170136D01*
X0332550Y0163998D01*
X0334085Y0162463D01*
X0337154Y0162463D01*
X0338689Y0163998D01*
X0338689Y0170136D01*
X0341758Y0168602D02*
X0344827Y0171671D01*
X0344827Y0162463D01*
X0341758Y0162463D02*
X0347897Y0162463D01*
X0301857Y0171671D02*
X0295719Y0171671D01*
X0295719Y0162463D01*
X0295719Y0167067D02*
X0298788Y0167067D01*
M02*
