%
M48
M72
T01C0.02000
T02C0.02362
T03C0.03150
T04C0.03200
T05C0.03937
T06C0.04000
T07C0.04400
T08C0.07874
T09C0.10236
T10C0.12598
T11C0.12795
T12C0.13000
%
T01
X81978Y60508
X98778Y78908
X81178Y82108
X151378Y141008
X125978Y162108
X130378Y168008
X113878Y184508
X109378Y195008
X169378Y204008
X239878Y225008
X261978Y94908
X194778Y31708
X162778Y10108
T02
X176878Y40508
T03
X147035Y10000
X137035Y10000
X127035Y10000
X117035Y10000
X107035Y10000
X34890Y56181
X46701Y75079
X214024Y79311
X221898Y79311
X229772Y79311
X237646Y79311
X258925Y77421
X268925Y77421
X278925Y77421
X288925Y77421
X298925Y77421
X302819Y90813
X312819Y90813
X322819Y90813
X332819Y90813
X332819Y100813
X322819Y100813
X312819Y100813
X302819Y100813
X310972Y51004
X310972Y41004
X310972Y31004
X310972Y21004
T04
X198378Y25508
X188378Y25508
X188378Y58508
X198378Y58508
X198378Y93008
X188378Y93008
T05
X58512Y56181
T06
X57437Y28209
X57575Y19724
X67575Y19724
X67437Y28209
X77437Y28209
X77575Y19724
X87575Y19724
X97575Y19724
X97437Y28209
X87437Y28209
X107437Y28209
X107575Y19724
X117575Y19724
X117437Y28209
X127437Y28209
X127575Y19724
X137575Y19724
X137437Y28209
X147437Y28209
X147575Y19724
X157575Y19724
X167575Y19724
X167437Y28209
X157437Y28209
X157437Y88209
X167437Y88209
X167181Y96634
X157181Y96634
X147181Y96634
X147437Y88209
X137437Y88209
X137181Y96634
X127181Y96634
X127437Y88209
X117437Y88209
X117181Y96634
X107181Y96634
X107437Y88209
X97437Y88209
X87437Y88209
X87181Y96634
X77181Y96634
X77437Y88209
X67437Y88209
X67181Y96634
X57181Y96634
X57437Y88209
X47437Y88209
X47181Y96634
X37181Y96634
X37437Y88209
X27437Y88209
X27181Y96634
X97181Y96634
X47437Y28209
X47575Y19724
X37575Y19724
X37437Y28209
X27437Y28209
X27575Y19724
T07
X240520Y109429
X240520Y119429
X240520Y129429
X240520Y139429
X240520Y152283
X240520Y162283
X240520Y172283
X240520Y182283
X270520Y182283
X270520Y172283
X270520Y162283
X270520Y152283
X270520Y139429
X270520Y129429
X270520Y119429
X270520Y109429
X169142Y247953
X169142Y257953
X169142Y267953
T08
X217961Y229902
X40795Y120846
T09
X265224Y217618
X280972Y217618
X296720Y217618
X280972Y237303
X265224Y256988
X280972Y262500
X296720Y256988
T10
X13657Y13787
X18157Y266319
X335087Y266319
X335087Y18287
T11
X214516Y36004
T12
X100142Y257953
M30
